<?xml version="1.0" encoding="UTF-8"?>
<svg id="Layer_1" data-name="Layer 1" xmlns="http://www.w3.org/2000/svg" xmlns:xlink="http://www.w3.org/1999/xlink" viewBox="0 0 1080 1920">
  <defs>
    <style>
      .cls-1 {
        fill: none;
      }

      .cls-1, .cls-2, .cls-3 {
        stroke-width: 0px;
      }

      .cls-2 {
        fill: #77212c;
      }

      .cls-4 {
        clip-path: url(#clippath);
      }

      .cls-3 {
        fill: #52000b;
      }
    </style>
    <clipPath id="clippath">
      <rect class="cls-1" x="-420" y="420" width="1920" height="1080" transform="translate(-420 1500) rotate(-90)"/>
    </clipPath>
  </defs>
  <rect class="cls-3" x="0" y="0" width="1080" height="1920"/>
  <g class="cls-4">
    <g>
      <g>
        <path class="cls-2" d="m1094.45,1898.29l-8.87,19.57-19.57,8.87,8.87-19.57,19.57-8.87Zm-10.69,17.83l-7.13-7.13-7.13,14.17,14.26-7.04Z"/>
        <path class="cls-2" d="m1094.45,1841.43l-8.87,19.57-19.57,8.87,8.87-19.57,19.57-8.87Zm-10.69,17.83l-7.13-7.13-7.13,14.17,14.26-7.04Z"/>
        <path class="cls-2" d="m1094.45,1784.56l-8.87,19.57-19.57,8.87,8.87-19.57,19.57-8.87Zm-10.69,17.83l-7.13-7.13-7.13,14.17,14.26-7.04Z"/>
        <path class="cls-2" d="m1094.45,1727.7l-8.87,19.57-19.57,8.87,8.87-19.57,19.57-8.87Zm-10.69,17.83l-7.13-7.13-7.13,14.17,14.26-7.04Z"/>
        <path class="cls-2" d="m1094.45,1670.83l-8.87,19.57-19.57,8.87,8.87-19.57,19.57-8.87Zm-10.69,17.83l-7.13-7.13-7.13,14.17,14.26-7.04Z"/>
        <path class="cls-2" d="m1094.45,1613.96l-8.87,19.57-19.57,8.87,8.87-19.57,19.57-8.87Zm-10.69,17.83l-7.13-7.13-7.13,14.17,14.26-7.04Z"/>
        <path class="cls-2" d="m1094.45,1557.1l-8.87,19.57-19.57,8.87,8.87-19.57,19.57-8.87Zm-10.69,17.83l-7.13-7.13-7.13,14.17,14.26-7.04Z"/>
        <path class="cls-2" d="m1094.45,1500.23l-8.87,19.57-19.57,8.87,8.87-19.57,19.57-8.87Zm-10.69,17.83l-7.13-7.13-7.13,14.17,14.26-7.04Z"/>
        <path class="cls-2" d="m1094.45,1443.36l-8.87,19.57-19.57,8.87,8.87-19.57,19.57-8.87Zm-10.69,17.83l-7.13-7.13-7.13,14.17,14.26-7.04Z"/>
        <path class="cls-2" d="m1094.45,1386.5l-8.87,19.57-19.57,8.87,8.87-19.57,19.57-8.87Zm-10.69,17.83l-7.13-7.13-7.13,14.17,14.26-7.04Z"/>
        <path class="cls-2" d="m1094.45,1329.63l-8.87,19.57-19.57,8.87,8.87-19.57,19.57-8.87Zm-10.69,17.83l-7.13-7.13-7.13,14.17,14.26-7.04Z"/>
        <path class="cls-2" d="m1094.45,1272.77l-8.87,19.57-19.57,8.87,8.87-19.57,19.57-8.87Zm-10.69,17.83l-7.13-7.13-7.13,14.17,14.26-7.04Z"/>
        <path class="cls-2" d="m1094.45,1215.9l-8.87,19.57-19.57,8.87,8.87-19.57,19.57-8.87Zm-10.69,17.83l-7.13-7.13-7.13,14.17,14.26-7.04Z"/>
        <path class="cls-2" d="m1094.45,1159.03l-8.87,19.57-19.57,8.87,8.87-19.57,19.57-8.87Zm-10.69,17.83l-7.13-7.13-7.13,14.17,14.26-7.04Z"/>
        <path class="cls-2" d="m1094.45,1102.17l-8.87,19.57-19.57,8.87,8.87-19.57,19.57-8.87Zm-10.69,17.83l-7.13-7.13-7.13,14.17,14.26-7.04Z"/>
        <path class="cls-2" d="m1094.45,1045.3l-8.87,19.57-19.57,8.87,8.87-19.57,19.57-8.87Zm-10.69,17.83l-7.13-7.13-7.13,14.17,14.26-7.04Z"/>
        <path class="cls-2" d="m1094.45,988.43l-8.87,19.57-19.57,8.87,8.87-19.57,19.57-8.87Zm-10.69,17.83l-7.13-7.13-7.13,14.17,14.26-7.04Z"/>
        <path class="cls-2" d="m1037.58,1869.86l-8.87,19.57-19.57,8.87,8.87-19.57,19.57-8.87Zm-10.69,17.83l-7.13-7.13-7.13,14.17,14.26-7.04Z"/>
        <path class="cls-2" d="m1037.58,1813l-8.87,19.57-19.57,8.87,8.87-19.57,19.57-8.87Zm-10.69,17.83l-7.13-7.13-7.13,14.17,14.26-7.04Z"/>
        <path class="cls-2" d="m1037.58,1756.13l-8.87,19.57-19.57,8.87,8.87-19.57,19.57-8.87Zm-10.69,17.83l-7.13-7.13-7.13,14.17,14.26-7.04Z"/>
        <path class="cls-2" d="m1037.58,1699.26l-8.87,19.57-19.57,8.87,8.87-19.57,19.57-8.87Zm-10.69,17.83l-7.13-7.13-7.13,14.17,14.26-7.04Z"/>
        <path class="cls-2" d="m1037.58,1642.4l-8.87,19.57-19.57,8.87,8.87-19.57,19.57-8.87Zm-10.69,17.83l-7.13-7.13-7.13,14.17,14.26-7.04Z"/>
        <path class="cls-2" d="m1037.58,1585.53l-8.87,19.57-19.57,8.87,8.87-19.57,19.57-8.87Zm-10.69,17.83l-7.13-7.13-7.13,14.17,14.26-7.04Z"/>
        <path class="cls-2" d="m1037.58,1528.66l-8.87,19.57-19.57,8.87,8.87-19.57,19.57-8.87Zm-10.69,17.83l-7.13-7.13-7.13,14.17,14.26-7.04Z"/>
        <path class="cls-2" d="m1037.58,1471.8l-8.87,19.57-19.57,8.87,8.87-19.57,19.57-8.87Zm-10.69,17.83l-7.13-7.13-7.13,14.17,14.26-7.04Z"/>
        <path class="cls-2" d="m1037.58,1414.93l-8.87,19.57-19.57,8.87,8.87-19.57,19.57-8.87Zm-10.69,17.83l-7.13-7.13-7.13,14.17,14.26-7.04Z"/>
        <path class="cls-2" d="m1037.58,1358.06l-8.87,19.57-19.57,8.87,8.87-19.57,19.57-8.87Zm-10.69,17.83l-7.13-7.13-7.13,14.17,14.26-7.04Z"/>
        <path class="cls-2" d="m1037.58,1301.2l-8.87,19.57-19.57,8.87,8.87-19.57,19.57-8.87Zm-10.69,17.83l-7.13-7.13-7.13,14.17,14.26-7.04Z"/>
        <path class="cls-2" d="m1037.58,1244.33l-8.87,19.57-19.57,8.87,8.87-19.57,19.57-8.87Zm-10.69,17.83l-7.13-7.13-7.13,14.17,14.26-7.04Z"/>
        <path class="cls-2" d="m1037.58,1187.47l-8.87,19.57-19.57,8.87,8.87-19.57,19.57-8.87Zm-10.69,17.83l-7.13-7.13-7.13,14.17,14.26-7.04Z"/>
        <path class="cls-2" d="m1037.58,1130.6l-8.87,19.57-19.57,8.87,8.87-19.57,19.57-8.87Zm-10.69,17.83l-7.13-7.13-7.13,14.17,14.26-7.04Z"/>
        <path class="cls-2" d="m1037.58,1073.73l-8.87,19.57-19.57,8.87,8.87-19.57,19.57-8.87Zm-10.69,17.83l-7.13-7.13-7.13,14.17,14.26-7.04Z"/>
        <path class="cls-2" d="m1037.58,1016.87l-8.87,19.57-19.57,8.87,8.87-19.57,19.57-8.87Zm-10.69,17.83l-7.13-7.13-7.13,14.17,14.26-7.04Z"/>
        <path class="cls-2" d="m1037.58,960l-8.87,19.57-19.57,8.87,8.87-19.57,19.57-8.87Zm-10.69,17.83l-7.13-7.13-7.13,14.17,14.26-7.04Z"/>
        <path class="cls-2" d="m980.71,1898.29l-8.87,19.57-19.57,8.87,8.87-19.57,19.57-8.87Zm-10.69,17.83l-7.13-7.13-7.13,14.17,14.26-7.04Z"/>
        <path class="cls-2" d="m980.71,1841.43l-8.87,19.57-19.57,8.87,8.87-19.57,19.57-8.87Zm-10.69,17.83l-7.13-7.13-7.13,14.17,14.26-7.04Z"/>
        <path class="cls-2" d="m980.71,1784.56l-8.87,19.57-19.57,8.87,8.87-19.57,19.57-8.87Zm-10.69,17.83l-7.13-7.13-7.13,14.17,14.26-7.04Z"/>
        <path class="cls-2" d="m980.71,1727.7l-8.87,19.57-19.57,8.87,8.87-19.57,19.57-8.87Zm-10.69,17.83l-7.13-7.13-7.13,14.17,14.26-7.04Z"/>
        <path class="cls-2" d="m980.71,1670.83l-8.87,19.57-19.57,8.87,8.87-19.57,19.57-8.87Zm-10.69,17.83l-7.13-7.13-7.13,14.17,14.26-7.04Z"/>
        <path class="cls-2" d="m980.71,1613.96l-8.87,19.57-19.57,8.87,8.87-19.57,19.57-8.87Zm-10.69,17.83l-7.13-7.13-7.13,14.17,14.26-7.04Z"/>
        <path class="cls-2" d="m980.71,1557.1l-8.87,19.57-19.57,8.87,8.87-19.57,19.57-8.87Zm-10.69,17.83l-7.13-7.13-7.13,14.17,14.26-7.04Z"/>
        <path class="cls-2" d="m980.71,1500.23l-8.87,19.57-19.57,8.87,8.87-19.57,19.57-8.87Zm-10.69,17.83l-7.13-7.13-7.13,14.17,14.26-7.04Z"/>
        <path class="cls-2" d="m980.71,1443.36l-8.87,19.57-19.57,8.87,8.87-19.57,19.57-8.87Zm-10.69,17.83l-7.13-7.13-7.13,14.17,14.26-7.04Z"/>
        <path class="cls-2" d="m980.71,1386.5l-8.87,19.57-19.57,8.87,8.87-19.57,19.57-8.87Zm-10.69,17.83l-7.13-7.13-7.13,14.17,14.26-7.04Z"/>
        <path class="cls-2" d="m980.71,1329.63l-8.87,19.57-19.57,8.87,8.87-19.57,19.57-8.87Zm-10.69,17.83l-7.13-7.13-7.13,14.17,14.26-7.04Z"/>
        <path class="cls-2" d="m980.71,1272.77l-8.87,19.57-19.57,8.87,8.87-19.57,19.57-8.87Zm-10.69,17.83l-7.13-7.13-7.13,14.17,14.26-7.04Z"/>
        <path class="cls-2" d="m980.71,1215.9l-8.87,19.57-19.57,8.87,8.87-19.57,19.57-8.87Zm-10.69,17.83l-7.13-7.13-7.13,14.17,14.26-7.04Z"/>
        <path class="cls-2" d="m980.71,1159.03l-8.87,19.57-19.57,8.87,8.87-19.57,19.57-8.87Zm-10.69,17.83l-7.13-7.13-7.13,14.17,14.26-7.04Z"/>
        <path class="cls-2" d="m980.71,1102.17l-8.87,19.57-19.57,8.87,8.87-19.57,19.57-8.87Zm-10.69,17.83l-7.13-7.13-7.13,14.17,14.26-7.04Z"/>
        <path class="cls-2" d="m980.71,1045.3l-8.87,19.57-19.57,8.87,8.87-19.57,19.57-8.87Zm-10.69,17.83l-7.13-7.13-7.13,14.17,14.26-7.04Z"/>
        <path class="cls-2" d="m980.71,988.43l-8.87,19.57-19.57,8.87,8.87-19.57,19.57-8.87Zm-10.69,17.83l-7.13-7.13-7.13,14.17,14.26-7.04Z"/>
        <path class="cls-2" d="m923.85,1869.86l-8.87,19.57-19.57,8.87,8.87-19.57,19.57-8.87Zm-10.69,17.83l-7.13-7.13-7.13,14.17,14.26-7.04Z"/>
        <path class="cls-2" d="m923.85,1813l-8.87,19.57-19.57,8.87,8.87-19.57,19.57-8.87Zm-10.69,17.83l-7.13-7.13-7.13,14.17,14.26-7.04Z"/>
        <path class="cls-2" d="m923.85,1756.13l-8.87,19.57-19.57,8.87,8.87-19.57,19.57-8.87Zm-10.69,17.83l-7.13-7.13-7.13,14.17,14.26-7.04Z"/>
        <path class="cls-2" d="m923.85,1699.26l-8.87,19.57-19.57,8.87,8.87-19.57,19.57-8.87Zm-10.69,17.83l-7.13-7.13-7.13,14.17,14.26-7.04Z"/>
        <path class="cls-2" d="m923.85,1642.4l-8.87,19.57-19.57,8.87,8.87-19.57,19.57-8.87Zm-10.69,17.83l-7.13-7.13-7.13,14.17,14.26-7.04Z"/>
        <path class="cls-2" d="m923.85,1585.53l-8.87,19.57-19.57,8.87,8.87-19.57,19.57-8.87Zm-10.69,17.83l-7.13-7.13-7.13,14.17,14.26-7.04Z"/>
        <path class="cls-2" d="m923.85,1528.66l-8.87,19.57-19.57,8.87,8.87-19.57,19.57-8.87Zm-10.69,17.83l-7.13-7.13-7.13,14.17,14.26-7.04Z"/>
        <path class="cls-2" d="m923.85,1471.8l-8.87,19.57-19.57,8.87,8.87-19.57,19.57-8.87Zm-10.69,17.83l-7.13-7.13-7.13,14.17,14.26-7.04Z"/>
        <path class="cls-2" d="m923.85,1414.93l-8.87,19.57-19.57,8.87,8.87-19.57,19.57-8.87Zm-10.69,17.83l-7.13-7.13-7.13,14.17,14.26-7.04Z"/>
        <path class="cls-2" d="m923.85,1358.06l-8.87,19.57-19.57,8.87,8.87-19.57,19.57-8.87Zm-10.69,17.83l-7.13-7.13-7.13,14.17,14.26-7.04Z"/>
        <path class="cls-2" d="m923.85,1301.2l-8.87,19.57-19.57,8.87,8.87-19.57,19.57-8.87Zm-10.69,17.83l-7.13-7.13-7.13,14.17,14.26-7.04Z"/>
        <path class="cls-2" d="m923.85,1244.33l-8.87,19.57-19.57,8.87,8.87-19.57,19.57-8.87Zm-10.69,17.83l-7.13-7.13-7.13,14.17,14.26-7.04Z"/>
        <path class="cls-2" d="m923.85,1187.47l-8.87,19.57-19.57,8.87,8.87-19.57,19.57-8.87Zm-10.69,17.83l-7.13-7.13-7.13,14.17,14.26-7.04Z"/>
        <path class="cls-2" d="m923.85,1130.6l-8.87,19.57-19.57,8.87,8.87-19.57,19.57-8.87Zm-10.69,17.83l-7.13-7.13-7.13,14.17,14.26-7.04Z"/>
        <path class="cls-2" d="m923.85,1073.73l-8.87,19.57-19.57,8.87,8.87-19.57,19.57-8.87Zm-10.69,17.83l-7.13-7.13-7.13,14.17,14.26-7.04Z"/>
        <path class="cls-2" d="m923.85,1016.87l-8.87,19.57-19.57,8.87,8.87-19.57,19.57-8.87Zm-10.69,17.83l-7.13-7.13-7.13,14.17,14.26-7.04Z"/>
        <path class="cls-2" d="m923.85,960l-8.87,19.57-19.57,8.87,8.87-19.57,19.57-8.87Zm-10.69,17.83l-7.13-7.13-7.13,14.17,14.26-7.04Z"/>
        <path class="cls-2" d="m866.98,1898.29l-8.87,19.57-19.57,8.87,8.87-19.57,19.57-8.87Zm-10.69,17.83l-7.13-7.13-7.13,14.17,14.26-7.04Z"/>
        <path class="cls-2" d="m866.98,1841.43l-8.87,19.57-19.57,8.87,8.87-19.57,19.57-8.87Zm-10.69,17.83l-7.13-7.13-7.13,14.17,14.26-7.04Z"/>
        <path class="cls-2" d="m866.98,1784.56l-8.87,19.57-19.57,8.87,8.87-19.57,19.57-8.87Zm-10.69,17.83l-7.13-7.13-7.13,14.17,14.26-7.04Z"/>
        <path class="cls-2" d="m866.98,1727.7l-8.87,19.57-19.57,8.87,8.87-19.57,19.57-8.87Zm-10.69,17.83l-7.13-7.13-7.13,14.17,14.26-7.04Z"/>
        <path class="cls-2" d="m866.98,1670.83l-8.87,19.57-19.57,8.87,8.87-19.57,19.57-8.87Zm-10.69,17.83l-7.13-7.13-7.13,14.17,14.26-7.04Z"/>
        <path class="cls-2" d="m866.98,1613.96l-8.87,19.57-19.57,8.87,8.87-19.57,19.57-8.87Zm-10.69,17.83l-7.13-7.13-7.13,14.17,14.26-7.04Z"/>
        <path class="cls-2" d="m866.98,1557.1l-8.87,19.57-19.57,8.87,8.87-19.57,19.57-8.87Zm-10.69,17.83l-7.13-7.13-7.13,14.17,14.26-7.04Z"/>
        <path class="cls-2" d="m866.98,1500.23l-8.87,19.57-19.57,8.87,8.87-19.57,19.57-8.87Zm-10.69,17.83l-7.13-7.13-7.13,14.17,14.26-7.04Z"/>
        <path class="cls-2" d="m866.98,1443.36l-8.87,19.57-19.57,8.87,8.87-19.57,19.57-8.87Zm-10.69,17.83l-7.13-7.13-7.13,14.17,14.26-7.04Z"/>
        <path class="cls-2" d="m866.98,1386.5l-8.87,19.57-19.57,8.87,8.87-19.57,19.57-8.87Zm-10.69,17.83l-7.13-7.13-7.13,14.17,14.26-7.04Z"/>
        <path class="cls-2" d="m866.98,1329.63l-8.87,19.57-19.57,8.87,8.87-19.57,19.57-8.87Zm-10.69,17.83l-7.13-7.13-7.13,14.17,14.26-7.04Z"/>
        <path class="cls-2" d="m866.98,1272.77l-8.87,19.57-19.57,8.87,8.87-19.57,19.57-8.87Zm-10.69,17.83l-7.13-7.13-7.13,14.17,14.26-7.04Z"/>
        <path class="cls-2" d="m866.98,1215.9l-8.87,19.57-19.57,8.87,8.87-19.57,19.57-8.87Zm-10.69,17.83l-7.13-7.13-7.13,14.17,14.26-7.04Z"/>
        <path class="cls-2" d="m866.98,1159.03l-8.87,19.57-19.57,8.87,8.87-19.57,19.57-8.87Zm-10.69,17.83l-7.13-7.13-7.13,14.17,14.26-7.04Z"/>
        <path class="cls-2" d="m866.98,1102.17l-8.87,19.57-19.57,8.87,8.87-19.57,19.57-8.87Zm-10.69,17.83l-7.13-7.13-7.13,14.17,14.26-7.04Z"/>
        <path class="cls-2" d="m866.98,1045.3l-8.87,19.57-19.57,8.87,8.87-19.57,19.57-8.87Zm-10.69,17.83l-7.13-7.13-7.13,14.17,14.26-7.04Z"/>
        <path class="cls-2" d="m866.98,988.43l-8.87,19.57-19.57,8.87,8.87-19.57,19.57-8.87Zm-10.69,17.83l-7.13-7.13-7.13,14.17,14.26-7.04Z"/>
        <path class="cls-2" d="m810.12,1869.86l-8.87,19.57-19.57,8.87,8.87-19.57,19.57-8.87Zm-10.69,17.83l-7.13-7.13-7.13,14.17,14.26-7.04Z"/>
        <path class="cls-2" d="m810.12,1813l-8.87,19.57-19.57,8.87,8.87-19.57,19.57-8.87Zm-10.69,17.83l-7.13-7.13-7.13,14.17,14.26-7.04Z"/>
        <path class="cls-2" d="m810.12,1756.13l-8.87,19.57-19.57,8.87,8.87-19.57,19.57-8.87Zm-10.69,17.83l-7.13-7.13-7.13,14.17,14.26-7.04Z"/>
        <path class="cls-2" d="m810.12,1699.26l-8.87,19.57-19.57,8.87,8.87-19.57,19.57-8.87Zm-10.69,17.83l-7.13-7.13-7.13,14.17,14.26-7.04Z"/>
        <path class="cls-2" d="m810.12,1642.4l-8.87,19.57-19.57,8.87,8.87-19.57,19.57-8.87Zm-10.69,17.83l-7.13-7.13-7.13,14.17,14.26-7.04Z"/>
        <path class="cls-2" d="m810.12,1585.53l-8.87,19.57-19.57,8.87,8.87-19.57,19.57-8.87Zm-10.69,17.83l-7.13-7.13-7.13,14.17,14.26-7.04Z"/>
        <path class="cls-2" d="m810.12,1528.66l-8.87,19.57-19.57,8.87,8.87-19.57,19.57-8.87Zm-10.69,17.83l-7.13-7.13-7.13,14.17,14.26-7.04Z"/>
        <path class="cls-2" d="m810.12,1471.8l-8.87,19.57-19.57,8.87,8.87-19.57,19.57-8.87Zm-10.69,17.83l-7.13-7.13-7.13,14.17,14.26-7.04Z"/>
        <path class="cls-2" d="m810.12,1414.93l-8.87,19.57-19.57,8.87,8.87-19.57,19.57-8.87Zm-10.69,17.83l-7.13-7.13-7.13,14.17,14.26-7.04Z"/>
        <path class="cls-2" d="m810.12,1358.06l-8.87,19.57-19.57,8.87,8.87-19.57,19.57-8.87Zm-10.69,17.83l-7.13-7.13-7.13,14.17,14.26-7.04Z"/>
        <path class="cls-2" d="m810.12,1301.2l-8.87,19.57-19.57,8.87,8.87-19.57,19.57-8.87Zm-10.69,17.83l-7.13-7.13-7.13,14.17,14.26-7.04Z"/>
        <path class="cls-2" d="m810.12,1244.33l-8.87,19.57-19.57,8.87,8.87-19.57,19.57-8.87Zm-10.69,17.83l-7.13-7.13-7.13,14.17,14.26-7.04Z"/>
        <path class="cls-2" d="m810.12,1187.47l-8.87,19.57-19.57,8.87,8.87-19.57,19.57-8.87Zm-10.69,17.83l-7.13-7.13-7.13,14.17,14.26-7.04Z"/>
        <path class="cls-2" d="m810.12,1130.6l-8.87,19.57-19.57,8.87,8.87-19.57,19.57-8.87Zm-10.69,17.83l-7.13-7.13-7.13,14.17,14.26-7.04Z"/>
        <path class="cls-2" d="m810.12,1073.73l-8.87,19.57-19.57,8.87,8.87-19.57,19.57-8.87Zm-10.69,17.83l-7.13-7.13-7.13,14.17,14.26-7.04Z"/>
        <path class="cls-2" d="m810.12,1016.87l-8.87,19.57-19.57,8.87,8.87-19.57,19.57-8.87Zm-10.69,17.83l-7.13-7.13-7.13,14.17,14.26-7.04Z"/>
        <path class="cls-2" d="m810.12,960l-8.87,19.57-19.57,8.87,8.87-19.57,19.57-8.87Zm-10.69,17.83l-7.13-7.13-7.13,14.17,14.26-7.04Z"/>
        <path class="cls-2" d="m753.25,1898.29l-8.87,19.57-19.57,8.87,8.87-19.57,19.57-8.87Zm-10.69,17.83l-7.13-7.13-7.13,14.17,14.26-7.04Z"/>
        <path class="cls-2" d="m753.25,1841.43l-8.87,19.57-19.57,8.87,8.87-19.57,19.57-8.87Zm-10.69,17.83l-7.13-7.13-7.13,14.17,14.26-7.04Z"/>
        <path class="cls-2" d="m753.25,1784.56l-8.87,19.57-19.57,8.87,8.87-19.57,19.57-8.87Zm-10.69,17.83l-7.13-7.13-7.13,14.17,14.26-7.04Z"/>
        <path class="cls-2" d="m753.25,1727.7l-8.87,19.57-19.57,8.87,8.87-19.57,19.57-8.87Zm-10.69,17.83l-7.13-7.13-7.13,14.17,14.26-7.04Z"/>
        <path class="cls-2" d="m753.25,1670.83l-8.87,19.57-19.57,8.87,8.87-19.57,19.57-8.87Zm-10.69,17.83l-7.13-7.13-7.13,14.17,14.26-7.04Z"/>
        <path class="cls-2" d="m753.25,1613.96l-8.87,19.57-19.57,8.87,8.87-19.57,19.57-8.87Zm-10.69,17.83l-7.13-7.13-7.13,14.17,14.26-7.04Z"/>
        <path class="cls-2" d="m753.25,1557.1l-8.87,19.57-19.57,8.87,8.87-19.57,19.57-8.87Zm-10.69,17.83l-7.13-7.13-7.13,14.17,14.26-7.04Z"/>
        <path class="cls-2" d="m753.25,1500.23l-8.87,19.57-19.57,8.87,8.87-19.57,19.57-8.87Zm-10.69,17.83l-7.13-7.13-7.13,14.17,14.26-7.04Z"/>
        <path class="cls-2" d="m753.25,1443.36l-8.87,19.57-19.57,8.87,8.87-19.57,19.57-8.87Zm-10.69,17.83l-7.13-7.13-7.13,14.17,14.26-7.04Z"/>
        <path class="cls-2" d="m753.25,1386.5l-8.87,19.57-19.57,8.87,8.87-19.57,19.57-8.87Zm-10.69,17.83l-7.13-7.13-7.13,14.17,14.26-7.04Z"/>
        <path class="cls-2" d="m753.25,1329.63l-8.87,19.57-19.57,8.87,8.87-19.57,19.57-8.87Zm-10.69,17.83l-7.13-7.13-7.13,14.17,14.26-7.04Z"/>
        <path class="cls-2" d="m753.25,1272.77l-8.87,19.57-19.57,8.87,8.87-19.57,19.57-8.87Zm-10.69,17.83l-7.13-7.13-7.13,14.17,14.26-7.04Z"/>
        <path class="cls-2" d="m753.25,1215.9l-8.87,19.57-19.57,8.87,8.87-19.57,19.57-8.87Zm-10.69,17.83l-7.13-7.13-7.13,14.17,14.26-7.04Z"/>
        <path class="cls-2" d="m753.25,1159.03l-8.87,19.57-19.57,8.87,8.87-19.57,19.57-8.87Zm-10.69,17.83l-7.13-7.13-7.13,14.17,14.26-7.04Z"/>
        <path class="cls-2" d="m753.25,1102.17l-8.87,19.57-19.57,8.87,8.87-19.57,19.57-8.87Zm-10.69,17.83l-7.13-7.13-7.13,14.17,14.26-7.04Z"/>
        <path class="cls-2" d="m753.25,1045.3l-8.87,19.57-19.57,8.87,8.87-19.57,19.57-8.87Zm-10.69,17.83l-7.13-7.13-7.13,14.17,14.26-7.04Z"/>
        <path class="cls-2" d="m753.25,988.43l-8.87,19.57-19.57,8.87,8.87-19.57,19.57-8.87Zm-10.69,17.83l-7.13-7.13-7.13,14.17,14.26-7.04Z"/>
        <path class="cls-2" d="m696.38,1869.86l-8.87,19.57-19.57,8.87,8.87-19.57,19.57-8.87Zm-10.69,17.83l-7.13-7.13-7.13,14.17,14.26-7.04Z"/>
        <path class="cls-2" d="m696.38,1813l-8.87,19.57-19.57,8.87,8.87-19.57,19.57-8.87Zm-10.69,17.83l-7.13-7.13-7.13,14.17,14.26-7.04Z"/>
        <path class="cls-2" d="m696.38,1756.13l-8.87,19.57-19.57,8.87,8.87-19.57,19.57-8.87Zm-10.69,17.83l-7.13-7.13-7.13,14.17,14.26-7.04Z"/>
        <path class="cls-2" d="m696.38,1699.26l-8.87,19.57-19.57,8.87,8.87-19.57,19.57-8.87Zm-10.69,17.83l-7.13-7.13-7.13,14.17,14.26-7.04Z"/>
        <path class="cls-2" d="m696.38,1642.4l-8.87,19.57-19.57,8.87,8.87-19.57,19.57-8.87Zm-10.69,17.83l-7.13-7.13-7.13,14.17,14.26-7.04Z"/>
        <path class="cls-2" d="m696.38,1585.53l-8.87,19.57-19.57,8.87,8.87-19.57,19.57-8.87Zm-10.69,17.83l-7.13-7.13-7.13,14.17,14.26-7.04Z"/>
        <path class="cls-2" d="m696.38,1528.66l-8.87,19.57-19.57,8.87,8.87-19.57,19.57-8.87Zm-10.69,17.83l-7.13-7.13-7.13,14.17,14.26-7.04Z"/>
        <path class="cls-2" d="m696.38,1471.8l-8.87,19.57-19.57,8.87,8.87-19.57,19.57-8.87Zm-10.69,17.83l-7.13-7.13-7.13,14.17,14.26-7.04Z"/>
        <path class="cls-2" d="m696.38,1414.93l-8.87,19.57-19.57,8.87,8.87-19.57,19.57-8.87Zm-10.69,17.83l-7.13-7.13-7.13,14.17,14.26-7.04Z"/>
        <path class="cls-2" d="m696.38,1358.06l-8.87,19.57-19.57,8.87,8.87-19.57,19.57-8.87Zm-10.69,17.83l-7.13-7.13-7.13,14.17,14.26-7.04Z"/>
        <path class="cls-2" d="m696.38,1301.2l-8.87,19.57-19.57,8.87,8.87-19.57,19.57-8.87Zm-10.69,17.83l-7.13-7.13-7.13,14.17,14.26-7.04Z"/>
        <path class="cls-2" d="m696.38,1244.33l-8.87,19.57-19.57,8.87,8.87-19.57,19.57-8.87Zm-10.69,17.83l-7.13-7.13-7.13,14.17,14.26-7.04Z"/>
        <path class="cls-2" d="m696.38,1187.47l-8.87,19.57-19.57,8.87,8.87-19.57,19.57-8.87Zm-10.69,17.83l-7.13-7.13-7.13,14.17,14.26-7.04Z"/>
        <path class="cls-2" d="m696.38,1130.6l-8.87,19.57-19.57,8.87,8.87-19.57,19.57-8.87Zm-10.69,17.83l-7.13-7.13-7.13,14.17,14.26-7.04Z"/>
        <path class="cls-2" d="m696.38,1073.73l-8.87,19.57-19.57,8.87,8.87-19.57,19.57-8.87Zm-10.69,17.83l-7.13-7.13-7.13,14.17,14.26-7.04Z"/>
        <path class="cls-2" d="m696.38,1016.87l-8.87,19.57-19.57,8.87,8.87-19.57,19.57-8.87Zm-10.69,17.83l-7.13-7.13-7.13,14.17,14.26-7.04Z"/>
        <path class="cls-2" d="m696.38,960l-8.87,19.57-19.57,8.87,8.87-19.57,19.57-8.87Zm-10.69,17.83l-7.13-7.13-7.13,14.17,14.26-7.04Z"/>
        <path class="cls-2" d="m639.52,1898.29l-8.87,19.57-19.57,8.87,8.87-19.57,19.57-8.87Zm-10.69,17.83l-7.13-7.13-7.13,14.17,14.26-7.04Z"/>
        <path class="cls-2" d="m639.52,1841.43l-8.87,19.57-19.57,8.87,8.87-19.57,19.57-8.87Zm-10.69,17.83l-7.13-7.13-7.13,14.17,14.26-7.04Z"/>
        <path class="cls-2" d="m639.52,1784.56l-8.87,19.57-19.57,8.87,8.87-19.57,19.57-8.87Zm-10.69,17.83l-7.13-7.13-7.13,14.17,14.26-7.04Z"/>
        <path class="cls-2" d="m639.52,1727.7l-8.87,19.57-19.57,8.87,8.87-19.57,19.57-8.87Zm-10.69,17.83l-7.13-7.13-7.13,14.17,14.26-7.04Z"/>
        <path class="cls-2" d="m639.52,1670.83l-8.87,19.57-19.57,8.87,8.87-19.57,19.57-8.87Zm-10.69,17.83l-7.13-7.13-7.13,14.17,14.26-7.04Z"/>
        <path class="cls-2" d="m639.52,1613.96l-8.87,19.57-19.57,8.87,8.87-19.57,19.57-8.87Zm-10.69,17.83l-7.13-7.13-7.13,14.17,14.26-7.04Z"/>
        <path class="cls-2" d="m639.52,1557.1l-8.87,19.57-19.57,8.87,8.87-19.57,19.57-8.87Zm-10.69,17.83l-7.13-7.13-7.13,14.17,14.26-7.04Z"/>
        <path class="cls-2" d="m639.52,1500.23l-8.87,19.57-19.57,8.87,8.87-19.57,19.57-8.87Zm-10.69,17.83l-7.13-7.13-7.13,14.17,14.26-7.04Z"/>
        <path class="cls-2" d="m639.52,1443.36l-8.87,19.57-19.57,8.87,8.87-19.57,19.57-8.87Zm-10.69,17.83l-7.13-7.13-7.13,14.17,14.26-7.04Z"/>
        <path class="cls-2" d="m639.52,1386.5l-8.87,19.57-19.57,8.87,8.87-19.57,19.57-8.87Zm-10.69,17.83l-7.13-7.13-7.13,14.17,14.26-7.04Z"/>
        <path class="cls-2" d="m639.52,1329.63l-8.87,19.57-19.57,8.87,8.87-19.57,19.57-8.87Zm-10.69,17.83l-7.13-7.13-7.13,14.17,14.26-7.04Z"/>
        <path class="cls-2" d="m639.52,1272.77l-8.87,19.57-19.57,8.87,8.87-19.57,19.57-8.87Zm-10.69,17.83l-7.13-7.13-7.13,14.17,14.26-7.04Z"/>
        <path class="cls-2" d="m639.52,1215.9l-8.87,19.57-19.57,8.87,8.87-19.57,19.57-8.87Zm-10.69,17.83l-7.13-7.13-7.13,14.17,14.26-7.04Z"/>
        <path class="cls-2" d="m639.52,1159.03l-8.87,19.57-19.57,8.87,8.87-19.57,19.57-8.87Zm-10.69,17.83l-7.13-7.13-7.13,14.17,14.26-7.04Z"/>
        <path class="cls-2" d="m639.52,1102.17l-8.87,19.57-19.57,8.87,8.87-19.57,19.57-8.87Zm-10.69,17.83l-7.13-7.13-7.13,14.17,14.26-7.04Z"/>
        <path class="cls-2" d="m639.52,1045.3l-8.87,19.57-19.57,8.87,8.87-19.57,19.57-8.87Zm-10.69,17.83l-7.13-7.13-7.13,14.17,14.26-7.04Z"/>
        <path class="cls-2" d="m639.52,988.43l-8.87,19.57-19.57,8.87,8.87-19.57,19.57-8.87Zm-10.69,17.83l-7.13-7.13-7.13,14.17,14.26-7.04Z"/>
        <path class="cls-2" d="m582.65,1869.86l-8.87,19.57-19.57,8.87,8.87-19.57,19.57-8.87Zm-10.69,17.83l-7.13-7.13-7.13,14.17,14.26-7.04Z"/>
        <path class="cls-2" d="m582.65,1813l-8.87,19.57-19.57,8.87,8.87-19.57,19.57-8.87Zm-10.69,17.83l-7.13-7.13-7.13,14.17,14.26-7.04Z"/>
        <path class="cls-2" d="m582.65,1756.13l-8.87,19.57-19.57,8.87,8.87-19.57,19.57-8.87Zm-10.69,17.83l-7.13-7.13-7.13,14.17,14.26-7.04Z"/>
        <path class="cls-2" d="m582.65,1699.26l-8.87,19.57-19.57,8.87,8.87-19.57,19.57-8.87Zm-10.69,17.83l-7.13-7.13-7.13,14.17,14.26-7.04Z"/>
        <path class="cls-2" d="m582.65,1642.4l-8.87,19.57-19.57,8.87,8.87-19.57,19.57-8.87Zm-10.69,17.83l-7.13-7.13-7.13,14.17,14.26-7.04Z"/>
        <path class="cls-2" d="m582.65,1585.53l-8.87,19.57-19.57,8.87,8.87-19.57,19.57-8.87Zm-10.69,17.83l-7.13-7.13-7.13,14.17,14.26-7.04Z"/>
        <path class="cls-2" d="m582.65,1528.66l-8.87,19.57-19.57,8.87,8.87-19.57,19.57-8.87Zm-10.69,17.83l-7.13-7.13-7.13,14.17,14.26-7.04Z"/>
        <path class="cls-2" d="m582.65,1471.8l-8.87,19.57-19.57,8.87,8.87-19.57,19.57-8.87Zm-10.69,17.83l-7.13-7.13-7.13,14.17,14.26-7.04Z"/>
        <path class="cls-2" d="m582.65,1414.93l-8.87,19.57-19.57,8.87,8.87-19.57,19.57-8.87Zm-10.69,17.83l-7.13-7.13-7.13,14.17,14.26-7.04Z"/>
        <path class="cls-2" d="m582.65,1358.06l-8.87,19.57-19.57,8.87,8.87-19.57,19.57-8.87Zm-10.69,17.83l-7.13-7.13-7.13,14.17,14.26-7.04Z"/>
        <path class="cls-2" d="m582.65,1301.2l-8.87,19.57-19.57,8.87,8.87-19.57,19.57-8.87Zm-10.69,17.83l-7.13-7.13-7.13,14.17,14.26-7.04Z"/>
        <path class="cls-2" d="m582.65,1244.33l-8.87,19.57-19.57,8.87,8.87-19.57,19.57-8.87Zm-10.69,17.83l-7.13-7.13-7.13,14.17,14.26-7.04Z"/>
        <path class="cls-2" d="m582.65,1187.47l-8.87,19.57-19.57,8.87,8.87-19.57,19.57-8.87Zm-10.69,17.83l-7.13-7.13-7.13,14.17,14.26-7.04Z"/>
        <path class="cls-2" d="m582.65,1130.6l-8.87,19.57-19.57,8.87,8.87-19.57,19.57-8.87Zm-10.69,17.83l-7.13-7.13-7.13,14.17,14.26-7.04Z"/>
        <path class="cls-2" d="m582.65,1073.73l-8.87,19.57-19.57,8.87,8.87-19.57,19.57-8.87Zm-10.69,17.83l-7.13-7.13-7.13,14.17,14.26-7.04Z"/>
        <path class="cls-2" d="m582.65,1016.87l-8.87,19.57-19.57,8.87,8.87-19.57,19.57-8.87Zm-10.69,17.83l-7.13-7.13-7.13,14.17,14.26-7.04Z"/>
        <path class="cls-2" d="m582.65,960l-8.87,19.57-19.57,8.87,8.87-19.57,19.57-8.87Zm-10.69,17.83l-7.13-7.13-7.13,14.17,14.26-7.04Z"/>
      </g>
      <g>
        <path class="cls-2" d="m1094.45,931.57l-8.87,19.57-19.57,8.87,8.87-19.57,19.57-8.87Zm-10.69,17.83l-7.13-7.13-7.13,14.17,14.26-7.04Z"/>
        <path class="cls-2" d="m1094.45,874.7l-8.87,19.57-19.57,8.87,8.87-19.57,19.57-8.87Zm-10.69,17.83l-7.13-7.13-7.13,14.17,14.26-7.04Z"/>
        <path class="cls-2" d="m1094.45,817.83l-8.87,19.57-19.57,8.87,8.87-19.57,19.57-8.87Zm-10.69,17.83l-7.13-7.13-7.13,14.17,14.26-7.04Z"/>
        <path class="cls-2" d="m1094.45,760.97l-8.87,19.57-19.57,8.87,8.87-19.57,19.57-8.87Zm-10.69,17.83l-7.13-7.13-7.13,14.17,14.26-7.04Z"/>
        <path class="cls-2" d="m1094.45,704.1l-8.87,19.57-19.57,8.87,8.87-19.57,19.57-8.87Zm-10.69,17.83l-7.13-7.13-7.13,14.17,14.26-7.04Z"/>
        <path class="cls-2" d="m1094.45,647.24l-8.87,19.57-19.57,8.87,8.87-19.57,19.57-8.87Zm-10.69,17.83l-7.13-7.13-7.13,14.17,14.26-7.04Z"/>
        <path class="cls-2" d="m1094.45,590.37l-8.87,19.57-19.57,8.87,8.87-19.57,19.57-8.87Zm-10.69,17.83l-7.13-7.13-7.13,14.17,14.26-7.04Z"/>
        <path class="cls-2" d="m1094.45,533.5l-8.87,19.57-19.57,8.87,8.87-19.57,19.57-8.87Zm-10.69,17.83l-7.13-7.13-7.13,14.17,14.26-7.04Z"/>
        <path class="cls-2" d="m1094.45,476.64l-8.87,19.57-19.57,8.87,8.87-19.57,19.57-8.87Zm-10.69,17.83l-7.13-7.13-7.13,14.17,14.26-7.04Z"/>
        <path class="cls-2" d="m1094.45,419.77l-8.87,19.57-19.57,8.87,8.87-19.57,19.57-8.87Zm-10.69,17.83l-7.13-7.13-7.13,14.17,14.26-7.04Z"/>
        <path class="cls-2" d="m1094.45,362.9l-8.87,19.57-19.57,8.87,8.87-19.57,19.57-8.87Zm-10.69,17.83l-7.13-7.13-7.13,14.17,14.26-7.04Z"/>
        <path class="cls-2" d="m1094.45,306.04l-8.87,19.57-19.57,8.87,8.87-19.57,19.57-8.87Zm-10.69,17.83l-7.13-7.13-7.13,14.17,14.26-7.04Z"/>
        <path class="cls-2" d="m1094.45,249.17l-8.87,19.57-19.57,8.87,8.87-19.57,19.57-8.87Zm-10.69,17.83l-7.13-7.13-7.13,14.17,14.26-7.04Z"/>
        <path class="cls-2" d="m1094.45,192.3l-8.87,19.57-19.57,8.87,8.87-19.57,19.57-8.87Zm-10.69,17.83l-7.13-7.13-7.13,14.17,14.26-7.04Z"/>
        <path class="cls-2" d="m1094.45,135.44l-8.87,19.57-19.57,8.87,8.87-19.57,19.57-8.87Zm-10.69,17.83l-7.13-7.13-7.13,14.17,14.26-7.04Z"/>
        <path class="cls-2" d="m1094.45,78.57l-8.87,19.57-19.57,8.87,8.87-19.57,19.57-8.87Zm-10.69,17.83l-7.13-7.13-7.13,14.17,14.26-7.04Z"/>
        <path class="cls-2" d="m1094.45,21.71l-8.87,19.57-19.57,8.87,8.87-19.57,19.57-8.87Zm-10.69,17.83l-7.13-7.13-7.13,14.17,14.26-7.04Z"/>
        <path class="cls-2" d="m1037.58,903.13l-8.87,19.57-19.57,8.87,8.87-19.57,19.57-8.87Zm-10.69,17.83l-7.13-7.13-7.13,14.17,14.26-7.04Z"/>
        <path class="cls-2" d="m1037.58,846.27l-8.87,19.57-19.57,8.87,8.87-19.57,19.57-8.87Zm-10.69,17.83l-7.13-7.13-7.13,14.17,14.26-7.04Z"/>
        <path class="cls-2" d="m1037.58,789.4l-8.87,19.57-19.57,8.87,8.87-19.57,19.57-8.87Zm-10.69,17.83l-7.13-7.13-7.13,14.17,14.26-7.04Z"/>
        <path class="cls-2" d="m1037.58,732.53l-8.87,19.57-19.57,8.87,8.87-19.57,19.57-8.87Zm-10.69,17.83l-7.13-7.13-7.13,14.17,14.26-7.04Z"/>
        <path class="cls-2" d="m1037.58,675.67l-8.87,19.57-19.57,8.87,8.87-19.57,19.57-8.87Zm-10.69,17.83l-7.13-7.13-7.13,14.17,14.26-7.04Z"/>
        <path class="cls-2" d="m1037.58,618.8l-8.87,19.57-19.57,8.87,8.87-19.57,19.57-8.87Zm-10.69,17.83l-7.13-7.13-7.13,14.17,14.26-7.04Z"/>
        <path class="cls-2" d="m1037.58,561.94l-8.87,19.57-19.57,8.87,8.87-19.57,19.57-8.87Zm-10.69,17.83l-7.13-7.13-7.13,14.17,14.26-7.04Z"/>
        <path class="cls-2" d="m1037.58,505.07l-8.87,19.57-19.57,8.87,8.87-19.57,19.57-8.87Zm-10.69,17.83l-7.13-7.13-7.13,14.17,14.26-7.04Z"/>
        <path class="cls-2" d="m1037.58,448.2l-8.87,19.57-19.57,8.87,8.87-19.57,19.57-8.87Zm-10.69,17.83l-7.13-7.13-7.13,14.17,14.26-7.04Z"/>
        <path class="cls-2" d="m1037.58,391.34l-8.87,19.57-19.57,8.87,8.87-19.57,19.57-8.87Zm-10.69,17.83l-7.13-7.13-7.13,14.17,14.26-7.04Z"/>
        <path class="cls-2" d="m1037.58,334.47l-8.87,19.57-19.57,8.87,8.87-19.57,19.57-8.87Zm-10.69,17.83l-7.13-7.13-7.13,14.17,14.26-7.04Z"/>
        <path class="cls-2" d="m1037.58,277.6l-8.87,19.57-19.57,8.87,8.87-19.57,19.57-8.87Zm-10.69,17.83l-7.13-7.13-7.13,14.17,14.26-7.04Z"/>
        <path class="cls-2" d="m1037.58,220.74l-8.87,19.57-19.57,8.87,8.87-19.57,19.57-8.87Zm-10.69,17.83l-7.13-7.13-7.13,14.17,14.26-7.04Z"/>
        <path class="cls-2" d="m1037.58,163.87l-8.87,19.57-19.57,8.87,8.87-19.57,19.57-8.87Zm-10.69,17.83l-7.13-7.13-7.13,14.17,14.26-7.04Z"/>
        <path class="cls-2" d="m1037.58,107.01l-8.87,19.57-19.57,8.87,8.87-19.57,19.57-8.87Zm-10.69,17.83l-7.13-7.13-7.13,14.17,14.26-7.04Z"/>
        <path class="cls-2" d="m1037.58,50.14l-8.87,19.57-19.57,8.87,8.87-19.57,19.57-8.87Zm-10.69,17.83l-7.13-7.13-7.13,14.17,14.26-7.04Z"/>
        <path class="cls-2" d="m1037.58-6.73l-8.87,19.57-19.57,8.87,8.87-19.57,19.57-8.87Zm-10.69,17.83l-7.13-7.13-7.13,14.17,14.26-7.04Z"/>
        <path class="cls-2" d="m980.71,931.57l-8.87,19.57-19.57,8.87,8.87-19.57,19.57-8.87Zm-10.69,17.83l-7.13-7.13-7.13,14.17,14.26-7.04Z"/>
        <path class="cls-2" d="m980.71,874.7l-8.87,19.57-19.57,8.87,8.87-19.57,19.57-8.87Zm-10.69,17.83l-7.13-7.13-7.13,14.17,14.26-7.04Z"/>
        <path class="cls-2" d="m980.71,817.83l-8.87,19.57-19.57,8.87,8.87-19.57,19.57-8.87Zm-10.69,17.83l-7.13-7.13-7.13,14.17,14.26-7.04Z"/>
        <path class="cls-2" d="m980.71,760.97l-8.87,19.57-19.57,8.87,8.87-19.57,19.57-8.87Zm-10.69,17.83l-7.13-7.13-7.13,14.17,14.26-7.04Z"/>
        <path class="cls-2" d="m980.71,704.1l-8.87,19.57-19.57,8.87,8.87-19.57,19.57-8.87Zm-10.69,17.83l-7.13-7.13-7.13,14.17,14.26-7.04Z"/>
        <path class="cls-2" d="m980.71,647.24l-8.87,19.57-19.57,8.87,8.87-19.57,19.57-8.87Zm-10.69,17.83l-7.13-7.13-7.13,14.17,14.26-7.04Z"/>
        <path class="cls-2" d="m980.71,590.37l-8.87,19.57-19.57,8.87,8.87-19.57,19.57-8.87Zm-10.69,17.83l-7.13-7.13-7.13,14.17,14.26-7.04Z"/>
        <path class="cls-2" d="m980.71,533.5l-8.87,19.57-19.57,8.87,8.87-19.57,19.57-8.87Zm-10.69,17.83l-7.13-7.13-7.13,14.17,14.26-7.04Z"/>
        <path class="cls-2" d="m980.71,476.64l-8.87,19.57-19.57,8.87,8.87-19.57,19.57-8.87Zm-10.69,17.83l-7.13-7.13-7.13,14.17,14.26-7.04Z"/>
        <path class="cls-2" d="m980.71,419.77l-8.87,19.57-19.57,8.87,8.87-19.57,19.57-8.87Zm-10.69,17.83l-7.13-7.13-7.13,14.17,14.26-7.04Z"/>
        <path class="cls-2" d="m980.71,362.9l-8.87,19.57-19.57,8.87,8.87-19.57,19.57-8.87Zm-10.69,17.83l-7.13-7.13-7.13,14.17,14.26-7.04Z"/>
        <path class="cls-2" d="m980.71,306.04l-8.87,19.57-19.57,8.87,8.87-19.57,19.57-8.87Zm-10.69,17.83l-7.13-7.13-7.13,14.17,14.26-7.04Z"/>
        <path class="cls-2" d="m980.71,249.17l-8.87,19.57-19.57,8.87,8.87-19.57,19.57-8.87Zm-10.69,17.83l-7.13-7.13-7.13,14.17,14.26-7.04Z"/>
        <path class="cls-2" d="m980.71,192.3l-8.87,19.57-19.57,8.87,8.87-19.57,19.57-8.87Zm-10.69,17.83l-7.13-7.13-7.13,14.17,14.26-7.04Z"/>
        <path class="cls-2" d="m980.71,135.44l-8.87,19.57-19.57,8.87,8.87-19.57,19.57-8.87Zm-10.69,17.83l-7.13-7.13-7.13,14.17,14.26-7.04Z"/>
        <path class="cls-2" d="m980.71,78.57l-8.87,19.57-19.57,8.87,8.87-19.57,19.57-8.87Zm-10.69,17.83l-7.13-7.13-7.13,14.17,14.26-7.04Z"/>
        <path class="cls-2" d="m980.71,21.71l-8.87,19.57-19.57,8.87,8.87-19.57,19.57-8.87Zm-10.69,17.83l-7.13-7.13-7.13,14.17,14.26-7.04Z"/>
        <path class="cls-2" d="m923.85,903.13l-8.87,19.57-19.57,8.87,8.87-19.57,19.57-8.87Zm-10.69,17.83l-7.13-7.13-7.13,14.17,14.26-7.04Z"/>
        <path class="cls-2" d="m923.85,846.27l-8.87,19.57-19.57,8.87,8.87-19.57,19.57-8.87Zm-10.69,17.83l-7.13-7.13-7.13,14.17,14.26-7.04Z"/>
        <path class="cls-2" d="m923.85,789.4l-8.87,19.57-19.57,8.87,8.87-19.57,19.57-8.87Zm-10.69,17.83l-7.13-7.13-7.13,14.17,14.26-7.04Z"/>
        <path class="cls-2" d="m923.85,732.53l-8.87,19.57-19.57,8.87,8.87-19.57,19.57-8.87Zm-10.69,17.83l-7.13-7.13-7.13,14.17,14.26-7.04Z"/>
        <path class="cls-2" d="m923.85,675.67l-8.87,19.57-19.57,8.87,8.87-19.57,19.57-8.87Zm-10.69,17.83l-7.13-7.13-7.13,14.17,14.26-7.04Z"/>
        <path class="cls-2" d="m923.85,618.8l-8.87,19.57-19.57,8.87,8.87-19.57,19.57-8.87Zm-10.69,17.83l-7.13-7.13-7.13,14.17,14.26-7.04Z"/>
        <path class="cls-2" d="m923.85,561.94l-8.87,19.57-19.57,8.87,8.87-19.57,19.57-8.87Zm-10.69,17.83l-7.13-7.13-7.13,14.17,14.26-7.04Z"/>
        <path class="cls-2" d="m923.85,505.07l-8.87,19.57-19.57,8.87,8.87-19.57,19.57-8.87Zm-10.69,17.83l-7.13-7.13-7.13,14.17,14.26-7.04Z"/>
        <path class="cls-2" d="m923.85,448.2l-8.87,19.57-19.57,8.87,8.87-19.57,19.57-8.87Zm-10.69,17.83l-7.13-7.13-7.13,14.17,14.26-7.04Z"/>
        <path class="cls-2" d="m923.85,391.34l-8.87,19.57-19.57,8.87,8.87-19.57,19.57-8.87Zm-10.69,17.83l-7.13-7.13-7.13,14.17,14.26-7.04Z"/>
        <path class="cls-2" d="m923.85,334.47l-8.87,19.57-19.57,8.87,8.87-19.57,19.57-8.87Zm-10.69,17.83l-7.13-7.13-7.13,14.17,14.26-7.04Z"/>
        <path class="cls-2" d="m923.85,277.6l-8.87,19.57-19.57,8.87,8.87-19.57,19.57-8.87Zm-10.69,17.83l-7.13-7.13-7.13,14.17,14.26-7.04Z"/>
        <path class="cls-2" d="m923.85,220.74l-8.87,19.57-19.57,8.87,8.87-19.57,19.57-8.87Zm-10.69,17.83l-7.13-7.13-7.13,14.17,14.26-7.04Z"/>
        <path class="cls-2" d="m923.85,163.87l-8.87,19.57-19.57,8.87,8.87-19.57,19.57-8.87Zm-10.69,17.83l-7.13-7.13-7.13,14.17,14.26-7.04Z"/>
        <path class="cls-2" d="m923.85,107.01l-8.87,19.57-19.57,8.87,8.87-19.57,19.57-8.87Zm-10.69,17.83l-7.13-7.13-7.13,14.17,14.26-7.04Z"/>
        <path class="cls-2" d="m923.85,50.14l-8.87,19.57-19.57,8.87,8.87-19.57,19.57-8.87Zm-10.69,17.83l-7.13-7.13-7.13,14.17,14.26-7.04Z"/>
        <path class="cls-2" d="m923.85-6.73l-8.87,19.57-19.57,8.87,8.87-19.57,19.57-8.87Zm-10.69,17.83l-7.13-7.13-7.13,14.17,14.26-7.04Z"/>
        <path class="cls-2" d="m866.98,931.57l-8.87,19.57-19.57,8.87,8.87-19.57,19.57-8.87Zm-10.69,17.83l-7.13-7.13-7.13,14.17,14.26-7.04Z"/>
        <path class="cls-2" d="m866.98,874.7l-8.87,19.57-19.57,8.87,8.87-19.57,19.57-8.87Zm-10.69,17.83l-7.13-7.13-7.13,14.17,14.26-7.04Z"/>
        <path class="cls-2" d="m866.98,817.83l-8.87,19.57-19.57,8.87,8.87-19.57,19.57-8.87Zm-10.69,17.83l-7.13-7.13-7.13,14.17,14.26-7.04Z"/>
        <path class="cls-2" d="m866.98,760.97l-8.87,19.57-19.57,8.87,8.87-19.57,19.57-8.87Zm-10.69,17.83l-7.13-7.13-7.13,14.17,14.26-7.04Z"/>
        <path class="cls-2" d="m866.98,704.1l-8.87,19.57-19.57,8.87,8.87-19.57,19.57-8.87Zm-10.69,17.83l-7.13-7.13-7.13,14.17,14.26-7.04Z"/>
        <path class="cls-2" d="m866.98,647.24l-8.87,19.57-19.57,8.87,8.87-19.57,19.57-8.87Zm-10.69,17.83l-7.13-7.13-7.13,14.17,14.26-7.04Z"/>
        <path class="cls-2" d="m866.98,590.37l-8.87,19.57-19.57,8.87,8.87-19.57,19.57-8.87Zm-10.69,17.83l-7.13-7.13-7.13,14.17,14.26-7.04Z"/>
        <path class="cls-2" d="m866.98,533.5l-8.87,19.57-19.57,8.87,8.87-19.57,19.57-8.87Zm-10.69,17.83l-7.13-7.13-7.13,14.17,14.26-7.04Z"/>
        <path class="cls-2" d="m866.98,476.64l-8.87,19.57-19.57,8.87,8.87-19.57,19.57-8.87Zm-10.69,17.83l-7.13-7.13-7.13,14.17,14.26-7.04Z"/>
        <path class="cls-2" d="m866.98,419.77l-8.87,19.57-19.57,8.87,8.87-19.57,19.57-8.87Zm-10.69,17.83l-7.13-7.13-7.13,14.17,14.26-7.04Z"/>
        <path class="cls-2" d="m866.98,362.9l-8.87,19.57-19.57,8.87,8.87-19.57,19.57-8.87Zm-10.69,17.83l-7.13-7.13-7.13,14.17,14.26-7.04Z"/>
        <path class="cls-2" d="m866.98,306.04l-8.87,19.57-19.57,8.87,8.87-19.57,19.57-8.87Zm-10.69,17.83l-7.13-7.13-7.13,14.17,14.26-7.04Z"/>
        <path class="cls-2" d="m866.98,249.17l-8.87,19.57-19.57,8.87,8.87-19.57,19.57-8.87Zm-10.69,17.83l-7.13-7.13-7.13,14.17,14.26-7.04Z"/>
        <path class="cls-2" d="m866.98,192.3l-8.87,19.57-19.57,8.87,8.87-19.57,19.57-8.87Zm-10.69,17.83l-7.13-7.13-7.13,14.17,14.26-7.04Z"/>
        <path class="cls-2" d="m866.98,135.44l-8.87,19.57-19.57,8.87,8.87-19.57,19.57-8.87Zm-10.69,17.83l-7.13-7.13-7.13,14.17,14.26-7.04Z"/>
        <path class="cls-2" d="m866.98,78.57l-8.87,19.57-19.57,8.87,8.87-19.57,19.57-8.87Zm-10.69,17.83l-7.13-7.13-7.13,14.17,14.26-7.04Z"/>
        <path class="cls-2" d="m866.98,21.71l-8.87,19.57-19.57,8.87,8.87-19.57,19.57-8.87Zm-10.69,17.83l-7.13-7.13-7.13,14.17,14.26-7.04Z"/>
        <path class="cls-2" d="m810.12,903.13l-8.87,19.57-19.57,8.87,8.87-19.57,19.57-8.87Zm-10.69,17.83l-7.13-7.13-7.13,14.17,14.26-7.04Z"/>
        <path class="cls-2" d="m810.12,846.27l-8.87,19.57-19.57,8.87,8.87-19.57,19.57-8.87Zm-10.69,17.83l-7.13-7.13-7.13,14.17,14.26-7.04Z"/>
        <path class="cls-2" d="m810.12,789.4l-8.87,19.57-19.57,8.87,8.87-19.57,19.57-8.87Zm-10.69,17.83l-7.13-7.13-7.13,14.17,14.26-7.04Z"/>
        <path class="cls-2" d="m810.12,732.53l-8.87,19.57-19.57,8.87,8.87-19.57,19.57-8.87Zm-10.69,17.83l-7.13-7.13-7.13,14.17,14.26-7.04Z"/>
        <path class="cls-2" d="m810.12,675.67l-8.87,19.57-19.57,8.87,8.87-19.57,19.57-8.87Zm-10.69,17.83l-7.13-7.13-7.13,14.17,14.26-7.04Z"/>
        <path class="cls-2" d="m810.12,618.8l-8.87,19.57-19.57,8.87,8.87-19.57,19.57-8.87Zm-10.69,17.83l-7.13-7.13-7.13,14.17,14.26-7.04Z"/>
        <path class="cls-2" d="m810.12,561.94l-8.87,19.57-19.57,8.87,8.87-19.57,19.57-8.87Zm-10.69,17.83l-7.13-7.13-7.13,14.17,14.26-7.04Z"/>
        <path class="cls-2" d="m810.12,505.07l-8.87,19.57-19.57,8.87,8.87-19.57,19.57-8.87Zm-10.69,17.83l-7.13-7.13-7.13,14.17,14.26-7.04Z"/>
        <path class="cls-2" d="m810.12,448.2l-8.87,19.57-19.57,8.87,8.87-19.57,19.57-8.87Zm-10.69,17.83l-7.13-7.13-7.13,14.17,14.26-7.04Z"/>
        <path class="cls-2" d="m810.12,391.34l-8.87,19.57-19.57,8.87,8.87-19.57,19.57-8.87Zm-10.69,17.83l-7.13-7.13-7.13,14.17,14.26-7.04Z"/>
        <path class="cls-2" d="m810.12,334.47l-8.87,19.57-19.57,8.87,8.87-19.57,19.57-8.87Zm-10.69,17.83l-7.13-7.13-7.13,14.17,14.26-7.04Z"/>
        <path class="cls-2" d="m810.12,277.6l-8.87,19.57-19.57,8.87,8.87-19.57,19.57-8.87Zm-10.69,17.83l-7.13-7.13-7.13,14.17,14.26-7.04Z"/>
        <path class="cls-2" d="m810.12,220.74l-8.87,19.57-19.57,8.87,8.87-19.57,19.57-8.87Zm-10.69,17.83l-7.13-7.13-7.13,14.17,14.26-7.04Z"/>
        <path class="cls-2" d="m810.12,163.87l-8.87,19.57-19.57,8.87,8.87-19.57,19.57-8.87Zm-10.69,17.83l-7.13-7.13-7.13,14.17,14.26-7.04Z"/>
        <path class="cls-2" d="m810.12,107.01l-8.87,19.57-19.57,8.87,8.87-19.57,19.57-8.87Zm-10.69,17.83l-7.13-7.13-7.13,14.17,14.26-7.04Z"/>
        <path class="cls-2" d="m810.12,50.14l-8.87,19.57-19.57,8.87,8.87-19.57,19.57-8.87Zm-10.69,17.83l-7.13-7.13-7.13,14.17,14.26-7.04Z"/>
        <path class="cls-2" d="m810.12-6.73l-8.87,19.57-19.57,8.87,8.87-19.57,19.57-8.87Zm-10.69,17.83l-7.13-7.13-7.13,14.17,14.26-7.04Z"/>
        <path class="cls-2" d="m753.25,931.57l-8.87,19.57-19.57,8.87,8.87-19.57,19.57-8.87Zm-10.69,17.83l-7.13-7.13-7.13,14.17,14.26-7.04Z"/>
        <path class="cls-2" d="m753.25,874.7l-8.87,19.57-19.57,8.87,8.87-19.57,19.57-8.87Zm-10.69,17.83l-7.13-7.13-7.13,14.17,14.26-7.04Z"/>
        <path class="cls-2" d="m753.25,817.83l-8.87,19.57-19.57,8.87,8.87-19.57,19.57-8.87Zm-10.69,17.83l-7.13-7.13-7.13,14.17,14.26-7.04Z"/>
        <path class="cls-2" d="m753.25,760.97l-8.87,19.57-19.57,8.87,8.87-19.57,19.57-8.87Zm-10.69,17.83l-7.13-7.13-7.13,14.17,14.26-7.04Z"/>
        <path class="cls-2" d="m753.25,704.1l-8.87,19.57-19.57,8.87,8.87-19.57,19.57-8.87Zm-10.69,17.83l-7.13-7.13-7.13,14.17,14.26-7.04Z"/>
        <path class="cls-2" d="m753.25,647.24l-8.87,19.57-19.57,8.87,8.87-19.57,19.57-8.87Zm-10.69,17.83l-7.13-7.13-7.13,14.17,14.26-7.04Z"/>
        <path class="cls-2" d="m753.25,590.37l-8.87,19.57-19.57,8.87,8.87-19.57,19.57-8.87Zm-10.69,17.83l-7.13-7.13-7.13,14.17,14.26-7.04Z"/>
        <path class="cls-2" d="m753.25,533.5l-8.87,19.57-19.57,8.87,8.87-19.57,19.57-8.87Zm-10.69,17.83l-7.13-7.13-7.13,14.17,14.26-7.04Z"/>
        <path class="cls-2" d="m753.25,476.64l-8.87,19.57-19.57,8.87,8.87-19.57,19.57-8.87Zm-10.69,17.83l-7.13-7.13-7.13,14.17,14.26-7.04Z"/>
        <path class="cls-2" d="m753.25,419.77l-8.87,19.57-19.57,8.87,8.87-19.57,19.57-8.87Zm-10.69,17.83l-7.13-7.13-7.13,14.17,14.26-7.04Z"/>
        <path class="cls-2" d="m753.25,362.9l-8.87,19.57-19.57,8.87,8.87-19.57,19.57-8.87Zm-10.69,17.83l-7.13-7.13-7.13,14.17,14.26-7.04Z"/>
        <path class="cls-2" d="m753.25,306.04l-8.87,19.57-19.57,8.87,8.87-19.57,19.57-8.87Zm-10.69,17.83l-7.13-7.13-7.13,14.17,14.26-7.04Z"/>
        <path class="cls-2" d="m753.25,249.17l-8.87,19.57-19.57,8.87,8.87-19.57,19.57-8.87Zm-10.69,17.83l-7.13-7.13-7.13,14.17,14.26-7.04Z"/>
        <path class="cls-2" d="m753.25,192.3l-8.87,19.57-19.57,8.87,8.87-19.57,19.57-8.87Zm-10.69,17.83l-7.13-7.13-7.13,14.17,14.26-7.04Z"/>
        <path class="cls-2" d="m753.25,135.44l-8.87,19.57-19.57,8.87,8.87-19.57,19.57-8.87Zm-10.69,17.83l-7.13-7.13-7.13,14.17,14.26-7.04Z"/>
        <path class="cls-2" d="m753.25,78.57l-8.87,19.57-19.57,8.87,8.87-19.57,19.57-8.87Zm-10.69,17.83l-7.13-7.13-7.13,14.17,14.26-7.04Z"/>
        <path class="cls-2" d="m753.25,21.71l-8.87,19.57-19.57,8.87,8.87-19.57,19.57-8.87Zm-10.69,17.83l-7.13-7.13-7.13,14.17,14.26-7.04Z"/>
        <path class="cls-2" d="m696.38,903.13l-8.87,19.57-19.57,8.87,8.87-19.57,19.57-8.87Zm-10.69,17.83l-7.13-7.13-7.13,14.17,14.26-7.04Z"/>
        <path class="cls-2" d="m696.38,846.27l-8.87,19.57-19.57,8.87,8.87-19.57,19.57-8.87Zm-10.69,17.83l-7.13-7.13-7.13,14.17,14.26-7.04Z"/>
        <path class="cls-2" d="m696.38,789.4l-8.87,19.57-19.57,8.87,8.87-19.57,19.57-8.87Zm-10.69,17.83l-7.13-7.13-7.13,14.17,14.26-7.04Z"/>
        <path class="cls-2" d="m696.38,732.53l-8.87,19.57-19.57,8.87,8.87-19.57,19.57-8.87Zm-10.69,17.83l-7.13-7.13-7.13,14.17,14.26-7.04Z"/>
        <path class="cls-2" d="m696.38,675.67l-8.87,19.57-19.57,8.87,8.87-19.57,19.57-8.87Zm-10.69,17.83l-7.13-7.13-7.13,14.17,14.26-7.04Z"/>
        <path class="cls-2" d="m696.38,618.8l-8.87,19.57-19.57,8.87,8.87-19.57,19.57-8.87Zm-10.69,17.83l-7.13-7.13-7.13,14.17,14.26-7.04Z"/>
        <path class="cls-2" d="m696.38,561.94l-8.87,19.57-19.57,8.87,8.87-19.57,19.57-8.87Zm-10.69,17.83l-7.13-7.13-7.13,14.17,14.26-7.04Z"/>
        <path class="cls-2" d="m696.38,505.07l-8.87,19.57-19.57,8.87,8.87-19.57,19.57-8.87Zm-10.69,17.83l-7.13-7.13-7.13,14.17,14.26-7.04Z"/>
        <path class="cls-2" d="m696.38,448.2l-8.87,19.57-19.57,8.87,8.87-19.57,19.57-8.87Zm-10.69,17.83l-7.13-7.13-7.13,14.17,14.26-7.04Z"/>
        <path class="cls-2" d="m696.38,391.34l-8.87,19.57-19.57,8.87,8.87-19.57,19.57-8.87Zm-10.69,17.83l-7.13-7.13-7.13,14.17,14.26-7.04Z"/>
        <path class="cls-2" d="m696.38,334.47l-8.87,19.57-19.57,8.87,8.87-19.57,19.57-8.87Zm-10.69,17.83l-7.13-7.13-7.13,14.17,14.26-7.04Z"/>
        <path class="cls-2" d="m696.38,277.6l-8.87,19.57-19.57,8.87,8.87-19.57,19.57-8.87Zm-10.69,17.83l-7.13-7.13-7.13,14.17,14.26-7.04Z"/>
        <path class="cls-2" d="m696.38,220.74l-8.87,19.57-19.57,8.87,8.87-19.57,19.57-8.87Zm-10.69,17.83l-7.13-7.13-7.13,14.17,14.26-7.04Z"/>
        <path class="cls-2" d="m696.38,163.87l-8.87,19.57-19.57,8.87,8.87-19.57,19.57-8.87Zm-10.69,17.83l-7.13-7.13-7.13,14.17,14.26-7.04Z"/>
        <path class="cls-2" d="m696.38,107.01l-8.87,19.57-19.57,8.87,8.87-19.57,19.57-8.87Zm-10.69,17.83l-7.13-7.13-7.13,14.17,14.26-7.04Z"/>
        <path class="cls-2" d="m696.38,50.14l-8.87,19.57-19.57,8.87,8.87-19.57,19.57-8.87Zm-10.69,17.83l-7.13-7.13-7.13,14.17,14.26-7.04Z"/>
        <path class="cls-2" d="m696.38-6.73l-8.87,19.57-19.57,8.87,8.87-19.57,19.57-8.87Zm-10.69,17.83l-7.13-7.13-7.13,14.17,14.26-7.04Z"/>
        <path class="cls-2" d="m639.52,931.57l-8.87,19.57-19.57,8.87,8.87-19.57,19.57-8.87Zm-10.69,17.83l-7.13-7.13-7.13,14.17,14.26-7.04Z"/>
        <path class="cls-2" d="m639.52,874.7l-8.87,19.57-19.57,8.87,8.87-19.57,19.57-8.87Zm-10.69,17.83l-7.13-7.13-7.13,14.17,14.26-7.04Z"/>
        <path class="cls-2" d="m639.52,817.83l-8.87,19.57-19.57,8.87,8.87-19.57,19.57-8.87Zm-10.69,17.83l-7.13-7.13-7.13,14.17,14.26-7.04Z"/>
        <path class="cls-2" d="m639.52,760.97l-8.87,19.57-19.57,8.87,8.87-19.57,19.57-8.87Zm-10.69,17.83l-7.13-7.13-7.13,14.17,14.26-7.04Z"/>
        <path class="cls-2" d="m639.52,704.1l-8.87,19.57-19.57,8.87,8.87-19.57,19.57-8.87Zm-10.69,17.83l-7.13-7.13-7.13,14.17,14.26-7.04Z"/>
        <path class="cls-2" d="m639.52,647.24l-8.87,19.57-19.57,8.87,8.87-19.57,19.57-8.87Zm-10.69,17.83l-7.13-7.13-7.13,14.17,14.26-7.04Z"/>
        <path class="cls-2" d="m639.52,590.37l-8.87,19.57-19.57,8.87,8.87-19.57,19.57-8.87Zm-10.69,17.83l-7.13-7.13-7.13,14.17,14.26-7.04Z"/>
        <path class="cls-2" d="m639.52,533.5l-8.87,19.57-19.57,8.87,8.87-19.57,19.57-8.87Zm-10.69,17.83l-7.13-7.13-7.13,14.17,14.26-7.04Z"/>
        <path class="cls-2" d="m639.52,476.64l-8.87,19.57-19.57,8.87,8.87-19.57,19.57-8.87Zm-10.69,17.83l-7.13-7.13-7.13,14.17,14.26-7.04Z"/>
        <path class="cls-2" d="m639.52,419.77l-8.87,19.57-19.57,8.87,8.87-19.57,19.57-8.87Zm-10.69,17.83l-7.13-7.13-7.13,14.17,14.26-7.04Z"/>
        <path class="cls-2" d="m639.52,362.9l-8.87,19.57-19.57,8.87,8.87-19.57,19.57-8.87Zm-10.69,17.83l-7.13-7.13-7.13,14.17,14.26-7.04Z"/>
        <path class="cls-2" d="m639.52,306.04l-8.87,19.57-19.57,8.87,8.87-19.57,19.57-8.87Zm-10.69,17.83l-7.13-7.13-7.13,14.17,14.26-7.04Z"/>
        <path class="cls-2" d="m639.52,249.17l-8.87,19.57-19.57,8.87,8.87-19.57,19.57-8.87Zm-10.69,17.83l-7.13-7.13-7.13,14.17,14.26-7.04Z"/>
        <path class="cls-2" d="m639.52,192.3l-8.87,19.57-19.57,8.87,8.87-19.57,19.57-8.87Zm-10.69,17.83l-7.13-7.13-7.13,14.17,14.26-7.04Z"/>
        <path class="cls-2" d="m639.52,135.44l-8.87,19.57-19.57,8.87,8.87-19.57,19.57-8.87Zm-10.69,17.83l-7.13-7.13-7.13,14.17,14.26-7.04Z"/>
        <path class="cls-2" d="m639.52,78.57l-8.87,19.57-19.57,8.87,8.87-19.57,19.57-8.87Zm-10.69,17.83l-7.13-7.13-7.13,14.17,14.26-7.04Z"/>
        <path class="cls-2" d="m639.52,21.71l-8.87,19.57-19.57,8.87,8.87-19.57,19.57-8.87Zm-10.69,17.83l-7.13-7.13-7.13,14.17,14.26-7.04Z"/>
        <path class="cls-2" d="m582.65,903.13l-8.87,19.57-19.57,8.87,8.87-19.57,19.57-8.87Zm-10.69,17.83l-7.13-7.13-7.13,14.17,14.26-7.04Z"/>
        <path class="cls-2" d="m582.65,846.27l-8.87,19.57-19.57,8.87,8.87-19.57,19.57-8.87Zm-10.69,17.83l-7.13-7.13-7.13,14.17,14.26-7.04Z"/>
        <path class="cls-2" d="m582.65,789.4l-8.87,19.57-19.57,8.87,8.87-19.57,19.57-8.87Zm-10.69,17.83l-7.13-7.13-7.13,14.17,14.26-7.04Z"/>
        <path class="cls-2" d="m582.65,732.53l-8.87,19.57-19.57,8.87,8.87-19.57,19.57-8.87Zm-10.69,17.83l-7.13-7.13-7.13,14.17,14.26-7.04Z"/>
        <path class="cls-2" d="m582.65,675.67l-8.87,19.57-19.57,8.87,8.87-19.57,19.57-8.87Zm-10.69,17.83l-7.13-7.13-7.13,14.17,14.26-7.04Z"/>
        <path class="cls-2" d="m582.65,618.8l-8.87,19.57-19.57,8.87,8.87-19.57,19.57-8.87Zm-10.69,17.83l-7.13-7.13-7.13,14.17,14.26-7.04Z"/>
        <path class="cls-2" d="m582.65,561.94l-8.87,19.57-19.57,8.87,8.87-19.57,19.57-8.87Zm-10.69,17.83l-7.13-7.13-7.13,14.17,14.26-7.04Z"/>
        <path class="cls-2" d="m582.65,505.07l-8.87,19.57-19.57,8.87,8.87-19.57,19.57-8.87Zm-10.69,17.83l-7.13-7.13-7.13,14.17,14.26-7.04Z"/>
        <path class="cls-2" d="m582.65,448.2l-8.87,19.57-19.57,8.87,8.87-19.57,19.57-8.87Zm-10.69,17.83l-7.13-7.13-7.13,14.17,14.26-7.04Z"/>
        <path class="cls-2" d="m582.65,391.34l-8.87,19.57-19.57,8.87,8.87-19.57,19.57-8.87Zm-10.69,17.83l-7.13-7.13-7.13,14.17,14.26-7.04Z"/>
        <path class="cls-2" d="m582.65,334.47l-8.87,19.57-19.57,8.87,8.87-19.57,19.57-8.87Zm-10.69,17.83l-7.13-7.13-7.13,14.17,14.26-7.04Z"/>
        <path class="cls-2" d="m582.65,277.6l-8.87,19.57-19.57,8.87,8.87-19.57,19.57-8.87Zm-10.69,17.83l-7.13-7.13-7.13,14.17,14.26-7.04Z"/>
        <path class="cls-2" d="m582.65,220.74l-8.87,19.57-19.57,8.87,8.87-19.57,19.57-8.87Zm-10.69,17.83l-7.13-7.13-7.13,14.17,14.26-7.04Z"/>
        <path class="cls-2" d="m582.65,163.87l-8.87,19.57-19.57,8.87,8.87-19.57,19.57-8.87Zm-10.69,17.83l-7.13-7.13-7.13,14.17,14.26-7.04Z"/>
        <path class="cls-2" d="m582.65,107.01l-8.87,19.57-19.57,8.87,8.87-19.57,19.57-8.87Zm-10.69,17.83l-7.13-7.13-7.13,14.17,14.26-7.04Z"/>
        <path class="cls-2" d="m582.65,50.14l-8.87,19.57-19.57,8.87,8.87-19.57,19.57-8.87Zm-10.69,17.83l-7.13-7.13-7.13,14.17,14.26-7.04Z"/>
        <path class="cls-2" d="m582.65-6.73l-8.87,19.57-19.57,8.87,8.87-19.57,19.57-8.87Zm-10.69,17.83l-7.13-7.13-7.13,14.17,14.26-7.04Z"/>
      </g>
      <g>
        <path class="cls-2" d="m525.78,1898.29l-8.87,19.57-19.57,8.87,8.87-19.57,19.57-8.87Zm-10.69,17.83l-7.13-7.13-7.13,14.17,14.26-7.04Z"/>
        <path class="cls-2" d="m525.78,1841.43l-8.87,19.57-19.57,8.87,8.87-19.57,19.57-8.87Zm-10.69,17.83l-7.13-7.13-7.13,14.17,14.26-7.04Z"/>
        <path class="cls-2" d="m525.78,1784.56l-8.87,19.57-19.57,8.87,8.87-19.57,19.57-8.87Zm-10.69,17.83l-7.13-7.13-7.13,14.17,14.26-7.04Z"/>
        <path class="cls-2" d="m525.78,1727.7l-8.87,19.57-19.57,8.87,8.87-19.57,19.57-8.87Zm-10.69,17.83l-7.13-7.13-7.13,14.17,14.26-7.04Z"/>
        <path class="cls-2" d="m525.78,1670.83l-8.87,19.57-19.57,8.87,8.87-19.57,19.57-8.87Zm-10.69,17.83l-7.13-7.13-7.13,14.17,14.26-7.04Z"/>
        <path class="cls-2" d="m525.78,1613.96l-8.87,19.57-19.57,8.87,8.87-19.57,19.57-8.87Zm-10.69,17.83l-7.13-7.13-7.13,14.17,14.26-7.04Z"/>
        <path class="cls-2" d="m525.78,1557.1l-8.87,19.57-19.57,8.87,8.87-19.57,19.57-8.87Zm-10.69,17.83l-7.13-7.13-7.13,14.17,14.26-7.04Z"/>
        <path class="cls-2" d="m525.78,1500.23l-8.87,19.57-19.57,8.87,8.87-19.57,19.57-8.87Zm-10.69,17.83l-7.13-7.13-7.13,14.17,14.26-7.04Z"/>
        <path class="cls-2" d="m525.78,1443.36l-8.87,19.57-19.57,8.87,8.87-19.57,19.57-8.87Zm-10.69,17.83l-7.13-7.13-7.13,14.17,14.26-7.04Z"/>
        <path class="cls-2" d="m525.78,1386.5l-8.87,19.57-19.57,8.87,8.87-19.57,19.57-8.87Zm-10.69,17.83l-7.13-7.13-7.13,14.17,14.26-7.04Z"/>
        <path class="cls-2" d="m525.78,1329.63l-8.87,19.57-19.57,8.87,8.87-19.57,19.57-8.87Zm-10.69,17.83l-7.13-7.13-7.13,14.17,14.26-7.04Z"/>
        <path class="cls-2" d="m525.78,1272.77l-8.87,19.57-19.57,8.87,8.87-19.57,19.57-8.87Zm-10.69,17.83l-7.13-7.13-7.13,14.17,14.26-7.04Z"/>
        <path class="cls-2" d="m525.78,1215.9l-8.87,19.57-19.57,8.87,8.87-19.57,19.57-8.87Zm-10.69,17.83l-7.13-7.13-7.13,14.17,14.26-7.04Z"/>
        <path class="cls-2" d="m525.78,1159.03l-8.87,19.57-19.57,8.87,8.87-19.57,19.57-8.87Zm-10.69,17.83l-7.13-7.13-7.13,14.17,14.26-7.04Z"/>
        <path class="cls-2" d="m525.78,1102.17l-8.87,19.57-19.57,8.87,8.87-19.57,19.57-8.87Zm-10.69,17.83l-7.13-7.13-7.13,14.17,14.26-7.04Z"/>
        <path class="cls-2" d="m525.78,1045.3l-8.87,19.57-19.57,8.87,8.87-19.57,19.57-8.87Zm-10.69,17.83l-7.13-7.13-7.13,14.17,14.26-7.04Z"/>
        <path class="cls-2" d="m525.78,988.43l-8.87,19.57-19.57,8.87,8.87-19.57,19.57-8.87Zm-10.69,17.83l-7.13-7.13-7.13,14.17,14.26-7.04Z"/>
        <path class="cls-2" d="m468.92,1869.86l-8.87,19.57-19.57,8.87,8.87-19.57,19.57-8.87Zm-10.69,17.83l-7.13-7.13-7.13,14.17,14.26-7.04Z"/>
        <path class="cls-2" d="m468.92,1813l-8.87,19.57-19.57,8.87,8.87-19.57,19.57-8.87Zm-10.69,17.83l-7.13-7.13-7.13,14.17,14.26-7.04Z"/>
        <path class="cls-2" d="m468.92,1756.13l-8.87,19.57-19.57,8.87,8.87-19.57,19.57-8.87Zm-10.69,17.83l-7.13-7.13-7.13,14.17,14.26-7.04Z"/>
        <path class="cls-2" d="m468.92,1699.26l-8.87,19.57-19.57,8.87,8.87-19.57,19.57-8.87Zm-10.69,17.83l-7.13-7.13-7.13,14.17,14.26-7.04Z"/>
        <path class="cls-2" d="m468.92,1642.4l-8.87,19.57-19.57,8.87,8.87-19.57,19.57-8.87Zm-10.69,17.83l-7.13-7.13-7.13,14.17,14.26-7.04Z"/>
        <path class="cls-2" d="m468.92,1585.53l-8.87,19.57-19.57,8.87,8.87-19.57,19.57-8.87Zm-10.69,17.83l-7.13-7.13-7.13,14.17,14.26-7.04Z"/>
        <path class="cls-2" d="m468.92,1528.66l-8.87,19.57-19.57,8.87,8.87-19.57,19.57-8.87Zm-10.69,17.83l-7.13-7.13-7.13,14.17,14.26-7.04Z"/>
        <path class="cls-2" d="m468.92,1471.8l-8.87,19.57-19.57,8.87,8.87-19.57,19.57-8.87Zm-10.69,17.83l-7.13-7.13-7.13,14.17,14.26-7.04Z"/>
        <path class="cls-2" d="m468.92,1414.93l-8.87,19.57-19.57,8.87,8.87-19.57,19.57-8.87Zm-10.69,17.83l-7.13-7.13-7.13,14.17,14.26-7.04Z"/>
        <path class="cls-2" d="m468.92,1358.06l-8.87,19.57-19.57,8.87,8.87-19.57,19.57-8.87Zm-10.69,17.83l-7.13-7.13-7.13,14.17,14.26-7.04Z"/>
        <path class="cls-2" d="m468.92,1301.2l-8.87,19.57-19.57,8.87,8.87-19.57,19.57-8.87Zm-10.69,17.83l-7.13-7.13-7.13,14.17,14.26-7.04Z"/>
        <path class="cls-2" d="m468.92,1244.33l-8.87,19.57-19.57,8.87,8.87-19.57,19.57-8.87Zm-10.69,17.83l-7.13-7.13-7.13,14.17,14.26-7.04Z"/>
        <path class="cls-2" d="m468.92,1187.47l-8.87,19.57-19.57,8.87,8.87-19.57,19.57-8.87Zm-10.69,17.83l-7.13-7.13-7.13,14.17,14.26-7.04Z"/>
        <path class="cls-2" d="m468.92,1130.6l-8.87,19.57-19.57,8.87,8.87-19.57,19.57-8.87Zm-10.69,17.83l-7.13-7.13-7.13,14.17,14.26-7.04Z"/>
        <path class="cls-2" d="m468.92,1073.73l-8.87,19.57-19.57,8.87,8.87-19.57,19.57-8.87Zm-10.69,17.83l-7.13-7.13-7.13,14.17,14.26-7.04Z"/>
        <path class="cls-2" d="m468.92,1016.87l-8.87,19.57-19.57,8.87,8.87-19.57,19.57-8.87Zm-10.69,17.83l-7.13-7.13-7.13,14.17,14.26-7.04Z"/>
        <path class="cls-2" d="m468.92,960l-8.87,19.57-19.57,8.87,8.87-19.57,19.57-8.87Zm-10.69,17.83l-7.13-7.13-7.13,14.17,14.26-7.04Z"/>
        <path class="cls-2" d="m412.05,1898.29l-8.87,19.57-19.57,8.87,8.87-19.57,19.57-8.87Zm-10.69,17.83l-7.13-7.13-7.13,14.17,14.26-7.04Z"/>
        <path class="cls-2" d="m412.05,1841.43l-8.87,19.57-19.57,8.87,8.87-19.57,19.57-8.87Zm-10.69,17.83l-7.13-7.13-7.13,14.17,14.26-7.04Z"/>
        <path class="cls-2" d="m412.05,1784.56l-8.87,19.57-19.57,8.87,8.87-19.57,19.57-8.87Zm-10.69,17.83l-7.13-7.13-7.13,14.17,14.26-7.04Z"/>
        <path class="cls-2" d="m412.05,1727.7l-8.87,19.57-19.57,8.87,8.87-19.57,19.57-8.87Zm-10.69,17.83l-7.13-7.13-7.13,14.17,14.26-7.04Z"/>
        <path class="cls-2" d="m412.05,1670.83l-8.87,19.57-19.57,8.87,8.87-19.57,19.57-8.87Zm-10.69,17.83l-7.13-7.13-7.13,14.17,14.26-7.04Z"/>
        <path class="cls-2" d="m412.05,1613.96l-8.87,19.57-19.57,8.87,8.87-19.57,19.57-8.87Zm-10.69,17.83l-7.13-7.13-7.13,14.17,14.26-7.04Z"/>
        <path class="cls-2" d="m412.05,1557.1l-8.87,19.57-19.57,8.87,8.87-19.57,19.57-8.87Zm-10.69,17.83l-7.13-7.13-7.13,14.17,14.26-7.04Z"/>
        <path class="cls-2" d="m412.05,1500.23l-8.87,19.57-19.57,8.87,8.87-19.57,19.57-8.87Zm-10.69,17.83l-7.13-7.13-7.13,14.17,14.26-7.04Z"/>
        <path class="cls-2" d="m412.05,1443.36l-8.87,19.57-19.57,8.87,8.87-19.57,19.57-8.87Zm-10.69,17.83l-7.13-7.13-7.13,14.17,14.26-7.04Z"/>
        <path class="cls-2" d="m412.05,1386.5l-8.87,19.57-19.57,8.87,8.87-19.57,19.57-8.87Zm-10.69,17.83l-7.13-7.13-7.13,14.17,14.26-7.04Z"/>
        <path class="cls-2" d="m412.05,1329.63l-8.87,19.57-19.57,8.87,8.87-19.57,19.57-8.87Zm-10.69,17.83l-7.13-7.13-7.13,14.17,14.26-7.04Z"/>
        <path class="cls-2" d="m412.05,1272.77l-8.87,19.57-19.57,8.87,8.87-19.57,19.57-8.87Zm-10.69,17.83l-7.13-7.13-7.13,14.17,14.26-7.04Z"/>
        <path class="cls-2" d="m412.05,1215.9l-8.87,19.57-19.57,8.87,8.87-19.57,19.57-8.87Zm-10.69,17.83l-7.13-7.13-7.13,14.17,14.26-7.04Z"/>
        <path class="cls-2" d="m412.05,1159.03l-8.87,19.57-19.57,8.87,8.87-19.57,19.57-8.87Zm-10.69,17.83l-7.13-7.13-7.13,14.17,14.26-7.04Z"/>
        <path class="cls-2" d="m412.05,1102.17l-8.87,19.57-19.57,8.87,8.87-19.57,19.57-8.87Zm-10.69,17.83l-7.13-7.13-7.13,14.17,14.26-7.04Z"/>
        <path class="cls-2" d="m412.05,1045.3l-8.87,19.57-19.57,8.87,8.87-19.57,19.57-8.87Zm-10.69,17.83l-7.13-7.13-7.13,14.17,14.26-7.04Z"/>
        <path class="cls-2" d="m412.05,988.43l-8.87,19.57-19.57,8.87,8.87-19.57,19.57-8.87Zm-10.69,17.83l-7.13-7.13-7.13,14.17,14.26-7.04Z"/>
        <path class="cls-2" d="m355.18,1869.86l-8.87,19.57-19.57,8.87,8.87-19.57,19.57-8.87Zm-10.69,17.83l-7.13-7.13-7.13,14.17,14.26-7.04Z"/>
        <path class="cls-2" d="m355.18,1813l-8.87,19.57-19.57,8.87,8.87-19.57,19.57-8.87Zm-10.69,17.83l-7.13-7.13-7.13,14.17,14.26-7.04Z"/>
        <path class="cls-2" d="m355.18,1756.13l-8.87,19.57-19.57,8.87,8.87-19.57,19.57-8.87Zm-10.69,17.83l-7.13-7.13-7.13,14.17,14.26-7.04Z"/>
        <path class="cls-2" d="m355.18,1699.26l-8.87,19.57-19.57,8.87,8.87-19.57,19.57-8.87Zm-10.69,17.83l-7.13-7.13-7.13,14.17,14.26-7.04Z"/>
        <path class="cls-2" d="m355.18,1642.4l-8.87,19.57-19.57,8.87,8.87-19.57,19.57-8.87Zm-10.69,17.83l-7.13-7.13-7.13,14.17,14.26-7.04Z"/>
        <path class="cls-2" d="m355.18,1585.53l-8.87,19.57-19.57,8.87,8.87-19.57,19.57-8.87Zm-10.69,17.83l-7.13-7.13-7.13,14.17,14.26-7.04Z"/>
        <path class="cls-2" d="m355.18,1528.66l-8.87,19.57-19.57,8.87,8.87-19.57,19.57-8.87Zm-10.69,17.83l-7.13-7.13-7.13,14.17,14.26-7.04Z"/>
        <path class="cls-2" d="m355.18,1471.8l-8.87,19.57-19.57,8.87,8.87-19.57,19.57-8.87Zm-10.69,17.83l-7.13-7.13-7.13,14.17,14.26-7.04Z"/>
        <path class="cls-2" d="m355.18,1414.93l-8.87,19.57-19.57,8.87,8.87-19.57,19.57-8.87Zm-10.69,17.83l-7.13-7.13-7.13,14.17,14.26-7.04Z"/>
        <path class="cls-2" d="m355.18,1358.06l-8.87,19.57-19.57,8.87,8.87-19.57,19.57-8.87Zm-10.69,17.83l-7.13-7.13-7.13,14.17,14.26-7.04Z"/>
        <path class="cls-2" d="m355.18,1301.2l-8.87,19.57-19.57,8.87,8.87-19.57,19.57-8.87Zm-10.69,17.83l-7.13-7.13-7.13,14.17,14.26-7.04Z"/>
        <path class="cls-2" d="m355.18,1244.33l-8.87,19.57-19.57,8.87,8.87-19.57,19.57-8.87Zm-10.69,17.83l-7.13-7.13-7.13,14.17,14.26-7.04Z"/>
        <path class="cls-2" d="m355.18,1187.47l-8.87,19.57-19.57,8.87,8.87-19.57,19.57-8.87Zm-10.69,17.83l-7.13-7.13-7.13,14.17,14.26-7.04Z"/>
        <path class="cls-2" d="m355.18,1130.6l-8.87,19.57-19.57,8.87,8.87-19.57,19.57-8.87Zm-10.69,17.83l-7.13-7.13-7.13,14.17,14.26-7.04Z"/>
        <path class="cls-2" d="m355.18,1073.73l-8.87,19.57-19.57,8.87,8.87-19.57,19.57-8.87Zm-10.69,17.83l-7.13-7.13-7.13,14.17,14.26-7.04Z"/>
        <path class="cls-2" d="m355.18,1016.87l-8.87,19.57-19.57,8.87,8.87-19.57,19.57-8.87Zm-10.69,17.83l-7.13-7.13-7.13,14.17,14.26-7.04Z"/>
        <path class="cls-2" d="m355.18,960l-8.87,19.57-19.57,8.87,8.87-19.57,19.57-8.87Zm-10.69,17.83l-7.13-7.13-7.13,14.17,14.26-7.04Z"/>
        <path class="cls-2" d="m298.32,1898.29l-8.87,19.57-19.57,8.87,8.87-19.57,19.57-8.87Zm-10.69,17.83l-7.13-7.13-7.13,14.17,14.26-7.04Z"/>
        <path class="cls-2" d="m298.32,1841.43l-8.87,19.57-19.57,8.87,8.87-19.57,19.57-8.87Zm-10.69,17.83l-7.13-7.13-7.13,14.17,14.26-7.04Z"/>
        <path class="cls-2" d="m298.32,1784.56l-8.87,19.57-19.57,8.87,8.87-19.57,19.57-8.87Zm-10.69,17.83l-7.13-7.13-7.13,14.17,14.26-7.04Z"/>
        <path class="cls-2" d="m298.32,1727.7l-8.87,19.57-19.57,8.87,8.87-19.57,19.57-8.87Zm-10.69,17.83l-7.13-7.13-7.13,14.17,14.26-7.04Z"/>
        <path class="cls-2" d="m298.32,1670.83l-8.87,19.57-19.57,8.87,8.87-19.57,19.57-8.87Zm-10.69,17.83l-7.13-7.13-7.13,14.17,14.26-7.04Z"/>
        <path class="cls-2" d="m298.32,1613.96l-8.87,19.57-19.57,8.87,8.87-19.57,19.57-8.87Zm-10.69,17.83l-7.13-7.13-7.13,14.17,14.26-7.04Z"/>
        <path class="cls-2" d="m298.32,1557.1l-8.87,19.57-19.57,8.87,8.87-19.57,19.57-8.87Zm-10.69,17.83l-7.13-7.13-7.13,14.17,14.26-7.04Z"/>
        <path class="cls-2" d="m298.32,1500.23l-8.87,19.57-19.57,8.87,8.87-19.57,19.57-8.87Zm-10.69,17.83l-7.13-7.13-7.13,14.17,14.26-7.04Z"/>
        <path class="cls-2" d="m298.32,1443.36l-8.87,19.57-19.57,8.87,8.87-19.57,19.57-8.87Zm-10.69,17.83l-7.13-7.13-7.13,14.17,14.26-7.04Z"/>
        <path class="cls-2" d="m298.32,1386.5l-8.87,19.57-19.57,8.87,8.87-19.57,19.57-8.87Zm-10.69,17.83l-7.13-7.13-7.13,14.17,14.26-7.04Z"/>
        <path class="cls-2" d="m298.32,1329.63l-8.87,19.57-19.57,8.87,8.87-19.57,19.57-8.87Zm-10.69,17.83l-7.13-7.13-7.13,14.17,14.26-7.04Z"/>
        <path class="cls-2" d="m298.32,1272.76l-8.87,19.57-19.57,8.87,8.87-19.57,19.57-8.87Zm-10.69,17.83l-7.13-7.13-7.13,14.17,14.26-7.04Z"/>
        <path class="cls-2" d="m298.32,1215.9l-8.87,19.57-19.57,8.87,8.87-19.57,19.57-8.87Zm-10.69,17.83l-7.13-7.13-7.13,14.17,14.26-7.04Z"/>
        <path class="cls-2" d="m298.32,1159.03l-8.87,19.57-19.57,8.87,8.87-19.57,19.57-8.87Zm-10.69,17.83l-7.13-7.13-7.13,14.17,14.26-7.04Z"/>
        <path class="cls-2" d="m298.32,1102.17l-8.87,19.57-19.57,8.87,8.87-19.57,19.57-8.87Zm-10.69,17.83l-7.13-7.13-7.13,14.17,14.26-7.04Z"/>
        <path class="cls-2" d="m298.32,1045.3l-8.87,19.57-19.57,8.87,8.87-19.57,19.57-8.87Zm-10.69,17.83l-7.13-7.13-7.13,14.17,14.26-7.04Z"/>
        <path class="cls-2" d="m298.32,988.43l-8.87,19.57-19.57,8.87,8.87-19.57,19.57-8.87Zm-10.69,17.83l-7.13-7.13-7.13,14.17,14.26-7.04Z"/>
        <path class="cls-2" d="m241.45,1869.86l-8.87,19.57-19.57,8.87,8.87-19.57,19.57-8.87Zm-10.69,17.83l-7.13-7.13-7.13,14.17,14.26-7.04Z"/>
        <path class="cls-2" d="m241.45,1813l-8.87,19.57-19.57,8.87,8.87-19.57,19.57-8.87Zm-10.69,17.83l-7.13-7.13-7.13,14.17,14.26-7.04Z"/>
        <path class="cls-2" d="m241.45,1756.13l-8.87,19.57-19.57,8.87,8.87-19.57,19.57-8.87Zm-10.69,17.83l-7.13-7.13-7.13,14.17,14.26-7.04Z"/>
        <path class="cls-2" d="m241.45,1699.26l-8.87,19.57-19.57,8.87,8.87-19.57,19.57-8.87Zm-10.69,17.83l-7.13-7.13-7.13,14.17,14.26-7.04Z"/>
        <path class="cls-2" d="m241.45,1642.4l-8.87,19.57-19.57,8.87,8.87-19.57,19.57-8.87Zm-10.69,17.83l-7.13-7.13-7.13,14.17,14.26-7.04Z"/>
        <path class="cls-2" d="m241.45,1585.53l-8.87,19.57-19.57,8.87,8.87-19.57,19.57-8.87Zm-10.69,17.83l-7.13-7.13-7.13,14.17,14.26-7.04Z"/>
        <path class="cls-2" d="m241.45,1528.66l-8.87,19.57-19.57,8.87,8.87-19.57,19.57-8.87Zm-10.69,17.83l-7.13-7.13-7.13,14.17,14.26-7.04Z"/>
        <path class="cls-2" d="m241.45,1471.8l-8.87,19.57-19.57,8.87,8.87-19.57,19.57-8.87Zm-10.69,17.83l-7.13-7.13-7.13,14.17,14.26-7.04Z"/>
        <path class="cls-2" d="m241.45,1414.93l-8.87,19.57-19.57,8.87,8.87-19.57,19.57-8.87Zm-10.69,17.83l-7.13-7.13-7.13,14.17,14.26-7.04Z"/>
        <path class="cls-2" d="m241.45,1358.06l-8.87,19.57-19.57,8.87,8.87-19.57,19.57-8.87Zm-10.69,17.83l-7.13-7.13-7.13,14.17,14.26-7.04Z"/>
        <path class="cls-2" d="m241.45,1301.2l-8.87,19.57-19.57,8.87,8.87-19.57,19.57-8.87Zm-10.69,17.83l-7.13-7.13-7.13,14.17,14.26-7.04Z"/>
        <path class="cls-2" d="m241.45,1244.33l-8.87,19.57-19.57,8.87,8.87-19.57,19.57-8.87Zm-10.69,17.83l-7.13-7.13-7.13,14.17,14.26-7.04Z"/>
        <path class="cls-2" d="m241.45,1187.47l-8.87,19.57-19.57,8.87,8.87-19.57,19.57-8.87Zm-10.69,17.83l-7.13-7.13-7.13,14.17,14.26-7.04Z"/>
        <path class="cls-2" d="m241.45,1130.6l-8.87,19.57-19.57,8.87,8.87-19.57,19.57-8.87Zm-10.69,17.83l-7.13-7.13-7.13,14.17,14.26-7.04Z"/>
        <path class="cls-2" d="m241.45,1073.73l-8.87,19.57-19.57,8.87,8.87-19.57,19.57-8.87Zm-10.69,17.83l-7.13-7.13-7.13,14.17,14.26-7.04Z"/>
        <path class="cls-2" d="m241.45,1016.87l-8.87,19.57-19.57,8.87,8.87-19.57,19.57-8.87Zm-10.69,17.83l-7.13-7.13-7.13,14.17,14.26-7.04Z"/>
        <path class="cls-2" d="m241.45,960l-8.87,19.57-19.57,8.87,8.87-19.57,19.57-8.87Zm-10.69,17.83l-7.13-7.13-7.13,14.17,14.26-7.04Z"/>
        <path class="cls-2" d="m184.59,1898.29l-8.87,19.57-19.57,8.87,8.87-19.57,19.57-8.87Zm-10.69,17.83l-7.13-7.13-7.13,14.17,14.26-7.04Z"/>
        <path class="cls-2" d="m184.59,1841.43l-8.87,19.57-19.57,8.87,8.87-19.57,19.57-8.87Zm-10.69,17.83l-7.13-7.13-7.13,14.17,14.26-7.04Z"/>
        <path class="cls-2" d="m184.59,1784.56l-8.87,19.57-19.57,8.87,8.87-19.57,19.57-8.87Zm-10.69,17.83l-7.13-7.13-7.13,14.17,14.26-7.04Z"/>
        <path class="cls-2" d="m184.59,1727.7l-8.87,19.57-19.57,8.87,8.87-19.57,19.57-8.87Zm-10.69,17.83l-7.13-7.13-7.13,14.17,14.26-7.04Z"/>
        <path class="cls-2" d="m184.59,1670.83l-8.87,19.57-19.57,8.87,8.87-19.57,19.57-8.87Zm-10.69,17.83l-7.13-7.13-7.13,14.17,14.26-7.04Z"/>
        <path class="cls-2" d="m184.59,1613.96l-8.87,19.57-19.57,8.87,8.87-19.57,19.57-8.87Zm-10.69,17.83l-7.13-7.13-7.13,14.17,14.26-7.04Z"/>
        <path class="cls-2" d="m184.59,1557.1l-8.87,19.57-19.57,8.87,8.87-19.57,19.57-8.87Zm-10.69,17.83l-7.13-7.13-7.13,14.17,14.26-7.04Z"/>
        <path class="cls-2" d="m184.59,1500.23l-8.87,19.57-19.57,8.87,8.87-19.57,19.57-8.87Zm-10.69,17.83l-7.13-7.13-7.13,14.17,14.26-7.04Z"/>
        <path class="cls-2" d="m184.59,1443.36l-8.87,19.57-19.57,8.87,8.87-19.57,19.57-8.87Zm-10.69,17.83l-7.13-7.13-7.13,14.17,14.26-7.04Z"/>
        <path class="cls-2" d="m184.59,1386.5l-8.87,19.57-19.57,8.87,8.87-19.57,19.57-8.87Zm-10.69,17.83l-7.13-7.13-7.13,14.17,14.26-7.04Z"/>
        <path class="cls-2" d="m184.59,1329.63l-8.87,19.57-19.57,8.87,8.87-19.57,19.57-8.87Zm-10.69,17.83l-7.13-7.13-7.13,14.17,14.26-7.04Z"/>
        <path class="cls-2" d="m184.59,1272.76l-8.87,19.57-19.57,8.87,8.87-19.57,19.57-8.87Zm-10.69,17.83l-7.13-7.13-7.13,14.17,14.26-7.04Z"/>
        <path class="cls-2" d="m184.59,1215.9l-8.87,19.57-19.57,8.87,8.87-19.57,19.57-8.87Zm-10.69,17.83l-7.13-7.13-7.13,14.17,14.26-7.04Z"/>
        <path class="cls-2" d="m184.59,1159.03l-8.87,19.57-19.57,8.87,8.87-19.57,19.57-8.87Zm-10.69,17.83l-7.13-7.13-7.13,14.17,14.26-7.04Z"/>
        <path class="cls-2" d="m184.59,1102.17l-8.87,19.57-19.57,8.87,8.87-19.57,19.57-8.87Zm-10.69,17.83l-7.13-7.13-7.13,14.17,14.26-7.04Z"/>
        <path class="cls-2" d="m184.59,1045.3l-8.87,19.57-19.57,8.87,8.87-19.57,19.57-8.87Zm-10.69,17.83l-7.13-7.13-7.13,14.17,14.26-7.04Z"/>
        <path class="cls-2" d="m184.59,988.43l-8.87,19.57-19.57,8.87,8.87-19.57,19.57-8.87Zm-10.69,17.83l-7.13-7.13-7.13,14.17,14.26-7.04Z"/>
        <path class="cls-2" d="m127.72,1869.86l-8.87,19.57-19.57,8.87,8.87-19.57,19.57-8.87Zm-10.69,17.83l-7.13-7.13-7.13,14.17,14.26-7.04Z"/>
        <path class="cls-2" d="m127.72,1813l-8.87,19.57-19.57,8.87,8.87-19.57,19.57-8.87Zm-10.69,17.83l-7.13-7.13-7.13,14.17,14.26-7.04Z"/>
        <path class="cls-2" d="m127.72,1756.13l-8.87,19.57-19.57,8.87,8.87-19.57,19.57-8.87Zm-10.69,17.83l-7.13-7.13-7.13,14.17,14.26-7.04Z"/>
        <path class="cls-2" d="m127.72,1699.26l-8.87,19.57-19.57,8.87,8.87-19.57,19.57-8.87Zm-10.69,17.83l-7.13-7.13-7.13,14.17,14.26-7.04Z"/>
        <path class="cls-2" d="m127.72,1642.4l-8.87,19.57-19.57,8.87,8.87-19.57,19.57-8.87Zm-10.69,17.83l-7.13-7.13-7.13,14.17,14.26-7.04Z"/>
        <path class="cls-2" d="m127.72,1585.53l-8.87,19.57-19.57,8.87,8.87-19.57,19.57-8.87Zm-10.69,17.83l-7.13-7.13-7.13,14.17,14.26-7.04Z"/>
        <path class="cls-2" d="m127.72,1528.66l-8.87,19.57-19.57,8.87,8.87-19.57,19.57-8.87Zm-10.69,17.83l-7.13-7.13-7.13,14.17,14.26-7.04Z"/>
        <path class="cls-2" d="m127.72,1471.8l-8.87,19.57-19.57,8.87,8.87-19.57,19.57-8.87Zm-10.69,17.83l-7.13-7.13-7.13,14.17,14.26-7.04Z"/>
        <path class="cls-2" d="m127.72,1414.93l-8.87,19.57-19.57,8.87,8.87-19.57,19.57-8.87Zm-10.69,17.83l-7.13-7.13-7.13,14.17,14.26-7.04Z"/>
        <path class="cls-2" d="m127.72,1358.06l-8.87,19.57-19.57,8.87,8.87-19.57,19.57-8.87Zm-10.69,17.83l-7.13-7.13-7.13,14.17,14.26-7.04Z"/>
        <path class="cls-2" d="m127.72,1301.2l-8.87,19.57-19.57,8.87,8.87-19.57,19.57-8.87Zm-10.69,17.83l-7.13-7.13-7.13,14.17,14.26-7.04Z"/>
        <path class="cls-2" d="m127.72,1244.33l-8.87,19.57-19.57,8.87,8.87-19.57,19.57-8.87Zm-10.69,17.83l-7.13-7.13-7.13,14.17,14.26-7.04Z"/>
        <path class="cls-2" d="m127.72,1187.47l-8.87,19.57-19.57,8.87,8.87-19.57,19.57-8.87Zm-10.69,17.83l-7.13-7.13-7.13,14.17,14.26-7.04Z"/>
        <path class="cls-2" d="m127.72,1130.6l-8.87,19.57-19.57,8.87,8.87-19.57,19.57-8.87Zm-10.69,17.83l-7.13-7.13-7.13,14.17,14.26-7.04Z"/>
        <path class="cls-2" d="m127.72,1073.73l-8.87,19.57-19.57,8.87,8.87-19.57,19.57-8.87Zm-10.69,17.83l-7.13-7.13-7.13,14.17,14.26-7.04Z"/>
        <path class="cls-2" d="m127.72,1016.87l-8.87,19.57-19.57,8.87,8.87-19.57,19.57-8.87Zm-10.69,17.83l-7.13-7.13-7.13,14.17,14.26-7.04Z"/>
        <path class="cls-2" d="m127.72,960l-8.87,19.57-19.57,8.87,8.87-19.57,19.57-8.87Zm-10.69,17.83l-7.13-7.13-7.13,14.17,14.26-7.04Z"/>
        <path class="cls-2" d="m70.85,1898.29l-8.87,19.57-19.57,8.87,8.87-19.57,19.57-8.87Zm-10.69,17.83l-7.13-7.13-7.13,14.17,14.26-7.04Z"/>
        <path class="cls-2" d="m70.85,1841.43l-8.87,19.57-19.57,8.87,8.87-19.57,19.57-8.87Zm-10.69,17.83l-7.13-7.13-7.13,14.17,14.26-7.04Z"/>
        <path class="cls-2" d="m70.85,1784.56l-8.87,19.57-19.57,8.87,8.87-19.57,19.57-8.87Zm-10.69,17.83l-7.13-7.13-7.13,14.17,14.26-7.04Z"/>
        <path class="cls-2" d="m70.85,1727.7l-8.87,19.57-19.57,8.87,8.87-19.57,19.57-8.87Zm-10.69,17.83l-7.13-7.13-7.13,14.17,14.26-7.04Z"/>
        <path class="cls-2" d="m70.85,1670.83l-8.87,19.57-19.57,8.87,8.87-19.57,19.57-8.87Zm-10.69,17.83l-7.13-7.13-7.13,14.17,14.26-7.04Z"/>
        <path class="cls-2" d="m70.85,1613.96l-8.87,19.57-19.57,8.87,8.87-19.57,19.57-8.87Zm-10.69,17.83l-7.13-7.13-7.13,14.17,14.26-7.04Z"/>
        <path class="cls-2" d="m70.85,1557.1l-8.87,19.57-19.57,8.87,8.87-19.57,19.57-8.87Zm-10.69,17.83l-7.13-7.13-7.13,14.17,14.26-7.04Z"/>
        <path class="cls-2" d="m70.85,1500.23l-8.87,19.57-19.57,8.87,8.87-19.57,19.57-8.87Zm-10.69,17.83l-7.13-7.13-7.13,14.17,14.26-7.04Z"/>
        <path class="cls-2" d="m70.85,1443.36l-8.87,19.57-19.57,8.87,8.87-19.57,19.57-8.87Zm-10.69,17.83l-7.13-7.13-7.13,14.17,14.26-7.04Z"/>
        <path class="cls-2" d="m70.85,1386.5l-8.87,19.57-19.57,8.87,8.87-19.57,19.57-8.87Zm-10.69,17.83l-7.13-7.13-7.13,14.17,14.26-7.04Z"/>
        <path class="cls-2" d="m70.85,1329.63l-8.87,19.57-19.57,8.87,8.87-19.57,19.57-8.87Zm-10.69,17.83l-7.13-7.13-7.13,14.17,14.26-7.04Z"/>
        <path class="cls-2" d="m70.85,1272.76l-8.87,19.57-19.57,8.87,8.87-19.57,19.57-8.87Zm-10.69,17.83l-7.13-7.13-7.13,14.17,14.26-7.04Z"/>
        <path class="cls-2" d="m70.85,1215.9l-8.87,19.57-19.57,8.87,8.87-19.57,19.57-8.87Zm-10.69,17.83l-7.13-7.13-7.13,14.17,14.26-7.04Z"/>
        <path class="cls-2" d="m70.85,1159.03l-8.87,19.57-19.57,8.87,8.87-19.57,19.57-8.87Zm-10.69,17.83l-7.13-7.13-7.13,14.17,14.26-7.04Z"/>
        <path class="cls-2" d="m70.85,1102.17l-8.87,19.57-19.57,8.87,8.87-19.57,19.57-8.87Zm-10.69,17.83l-7.13-7.13-7.13,14.17,14.26-7.04Z"/>
        <path class="cls-2" d="m70.85,1045.3l-8.87,19.57-19.57,8.87,8.87-19.57,19.57-8.87Zm-10.69,17.83l-7.13-7.13-7.13,14.17,14.26-7.04Z"/>
        <path class="cls-2" d="m70.85,988.43l-8.87,19.57-19.57,8.87,8.87-19.57,19.57-8.87Zm-10.69,17.83l-7.13-7.13-7.13,14.17,14.26-7.04Z"/>
        <path class="cls-2" d="m13.99,1869.86l-8.87,19.57-19.57,8.87,8.87-19.57,19.57-8.87Zm-10.69,17.83l-7.13-7.13-7.13,14.17,14.26-7.04Z"/>
        <path class="cls-2" d="m13.99,1813l-8.87,19.57-19.57,8.87,8.87-19.57,19.57-8.87Zm-10.69,17.83l-7.13-7.13-7.13,14.17,14.26-7.04Z"/>
        <path class="cls-2" d="m13.99,1756.13l-8.87,19.57-19.57,8.87,8.87-19.57,19.57-8.87Zm-10.69,17.83l-7.13-7.13-7.13,14.17,14.26-7.04Z"/>
        <path class="cls-2" d="m13.99,1699.26l-8.87,19.57-19.57,8.87,8.87-19.57,19.57-8.87Zm-10.69,17.83l-7.13-7.13-7.13,14.17,14.26-7.04Z"/>
        <path class="cls-2" d="m13.99,1642.4l-8.87,19.57-19.57,8.87,8.87-19.57,19.57-8.87Zm-10.69,17.83l-7.13-7.13-7.13,14.17,14.26-7.04Z"/>
        <path class="cls-2" d="m13.99,1585.53l-8.87,19.57-19.57,8.87,8.87-19.57,19.57-8.87Zm-10.69,17.83l-7.13-7.13-7.13,14.17,14.26-7.04Z"/>
        <path class="cls-2" d="m13.99,1528.66l-8.87,19.57-19.57,8.87,8.87-19.57,19.57-8.87Zm-10.69,17.83l-7.13-7.13-7.13,14.17,14.26-7.04Z"/>
        <path class="cls-2" d="m13.99,1471.8l-8.87,19.57-19.57,8.87,8.87-19.57,19.57-8.87Zm-10.69,17.83l-7.13-7.13-7.13,14.17,14.26-7.04Z"/>
        <path class="cls-2" d="m13.99,1414.93l-8.87,19.57-19.57,8.87,8.87-19.57,19.57-8.87Zm-10.69,17.83l-7.13-7.13-7.13,14.17,14.26-7.04Z"/>
        <path class="cls-2" d="m13.99,1358.06l-8.87,19.57-19.57,8.87,8.87-19.57,19.57-8.87Zm-10.69,17.83l-7.13-7.13-7.13,14.17,14.26-7.04Z"/>
        <path class="cls-2" d="m13.99,1301.2l-8.87,19.57-19.57,8.87,8.87-19.57,19.57-8.87Zm-10.69,17.83l-7.13-7.13-7.13,14.17,14.26-7.04Z"/>
        <path class="cls-2" d="m13.99,1244.33l-8.87,19.57-19.57,8.87,8.87-19.57,19.57-8.87Zm-10.69,17.83l-7.13-7.13-7.13,14.17,14.26-7.04Z"/>
        <path class="cls-2" d="m13.99,1187.47l-8.87,19.57-19.57,8.87,8.87-19.57,19.57-8.87Zm-10.69,17.83l-7.13-7.13-7.13,14.17,14.26-7.04Z"/>
        <path class="cls-2" d="m13.99,1130.6l-8.87,19.57-19.57,8.87,8.87-19.57,19.57-8.87Zm-10.69,17.83l-7.13-7.13-7.13,14.17,14.26-7.04Z"/>
        <path class="cls-2" d="m13.99,1073.73l-8.87,19.57-19.57,8.87,8.87-19.57,19.57-8.87Zm-10.69,17.83l-7.13-7.13-7.13,14.17,14.26-7.04Z"/>
        <path class="cls-2" d="m13.99,1016.87l-8.87,19.57-19.57,8.87,8.87-19.57,19.57-8.87Zm-10.69,17.83l-7.13-7.13-7.13,14.17,14.26-7.04Z"/>
        <path class="cls-2" d="m13.99,960l-8.87,19.57-19.57,8.87,8.87-19.57,19.57-8.87Zm-10.69,17.83l-7.13-7.13-7.13,14.17,14.26-7.04Z"/>
      </g>
      <g>
        <path class="cls-2" d="m525.78,931.57l-8.87,19.57-19.57,8.87,8.87-19.57,19.57-8.87Zm-10.69,17.83l-7.13-7.13-7.13,14.17,14.26-7.04Z"/>
        <path class="cls-2" d="m525.78,874.7l-8.87,19.57-19.57,8.87,8.87-19.57,19.57-8.87Zm-10.69,17.83l-7.13-7.13-7.13,14.17,14.26-7.04Z"/>
        <path class="cls-2" d="m525.78,817.83l-8.87,19.57-19.57,8.87,8.87-19.57,19.57-8.87Zm-10.69,17.83l-7.13-7.13-7.13,14.17,14.26-7.04Z"/>
        <path class="cls-2" d="m525.78,760.97l-8.87,19.57-19.57,8.87,8.87-19.57,19.57-8.87Zm-10.69,17.83l-7.13-7.13-7.13,14.17,14.26-7.04Z"/>
        <path class="cls-2" d="m525.78,704.1l-8.87,19.57-19.57,8.87,8.87-19.57,19.57-8.87Zm-10.69,17.83l-7.13-7.13-7.13,14.17,14.26-7.04Z"/>
        <path class="cls-2" d="m525.78,647.24l-8.87,19.57-19.57,8.87,8.87-19.57,19.57-8.87Zm-10.69,17.83l-7.13-7.13-7.13,14.17,14.26-7.04Z"/>
        <path class="cls-2" d="m525.78,590.37l-8.87,19.57-19.57,8.87,8.87-19.57,19.57-8.87Zm-10.69,17.83l-7.13-7.13-7.13,14.17,14.26-7.04Z"/>
        <path class="cls-2" d="m525.78,533.5l-8.87,19.57-19.57,8.87,8.87-19.57,19.57-8.87Zm-10.69,17.83l-7.13-7.13-7.13,14.17,14.26-7.04Z"/>
        <path class="cls-2" d="m525.78,476.64l-8.87,19.57-19.57,8.87,8.87-19.57,19.57-8.87Zm-10.69,17.83l-7.13-7.13-7.13,14.17,14.26-7.04Z"/>
        <path class="cls-2" d="m525.78,419.77l-8.87,19.57-19.57,8.87,8.87-19.57,19.57-8.87Zm-10.69,17.83l-7.13-7.13-7.13,14.17,14.26-7.04Z"/>
        <path class="cls-2" d="m525.78,362.9l-8.87,19.57-19.57,8.87,8.87-19.57,19.57-8.87Zm-10.69,17.83l-7.13-7.13-7.13,14.17,14.26-7.04Z"/>
        <path class="cls-2" d="m525.78,306.04l-8.87,19.57-19.57,8.87,8.87-19.57,19.57-8.87Zm-10.69,17.83l-7.13-7.13-7.13,14.17,14.26-7.04Z"/>
        <path class="cls-2" d="m525.78,249.17l-8.87,19.57-19.57,8.87,8.87-19.57,19.57-8.87Zm-10.69,17.83l-7.13-7.13-7.13,14.17,14.26-7.04Z"/>
        <path class="cls-2" d="m525.78,192.3l-8.87,19.57-19.57,8.87,8.87-19.57,19.57-8.87Zm-10.69,17.83l-7.13-7.13-7.13,14.17,14.26-7.04Z"/>
        <path class="cls-2" d="m525.78,135.44l-8.87,19.57-19.57,8.87,8.87-19.57,19.57-8.87Zm-10.69,17.83l-7.13-7.13-7.13,14.17,14.26-7.04Z"/>
        <path class="cls-2" d="m525.78,78.57l-8.87,19.57-19.57,8.87,8.87-19.57,19.57-8.87Zm-10.69,17.83l-7.13-7.13-7.13,14.17,14.26-7.04Z"/>
        <path class="cls-2" d="m525.78,21.71l-8.87,19.57-19.57,8.87,8.87-19.57,19.57-8.87Zm-10.69,17.83l-7.13-7.13-7.13,14.17,14.26-7.04Z"/>
        <path class="cls-2" d="m468.92,903.13l-8.87,19.57-19.57,8.87,8.87-19.57,19.57-8.87Zm-10.69,17.83l-7.13-7.13-7.13,14.17,14.26-7.04Z"/>
        <path class="cls-2" d="m468.92,846.27l-8.87,19.57-19.57,8.87,8.87-19.57,19.57-8.87Zm-10.69,17.83l-7.13-7.13-7.13,14.17,14.26-7.04Z"/>
        <path class="cls-2" d="m468.92,789.4l-8.87,19.57-19.57,8.87,8.87-19.57,19.57-8.87Zm-10.69,17.83l-7.13-7.13-7.13,14.17,14.26-7.04Z"/>
        <path class="cls-2" d="m468.92,732.53l-8.87,19.57-19.57,8.87,8.87-19.57,19.57-8.87Zm-10.69,17.83l-7.13-7.13-7.13,14.17,14.26-7.04Z"/>
        <path class="cls-2" d="m468.92,675.67l-8.87,19.57-19.57,8.87,8.87-19.57,19.57-8.87Zm-10.69,17.83l-7.13-7.13-7.13,14.17,14.26-7.04Z"/>
        <path class="cls-2" d="m468.92,618.8l-8.87,19.57-19.57,8.87,8.87-19.57,19.57-8.87Zm-10.69,17.83l-7.13-7.13-7.13,14.17,14.26-7.04Z"/>
        <path class="cls-2" d="m468.92,561.94l-8.87,19.57-19.57,8.87,8.87-19.57,19.57-8.87Zm-10.69,17.83l-7.13-7.13-7.13,14.17,14.26-7.04Z"/>
        <path class="cls-2" d="m468.92,505.07l-8.87,19.57-19.57,8.87,8.87-19.57,19.57-8.87Zm-10.69,17.83l-7.13-7.13-7.13,14.17,14.26-7.04Z"/>
        <path class="cls-2" d="m468.92,448.2l-8.87,19.57-19.57,8.87,8.87-19.57,19.57-8.87Zm-10.69,17.83l-7.13-7.13-7.13,14.17,14.26-7.04Z"/>
        <path class="cls-2" d="m468.92,391.34l-8.87,19.57-19.57,8.87,8.87-19.57,19.57-8.87Zm-10.69,17.83l-7.13-7.13-7.13,14.17,14.26-7.04Z"/>
        <path class="cls-2" d="m468.92,334.47l-8.87,19.57-19.57,8.87,8.87-19.57,19.57-8.87Zm-10.69,17.83l-7.13-7.13-7.13,14.17,14.26-7.04Z"/>
        <path class="cls-2" d="m468.92,277.6l-8.87,19.57-19.57,8.87,8.87-19.57,19.57-8.87Zm-10.69,17.83l-7.13-7.13-7.13,14.17,14.26-7.04Z"/>
        <path class="cls-2" d="m468.92,220.74l-8.87,19.57-19.57,8.87,8.87-19.57,19.57-8.87Zm-10.69,17.83l-7.13-7.13-7.13,14.17,14.26-7.04Z"/>
        <path class="cls-2" d="m468.92,163.87l-8.87,19.57-19.57,8.87,8.87-19.57,19.57-8.87Zm-10.69,17.83l-7.13-7.13-7.13,14.17,14.26-7.04Z"/>
        <path class="cls-2" d="m468.92,107.01l-8.87,19.57-19.57,8.87,8.87-19.57,19.57-8.87Zm-10.69,17.83l-7.13-7.13-7.13,14.17,14.26-7.04Z"/>
        <path class="cls-2" d="m468.92,50.14l-8.87,19.57-19.57,8.87,8.87-19.57,19.57-8.87Zm-10.69,17.83l-7.13-7.13-7.13,14.17,14.26-7.04Z"/>
        <path class="cls-2" d="m468.92-6.73l-8.87,19.57-19.57,8.87,8.87-19.57,19.57-8.87Zm-10.69,17.83l-7.13-7.13-7.13,14.17,14.26-7.04Z"/>
        <path class="cls-2" d="m412.05,931.57l-8.87,19.57-19.57,8.87,8.87-19.57,19.57-8.87Zm-10.69,17.83l-7.13-7.13-7.13,14.17,14.26-7.04Z"/>
        <path class="cls-2" d="m412.05,874.7l-8.87,19.57-19.57,8.87,8.87-19.57,19.57-8.87Zm-10.69,17.83l-7.13-7.13-7.13,14.17,14.26-7.04Z"/>
        <path class="cls-2" d="m412.05,817.83l-8.87,19.57-19.57,8.87,8.87-19.57,19.57-8.87Zm-10.69,17.83l-7.13-7.13-7.13,14.17,14.26-7.04Z"/>
        <path class="cls-2" d="m412.05,760.97l-8.87,19.57-19.57,8.87,8.87-19.57,19.57-8.87Zm-10.69,17.83l-7.13-7.13-7.13,14.17,14.26-7.04Z"/>
        <path class="cls-2" d="m412.05,704.1l-8.87,19.57-19.57,8.87,8.87-19.57,19.57-8.87Zm-10.69,17.83l-7.13-7.13-7.13,14.17,14.26-7.04Z"/>
        <path class="cls-2" d="m412.05,647.24l-8.87,19.57-19.57,8.87,8.87-19.57,19.57-8.87Zm-10.69,17.83l-7.13-7.13-7.13,14.17,14.26-7.04Z"/>
        <path class="cls-2" d="m412.05,590.37l-8.87,19.57-19.57,8.87,8.87-19.57,19.57-8.87Zm-10.69,17.83l-7.13-7.13-7.13,14.17,14.26-7.04Z"/>
        <path class="cls-2" d="m412.05,533.5l-8.87,19.57-19.57,8.87,8.87-19.57,19.57-8.87Zm-10.69,17.83l-7.13-7.13-7.13,14.17,14.26-7.04Z"/>
        <path class="cls-2" d="m412.05,476.64l-8.87,19.57-19.57,8.87,8.87-19.57,19.57-8.87Zm-10.69,17.83l-7.13-7.13-7.13,14.17,14.26-7.04Z"/>
        <path class="cls-2" d="m412.05,419.77l-8.87,19.57-19.57,8.87,8.87-19.57,19.57-8.87Zm-10.69,17.83l-7.13-7.13-7.13,14.17,14.26-7.04Z"/>
        <path class="cls-2" d="m412.05,362.9l-8.87,19.57-19.57,8.87,8.87-19.57,19.57-8.87Zm-10.69,17.83l-7.13-7.13-7.13,14.17,14.26-7.04Z"/>
        <path class="cls-2" d="m412.05,306.04l-8.87,19.57-19.57,8.87,8.87-19.57,19.57-8.87Zm-10.69,17.83l-7.13-7.13-7.13,14.17,14.26-7.04Z"/>
        <path class="cls-2" d="m412.05,249.17l-8.87,19.57-19.57,8.87,8.87-19.57,19.57-8.87Zm-10.69,17.83l-7.13-7.13-7.13,14.17,14.26-7.04Z"/>
        <path class="cls-2" d="m412.05,192.3l-8.87,19.57-19.57,8.87,8.87-19.57,19.57-8.87Zm-10.69,17.83l-7.13-7.13-7.13,14.17,14.26-7.04Z"/>
        <path class="cls-2" d="m412.05,135.44l-8.87,19.57-19.57,8.87,8.87-19.57,19.57-8.87Zm-10.69,17.83l-7.13-7.13-7.13,14.17,14.26-7.04Z"/>
        <path class="cls-2" d="m412.05,78.57l-8.87,19.57-19.57,8.87,8.87-19.57,19.57-8.87Zm-10.69,17.83l-7.13-7.13-7.13,14.17,14.26-7.04Z"/>
        <path class="cls-2" d="m412.05,21.71l-8.87,19.57-19.57,8.87,8.87-19.57,19.57-8.87Zm-10.69,17.83l-7.13-7.13-7.13,14.17,14.26-7.04Z"/>
        <path class="cls-2" d="m355.18,903.13l-8.87,19.57-19.57,8.87,8.87-19.57,19.57-8.87Zm-10.69,17.83l-7.13-7.13-7.13,14.17,14.26-7.04Z"/>
        <path class="cls-2" d="m355.18,846.27l-8.87,19.57-19.57,8.87,8.87-19.57,19.57-8.87Zm-10.69,17.83l-7.13-7.13-7.13,14.17,14.26-7.04Z"/>
        <path class="cls-2" d="m355.18,789.4l-8.87,19.57-19.57,8.87,8.87-19.57,19.57-8.87Zm-10.69,17.83l-7.13-7.13-7.13,14.17,14.26-7.04Z"/>
        <path class="cls-2" d="m355.18,732.53l-8.87,19.57-19.57,8.87,8.87-19.57,19.57-8.87Zm-10.69,17.83l-7.13-7.13-7.13,14.17,14.26-7.04Z"/>
        <path class="cls-2" d="m355.18,675.67l-8.87,19.57-19.57,8.87,8.87-19.57,19.57-8.87Zm-10.69,17.83l-7.13-7.13-7.13,14.17,14.26-7.04Z"/>
        <path class="cls-2" d="m355.18,618.8l-8.87,19.57-19.57,8.87,8.87-19.57,19.57-8.87Zm-10.69,17.83l-7.13-7.13-7.13,14.17,14.26-7.04Z"/>
        <path class="cls-2" d="m355.18,561.94l-8.87,19.57-19.57,8.87,8.87-19.57,19.57-8.87Zm-10.69,17.83l-7.13-7.13-7.13,14.17,14.26-7.04Z"/>
        <path class="cls-2" d="m355.18,505.07l-8.87,19.57-19.57,8.87,8.87-19.57,19.57-8.87Zm-10.69,17.83l-7.13-7.13-7.13,14.17,14.26-7.04Z"/>
        <path class="cls-2" d="m355.18,448.2l-8.87,19.57-19.57,8.87,8.87-19.57,19.57-8.87Zm-10.69,17.83l-7.13-7.13-7.13,14.17,14.26-7.04Z"/>
        <path class="cls-2" d="m355.18,391.34l-8.87,19.57-19.57,8.87,8.87-19.57,19.57-8.87Zm-10.69,17.83l-7.13-7.13-7.13,14.17,14.26-7.04Z"/>
        <path class="cls-2" d="m355.18,334.47l-8.87,19.57-19.57,8.87,8.87-19.57,19.57-8.87Zm-10.69,17.83l-7.13-7.13-7.13,14.17,14.26-7.04Z"/>
        <path class="cls-2" d="m355.18,277.6l-8.87,19.57-19.57,8.87,8.87-19.57,19.57-8.87Zm-10.69,17.83l-7.13-7.13-7.13,14.17,14.26-7.04Z"/>
        <path class="cls-2" d="m355.18,220.74l-8.87,19.57-19.57,8.87,8.87-19.57,19.57-8.87Zm-10.69,17.83l-7.13-7.13-7.13,14.17,14.26-7.04Z"/>
        <path class="cls-2" d="m355.18,163.87l-8.87,19.57-19.57,8.87,8.87-19.57,19.57-8.87Zm-10.69,17.83l-7.13-7.13-7.13,14.17,14.26-7.04Z"/>
        <path class="cls-2" d="m355.18,107.01l-8.87,19.57-19.57,8.87,8.87-19.57,19.57-8.87Zm-10.69,17.83l-7.13-7.13-7.13,14.17,14.26-7.04Z"/>
        <path class="cls-2" d="m355.19,50.14l-8.87,19.57-19.57,8.87,8.87-19.57,19.57-8.87Zm-10.69,17.83l-7.13-7.13-7.13,14.17,14.26-7.04Z"/>
        <path class="cls-2" d="m355.19-6.73l-8.87,19.57-19.57,8.87,8.87-19.57,19.57-8.87Zm-10.69,17.83l-7.13-7.13-7.13,14.17,14.26-7.04Z"/>
        <path class="cls-2" d="m298.32,931.57l-8.87,19.57-19.57,8.87,8.87-19.57,19.57-8.87Zm-10.69,17.83l-7.13-7.13-7.13,14.17,14.26-7.04Z"/>
        <path class="cls-2" d="m298.32,874.7l-8.87,19.57-19.57,8.87,8.87-19.57,19.57-8.87Zm-10.69,17.83l-7.13-7.13-7.13,14.17,14.26-7.04Z"/>
        <path class="cls-2" d="m298.32,817.83l-8.87,19.57-19.57,8.87,8.87-19.57,19.57-8.87Zm-10.69,17.83l-7.13-7.13-7.13,14.17,14.26-7.04Z"/>
        <path class="cls-2" d="m298.32,760.97l-8.87,19.57-19.57,8.87,8.87-19.57,19.57-8.87Zm-10.69,17.83l-7.13-7.13-7.13,14.17,14.26-7.04Z"/>
        <path class="cls-2" d="m298.32,704.1l-8.87,19.57-19.57,8.87,8.87-19.57,19.57-8.87Zm-10.69,17.83l-7.13-7.13-7.13,14.17,14.26-7.04Z"/>
        <path class="cls-2" d="m298.32,647.24l-8.87,19.57-19.57,8.87,8.87-19.57,19.57-8.87Zm-10.69,17.83l-7.13-7.13-7.13,14.17,14.26-7.04Z"/>
        <path class="cls-2" d="m298.32,590.37l-8.87,19.57-19.57,8.87,8.87-19.57,19.57-8.87Zm-10.69,17.83l-7.13-7.13-7.13,14.17,14.26-7.04Z"/>
        <path class="cls-2" d="m298.32,533.5l-8.87,19.57-19.57,8.87,8.87-19.57,19.57-8.87Zm-10.69,17.83l-7.13-7.13-7.13,14.17,14.26-7.04Z"/>
        <path class="cls-2" d="m298.32,476.64l-8.87,19.57-19.57,8.87,8.87-19.57,19.57-8.87Zm-10.69,17.83l-7.13-7.13-7.13,14.17,14.26-7.04Z"/>
        <path class="cls-2" d="m298.32,419.77l-8.87,19.57-19.57,8.87,8.87-19.57,19.57-8.87Zm-10.69,17.83l-7.13-7.13-7.13,14.17,14.26-7.04Z"/>
        <path class="cls-2" d="m298.32,362.9l-8.87,19.57-19.57,8.87,8.87-19.57,19.57-8.87Zm-10.69,17.83l-7.13-7.13-7.13,14.17,14.26-7.04Z"/>
        <path class="cls-2" d="m298.32,306.04l-8.87,19.57-19.57,8.87,8.87-19.57,19.57-8.87Zm-10.69,17.83l-7.13-7.13-7.13,14.17,14.26-7.04Z"/>
        <path class="cls-2" d="m298.32,249.17l-8.87,19.57-19.57,8.87,8.87-19.57,19.57-8.87Zm-10.69,17.83l-7.13-7.13-7.13,14.17,14.26-7.04Z"/>
        <path class="cls-2" d="m298.32,192.3l-8.87,19.57-19.57,8.87,8.87-19.57,19.57-8.87Zm-10.69,17.83l-7.13-7.13-7.13,14.17,14.26-7.04Z"/>
        <path class="cls-2" d="m298.32,135.44l-8.87,19.57-19.57,8.87,8.87-19.57,19.57-8.87Zm-10.69,17.83l-7.13-7.13-7.13,14.17,14.26-7.04Z"/>
        <path class="cls-2" d="m298.32,78.57l-8.87,19.57-19.57,8.87,8.87-19.57,19.57-8.87Zm-10.69,17.83l-7.13-7.13-7.13,14.17,14.26-7.04Z"/>
        <path class="cls-2" d="m298.32,21.71l-8.87,19.57-19.57,8.87,8.87-19.57,19.57-8.87Zm-10.69,17.83l-7.13-7.13-7.13,14.17,14.26-7.04Z"/>
        <path class="cls-2" d="m241.45,903.13l-8.87,19.57-19.57,8.87,8.87-19.57,19.57-8.87Zm-10.69,17.83l-7.13-7.13-7.13,14.17,14.26-7.04Z"/>
        <path class="cls-2" d="m241.45,846.27l-8.87,19.57-19.57,8.87,8.87-19.57,19.57-8.87Zm-10.69,17.83l-7.13-7.13-7.13,14.17,14.26-7.04Z"/>
        <path class="cls-2" d="m241.45,789.4l-8.87,19.57-19.57,8.87,8.87-19.57,19.57-8.87Zm-10.69,17.83l-7.13-7.13-7.13,14.17,14.26-7.04Z"/>
        <path class="cls-2" d="m241.45,732.53l-8.87,19.57-19.57,8.87,8.87-19.57,19.57-8.87Zm-10.69,17.83l-7.13-7.13-7.13,14.17,14.26-7.04Z"/>
        <path class="cls-2" d="m241.45,675.67l-8.87,19.57-19.57,8.87,8.87-19.57,19.57-8.87Zm-10.69,17.83l-7.13-7.13-7.13,14.17,14.26-7.04Z"/>
        <path class="cls-2" d="m241.45,618.8l-8.87,19.57-19.57,8.87,8.87-19.57,19.57-8.87Zm-10.69,17.83l-7.13-7.13-7.13,14.17,14.26-7.04Z"/>
        <path class="cls-2" d="m241.45,561.94l-8.87,19.57-19.57,8.87,8.87-19.57,19.57-8.87Zm-10.69,17.83l-7.13-7.13-7.13,14.17,14.26-7.04Z"/>
        <path class="cls-2" d="m241.45,505.07l-8.87,19.57-19.57,8.87,8.87-19.57,19.57-8.87Zm-10.69,17.83l-7.13-7.13-7.13,14.17,14.26-7.04Z"/>
        <path class="cls-2" d="m241.45,448.2l-8.87,19.57-19.57,8.87,8.87-19.57,19.57-8.87Zm-10.69,17.83l-7.13-7.13-7.13,14.17,14.26-7.04Z"/>
        <path class="cls-2" d="m241.45,391.34l-8.87,19.57-19.57,8.87,8.87-19.57,19.57-8.87Zm-10.69,17.83l-7.13-7.13-7.13,14.17,14.26-7.04Z"/>
        <path class="cls-2" d="m241.45,334.47l-8.87,19.57-19.57,8.87,8.87-19.57,19.57-8.87Zm-10.69,17.83l-7.13-7.13-7.13,14.17,14.26-7.04Z"/>
        <path class="cls-2" d="m241.45,277.6l-8.87,19.57-19.57,8.87,8.87-19.57,19.57-8.87Zm-10.69,17.83l-7.13-7.13-7.13,14.17,14.26-7.04Z"/>
        <path class="cls-2" d="m241.45,220.74l-8.87,19.57-19.57,8.87,8.87-19.57,19.57-8.87Zm-10.69,17.83l-7.13-7.13-7.13,14.17,14.26-7.04Z"/>
        <path class="cls-2" d="m241.45,163.87l-8.87,19.57-19.57,8.87,8.87-19.57,19.57-8.87Zm-10.69,17.83l-7.13-7.13-7.13,14.17,14.26-7.04Z"/>
        <path class="cls-2" d="m241.45,107l-8.87,19.57-19.57,8.87,8.87-19.57,19.57-8.87Zm-10.69,17.83l-7.13-7.13-7.13,14.17,14.26-7.04Z"/>
        <path class="cls-2" d="m241.45,50.14l-8.87,19.57-19.57,8.87,8.87-19.57,19.57-8.87Zm-10.69,17.83l-7.13-7.13-7.13,14.17,14.26-7.04Z"/>
        <path class="cls-2" d="m241.45-6.73l-8.87,19.57-19.57,8.87,8.87-19.57,19.57-8.87Zm-10.69,17.83l-7.13-7.13-7.13,14.17,14.26-7.04Z"/>
        <path class="cls-2" d="m184.59,931.57l-8.87,19.57-19.57,8.87,8.87-19.57,19.57-8.87Zm-10.69,17.83l-7.13-7.13-7.13,14.17,14.26-7.04Z"/>
        <path class="cls-2" d="m184.59,874.7l-8.87,19.57-19.57,8.87,8.87-19.57,19.57-8.87Zm-10.69,17.83l-7.13-7.13-7.13,14.17,14.26-7.04Z"/>
        <path class="cls-2" d="m184.59,817.83l-8.87,19.57-19.57,8.87,8.87-19.57,19.57-8.87Zm-10.69,17.83l-7.13-7.13-7.13,14.17,14.26-7.04Z"/>
        <path class="cls-2" d="m184.59,760.97l-8.87,19.57-19.57,8.87,8.87-19.57,19.57-8.87Zm-10.69,17.83l-7.13-7.13-7.13,14.17,14.26-7.04Z"/>
        <path class="cls-2" d="m184.59,704.1l-8.87,19.57-19.57,8.87,8.87-19.57,19.57-8.87Zm-10.69,17.83l-7.13-7.13-7.13,14.17,14.26-7.04Z"/>
        <path class="cls-2" d="m184.59,647.24l-8.87,19.57-19.57,8.87,8.87-19.57,19.57-8.87Zm-10.69,17.83l-7.13-7.13-7.13,14.17,14.26-7.04Z"/>
        <path class="cls-2" d="m184.59,590.37l-8.87,19.57-19.57,8.87,8.87-19.57,19.57-8.87Zm-10.69,17.83l-7.13-7.13-7.13,14.17,14.26-7.04Z"/>
        <path class="cls-2" d="m184.59,533.5l-8.87,19.57-19.57,8.87,8.87-19.57,19.57-8.87Zm-10.69,17.83l-7.13-7.13-7.13,14.17,14.26-7.04Z"/>
        <path class="cls-2" d="m184.59,476.64l-8.87,19.57-19.57,8.87,8.87-19.57,19.57-8.87Zm-10.69,17.83l-7.13-7.13-7.13,14.17,14.26-7.04Z"/>
        <path class="cls-2" d="m184.59,419.77l-8.87,19.57-19.57,8.87,8.87-19.57,19.57-8.87Zm-10.69,17.83l-7.13-7.13-7.13,14.17,14.26-7.04Z"/>
        <path class="cls-2" d="m184.59,362.9l-8.87,19.57-19.57,8.87,8.87-19.57,19.57-8.87Zm-10.69,17.83l-7.13-7.13-7.13,14.17,14.26-7.04Z"/>
        <path class="cls-2" d="m184.59,306.04l-8.87,19.57-19.57,8.87,8.87-19.57,19.57-8.87Zm-10.69,17.83l-7.13-7.13-7.13,14.17,14.26-7.04Z"/>
        <path class="cls-2" d="m184.59,249.17l-8.87,19.57-19.57,8.87,8.87-19.57,19.57-8.87Zm-10.69,17.83l-7.13-7.13-7.13,14.17,14.26-7.04Z"/>
        <path class="cls-2" d="m184.59,192.3l-8.87,19.57-19.57,8.87,8.87-19.57,19.57-8.87Zm-10.69,17.83l-7.13-7.13-7.13,14.17,14.26-7.04Z"/>
        <path class="cls-2" d="m184.59,135.44l-8.87,19.57-19.57,8.87,8.87-19.57,19.57-8.87Zm-10.69,17.83l-7.13-7.13-7.13,14.17,14.26-7.04Z"/>
        <path class="cls-2" d="m184.59,78.57l-8.87,19.57-19.57,8.87,8.87-19.57,19.57-8.87Zm-10.69,17.83l-7.13-7.13-7.13,14.17,14.26-7.04Z"/>
        <path class="cls-2" d="m184.59,21.71l-8.87,19.57-19.57,8.87,8.87-19.57,19.57-8.87Zm-10.69,17.83l-7.13-7.13-7.13,14.17,14.26-7.04Z"/>
        <path class="cls-2" d="m127.72,903.13l-8.87,19.57-19.57,8.87,8.87-19.57,19.57-8.87Zm-10.69,17.83l-7.13-7.13-7.13,14.17,14.26-7.04Z"/>
        <path class="cls-2" d="m127.72,846.27l-8.87,19.57-19.57,8.87,8.87-19.57,19.57-8.87Zm-10.69,17.83l-7.13-7.13-7.13,14.17,14.26-7.04Z"/>
        <path class="cls-2" d="m127.72,789.4l-8.87,19.57-19.57,8.87,8.87-19.57,19.57-8.87Zm-10.69,17.83l-7.13-7.13-7.13,14.17,14.26-7.04Z"/>
        <path class="cls-2" d="m127.72,732.53l-8.87,19.57-19.57,8.87,8.87-19.57,19.57-8.87Zm-10.69,17.83l-7.13-7.13-7.13,14.17,14.26-7.04Z"/>
        <path class="cls-2" d="m127.72,675.67l-8.87,19.57-19.57,8.87,8.87-19.57,19.57-8.87Zm-10.69,17.83l-7.13-7.13-7.13,14.17,14.26-7.04Z"/>
        <path class="cls-2" d="m127.72,618.8l-8.87,19.57-19.57,8.87,8.87-19.57,19.57-8.87Zm-10.69,17.83l-7.13-7.13-7.13,14.17,14.26-7.04Z"/>
        <path class="cls-2" d="m127.72,561.94l-8.87,19.57-19.57,8.87,8.87-19.57,19.57-8.87Zm-10.69,17.83l-7.13-7.13-7.13,14.17,14.26-7.04Z"/>
        <path class="cls-2" d="m127.72,505.07l-8.87,19.57-19.57,8.87,8.87-19.57,19.57-8.87Zm-10.69,17.83l-7.13-7.13-7.13,14.17,14.26-7.04Z"/>
        <path class="cls-2" d="m127.72,448.2l-8.87,19.57-19.57,8.87,8.87-19.57,19.57-8.87Zm-10.69,17.83l-7.13-7.13-7.13,14.17,14.26-7.04Z"/>
        <path class="cls-2" d="m127.72,391.34l-8.87,19.57-19.57,8.87,8.87-19.57,19.57-8.87Zm-10.69,17.83l-7.13-7.13-7.13,14.17,14.26-7.04Z"/>
        <path class="cls-2" d="m127.72,334.47l-8.87,19.57-19.57,8.87,8.87-19.57,19.57-8.87Zm-10.69,17.83l-7.13-7.13-7.13,14.17,14.26-7.04Z"/>
        <path class="cls-2" d="m127.72,277.6l-8.87,19.57-19.57,8.87,8.87-19.57,19.57-8.87Zm-10.69,17.83l-7.13-7.13-7.13,14.17,14.26-7.04Z"/>
        <path class="cls-2" d="m127.72,220.74l-8.87,19.57-19.57,8.87,8.87-19.57,19.57-8.87Zm-10.69,17.83l-7.13-7.13-7.13,14.17,14.26-7.04Z"/>
        <path class="cls-2" d="m127.72,163.87l-8.87,19.57-19.57,8.87,8.87-19.57,19.57-8.87Zm-10.69,17.83l-7.13-7.13-7.13,14.17,14.26-7.04Z"/>
        <path class="cls-2" d="m127.72,107l-8.87,19.57-19.57,8.87,8.87-19.57,19.57-8.87Zm-10.69,17.83l-7.13-7.13-7.13,14.17,14.26-7.04Z"/>
        <path class="cls-2" d="m127.72,50.14l-8.87,19.57-19.57,8.87,8.87-19.57,19.57-8.87Zm-10.69,17.83l-7.13-7.13-7.13,14.17,14.26-7.04Z"/>
        <path class="cls-2" d="m127.72-6.73l-8.87,19.57-19.57,8.87,8.87-19.57,19.57-8.87Zm-10.69,17.83l-7.13-7.13-7.13,14.17,14.26-7.04Z"/>
        <path class="cls-2" d="m70.85,931.57l-8.87,19.57-19.57,8.87,8.87-19.57,19.57-8.87Zm-10.69,17.83l-7.13-7.13-7.13,14.17,14.26-7.04Z"/>
        <path class="cls-2" d="m70.85,874.7l-8.87,19.57-19.57,8.87,8.87-19.57,19.57-8.87Zm-10.69,17.83l-7.13-7.13-7.13,14.17,14.26-7.04Z"/>
        <path class="cls-2" d="m70.85,817.83l-8.87,19.57-19.57,8.87,8.87-19.57,19.57-8.87Zm-10.69,17.83l-7.13-7.13-7.13,14.17,14.26-7.04Z"/>
        <path class="cls-2" d="m70.85,760.97l-8.87,19.57-19.57,8.87,8.87-19.57,19.57-8.87Zm-10.69,17.83l-7.13-7.13-7.13,14.17,14.26-7.04Z"/>
        <path class="cls-2" d="m70.85,704.1l-8.87,19.57-19.57,8.87,8.87-19.57,19.57-8.87Zm-10.69,17.83l-7.13-7.13-7.13,14.17,14.26-7.04Z"/>
        <path class="cls-2" d="m70.85,647.24l-8.87,19.57-19.57,8.87,8.87-19.57,19.57-8.87Zm-10.69,17.83l-7.13-7.13-7.13,14.17,14.26-7.04Z"/>
        <path class="cls-2" d="m70.85,590.37l-8.87,19.57-19.57,8.87,8.87-19.57,19.57-8.87Zm-10.69,17.83l-7.13-7.13-7.13,14.17,14.26-7.04Z"/>
        <path class="cls-2" d="m70.85,533.5l-8.87,19.57-19.57,8.87,8.87-19.57,19.57-8.87Zm-10.69,17.83l-7.13-7.13-7.13,14.17,14.26-7.04Z"/>
        <path class="cls-2" d="m70.85,476.64l-8.87,19.57-19.57,8.87,8.87-19.57,19.57-8.87Zm-10.69,17.83l-7.13-7.13-7.13,14.17,14.26-7.04Z"/>
        <path class="cls-2" d="m70.85,419.77l-8.87,19.57-19.57,8.87,8.87-19.57,19.57-8.87Zm-10.69,17.83l-7.13-7.13-7.13,14.17,14.26-7.04Z"/>
        <path class="cls-2" d="m70.85,362.9l-8.87,19.57-19.57,8.87,8.87-19.57,19.57-8.87Zm-10.69,17.83l-7.13-7.13-7.13,14.17,14.26-7.04Z"/>
        <path class="cls-2" d="m70.85,306.04l-8.87,19.57-19.57,8.87,8.87-19.57,19.57-8.87Zm-10.69,17.83l-7.13-7.13-7.13,14.17,14.26-7.04Z"/>
        <path class="cls-2" d="m70.85,249.17l-8.87,19.57-19.57,8.87,8.87-19.57,19.57-8.87Zm-10.69,17.83l-7.13-7.13-7.13,14.17,14.26-7.04Z"/>
        <path class="cls-2" d="m70.85,192.3l-8.87,19.57-19.57,8.87,8.87-19.57,19.57-8.87Zm-10.69,17.83l-7.13-7.13-7.13,14.17,14.26-7.04Z"/>
        <path class="cls-2" d="m70.85,135.44l-8.87,19.57-19.57,8.87,8.87-19.57,19.57-8.87Zm-10.69,17.83l-7.13-7.13-7.13,14.17,14.26-7.04Z"/>
        <path class="cls-2" d="m70.85,78.57l-8.87,19.57-19.57,8.87,8.87-19.57,19.57-8.87Zm-10.69,17.83l-7.13-7.13-7.13,14.17,14.26-7.04Z"/>
        <path class="cls-2" d="m70.85,21.71l-8.87,19.57-19.57,8.87,8.87-19.57,19.57-8.87Zm-10.69,17.83l-7.13-7.13-7.13,14.17,14.26-7.04Z"/>
        <path class="cls-2" d="m13.99,903.13l-8.87,19.57-19.57,8.87,8.87-19.57,19.57-8.87Zm-10.69,17.83l-7.13-7.13-7.13,14.17,14.26-7.04Z"/>
        <path class="cls-2" d="m13.99,846.27l-8.87,19.57-19.57,8.87,8.87-19.57,19.57-8.87Zm-10.69,17.83l-7.13-7.13-7.13,14.17,14.26-7.04Z"/>
        <path class="cls-2" d="m13.99,789.4l-8.87,19.57-19.57,8.87,8.87-19.57,19.57-8.87Zm-10.69,17.83l-7.13-7.13-7.13,14.17,14.26-7.04Z"/>
        <path class="cls-2" d="m13.99,732.53l-8.87,19.57-19.57,8.87,8.87-19.57,19.57-8.87Zm-10.69,17.83l-7.13-7.13-7.13,14.17,14.26-7.04Z"/>
        <path class="cls-2" d="m13.99,675.67l-8.87,19.57-19.57,8.87,8.87-19.57,19.57-8.87Zm-10.69,17.83l-7.13-7.13-7.13,14.17,14.26-7.04Z"/>
        <path class="cls-2" d="m13.99,618.8l-8.87,19.57-19.57,8.87,8.87-19.57,19.57-8.87Zm-10.69,17.83l-7.13-7.13-7.13,14.17,14.26-7.04Z"/>
        <path class="cls-2" d="m13.99,561.94l-8.87,19.57-19.57,8.87,8.87-19.57,19.57-8.87Zm-10.69,17.83l-7.13-7.13-7.13,14.17,14.26-7.04Z"/>
        <path class="cls-2" d="m13.99,505.07l-8.87,19.57-19.57,8.87,8.87-19.57,19.57-8.87Zm-10.69,17.83l-7.13-7.13-7.13,14.17,14.26-7.04Z"/>
        <path class="cls-2" d="m13.99,448.2l-8.87,19.57-19.57,8.87,8.87-19.57,19.57-8.87Zm-10.69,17.83l-7.13-7.13-7.13,14.17,14.26-7.04Z"/>
        <path class="cls-2" d="m13.99,391.34l-8.87,19.57-19.57,8.87,8.87-19.57,19.57-8.87Zm-10.69,17.83l-7.13-7.13-7.13,14.17,14.26-7.04Z"/>
        <path class="cls-2" d="m13.99,334.47l-8.87,19.57-19.57,8.87,8.87-19.57,19.57-8.87Zm-10.69,17.83l-7.13-7.13-7.13,14.17,14.26-7.04Z"/>
        <path class="cls-2" d="m13.99,277.6l-8.87,19.57-19.57,8.87,8.87-19.57,19.57-8.87Zm-10.69,17.83l-7.13-7.13-7.13,14.17,14.26-7.04Z"/>
        <path class="cls-2" d="m13.99,220.74l-8.87,19.57-19.57,8.87,8.87-19.57,19.57-8.87Zm-10.69,17.83l-7.13-7.13-7.13,14.17,14.26-7.04Z"/>
        <path class="cls-2" d="m13.99,163.87l-8.87,19.57-19.57,8.87,8.87-19.57,19.57-8.87Zm-10.69,17.83l-7.13-7.13-7.13,14.17,14.26-7.04Z"/>
        <path class="cls-2" d="m13.99,107l-8.87,19.57-19.57,8.87,8.87-19.57,19.57-8.87Zm-10.69,17.83l-7.13-7.13-7.13,14.17,14.26-7.04Z"/>
        <path class="cls-2" d="m13.99,50.14l-8.87,19.57-19.57,8.87,8.87-19.57,19.57-8.87Zm-10.69,17.83l-7.13-7.13-7.13,14.17,14.26-7.04Z"/>
        <path class="cls-2" d="m13.99-6.73L5.12,12.84l-19.57,8.87L-5.58,2.14,13.99-6.73ZM3.29,11.1L-3.84,3.96l-7.13,14.17L3.29,11.1Z"/>
      </g>
    </g>
  </g>
</svg>