<?xml version="1.0" encoding="UTF-8"?>
<svg id="Layer_1" data-name="Layer 1" xmlns="http://www.w3.org/2000/svg" xmlns:xlink="http://www.w3.org/1999/xlink" viewBox="0 0 1920 1080">
  <defs>
    <style>
      .cls-1 {
        fill: none;
      }

      .cls-1, .cls-2, .cls-3 {
        stroke-width: 0px;
      }

      .cls-2 {
        fill: #77212c;
      }

      .cls-4 {
        clip-path: url(#clippath);
      }

      .cls-3 {
        fill: #52000b;
      }
    </style>
    <clipPath id="clippath">
      <rect class="cls-1" width="1920" height="1080"/>
    </clipPath>
  </defs>
  <rect class="cls-3" width="1920" height="1080"/>
  <g class="cls-4">
    <g>
      <g>
        <path class="cls-2" d="m12.84,5.12L-6.73,13.99,2.14-5.58l19.57-8.87L12.84,5.12ZM-3.16,10.51L11.01,3.38,3.88-3.75-3.16,10.51Z"/>
        <path class="cls-2" d="m69.7,5.12l-19.57,8.87,8.87-19.57,19.57-8.87-8.87,19.57Zm-16,5.39l14.17-7.13-7.13-7.13-7.04,14.26Z"/>
        <path class="cls-2" d="m126.57,5.12l-19.57,8.87,8.87-19.57,19.57-8.87-8.87,19.57Zm-16,5.39l14.17-7.13-7.13-7.13-7.04,14.26Z"/>
        <path class="cls-2" d="m183.44,5.12l-19.57,8.87,8.87-19.57,19.57-8.87-8.87,19.57Zm-16,5.39l14.17-7.13-7.13-7.13-7.04,14.26Z"/>
        <path class="cls-2" d="m240.3,5.12l-19.57,8.87,8.87-19.57,19.57-8.87-8.87,19.57Zm-16,5.39l14.17-7.13-7.13-7.13-7.04,14.26Z"/>
        <path class="cls-2" d="m297.17,5.12l-19.57,8.87,8.87-19.57,19.57-8.87-8.87,19.57Zm-16,5.39l14.17-7.13-7.13-7.13-7.04,14.26Z"/>
        <path class="cls-2" d="m354.04,5.12l-19.57,8.87,8.87-19.57,19.57-8.87-8.87,19.57Zm-16,5.39l14.17-7.13-7.13-7.13-7.04,14.26Z"/>
        <path class="cls-2" d="m410.9,5.12l-19.57,8.87,8.87-19.57,19.57-8.87-8.87,19.57Zm-16,5.39l14.17-7.13-7.13-7.13-7.04,14.26Z"/>
        <path class="cls-2" d="m467.77,5.12l-19.57,8.87,8.87-19.57,19.57-8.87-8.87,19.57Zm-16,5.39l14.17-7.13-7.13-7.13-7.04,14.26Z"/>
        <path class="cls-2" d="m524.64,5.12l-19.57,8.87,8.87-19.57,19.57-8.87-8.87,19.57Zm-16,5.39l14.17-7.13-7.13-7.13-7.04,14.26Z"/>
        <path class="cls-2" d="m581.5,5.12l-19.57,8.87,8.87-19.57,19.57-8.87-8.87,19.57Zm-16,5.39l14.17-7.13-7.13-7.13-7.04,14.26Z"/>
        <path class="cls-2" d="m638.37,5.12l-19.57,8.87,8.87-19.57,19.57-8.87-8.87,19.57Zm-16,5.39l14.17-7.13-7.13-7.13-7.04,14.26Z"/>
        <path class="cls-2" d="m695.23,5.12l-19.57,8.87,8.87-19.57,19.57-8.87-8.87,19.57Zm-16,5.39l14.17-7.13-7.13-7.13-7.04,14.26Z"/>
        <path class="cls-2" d="m752.1,5.12l-19.57,8.87,8.87-19.57,19.57-8.87-8.87,19.57Zm-16,5.39l14.17-7.13-7.13-7.13-7.04,14.26Z"/>
        <path class="cls-2" d="m808.97,5.12l-19.57,8.87,8.87-19.57,19.57-8.87-8.87,19.57Zm-16,5.39l14.17-7.13-7.13-7.13-7.04,14.26Z"/>
        <path class="cls-2" d="m865.83,5.12l-19.57,8.87,8.87-19.57,19.57-8.87-8.87,19.57Zm-16,5.39l14.17-7.13-7.13-7.13-7.04,14.26Z"/>
        <path class="cls-2" d="m922.7,5.12l-19.57,8.87,8.87-19.57,19.57-8.87-8.87,19.57Zm-16,5.39l14.17-7.13-7.13-7.13-7.04,14.26Z"/>
        <path class="cls-2" d="m41.27,61.99l-19.57,8.87,8.87-19.57,19.57-8.87-8.87,19.57Zm-16,5.39l14.17-7.13-7.13-7.13-7.04,14.26Z"/>
        <path class="cls-2" d="m98.14,61.99l-19.57,8.87,8.87-19.57,19.57-8.87-8.87,19.57Zm-16,5.39l14.17-7.13-7.13-7.13-7.04,14.26Z"/>
        <path class="cls-2" d="m155,61.99l-19.57,8.87,8.87-19.57,19.57-8.87-8.87,19.57Zm-16,5.39l14.17-7.13-7.13-7.13-7.04,14.26Z"/>
        <path class="cls-2" d="m211.87,61.99l-19.57,8.87,8.87-19.57,19.57-8.87-8.87,19.57Zm-16,5.39l14.17-7.13-7.13-7.13-7.04,14.26Z"/>
        <path class="cls-2" d="m268.74,61.99l-19.57,8.87,8.87-19.57,19.57-8.87-8.87,19.57Zm-16,5.39l14.17-7.13-7.13-7.13-7.04,14.26Z"/>
        <path class="cls-2" d="m325.6,61.99l-19.57,8.87,8.87-19.57,19.57-8.87-8.87,19.57Zm-16,5.39l14.17-7.13-7.13-7.13-7.04,14.26Z"/>
        <path class="cls-2" d="m382.47,61.99l-19.57,8.87,8.87-19.57,19.57-8.87-8.87,19.57Zm-16,5.39l14.17-7.13-7.13-7.13-7.04,14.26Z"/>
        <path class="cls-2" d="m439.34,61.99l-19.57,8.87,8.87-19.57,19.57-8.87-8.87,19.57Zm-16,5.39l14.17-7.13-7.13-7.13-7.04,14.26Z"/>
        <path class="cls-2" d="m496.2,61.99l-19.57,8.87,8.87-19.57,19.57-8.87-8.87,19.57Zm-16,5.39l14.17-7.13-7.13-7.13-7.04,14.26Z"/>
        <path class="cls-2" d="m553.07,61.99l-19.57,8.87,8.87-19.57,19.57-8.87-8.87,19.57Zm-16,5.39l14.17-7.13-7.13-7.13-7.04,14.26Z"/>
        <path class="cls-2" d="m609.93,61.99l-19.57,8.87,8.87-19.57,19.57-8.87-8.87,19.57Zm-16,5.39l14.17-7.13-7.13-7.13-7.04,14.26Z"/>
        <path class="cls-2" d="m666.8,61.99l-19.57,8.87,8.87-19.57,19.57-8.87-8.87,19.57Zm-16,5.39l14.17-7.13-7.13-7.13-7.04,14.26Z"/>
        <path class="cls-2" d="m723.67,61.99l-19.57,8.87,8.87-19.57,19.57-8.87-8.87,19.57Zm-16,5.39l14.17-7.13-7.13-7.13-7.04,14.26Z"/>
        <path class="cls-2" d="m780.53,61.99l-19.57,8.87,8.87-19.57,19.57-8.87-8.87,19.57Zm-16,5.39l14.17-7.13-7.13-7.13-7.04,14.26Z"/>
        <path class="cls-2" d="m837.4,61.99l-19.57,8.87,8.87-19.57,19.57-8.87-8.87,19.57Zm-16,5.39l14.17-7.13-7.13-7.13-7.04,14.26Z"/>
        <path class="cls-2" d="m894.27,61.99l-19.57,8.87,8.87-19.57,19.57-8.87-8.87,19.57Zm-16,5.39l14.17-7.13-7.13-7.13-7.04,14.26Z"/>
        <path class="cls-2" d="m951.13,61.99l-19.57,8.87,8.87-19.57,19.57-8.87-8.87,19.57Zm-16,5.39l14.17-7.13-7.13-7.13-7.04,14.26Z"/>
        <path class="cls-2" d="m12.84,118.85l-19.57,8.87,8.87-19.57,19.57-8.87-8.87,19.57Zm-16,5.39l14.17-7.13-7.13-7.13-7.04,14.26Z"/>
        <path class="cls-2" d="m69.7,118.85l-19.57,8.87,8.87-19.57,19.57-8.87-8.87,19.57Zm-16,5.39l14.17-7.13-7.13-7.13-7.04,14.26Z"/>
        <path class="cls-2" d="m126.57,118.85l-19.57,8.87,8.87-19.57,19.57-8.87-8.87,19.57Zm-16,5.39l14.17-7.13-7.13-7.13-7.04,14.26Z"/>
        <path class="cls-2" d="m183.44,118.85l-19.57,8.87,8.87-19.57,19.57-8.87-8.87,19.57Zm-16,5.39l14.17-7.13-7.13-7.13-7.04,14.26Z"/>
        <path class="cls-2" d="m240.3,118.85l-19.57,8.87,8.87-19.57,19.57-8.87-8.87,19.57Zm-16,5.39l14.17-7.13-7.13-7.13-7.04,14.26Z"/>
        <path class="cls-2" d="m297.17,118.85l-19.57,8.87,8.87-19.57,19.57-8.87-8.87,19.57Zm-16,5.39l14.17-7.13-7.13-7.13-7.04,14.26Z"/>
        <path class="cls-2" d="m354.04,118.85l-19.57,8.87,8.87-19.57,19.57-8.87-8.87,19.57Zm-16,5.39l14.17-7.13-7.13-7.13-7.04,14.26Z"/>
        <path class="cls-2" d="m410.9,118.85l-19.57,8.87,8.87-19.57,19.57-8.87-8.87,19.57Zm-16,5.39l14.17-7.13-7.13-7.13-7.04,14.26Z"/>
        <path class="cls-2" d="m467.77,118.85l-19.57,8.87,8.87-19.57,19.57-8.87-8.87,19.57Zm-16,5.39l14.17-7.13-7.13-7.13-7.04,14.26Z"/>
        <path class="cls-2" d="m524.64,118.85l-19.57,8.87,8.87-19.57,19.57-8.87-8.87,19.57Zm-16,5.39l14.17-7.13-7.13-7.13-7.04,14.26Z"/>
        <path class="cls-2" d="m581.5,118.85l-19.57,8.87,8.87-19.57,19.57-8.87-8.87,19.57Zm-16,5.39l14.17-7.13-7.13-7.13-7.04,14.26Z"/>
        <path class="cls-2" d="m638.37,118.85l-19.57,8.87,8.87-19.57,19.57-8.87-8.87,19.57Zm-16,5.39l14.17-7.13-7.13-7.13-7.04,14.26Z"/>
        <path class="cls-2" d="m695.23,118.85l-19.57,8.87,8.87-19.57,19.57-8.87-8.87,19.57Zm-16,5.39l14.17-7.13-7.13-7.13-7.04,14.26Z"/>
        <path class="cls-2" d="m752.1,118.85l-19.57,8.87,8.87-19.57,19.57-8.87-8.87,19.57Zm-16,5.39l14.17-7.13-7.13-7.13-7.04,14.26Z"/>
        <path class="cls-2" d="m808.97,118.85l-19.57,8.87,8.87-19.57,19.57-8.87-8.87,19.57Zm-16,5.39l14.17-7.13-7.13-7.13-7.04,14.26Z"/>
        <path class="cls-2" d="m865.83,118.85l-19.57,8.87,8.87-19.57,19.57-8.87-8.87,19.57Zm-16,5.39l14.17-7.13-7.13-7.13-7.04,14.26Z"/>
        <path class="cls-2" d="m922.7,118.85l-19.57,8.87,8.87-19.57,19.57-8.87-8.87,19.57Zm-16,5.39l14.17-7.13-7.13-7.13-7.04,14.26Z"/>
        <path class="cls-2" d="m41.27,175.72l-19.57,8.87,8.87-19.57,19.57-8.87-8.87,19.57Zm-16,5.39l14.17-7.13-7.13-7.13-7.04,14.26Z"/>
        <path class="cls-2" d="m98.14,175.72l-19.57,8.87,8.87-19.57,19.57-8.87-8.87,19.57Zm-16,5.39l14.17-7.13-7.13-7.13-7.04,14.26Z"/>
        <path class="cls-2" d="m155,175.72l-19.57,8.87,8.87-19.57,19.57-8.87-8.87,19.57Zm-16,5.39l14.17-7.13-7.13-7.13-7.04,14.26Z"/>
        <path class="cls-2" d="m211.87,175.72l-19.57,8.87,8.87-19.57,19.57-8.87-8.87,19.57Zm-16,5.39l14.17-7.13-7.13-7.13-7.04,14.26Z"/>
        <path class="cls-2" d="m268.74,175.72l-19.57,8.87,8.87-19.57,19.57-8.87-8.87,19.57Zm-16,5.39l14.17-7.13-7.13-7.13-7.04,14.26Z"/>
        <path class="cls-2" d="m325.6,175.72l-19.57,8.87,8.87-19.57,19.57-8.87-8.87,19.57Zm-16,5.39l14.17-7.13-7.13-7.13-7.04,14.26Z"/>
        <path class="cls-2" d="m382.47,175.72l-19.57,8.87,8.87-19.57,19.57-8.87-8.87,19.57Zm-16,5.39l14.17-7.13-7.13-7.13-7.04,14.26Z"/>
        <path class="cls-2" d="m439.34,175.72l-19.57,8.87,8.87-19.57,19.57-8.87-8.87,19.57Zm-16,5.39l14.17-7.13-7.13-7.13-7.04,14.26Z"/>
        <path class="cls-2" d="m496.2,175.72l-19.57,8.87,8.87-19.57,19.57-8.87-8.87,19.57Zm-16,5.39l14.17-7.13-7.13-7.13-7.04,14.26Z"/>
        <path class="cls-2" d="m553.07,175.72l-19.57,8.87,8.87-19.57,19.57-8.87-8.87,19.57Zm-16,5.39l14.17-7.13-7.13-7.13-7.04,14.26Z"/>
        <path class="cls-2" d="m609.93,175.72l-19.57,8.87,8.87-19.57,19.57-8.87-8.87,19.57Zm-16,5.39l14.17-7.13-7.13-7.13-7.04,14.26Z"/>
        <path class="cls-2" d="m666.8,175.72l-19.57,8.87,8.87-19.57,19.57-8.87-8.87,19.57Zm-16,5.39l14.17-7.13-7.13-7.13-7.04,14.26Z"/>
        <path class="cls-2" d="m723.67,175.72l-19.57,8.87,8.87-19.57,19.57-8.87-8.87,19.57Zm-16,5.39l14.17-7.13-7.13-7.13-7.04,14.26Z"/>
        <path class="cls-2" d="m780.53,175.72l-19.57,8.87,8.87-19.57,19.57-8.87-8.87,19.57Zm-16,5.39l14.17-7.13-7.13-7.13-7.04,14.26Z"/>
        <path class="cls-2" d="m837.4,175.72l-19.57,8.87,8.87-19.57,19.57-8.87-8.87,19.57Zm-16,5.39l14.17-7.13-7.13-7.13-7.04,14.26Z"/>
        <path class="cls-2" d="m894.27,175.72l-19.57,8.87,8.87-19.57,19.57-8.87-8.87,19.57Zm-16,5.39l14.17-7.13-7.13-7.13-7.04,14.26Z"/>
        <path class="cls-2" d="m951.13,175.72l-19.57,8.87,8.87-19.57,19.57-8.87-8.87,19.57Zm-16,5.39l14.17-7.13-7.13-7.13-7.04,14.26Z"/>
        <path class="cls-2" d="m12.84,232.58l-19.57,8.87,8.87-19.57,19.57-8.87-8.87,19.57Zm-16,5.39l14.17-7.13-7.13-7.13-7.04,14.26Z"/>
        <path class="cls-2" d="m69.7,232.58l-19.57,8.87,8.87-19.57,19.57-8.87-8.87,19.57Zm-16,5.39l14.17-7.13-7.13-7.13-7.04,14.26Z"/>
        <path class="cls-2" d="m126.57,232.58l-19.57,8.87,8.87-19.57,19.57-8.87-8.87,19.57Zm-16,5.39l14.17-7.13-7.13-7.13-7.04,14.26Z"/>
        <path class="cls-2" d="m183.44,232.58l-19.57,8.87,8.87-19.57,19.57-8.87-8.87,19.57Zm-16,5.39l14.17-7.13-7.13-7.13-7.04,14.26Z"/>
        <path class="cls-2" d="m240.3,232.58l-19.57,8.87,8.87-19.57,19.57-8.87-8.87,19.57Zm-16,5.39l14.17-7.13-7.13-7.13-7.04,14.26Z"/>
        <path class="cls-2" d="m297.17,232.58l-19.57,8.87,8.87-19.57,19.57-8.87-8.87,19.57Zm-16,5.39l14.17-7.13-7.13-7.13-7.04,14.26Z"/>
        <path class="cls-2" d="m354.04,232.58l-19.57,8.87,8.87-19.57,19.57-8.87-8.87,19.57Zm-16,5.39l14.17-7.13-7.13-7.13-7.04,14.26Z"/>
        <path class="cls-2" d="m410.9,232.58l-19.57,8.87,8.87-19.57,19.57-8.87-8.87,19.57Zm-16,5.39l14.17-7.13-7.13-7.13-7.04,14.26Z"/>
        <path class="cls-2" d="m467.77,232.58l-19.57,8.87,8.87-19.57,19.57-8.87-8.87,19.57Zm-16,5.39l14.17-7.13-7.13-7.13-7.04,14.26Z"/>
        <path class="cls-2" d="m524.64,232.58l-19.57,8.87,8.87-19.57,19.57-8.87-8.87,19.57Zm-16,5.39l14.17-7.13-7.13-7.13-7.04,14.26Z"/>
        <path class="cls-2" d="m581.5,232.58l-19.57,8.87,8.87-19.57,19.57-8.87-8.87,19.57Zm-16,5.39l14.17-7.13-7.13-7.13-7.04,14.26Z"/>
        <path class="cls-2" d="m638.37,232.58l-19.57,8.87,8.87-19.57,19.57-8.87-8.87,19.57Zm-16,5.39l14.17-7.13-7.13-7.13-7.04,14.26Z"/>
        <path class="cls-2" d="m695.23,232.58l-19.57,8.87,8.87-19.57,19.57-8.87-8.87,19.57Zm-16,5.39l14.17-7.13-7.13-7.13-7.04,14.26Z"/>
        <path class="cls-2" d="m752.1,232.58l-19.57,8.87,8.87-19.57,19.57-8.87-8.87,19.57Zm-16,5.39l14.17-7.13-7.13-7.13-7.04,14.26Z"/>
        <path class="cls-2" d="m808.97,232.58l-19.57,8.87,8.87-19.57,19.57-8.87-8.87,19.57Zm-16,5.39l14.17-7.13-7.13-7.13-7.04,14.26Z"/>
        <path class="cls-2" d="m865.83,232.58l-19.57,8.87,8.87-19.57,19.57-8.87-8.87,19.57Zm-16,5.39l14.17-7.13-7.13-7.13-7.04,14.26Z"/>
        <path class="cls-2" d="m922.7,232.58l-19.57,8.87,8.87-19.57,19.57-8.87-8.87,19.57Zm-16,5.39l14.17-7.13-7.13-7.13-7.04,14.26Z"/>
        <path class="cls-2" d="m41.27,289.45l-19.57,8.87,8.87-19.57,19.57-8.87-8.87,19.57Zm-16,5.39l14.17-7.13-7.13-7.13-7.04,14.26Z"/>
        <path class="cls-2" d="m98.14,289.45l-19.57,8.87,8.87-19.57,19.57-8.87-8.87,19.57Zm-16,5.39l14.17-7.13-7.13-7.13-7.04,14.26Z"/>
        <path class="cls-2" d="m155,289.45l-19.57,8.87,8.87-19.57,19.57-8.87-8.87,19.57Zm-16,5.39l14.17-7.13-7.13-7.13-7.04,14.26Z"/>
        <path class="cls-2" d="m211.87,289.45l-19.57,8.87,8.87-19.57,19.57-8.87-8.87,19.57Zm-16,5.39l14.17-7.13-7.13-7.13-7.04,14.26Z"/>
        <path class="cls-2" d="m268.74,289.45l-19.57,8.87,8.87-19.57,19.57-8.87-8.87,19.57Zm-16,5.39l14.17-7.13-7.13-7.13-7.04,14.26Z"/>
        <path class="cls-2" d="m325.6,289.45l-19.57,8.87,8.87-19.57,19.57-8.87-8.87,19.57Zm-16,5.39l14.17-7.13-7.13-7.13-7.04,14.26Z"/>
        <path class="cls-2" d="m382.47,289.45l-19.57,8.87,8.87-19.57,19.57-8.87-8.87,19.57Zm-16,5.39l14.17-7.13-7.13-7.13-7.04,14.26Z"/>
        <path class="cls-2" d="m439.34,289.45l-19.57,8.87,8.87-19.57,19.57-8.87-8.87,19.57Zm-16,5.39l14.17-7.13-7.13-7.13-7.04,14.26Z"/>
        <path class="cls-2" d="m496.2,289.45l-19.57,8.87,8.87-19.57,19.57-8.87-8.87,19.57Zm-16,5.39l14.17-7.13-7.13-7.13-7.04,14.26Z"/>
        <path class="cls-2" d="m553.07,289.45l-19.57,8.87,8.87-19.57,19.57-8.87-8.87,19.57Zm-16,5.39l14.17-7.13-7.13-7.13-7.04,14.26Z"/>
        <path class="cls-2" d="m609.93,289.45l-19.57,8.87,8.87-19.57,19.57-8.87-8.87,19.57Zm-16,5.39l14.17-7.13-7.13-7.13-7.04,14.26Z"/>
        <path class="cls-2" d="m666.8,289.45l-19.57,8.87,8.87-19.57,19.57-8.87-8.87,19.57Zm-16,5.39l14.17-7.13-7.13-7.13-7.04,14.26Z"/>
        <path class="cls-2" d="m723.67,289.45l-19.57,8.87,8.87-19.57,19.57-8.87-8.87,19.57Zm-16,5.39l14.17-7.13-7.13-7.13-7.04,14.26Z"/>
        <path class="cls-2" d="m780.53,289.45l-19.57,8.87,8.87-19.57,19.57-8.87-8.87,19.57Zm-16,5.39l14.17-7.13-7.13-7.13-7.04,14.26Z"/>
        <path class="cls-2" d="m837.4,289.45l-19.57,8.87,8.87-19.57,19.57-8.87-8.87,19.57Zm-16,5.39l14.17-7.13-7.13-7.13-7.04,14.26Z"/>
        <path class="cls-2" d="m894.27,289.45l-19.57,8.87,8.87-19.57,19.57-8.87-8.87,19.57Zm-16,5.39l14.17-7.13-7.13-7.13-7.04,14.26Z"/>
        <path class="cls-2" d="m951.13,289.45l-19.57,8.87,8.87-19.57,19.57-8.87-8.87,19.57Zm-16,5.39l14.17-7.13-7.13-7.13-7.04,14.26Z"/>
        <path class="cls-2" d="m12.84,346.32l-19.57,8.87,8.87-19.57,19.57-8.87-8.87,19.57Zm-16,5.39l14.17-7.13-7.13-7.13-7.04,14.26Z"/>
        <path class="cls-2" d="m69.7,346.32l-19.57,8.87,8.87-19.57,19.57-8.87-8.87,19.57Zm-16,5.39l14.17-7.13-7.13-7.13-7.04,14.26Z"/>
        <path class="cls-2" d="m126.57,346.32l-19.57,8.87,8.87-19.57,19.57-8.87-8.87,19.57Zm-16,5.39l14.17-7.13-7.13-7.13-7.04,14.26Z"/>
        <path class="cls-2" d="m183.44,346.32l-19.57,8.87,8.87-19.57,19.57-8.87-8.87,19.57Zm-16,5.39l14.17-7.13-7.13-7.13-7.04,14.26Z"/>
        <path class="cls-2" d="m240.3,346.32l-19.57,8.87,8.87-19.57,19.57-8.87-8.87,19.57Zm-16,5.39l14.17-7.13-7.13-7.13-7.04,14.26Z"/>
        <path class="cls-2" d="m297.17,346.32l-19.57,8.87,8.87-19.57,19.57-8.87-8.87,19.57Zm-16,5.39l14.17-7.13-7.13-7.13-7.04,14.26Z"/>
        <path class="cls-2" d="m354.04,346.32l-19.57,8.87,8.87-19.57,19.57-8.87-8.87,19.57Zm-16,5.39l14.17-7.13-7.13-7.13-7.04,14.26Z"/>
        <path class="cls-2" d="m410.9,346.32l-19.57,8.87,8.87-19.57,19.57-8.87-8.87,19.57Zm-16,5.39l14.17-7.13-7.13-7.13-7.04,14.26Z"/>
        <path class="cls-2" d="m467.77,346.32l-19.57,8.87,8.87-19.57,19.57-8.87-8.87,19.57Zm-16,5.39l14.17-7.13-7.13-7.13-7.04,14.26Z"/>
        <path class="cls-2" d="m524.64,346.32l-19.57,8.87,8.87-19.57,19.57-8.87-8.87,19.57Zm-16,5.39l14.17-7.13-7.13-7.13-7.04,14.26Z"/>
        <path class="cls-2" d="m581.5,346.32l-19.57,8.87,8.87-19.57,19.57-8.87-8.87,19.57Zm-16,5.39l14.17-7.13-7.13-7.13-7.04,14.26Z"/>
        <path class="cls-2" d="m638.37,346.32l-19.57,8.87,8.87-19.57,19.57-8.87-8.87,19.57Zm-16,5.39l14.17-7.13-7.13-7.13-7.04,14.26Z"/>
        <path class="cls-2" d="m695.23,346.32l-19.57,8.87,8.87-19.57,19.57-8.87-8.87,19.57Zm-16,5.39l14.17-7.13-7.13-7.13-7.04,14.26Z"/>
        <path class="cls-2" d="m752.1,346.32l-19.57,8.87,8.87-19.57,19.57-8.87-8.87,19.57Zm-16,5.39l14.17-7.13-7.13-7.13-7.04,14.26Z"/>
        <path class="cls-2" d="m808.97,346.32l-19.57,8.87,8.87-19.57,19.57-8.87-8.87,19.57Zm-16,5.39l14.17-7.13-7.13-7.13-7.04,14.26Z"/>
        <path class="cls-2" d="m865.83,346.32l-19.57,8.87,8.87-19.57,19.57-8.87-8.87,19.57Zm-16,5.39l14.17-7.13-7.13-7.13-7.04,14.26Z"/>
        <path class="cls-2" d="m922.7,346.32l-19.57,8.87,8.87-19.57,19.57-8.87-8.87,19.57Zm-16,5.39l14.17-7.13-7.13-7.13-7.04,14.26Z"/>
        <path class="cls-2" d="m41.27,403.18l-19.57,8.87,8.87-19.57,19.57-8.87-8.87,19.57Zm-16,5.39l14.17-7.13-7.13-7.13-7.04,14.26Z"/>
        <path class="cls-2" d="m98.14,403.18l-19.57,8.87,8.87-19.57,19.57-8.87-8.87,19.57Zm-16,5.39l14.17-7.13-7.13-7.13-7.04,14.26Z"/>
        <path class="cls-2" d="m155,403.18l-19.57,8.87,8.87-19.57,19.57-8.87-8.87,19.57Zm-16,5.39l14.17-7.13-7.13-7.13-7.04,14.26Z"/>
        <path class="cls-2" d="m211.87,403.18l-19.57,8.87,8.87-19.57,19.57-8.87-8.87,19.57Zm-16,5.39l14.17-7.13-7.13-7.13-7.04,14.26Z"/>
        <path class="cls-2" d="m268.74,403.18l-19.57,8.87,8.87-19.57,19.57-8.87-8.87,19.57Zm-16,5.39l14.17-7.13-7.13-7.13-7.04,14.26Z"/>
        <path class="cls-2" d="m325.6,403.18l-19.57,8.87,8.87-19.57,19.57-8.87-8.87,19.57Zm-16,5.39l14.17-7.13-7.13-7.13-7.04,14.26Z"/>
        <path class="cls-2" d="m382.47,403.18l-19.57,8.87,8.87-19.57,19.57-8.87-8.87,19.57Zm-16,5.39l14.17-7.13-7.13-7.13-7.04,14.26Z"/>
        <path class="cls-2" d="m439.34,403.18l-19.57,8.87,8.87-19.57,19.57-8.87-8.87,19.57Zm-16,5.39l14.17-7.13-7.13-7.13-7.04,14.26Z"/>
        <path class="cls-2" d="m496.2,403.18l-19.57,8.87,8.87-19.57,19.57-8.87-8.87,19.57Zm-16,5.39l14.17-7.13-7.13-7.13-7.04,14.26Z"/>
        <path class="cls-2" d="m553.07,403.18l-19.57,8.87,8.87-19.57,19.57-8.87-8.87,19.57Zm-16,5.39l14.17-7.13-7.13-7.13-7.04,14.26Z"/>
        <path class="cls-2" d="m609.93,403.18l-19.57,8.87,8.87-19.57,19.57-8.87-8.87,19.57Zm-16,5.39l14.17-7.13-7.13-7.13-7.04,14.26Z"/>
        <path class="cls-2" d="m666.8,403.18l-19.57,8.87,8.87-19.57,19.57-8.87-8.87,19.57Zm-16,5.39l14.17-7.13-7.13-7.13-7.04,14.26Z"/>
        <path class="cls-2" d="m723.67,403.18l-19.57,8.87,8.87-19.57,19.57-8.87-8.87,19.57Zm-16,5.39l14.17-7.13-7.13-7.13-7.04,14.26Z"/>
        <path class="cls-2" d="m780.53,403.18l-19.57,8.87,8.87-19.57,19.57-8.87-8.87,19.57Zm-16,5.39l14.17-7.13-7.13-7.13-7.04,14.26Z"/>
        <path class="cls-2" d="m837.4,403.18l-19.57,8.87,8.87-19.57,19.57-8.87-8.87,19.57Zm-16,5.39l14.17-7.13-7.13-7.13-7.04,14.26Z"/>
        <path class="cls-2" d="m894.27,403.18l-19.57,8.87,8.87-19.57,19.57-8.87-8.87,19.57Zm-16,5.39l14.17-7.13-7.13-7.13-7.04,14.26Z"/>
        <path class="cls-2" d="m951.13,403.18l-19.57,8.87,8.87-19.57,19.57-8.87-8.87,19.57Zm-16,5.39l14.17-7.13-7.13-7.13-7.04,14.26Z"/>
        <path class="cls-2" d="m12.84,460.05l-19.57,8.87,8.87-19.57,19.57-8.87-8.87,19.57Zm-16,5.39l14.17-7.13-7.13-7.13-7.04,14.26Z"/>
        <path class="cls-2" d="m69.7,460.05l-19.57,8.87,8.87-19.57,19.57-8.87-8.87,19.57Zm-16,5.39l14.17-7.13-7.13-7.13-7.04,14.26Z"/>
        <path class="cls-2" d="m126.57,460.05l-19.57,8.87,8.87-19.57,19.57-8.87-8.87,19.57Zm-16,5.39l14.17-7.13-7.13-7.13-7.04,14.26Z"/>
        <path class="cls-2" d="m183.44,460.05l-19.57,8.87,8.87-19.57,19.57-8.87-8.87,19.57Zm-16,5.39l14.17-7.13-7.13-7.13-7.04,14.26Z"/>
        <path class="cls-2" d="m240.3,460.05l-19.57,8.87,8.87-19.57,19.57-8.87-8.87,19.57Zm-16,5.39l14.17-7.13-7.13-7.13-7.04,14.26Z"/>
        <path class="cls-2" d="m297.17,460.05l-19.57,8.87,8.87-19.57,19.57-8.87-8.87,19.57Zm-16,5.39l14.17-7.13-7.13-7.13-7.04,14.26Z"/>
        <path class="cls-2" d="m354.04,460.05l-19.57,8.87,8.87-19.57,19.57-8.87-8.87,19.57Zm-16,5.39l14.17-7.13-7.13-7.13-7.04,14.26Z"/>
        <path class="cls-2" d="m410.9,460.05l-19.57,8.87,8.87-19.57,19.57-8.87-8.87,19.57Zm-16,5.39l14.17-7.13-7.13-7.13-7.04,14.26Z"/>
        <path class="cls-2" d="m467.77,460.05l-19.57,8.87,8.87-19.57,19.57-8.87-8.87,19.57Zm-16,5.39l14.17-7.13-7.13-7.13-7.04,14.26Z"/>
        <path class="cls-2" d="m524.64,460.05l-19.57,8.87,8.87-19.57,19.57-8.87-8.87,19.57Zm-16,5.39l14.17-7.13-7.13-7.13-7.04,14.26Z"/>
        <path class="cls-2" d="m581.5,460.05l-19.57,8.87,8.87-19.57,19.57-8.87-8.87,19.57Zm-16,5.39l14.17-7.13-7.13-7.13-7.04,14.26Z"/>
        <path class="cls-2" d="m638.37,460.05l-19.57,8.87,8.87-19.57,19.57-8.87-8.87,19.57Zm-16,5.39l14.17-7.13-7.13-7.13-7.04,14.26Z"/>
        <path class="cls-2" d="m695.23,460.05l-19.57,8.87,8.87-19.57,19.57-8.87-8.87,19.57Zm-16,5.39l14.17-7.13-7.13-7.13-7.04,14.26Z"/>
        <path class="cls-2" d="m752.1,460.05l-19.57,8.87,8.87-19.57,19.57-8.87-8.87,19.57Zm-16,5.39l14.17-7.13-7.13-7.13-7.04,14.26Z"/>
        <path class="cls-2" d="m808.97,460.05l-19.57,8.87,8.87-19.57,19.57-8.87-8.87,19.57Zm-16,5.39l14.17-7.13-7.13-7.13-7.04,14.26Z"/>
        <path class="cls-2" d="m865.83,460.05l-19.57,8.87,8.87-19.57,19.57-8.87-8.87,19.57Zm-16,5.39l14.17-7.13-7.13-7.13-7.04,14.26Z"/>
        <path class="cls-2" d="m922.7,460.05l-19.57,8.87,8.87-19.57,19.57-8.87-8.87,19.57Zm-16,5.39l14.17-7.13-7.13-7.13-7.04,14.26Z"/>
        <path class="cls-2" d="m41.27,516.92l-19.57,8.87,8.87-19.57,19.57-8.87-8.87,19.57Zm-16,5.39l14.17-7.13-7.13-7.13-7.04,14.26Z"/>
        <path class="cls-2" d="m98.14,516.92l-19.57,8.87,8.87-19.57,19.57-8.87-8.87,19.57Zm-16,5.39l14.17-7.13-7.13-7.13-7.04,14.26Z"/>
        <path class="cls-2" d="m155,516.92l-19.57,8.87,8.87-19.57,19.57-8.87-8.87,19.57Zm-16,5.39l14.17-7.13-7.13-7.13-7.04,14.26Z"/>
        <path class="cls-2" d="m211.87,516.92l-19.57,8.87,8.87-19.57,19.57-8.87-8.87,19.57Zm-16,5.39l14.17-7.13-7.13-7.13-7.04,14.26Z"/>
        <path class="cls-2" d="m268.74,516.92l-19.57,8.87,8.87-19.57,19.57-8.87-8.87,19.57Zm-16,5.39l14.17-7.13-7.13-7.13-7.04,14.26Z"/>
        <path class="cls-2" d="m325.6,516.92l-19.57,8.87,8.87-19.57,19.57-8.87-8.87,19.57Zm-16,5.39l14.17-7.13-7.13-7.13-7.04,14.26Z"/>
        <path class="cls-2" d="m382.47,516.92l-19.57,8.87,8.87-19.57,19.57-8.87-8.87,19.57Zm-16,5.39l14.17-7.13-7.13-7.13-7.04,14.26Z"/>
        <path class="cls-2" d="m439.34,516.92l-19.57,8.87,8.87-19.57,19.57-8.87-8.87,19.57Zm-16,5.39l14.17-7.13-7.13-7.13-7.04,14.26Z"/>
        <path class="cls-2" d="m496.2,516.92l-19.57,8.87,8.87-19.57,19.57-8.87-8.87,19.57Zm-16,5.39l14.17-7.13-7.13-7.13-7.04,14.26Z"/>
        <path class="cls-2" d="m553.07,516.92l-19.57,8.87,8.87-19.57,19.57-8.87-8.87,19.57Zm-16,5.39l14.17-7.13-7.13-7.13-7.04,14.26Z"/>
        <path class="cls-2" d="m609.93,516.92l-19.57,8.87,8.87-19.57,19.57-8.87-8.87,19.57Zm-16,5.39l14.17-7.13-7.13-7.13-7.04,14.26Z"/>
        <path class="cls-2" d="m666.8,516.92l-19.57,8.87,8.87-19.57,19.57-8.87-8.87,19.57Zm-16,5.39l14.17-7.13-7.13-7.13-7.04,14.26Z"/>
        <path class="cls-2" d="m723.67,516.92l-19.57,8.87,8.87-19.57,19.57-8.87-8.87,19.57Zm-16,5.39l14.17-7.13-7.13-7.13-7.04,14.26Z"/>
        <path class="cls-2" d="m780.53,516.92l-19.57,8.87,8.87-19.57,19.57-8.87-8.87,19.57Zm-16,5.39l14.17-7.13-7.13-7.13-7.04,14.26Z"/>
        <path class="cls-2" d="m837.4,516.92l-19.57,8.87,8.87-19.57,19.57-8.87-8.87,19.57Zm-16,5.39l14.17-7.13-7.13-7.13-7.04,14.26Z"/>
        <path class="cls-2" d="m894.27,516.92l-19.57,8.87,8.87-19.57,19.57-8.87-8.87,19.57Zm-16,5.39l14.17-7.13-7.13-7.13-7.04,14.26Z"/>
        <path class="cls-2" d="m951.13,516.92l-19.57,8.87,8.87-19.57,19.57-8.87-8.87,19.57Zm-16,5.39l14.17-7.13-7.13-7.13-7.04,14.26Z"/>
      </g>
      <g>
        <path class="cls-2" d="m979.57,5.12l-19.57,8.87,8.87-19.57,19.57-8.87-8.87,19.57Zm-16,5.39l14.17-7.13-7.13-7.13-7.04,14.26Z"/>
        <path class="cls-2" d="m1036.43,5.12l-19.57,8.87,8.87-19.57,19.57-8.87-8.87,19.57Zm-16,5.39l14.17-7.13-7.13-7.13-7.04,14.26Z"/>
        <path class="cls-2" d="m1093.3,5.12l-19.57,8.87,8.87-19.57,19.57-8.87-8.87,19.57Zm-16,5.39l14.17-7.13-7.13-7.13-7.04,14.26Z"/>
        <path class="cls-2" d="m1150.16,5.12l-19.57,8.87,8.87-19.57,19.57-8.87-8.87,19.57Zm-16,5.39l14.17-7.13-7.13-7.13-7.04,14.26Z"/>
        <path class="cls-2" d="m1207.03,5.12l-19.57,8.87,8.87-19.57,19.57-8.87-8.87,19.57Zm-16,5.39l14.17-7.13-7.13-7.13-7.04,14.26Z"/>
        <path class="cls-2" d="m1263.9,5.12l-19.57,8.87,8.87-19.57,19.57-8.87-8.87,19.57Zm-16,5.39l14.17-7.13-7.13-7.13-7.04,14.26Z"/>
        <path class="cls-2" d="m1320.76,5.12l-19.57,8.87,8.87-19.57,19.57-8.87-8.87,19.57Zm-16,5.39l14.17-7.13-7.13-7.13-7.04,14.26Z"/>
        <path class="cls-2" d="m1377.63,5.12l-19.57,8.87,8.87-19.57,19.57-8.87-8.87,19.57Zm-16,5.39l14.17-7.13-7.13-7.13-7.04,14.26Z"/>
        <path class="cls-2" d="m1434.5,5.12l-19.57,8.87,8.87-19.57,19.57-8.87-8.87,19.57Zm-16,5.39l14.17-7.13-7.13-7.13-7.04,14.26Z"/>
        <path class="cls-2" d="m1491.36,5.12l-19.57,8.87,8.87-19.57,19.57-8.87-8.87,19.57Zm-16,5.39l14.17-7.13-7.13-7.13-7.04,14.26Z"/>
        <path class="cls-2" d="m1548.23,5.12l-19.57,8.87,8.87-19.57,19.57-8.87-8.87,19.57Zm-16,5.39l14.17-7.13-7.13-7.13-7.04,14.26Z"/>
        <path class="cls-2" d="m1605.1,5.12l-19.57,8.87,8.87-19.57,19.57-8.87-8.87,19.57Zm-16,5.39l14.17-7.13-7.13-7.13-7.04,14.26Z"/>
        <path class="cls-2" d="m1661.96,5.12l-19.57,8.87,8.87-19.57,19.57-8.87-8.87,19.57Zm-16,5.39l14.17-7.13-7.13-7.13-7.04,14.26Z"/>
        <path class="cls-2" d="m1718.83,5.12l-19.57,8.87,8.87-19.57,19.57-8.87-8.87,19.57Zm-16,5.39l14.17-7.13-7.13-7.13-7.04,14.26Z"/>
        <path class="cls-2" d="m1775.69,5.12l-19.57,8.87,8.87-19.57,19.57-8.87-8.87,19.57Zm-16,5.39l14.17-7.13-7.13-7.13-7.04,14.26Z"/>
        <path class="cls-2" d="m1832.56,5.12l-19.57,8.87,8.87-19.57,19.57-8.87-8.87,19.57Zm-16,5.39l14.17-7.13-7.13-7.13-7.04,14.26Z"/>
        <path class="cls-2" d="m1889.43,5.12l-19.57,8.87,8.87-19.57,19.57-8.87-8.87,19.57Zm-16,5.39l14.17-7.13-7.13-7.13-7.04,14.26Z"/>
        <path class="cls-2" d="m1008,61.99l-19.57,8.87,8.87-19.57,19.57-8.87-8.87,19.57Zm-16,5.39l14.17-7.13-7.13-7.13-7.04,14.26Z"/>
        <path class="cls-2" d="m1064.87,61.99l-19.57,8.87,8.87-19.57,19.57-8.87-8.87,19.57Zm-16,5.39l14.17-7.13-7.13-7.13-7.04,14.26Z"/>
        <path class="cls-2" d="m1121.73,61.99l-19.57,8.87,8.87-19.57,19.57-8.87-8.87,19.57Zm-16,5.39l14.17-7.13-7.13-7.13-7.04,14.26Z"/>
        <path class="cls-2" d="m1178.6,61.99l-19.57,8.87,8.87-19.57,19.57-8.87-8.87,19.57Zm-16,5.39l14.17-7.13-7.13-7.13-7.04,14.26Z"/>
        <path class="cls-2" d="m1235.46,61.99l-19.57,8.87,8.87-19.57,19.57-8.87-8.87,19.57Zm-16,5.39l14.17-7.13-7.13-7.13-7.04,14.26Z"/>
        <path class="cls-2" d="m1292.33,61.99l-19.57,8.87,8.87-19.57,19.57-8.87-8.87,19.57Zm-16,5.39l14.17-7.13-7.13-7.13-7.04,14.26Z"/>
        <path class="cls-2" d="m1349.2,61.99l-19.57,8.87,8.87-19.57,19.57-8.87-8.87,19.57Zm-16,5.39l14.17-7.13-7.13-7.13-7.04,14.26Z"/>
        <path class="cls-2" d="m1406.06,61.99l-19.57,8.87,8.87-19.57,19.57-8.87-8.87,19.57Zm-16,5.39l14.17-7.13-7.13-7.13-7.04,14.26Z"/>
        <path class="cls-2" d="m1462.93,61.99l-19.57,8.87,8.87-19.57,19.57-8.87-8.87,19.57Zm-16,5.39l14.17-7.13-7.13-7.13-7.04,14.26Z"/>
        <path class="cls-2" d="m1519.8,61.99l-19.57,8.87,8.87-19.57,19.57-8.87-8.87,19.57Zm-16,5.39l14.17-7.13-7.13-7.13-7.04,14.26Z"/>
        <path class="cls-2" d="m1576.66,61.99l-19.57,8.87,8.87-19.57,19.57-8.87-8.87,19.57Zm-16,5.39l14.17-7.13-7.13-7.13-7.04,14.26Z"/>
        <path class="cls-2" d="m1633.53,61.99l-19.57,8.87,8.87-19.57,19.57-8.87-8.87,19.57Zm-16,5.39l14.17-7.13-7.13-7.13-7.04,14.26Z"/>
        <path class="cls-2" d="m1690.4,61.99l-19.57,8.87,8.87-19.57,19.57-8.87-8.87,19.57Zm-16,5.39l14.17-7.13-7.13-7.13-7.04,14.26Z"/>
        <path class="cls-2" d="m1747.26,61.99l-19.57,8.87,8.87-19.57,19.57-8.87-8.87,19.57Zm-16,5.39l14.17-7.13-7.13-7.13-7.04,14.26Z"/>
        <path class="cls-2" d="m1804.13,61.99l-19.57,8.87,8.87-19.57,19.57-8.87-8.87,19.57Zm-16,5.39l14.17-7.13-7.13-7.13-7.04,14.26Z"/>
        <path class="cls-2" d="m1860.99,61.99l-19.57,8.87,8.87-19.57,19.57-8.87-8.87,19.57Zm-16,5.39l14.17-7.13-7.13-7.13-7.04,14.26Z"/>
        <path class="cls-2" d="m1917.86,61.99l-19.57,8.87,8.87-19.57,19.57-8.87-8.87,19.57Zm-16,5.39l14.17-7.13-7.13-7.13-7.04,14.26Z"/>
        <path class="cls-2" d="m979.57,118.85l-19.57,8.87,8.87-19.57,19.57-8.87-8.87,19.57Zm-16,5.39l14.17-7.13-7.13-7.13-7.04,14.26Z"/>
        <path class="cls-2" d="m1036.43,118.85l-19.57,8.87,8.87-19.57,19.57-8.87-8.87,19.57Zm-16,5.39l14.17-7.13-7.13-7.13-7.04,14.26Z"/>
        <path class="cls-2" d="m1093.3,118.85l-19.57,8.87,8.87-19.57,19.57-8.87-8.87,19.57Zm-16,5.39l14.17-7.13-7.13-7.13-7.04,14.26Z"/>
        <path class="cls-2" d="m1150.16,118.85l-19.57,8.87,8.87-19.57,19.57-8.87-8.87,19.57Zm-16,5.39l14.17-7.13-7.13-7.13-7.04,14.26Z"/>
        <path class="cls-2" d="m1207.03,118.85l-19.57,8.87,8.87-19.57,19.57-8.87-8.87,19.57Zm-16,5.39l14.17-7.13-7.13-7.13-7.04,14.26Z"/>
        <path class="cls-2" d="m1263.9,118.85l-19.57,8.87,8.87-19.57,19.57-8.87-8.87,19.57Zm-16,5.39l14.17-7.13-7.13-7.13-7.04,14.26Z"/>
        <path class="cls-2" d="m1320.76,118.85l-19.57,8.87,8.87-19.57,19.57-8.87-8.87,19.57Zm-16,5.39l14.17-7.13-7.13-7.13-7.04,14.26Z"/>
        <path class="cls-2" d="m1377.63,118.85l-19.57,8.87,8.87-19.57,19.57-8.87-8.87,19.57Zm-16,5.39l14.17-7.13-7.13-7.13-7.04,14.26Z"/>
        <path class="cls-2" d="m1434.5,118.85l-19.57,8.87,8.87-19.57,19.57-8.87-8.87,19.57Zm-16,5.39l14.17-7.13-7.13-7.13-7.04,14.26Z"/>
        <path class="cls-2" d="m1491.36,118.85l-19.57,8.87,8.87-19.57,19.57-8.87-8.87,19.57Zm-16,5.39l14.17-7.13-7.13-7.13-7.04,14.26Z"/>
        <path class="cls-2" d="m1548.23,118.85l-19.57,8.87,8.87-19.57,19.57-8.87-8.87,19.57Zm-16,5.39l14.17-7.13-7.13-7.13-7.04,14.26Z"/>
        <path class="cls-2" d="m1605.1,118.85l-19.57,8.87,8.87-19.57,19.57-8.87-8.87,19.57Zm-16,5.39l14.17-7.13-7.13-7.13-7.04,14.26Z"/>
        <path class="cls-2" d="m1661.96,118.85l-19.57,8.87,8.87-19.57,19.57-8.87-8.87,19.57Zm-16,5.39l14.17-7.13-7.13-7.13-7.04,14.26Z"/>
        <path class="cls-2" d="m1718.83,118.85l-19.57,8.87,8.87-19.57,19.57-8.87-8.87,19.57Zm-16,5.39l14.17-7.13-7.13-7.13-7.04,14.26Z"/>
        <path class="cls-2" d="m1775.69,118.85l-19.57,8.87,8.87-19.57,19.57-8.87-8.87,19.57Zm-16,5.39l14.17-7.13-7.13-7.13-7.04,14.26Z"/>
        <path class="cls-2" d="m1832.56,118.85l-19.57,8.87,8.87-19.57,19.57-8.87-8.87,19.57Zm-16,5.39l14.17-7.13-7.13-7.13-7.04,14.26Z"/>
        <path class="cls-2" d="m1889.43,118.85l-19.57,8.87,8.87-19.57,19.57-8.87-8.87,19.57Zm-16,5.39l14.17-7.13-7.13-7.13-7.04,14.26Z"/>
        <path class="cls-2" d="m1008,175.72l-19.57,8.87,8.87-19.57,19.57-8.87-8.87,19.57Zm-16,5.39l14.17-7.13-7.13-7.13-7.04,14.26Z"/>
        <path class="cls-2" d="m1064.87,175.72l-19.57,8.87,8.87-19.57,19.57-8.87-8.87,19.57Zm-16,5.39l14.17-7.13-7.13-7.13-7.04,14.26Z"/>
        <path class="cls-2" d="m1121.73,175.72l-19.57,8.87,8.87-19.57,19.57-8.87-8.87,19.57Zm-16,5.39l14.17-7.13-7.13-7.13-7.04,14.26Z"/>
        <path class="cls-2" d="m1178.6,175.72l-19.57,8.87,8.87-19.57,19.57-8.87-8.87,19.57Zm-16,5.39l14.17-7.13-7.13-7.13-7.04,14.26Z"/>
        <path class="cls-2" d="m1235.46,175.72l-19.57,8.87,8.87-19.57,19.57-8.87-8.87,19.57Zm-16,5.39l14.17-7.13-7.13-7.13-7.04,14.26Z"/>
        <path class="cls-2" d="m1292.33,175.72l-19.57,8.87,8.87-19.57,19.57-8.87-8.87,19.57Zm-16,5.39l14.17-7.13-7.13-7.13-7.04,14.26Z"/>
        <path class="cls-2" d="m1349.2,175.72l-19.57,8.87,8.87-19.57,19.57-8.87-8.87,19.57Zm-16,5.39l14.17-7.13-7.13-7.13-7.04,14.26Z"/>
        <path class="cls-2" d="m1406.06,175.72l-19.57,8.87,8.87-19.57,19.57-8.87-8.87,19.57Zm-16,5.39l14.17-7.13-7.13-7.13-7.04,14.26Z"/>
        <path class="cls-2" d="m1462.93,175.72l-19.57,8.87,8.87-19.57,19.57-8.87-8.87,19.57Zm-16,5.39l14.17-7.13-7.13-7.13-7.04,14.26Z"/>
        <path class="cls-2" d="m1519.8,175.72l-19.57,8.87,8.87-19.57,19.57-8.87-8.87,19.57Zm-16,5.39l14.17-7.13-7.13-7.13-7.04,14.26Z"/>
        <path class="cls-2" d="m1576.66,175.72l-19.57,8.87,8.87-19.57,19.57-8.87-8.87,19.57Zm-16,5.39l14.17-7.13-7.13-7.13-7.04,14.26Z"/>
        <path class="cls-2" d="m1633.53,175.72l-19.57,8.87,8.87-19.57,19.57-8.87-8.87,19.57Zm-16,5.39l14.17-7.13-7.13-7.13-7.04,14.26Z"/>
        <path class="cls-2" d="m1690.4,175.72l-19.57,8.87,8.87-19.57,19.57-8.87-8.87,19.57Zm-16,5.39l14.17-7.13-7.13-7.13-7.04,14.26Z"/>
        <path class="cls-2" d="m1747.26,175.72l-19.57,8.87,8.87-19.57,19.57-8.87-8.87,19.57Zm-16,5.39l14.17-7.13-7.13-7.13-7.04,14.26Z"/>
        <path class="cls-2" d="m1804.13,175.72l-19.57,8.87,8.87-19.57,19.57-8.87-8.87,19.57Zm-16,5.39l14.17-7.13-7.13-7.13-7.04,14.26Z"/>
        <path class="cls-2" d="m1860.99,175.72l-19.57,8.87,8.87-19.57,19.57-8.87-8.87,19.57Zm-16,5.39l14.17-7.13-7.13-7.13-7.04,14.26Z"/>
        <path class="cls-2" d="m1917.86,175.72l-19.57,8.87,8.87-19.57,19.57-8.87-8.87,19.57Zm-16,5.39l14.17-7.13-7.13-7.13-7.04,14.26Z"/>
        <path class="cls-2" d="m979.57,232.58l-19.57,8.87,8.87-19.57,19.57-8.87-8.87,19.57Zm-16,5.39l14.17-7.13-7.13-7.13-7.04,14.26Z"/>
        <path class="cls-2" d="m1036.43,232.58l-19.57,8.87,8.87-19.57,19.57-8.87-8.87,19.57Zm-16,5.39l14.17-7.13-7.13-7.13-7.04,14.26Z"/>
        <path class="cls-2" d="m1093.3,232.58l-19.57,8.87,8.87-19.57,19.57-8.87-8.87,19.57Zm-16,5.39l14.17-7.13-7.13-7.13-7.04,14.26Z"/>
        <path class="cls-2" d="m1150.16,232.58l-19.57,8.87,8.87-19.57,19.57-8.87-8.87,19.57Zm-16,5.39l14.17-7.13-7.13-7.13-7.04,14.26Z"/>
        <path class="cls-2" d="m1207.03,232.58l-19.57,8.87,8.87-19.57,19.57-8.87-8.87,19.57Zm-16,5.39l14.17-7.13-7.13-7.13-7.04,14.26Z"/>
        <path class="cls-2" d="m1263.9,232.58l-19.57,8.87,8.87-19.57,19.57-8.87-8.87,19.57Zm-16,5.39l14.17-7.13-7.13-7.13-7.04,14.26Z"/>
        <path class="cls-2" d="m1320.76,232.58l-19.57,8.87,8.87-19.57,19.57-8.87-8.87,19.57Zm-16,5.39l14.17-7.13-7.13-7.13-7.04,14.26Z"/>
        <path class="cls-2" d="m1377.63,232.58l-19.57,8.87,8.87-19.57,19.57-8.87-8.87,19.57Zm-16,5.39l14.17-7.13-7.13-7.13-7.04,14.26Z"/>
        <path class="cls-2" d="m1434.5,232.58l-19.57,8.87,8.87-19.57,19.57-8.87-8.87,19.57Zm-16,5.39l14.17-7.13-7.13-7.13-7.04,14.26Z"/>
        <path class="cls-2" d="m1491.36,232.58l-19.57,8.87,8.87-19.57,19.57-8.87-8.87,19.57Zm-16,5.39l14.17-7.13-7.13-7.13-7.04,14.26Z"/>
        <path class="cls-2" d="m1548.23,232.58l-19.57,8.87,8.87-19.57,19.57-8.87-8.87,19.57Zm-16,5.39l14.17-7.13-7.13-7.13-7.04,14.26Z"/>
        <path class="cls-2" d="m1605.1,232.58l-19.57,8.87,8.87-19.57,19.57-8.87-8.87,19.57Zm-16,5.39l14.17-7.13-7.13-7.13-7.04,14.26Z"/>
        <path class="cls-2" d="m1661.96,232.58l-19.57,8.87,8.87-19.57,19.57-8.87-8.87,19.57Zm-16,5.39l14.17-7.13-7.13-7.13-7.04,14.26Z"/>
        <path class="cls-2" d="m1718.83,232.58l-19.57,8.87,8.87-19.57,19.57-8.87-8.87,19.57Zm-16,5.39l14.17-7.13-7.13-7.13-7.04,14.26Z"/>
        <path class="cls-2" d="m1775.69,232.58l-19.57,8.87,8.87-19.57,19.57-8.87-8.87,19.57Zm-16,5.39l14.17-7.13-7.13-7.13-7.04,14.26Z"/>
        <path class="cls-2" d="m1832.56,232.58l-19.57,8.87,8.87-19.57,19.57-8.87-8.87,19.57Zm-16,5.39l14.17-7.13-7.13-7.13-7.04,14.26Z"/>
        <path class="cls-2" d="m1889.43,232.58l-19.57,8.87,8.87-19.57,19.57-8.87-8.87,19.57Zm-16,5.39l14.17-7.13-7.13-7.13-7.04,14.26Z"/>
        <path class="cls-2" d="m1008,289.45l-19.57,8.87,8.87-19.57,19.57-8.87-8.87,19.57Zm-16,5.39l14.17-7.13-7.13-7.13-7.04,14.26Z"/>
        <path class="cls-2" d="m1064.87,289.45l-19.57,8.87,8.87-19.57,19.57-8.87-8.87,19.57Zm-16,5.39l14.17-7.13-7.13-7.13-7.04,14.26Z"/>
        <path class="cls-2" d="m1121.73,289.45l-19.57,8.87,8.87-19.57,19.57-8.87-8.87,19.57Zm-16,5.39l14.17-7.13-7.13-7.13-7.04,14.26Z"/>
        <path class="cls-2" d="m1178.6,289.45l-19.57,8.87,8.87-19.57,19.57-8.87-8.87,19.57Zm-16,5.39l14.17-7.13-7.13-7.13-7.04,14.26Z"/>
        <path class="cls-2" d="m1235.46,289.45l-19.57,8.87,8.87-19.57,19.57-8.87-8.87,19.57Zm-16,5.39l14.17-7.13-7.13-7.13-7.04,14.26Z"/>
        <path class="cls-2" d="m1292.33,289.45l-19.57,8.87,8.87-19.57,19.57-8.87-8.87,19.57Zm-16,5.39l14.17-7.13-7.13-7.13-7.04,14.26Z"/>
        <path class="cls-2" d="m1349.2,289.45l-19.57,8.87,8.87-19.57,19.57-8.87-8.87,19.57Zm-16,5.39l14.17-7.13-7.13-7.13-7.04,14.26Z"/>
        <path class="cls-2" d="m1406.06,289.45l-19.57,8.87,8.87-19.57,19.57-8.87-8.87,19.57Zm-16,5.39l14.17-7.13-7.13-7.13-7.04,14.26Z"/>
        <path class="cls-2" d="m1462.93,289.45l-19.57,8.87,8.87-19.57,19.57-8.87-8.87,19.57Zm-16,5.39l14.17-7.13-7.13-7.13-7.04,14.26Z"/>
        <path class="cls-2" d="m1519.8,289.45l-19.57,8.87,8.87-19.57,19.57-8.87-8.87,19.57Zm-16,5.39l14.17-7.13-7.13-7.13-7.04,14.26Z"/>
        <path class="cls-2" d="m1576.66,289.45l-19.57,8.87,8.87-19.57,19.57-8.87-8.87,19.57Zm-16,5.39l14.17-7.13-7.13-7.13-7.04,14.26Z"/>
        <path class="cls-2" d="m1633.53,289.45l-19.57,8.87,8.87-19.57,19.57-8.87-8.87,19.57Zm-16,5.39l14.17-7.13-7.13-7.13-7.04,14.26Z"/>
        <path class="cls-2" d="m1690.4,289.45l-19.57,8.87,8.87-19.57,19.57-8.87-8.87,19.57Zm-16,5.39l14.17-7.13-7.13-7.13-7.04,14.26Z"/>
        <path class="cls-2" d="m1747.26,289.45l-19.57,8.87,8.87-19.57,19.57-8.87-8.87,19.57Zm-16,5.39l14.17-7.13-7.13-7.13-7.04,14.26Z"/>
        <path class="cls-2" d="m1804.13,289.45l-19.57,8.87,8.87-19.57,19.57-8.87-8.87,19.57Zm-16,5.39l14.17-7.13-7.13-7.13-7.04,14.26Z"/>
        <path class="cls-2" d="m1860.99,289.45l-19.57,8.87,8.87-19.57,19.57-8.87-8.87,19.57Zm-16,5.39l14.17-7.13-7.13-7.13-7.04,14.26Z"/>
        <path class="cls-2" d="m1917.86,289.45l-19.57,8.87,8.87-19.57,19.57-8.87-8.87,19.57Zm-16,5.39l14.17-7.13-7.13-7.13-7.04,14.26Z"/>
        <path class="cls-2" d="m979.57,346.32l-19.57,8.87,8.87-19.57,19.57-8.87-8.87,19.57Zm-16,5.39l14.17-7.13-7.13-7.13-7.04,14.26Z"/>
        <path class="cls-2" d="m1036.43,346.32l-19.57,8.87,8.87-19.57,19.57-8.87-8.87,19.57Zm-16,5.39l14.17-7.13-7.13-7.13-7.04,14.26Z"/>
        <path class="cls-2" d="m1093.3,346.32l-19.57,8.87,8.87-19.57,19.57-8.87-8.87,19.57Zm-16,5.39l14.17-7.13-7.13-7.13-7.04,14.26Z"/>
        <path class="cls-2" d="m1150.16,346.32l-19.57,8.87,8.87-19.57,19.57-8.87-8.87,19.57Zm-16,5.39l14.17-7.13-7.13-7.13-7.04,14.26Z"/>
        <path class="cls-2" d="m1207.03,346.32l-19.57,8.87,8.87-19.57,19.57-8.87-8.87,19.57Zm-16,5.39l14.17-7.13-7.13-7.13-7.04,14.26Z"/>
        <path class="cls-2" d="m1263.9,346.32l-19.57,8.87,8.87-19.57,19.57-8.87-8.87,19.57Zm-16,5.39l14.17-7.13-7.13-7.13-7.04,14.26Z"/>
        <path class="cls-2" d="m1320.76,346.32l-19.57,8.87,8.87-19.57,19.57-8.87-8.87,19.57Zm-16,5.39l14.17-7.13-7.13-7.13-7.04,14.26Z"/>
        <path class="cls-2" d="m1377.63,346.32l-19.57,8.87,8.87-19.57,19.57-8.87-8.87,19.57Zm-16,5.39l14.17-7.13-7.13-7.13-7.04,14.26Z"/>
        <path class="cls-2" d="m1434.5,346.32l-19.57,8.87,8.87-19.57,19.57-8.87-8.87,19.57Zm-16,5.39l14.17-7.13-7.13-7.13-7.04,14.26Z"/>
        <path class="cls-2" d="m1491.36,346.32l-19.57,8.87,8.87-19.57,19.57-8.87-8.87,19.57Zm-16,5.39l14.17-7.13-7.13-7.13-7.04,14.26Z"/>
        <path class="cls-2" d="m1548.23,346.32l-19.57,8.87,8.87-19.57,19.57-8.87-8.87,19.57Zm-16,5.39l14.17-7.13-7.13-7.13-7.04,14.26Z"/>
        <path class="cls-2" d="m1605.1,346.32l-19.57,8.87,8.87-19.57,19.57-8.87-8.87,19.57Zm-16,5.39l14.17-7.13-7.13-7.13-7.04,14.26Z"/>
        <path class="cls-2" d="m1661.96,346.32l-19.57,8.87,8.87-19.57,19.57-8.87-8.87,19.57Zm-16,5.39l14.17-7.13-7.13-7.13-7.04,14.26Z"/>
        <path class="cls-2" d="m1718.83,346.32l-19.57,8.87,8.87-19.57,19.57-8.87-8.87,19.57Zm-16,5.39l14.17-7.13-7.13-7.13-7.04,14.26Z"/>
        <path class="cls-2" d="m1775.69,346.32l-19.57,8.87,8.87-19.57,19.57-8.87-8.87,19.57Zm-16,5.39l14.17-7.13-7.13-7.13-7.04,14.26Z"/>
        <path class="cls-2" d="m1832.56,346.32l-19.57,8.87,8.87-19.57,19.57-8.87-8.87,19.57Zm-16,5.39l14.17-7.13-7.13-7.13-7.04,14.26Z"/>
        <path class="cls-2" d="m1889.43,346.32l-19.57,8.87,8.87-19.57,19.57-8.87-8.87,19.57Zm-16,5.39l14.17-7.13-7.13-7.13-7.04,14.26Z"/>
        <path class="cls-2" d="m1008,403.18l-19.57,8.87,8.87-19.57,19.57-8.87-8.87,19.57Zm-16,5.39l14.17-7.13-7.13-7.13-7.04,14.26Z"/>
        <path class="cls-2" d="m1064.87,403.18l-19.57,8.87,8.87-19.57,19.57-8.87-8.87,19.57Zm-16,5.39l14.17-7.13-7.13-7.13-7.04,14.26Z"/>
        <path class="cls-2" d="m1121.73,403.18l-19.57,8.87,8.87-19.57,19.57-8.87-8.87,19.57Zm-16,5.39l14.17-7.13-7.13-7.13-7.04,14.26Z"/>
        <path class="cls-2" d="m1178.6,403.18l-19.57,8.87,8.87-19.57,19.57-8.87-8.87,19.57Zm-16,5.39l14.17-7.13-7.13-7.13-7.04,14.26Z"/>
        <path class="cls-2" d="m1235.46,403.18l-19.57,8.87,8.87-19.57,19.57-8.87-8.87,19.57Zm-16,5.39l14.17-7.13-7.13-7.13-7.04,14.26Z"/>
        <path class="cls-2" d="m1292.33,403.18l-19.57,8.87,8.87-19.57,19.57-8.87-8.87,19.57Zm-16,5.39l14.17-7.13-7.13-7.13-7.04,14.26Z"/>
        <path class="cls-2" d="m1349.2,403.18l-19.57,8.87,8.87-19.57,19.57-8.87-8.87,19.57Zm-16,5.39l14.17-7.13-7.13-7.13-7.04,14.26Z"/>
        <path class="cls-2" d="m1406.06,403.18l-19.57,8.87,8.87-19.57,19.57-8.87-8.87,19.57Zm-16,5.39l14.17-7.13-7.13-7.13-7.04,14.26Z"/>
        <path class="cls-2" d="m1462.93,403.18l-19.57,8.87,8.87-19.57,19.57-8.87-8.87,19.57Zm-16,5.39l14.17-7.13-7.13-7.13-7.04,14.26Z"/>
        <path class="cls-2" d="m1519.8,403.18l-19.57,8.87,8.87-19.57,19.57-8.87-8.87,19.57Zm-16,5.39l14.17-7.13-7.13-7.13-7.04,14.26Z"/>
        <path class="cls-2" d="m1576.66,403.18l-19.57,8.87,8.87-19.57,19.57-8.87-8.87,19.57Zm-16,5.39l14.17-7.13-7.13-7.13-7.04,14.26Z"/>
        <path class="cls-2" d="m1633.53,403.18l-19.57,8.87,8.87-19.57,19.57-8.87-8.87,19.57Zm-16,5.39l14.17-7.13-7.13-7.13-7.04,14.26Z"/>
        <path class="cls-2" d="m1690.4,403.18l-19.57,8.87,8.87-19.57,19.57-8.87-8.87,19.57Zm-16,5.39l14.17-7.13-7.13-7.13-7.04,14.26Z"/>
        <path class="cls-2" d="m1747.26,403.18l-19.57,8.87,8.87-19.57,19.57-8.87-8.87,19.57Zm-16,5.39l14.17-7.13-7.13-7.13-7.04,14.26Z"/>
        <path class="cls-2" d="m1804.13,403.18l-19.57,8.87,8.87-19.57,19.57-8.87-8.87,19.57Zm-16,5.39l14.17-7.13-7.13-7.13-7.04,14.26Z"/>
        <path class="cls-2" d="m1860.99,403.18l-19.57,8.87,8.87-19.57,19.57-8.87-8.87,19.57Zm-16,5.39l14.17-7.13-7.13-7.13-7.04,14.26Z"/>
        <path class="cls-2" d="m1917.86,403.18l-19.57,8.87,8.87-19.57,19.57-8.87-8.87,19.57Zm-16,5.39l14.17-7.13-7.13-7.13-7.04,14.26Z"/>
        <path class="cls-2" d="m979.57,460.05l-19.57,8.87,8.87-19.57,19.57-8.87-8.87,19.57Zm-16,5.39l14.17-7.13-7.13-7.13-7.04,14.26Z"/>
        <path class="cls-2" d="m1036.43,460.05l-19.57,8.87,8.87-19.57,19.57-8.87-8.87,19.57Zm-16,5.39l14.17-7.13-7.13-7.13-7.04,14.26Z"/>
        <path class="cls-2" d="m1093.3,460.05l-19.57,8.87,8.87-19.57,19.57-8.87-8.87,19.57Zm-16,5.39l14.17-7.13-7.13-7.13-7.04,14.26Z"/>
        <path class="cls-2" d="m1150.16,460.05l-19.57,8.87,8.87-19.57,19.57-8.87-8.87,19.57Zm-16,5.39l14.17-7.13-7.13-7.13-7.04,14.26Z"/>
        <path class="cls-2" d="m1207.03,460.05l-19.57,8.87,8.87-19.57,19.57-8.87-8.87,19.57Zm-16,5.39l14.17-7.13-7.13-7.13-7.04,14.26Z"/>
        <path class="cls-2" d="m1263.9,460.05l-19.57,8.87,8.87-19.57,19.57-8.87-8.87,19.57Zm-16,5.39l14.17-7.13-7.13-7.13-7.04,14.26Z"/>
        <path class="cls-2" d="m1320.76,460.05l-19.57,8.87,8.87-19.57,19.57-8.87-8.87,19.57Zm-16,5.39l14.17-7.13-7.13-7.13-7.04,14.26Z"/>
        <path class="cls-2" d="m1377.63,460.05l-19.57,8.87,8.87-19.57,19.57-8.87-8.87,19.57Zm-16,5.39l14.17-7.13-7.13-7.13-7.04,14.26Z"/>
        <path class="cls-2" d="m1434.5,460.05l-19.57,8.87,8.87-19.57,19.57-8.87-8.87,19.57Zm-16,5.39l14.17-7.13-7.13-7.13-7.04,14.26Z"/>
        <path class="cls-2" d="m1491.36,460.05l-19.57,8.87,8.87-19.57,19.57-8.87-8.87,19.57Zm-16,5.39l14.17-7.13-7.13-7.13-7.04,14.26Z"/>
        <path class="cls-2" d="m1548.23,460.05l-19.57,8.87,8.87-19.57,19.57-8.87-8.87,19.57Zm-16,5.39l14.17-7.13-7.13-7.13-7.04,14.26Z"/>
        <path class="cls-2" d="m1605.1,460.05l-19.57,8.87,8.87-19.57,19.57-8.87-8.87,19.57Zm-16,5.39l14.17-7.13-7.13-7.13-7.04,14.26Z"/>
        <path class="cls-2" d="m1661.96,460.05l-19.57,8.87,8.87-19.57,19.57-8.87-8.87,19.57Zm-16,5.39l14.17-7.13-7.13-7.13-7.04,14.26Z"/>
        <path class="cls-2" d="m1718.83,460.05l-19.57,8.87,8.87-19.57,19.57-8.87-8.87,19.57Zm-16,5.39l14.17-7.13-7.13-7.13-7.04,14.26Z"/>
        <path class="cls-2" d="m1775.69,460.05l-19.57,8.87,8.87-19.57,19.57-8.87-8.87,19.57Zm-16,5.39l14.17-7.13-7.13-7.13-7.04,14.26Z"/>
        <path class="cls-2" d="m1832.56,460.05l-19.57,8.87,8.87-19.57,19.57-8.87-8.87,19.57Zm-16,5.39l14.17-7.13-7.13-7.13-7.04,14.26Z"/>
        <path class="cls-2" d="m1889.43,460.05l-19.57,8.87,8.87-19.57,19.57-8.87-8.87,19.57Zm-16,5.39l14.17-7.13-7.13-7.13-7.04,14.26Z"/>
        <path class="cls-2" d="m1008,516.92l-19.57,8.87,8.87-19.57,19.57-8.87-8.87,19.57Zm-16,5.39l14.17-7.13-7.13-7.13-7.04,14.26Z"/>
        <path class="cls-2" d="m1064.87,516.92l-19.57,8.87,8.87-19.57,19.57-8.87-8.87,19.57Zm-16,5.39l14.17-7.13-7.13-7.13-7.04,14.26Z"/>
        <path class="cls-2" d="m1121.73,516.92l-19.57,8.87,8.87-19.57,19.57-8.87-8.87,19.57Zm-16,5.39l14.17-7.13-7.13-7.13-7.04,14.26Z"/>
        <path class="cls-2" d="m1178.6,516.92l-19.57,8.87,8.87-19.57,19.57-8.87-8.87,19.57Zm-16,5.39l14.17-7.13-7.13-7.13-7.04,14.26Z"/>
        <path class="cls-2" d="m1235.46,516.92l-19.57,8.87,8.87-19.57,19.57-8.87-8.87,19.57Zm-16,5.39l14.17-7.13-7.13-7.13-7.04,14.26Z"/>
        <path class="cls-2" d="m1292.33,516.92l-19.57,8.87,8.87-19.57,19.57-8.87-8.87,19.57Zm-16,5.39l14.17-7.13-7.13-7.13-7.04,14.26Z"/>
        <path class="cls-2" d="m1349.2,516.92l-19.57,8.87,8.87-19.57,19.57-8.87-8.87,19.57Zm-16,5.39l14.17-7.13-7.13-7.13-7.04,14.26Z"/>
        <path class="cls-2" d="m1406.06,516.92l-19.57,8.87,8.87-19.57,19.57-8.87-8.87,19.57Zm-16,5.39l14.17-7.13-7.13-7.13-7.04,14.26Z"/>
        <path class="cls-2" d="m1462.93,516.92l-19.57,8.87,8.87-19.57,19.57-8.87-8.87,19.57Zm-16,5.39l14.17-7.13-7.13-7.13-7.04,14.26Z"/>
        <path class="cls-2" d="m1519.8,516.92l-19.57,8.87,8.87-19.57,19.57-8.87-8.87,19.57Zm-16,5.39l14.17-7.13-7.13-7.13-7.04,14.26Z"/>
        <path class="cls-2" d="m1576.66,516.92l-19.57,8.87,8.87-19.57,19.57-8.87-8.87,19.57Zm-16,5.39l14.17-7.13-7.13-7.13-7.04,14.26Z"/>
        <path class="cls-2" d="m1633.53,516.92l-19.57,8.87,8.87-19.57,19.57-8.87-8.87,19.57Zm-16,5.39l14.17-7.13-7.13-7.13-7.04,14.26Z"/>
        <path class="cls-2" d="m1690.4,516.92l-19.57,8.87,8.87-19.57,19.57-8.87-8.87,19.57Zm-16,5.39l14.17-7.13-7.13-7.13-7.04,14.26Z"/>
        <path class="cls-2" d="m1747.26,516.92l-19.57,8.87,8.87-19.57,19.57-8.87-8.87,19.57Zm-16,5.39l14.17-7.13-7.13-7.13-7.04,14.26Z"/>
        <path class="cls-2" d="m1804.13,516.92l-19.57,8.87,8.87-19.57,19.57-8.87-8.87,19.57Zm-16,5.39l14.17-7.13-7.13-7.13-7.04,14.26Z"/>
        <path class="cls-2" d="m1860.99,516.92l-19.57,8.87,8.87-19.57,19.57-8.87-8.87,19.57Zm-16,5.39l14.17-7.13-7.13-7.13-7.04,14.26Z"/>
        <path class="cls-2" d="m1917.86,516.92l-19.57,8.87,8.87-19.57,19.57-8.87-8.87,19.57Zm-16,5.39l14.17-7.13-7.13-7.13-7.04,14.26Z"/>
      </g>
      <g>
        <path class="cls-2" d="m12.84,573.78l-19.57,8.87,8.87-19.57,19.57-8.87-8.87,19.57Zm-16,5.39l14.17-7.13-7.13-7.13-7.04,14.26Z"/>
        <path class="cls-2" d="m69.7,573.78l-19.57,8.87,8.87-19.57,19.57-8.87-8.87,19.57Zm-16,5.39l14.17-7.13-7.13-7.13-7.04,14.26Z"/>
        <path class="cls-2" d="m126.57,573.78l-19.57,8.87,8.87-19.57,19.57-8.87-8.87,19.57Zm-16,5.39l14.17-7.13-7.13-7.13-7.04,14.26Z"/>
        <path class="cls-2" d="m183.44,573.78l-19.57,8.87,8.87-19.57,19.57-8.87-8.87,19.57Zm-16,5.39l14.17-7.13-7.13-7.13-7.04,14.26Z"/>
        <path class="cls-2" d="m240.3,573.78l-19.57,8.87,8.87-19.57,19.57-8.87-8.87,19.57Zm-16,5.39l14.17-7.13-7.13-7.13-7.04,14.26Z"/>
        <path class="cls-2" d="m297.17,573.78l-19.57,8.87,8.87-19.57,19.57-8.87-8.87,19.57Zm-16,5.39l14.17-7.13-7.13-7.13-7.04,14.26Z"/>
        <path class="cls-2" d="m354.04,573.78l-19.57,8.87,8.87-19.57,19.57-8.87-8.87,19.57Zm-16,5.39l14.17-7.13-7.13-7.13-7.04,14.26Z"/>
        <path class="cls-2" d="m410.9,573.78l-19.57,8.87,8.87-19.57,19.57-8.87-8.87,19.57Zm-16,5.39l14.17-7.13-7.13-7.13-7.04,14.26Z"/>
        <path class="cls-2" d="m467.77,573.78l-19.57,8.87,8.87-19.57,19.57-8.87-8.87,19.57Zm-16,5.39l14.17-7.13-7.13-7.13-7.04,14.26Z"/>
        <path class="cls-2" d="m524.64,573.78l-19.57,8.87,8.87-19.57,19.57-8.87-8.87,19.57Zm-16,5.39l14.17-7.13-7.13-7.13-7.04,14.26Z"/>
        <path class="cls-2" d="m581.5,573.78l-19.57,8.87,8.87-19.57,19.57-8.87-8.87,19.57Zm-16,5.39l14.17-7.13-7.13-7.13-7.04,14.26Z"/>
        <path class="cls-2" d="m638.37,573.78l-19.57,8.87,8.87-19.57,19.57-8.87-8.87,19.57Zm-16,5.39l14.17-7.13-7.13-7.13-7.04,14.26Z"/>
        <path class="cls-2" d="m695.23,573.78l-19.57,8.87,8.87-19.57,19.57-8.87-8.87,19.57Zm-16,5.39l14.17-7.13-7.13-7.13-7.04,14.26Z"/>
        <path class="cls-2" d="m752.1,573.78l-19.57,8.87,8.87-19.57,19.57-8.87-8.87,19.57Zm-16,5.39l14.17-7.13-7.13-7.13-7.04,14.26Z"/>
        <path class="cls-2" d="m808.97,573.78l-19.57,8.87,8.87-19.57,19.57-8.87-8.87,19.57Zm-16,5.39l14.17-7.13-7.13-7.13-7.04,14.26Z"/>
        <path class="cls-2" d="m865.83,573.78l-19.57,8.87,8.87-19.57,19.57-8.87-8.87,19.57Zm-16,5.39l14.17-7.13-7.13-7.13-7.04,14.26Z"/>
        <path class="cls-2" d="m922.7,573.78l-19.57,8.87,8.87-19.57,19.57-8.87-8.87,19.57Zm-16,5.39l14.17-7.13-7.13-7.13-7.04,14.26Z"/>
        <path class="cls-2" d="m41.27,630.65l-19.57,8.87,8.87-19.57,19.57-8.87-8.87,19.57Zm-16,5.39l14.17-7.13-7.13-7.13-7.04,14.26Z"/>
        <path class="cls-2" d="m98.14,630.65l-19.57,8.87,8.87-19.57,19.57-8.87-8.87,19.57Zm-16,5.39l14.17-7.13-7.13-7.13-7.04,14.26Z"/>
        <path class="cls-2" d="m155,630.65l-19.57,8.87,8.87-19.57,19.57-8.87-8.87,19.57Zm-16,5.39l14.17-7.13-7.13-7.13-7.04,14.26Z"/>
        <path class="cls-2" d="m211.87,630.65l-19.57,8.87,8.87-19.57,19.57-8.87-8.87,19.57Zm-16,5.39l14.17-7.13-7.13-7.13-7.04,14.26Z"/>
        <path class="cls-2" d="m268.74,630.65l-19.57,8.87,8.87-19.57,19.57-8.87-8.87,19.57Zm-16,5.39l14.17-7.13-7.13-7.13-7.04,14.26Z"/>
        <path class="cls-2" d="m325.6,630.65l-19.57,8.87,8.87-19.57,19.57-8.87-8.87,19.57Zm-16,5.39l14.17-7.13-7.13-7.13-7.04,14.26Z"/>
        <path class="cls-2" d="m382.47,630.65l-19.57,8.87,8.87-19.57,19.57-8.87-8.87,19.57Zm-16,5.39l14.17-7.13-7.13-7.13-7.04,14.26Z"/>
        <path class="cls-2" d="m439.34,630.65l-19.57,8.87,8.87-19.57,19.57-8.87-8.87,19.57Zm-16,5.39l14.17-7.13-7.13-7.13-7.04,14.26Z"/>
        <path class="cls-2" d="m496.2,630.65l-19.57,8.87,8.87-19.57,19.57-8.87-8.87,19.57Zm-16,5.39l14.17-7.13-7.13-7.13-7.04,14.26Z"/>
        <path class="cls-2" d="m553.07,630.65l-19.57,8.87,8.87-19.57,19.57-8.87-8.87,19.57Zm-16,5.39l14.17-7.13-7.13-7.13-7.04,14.26Z"/>
        <path class="cls-2" d="m609.93,630.65l-19.57,8.87,8.87-19.57,19.57-8.87-8.87,19.57Zm-16,5.39l14.17-7.13-7.13-7.13-7.04,14.26Z"/>
        <path class="cls-2" d="m666.8,630.65l-19.57,8.87,8.87-19.57,19.57-8.87-8.87,19.57Zm-16,5.39l14.17-7.13-7.13-7.13-7.04,14.26Z"/>
        <path class="cls-2" d="m723.67,630.65l-19.57,8.87,8.87-19.57,19.57-8.87-8.87,19.57Zm-16,5.39l14.17-7.13-7.13-7.13-7.04,14.26Z"/>
        <path class="cls-2" d="m780.53,630.65l-19.57,8.87,8.87-19.57,19.57-8.87-8.87,19.57Zm-16,5.39l14.17-7.13-7.13-7.13-7.04,14.26Z"/>
        <path class="cls-2" d="m837.4,630.65l-19.57,8.87,8.87-19.57,19.57-8.87-8.87,19.57Zm-16,5.39l14.17-7.13-7.13-7.13-7.04,14.26Z"/>
        <path class="cls-2" d="m894.27,630.65l-19.57,8.87,8.87-19.57,19.57-8.87-8.87,19.57Zm-16,5.39l14.17-7.13-7.13-7.13-7.04,14.26Z"/>
        <path class="cls-2" d="m951.13,630.65l-19.57,8.87,8.87-19.57,19.57-8.87-8.87,19.57Zm-16,5.39l14.17-7.13-7.13-7.13-7.04,14.26Z"/>
        <path class="cls-2" d="m12.84,687.52l-19.57,8.87,8.87-19.57,19.57-8.87-8.87,19.57Zm-16,5.39l14.17-7.13-7.13-7.13-7.04,14.26Z"/>
        <path class="cls-2" d="m69.7,687.52l-19.57,8.87,8.87-19.57,19.57-8.87-8.87,19.57Zm-16,5.39l14.17-7.13-7.13-7.13-7.04,14.26Z"/>
        <path class="cls-2" d="m126.57,687.52l-19.57,8.87,8.87-19.57,19.57-8.87-8.87,19.57Zm-16,5.39l14.17-7.13-7.13-7.13-7.04,14.26Z"/>
        <path class="cls-2" d="m183.44,687.52l-19.57,8.87,8.87-19.57,19.57-8.87-8.87,19.57Zm-16,5.39l14.17-7.13-7.13-7.13-7.04,14.26Z"/>
        <path class="cls-2" d="m240.3,687.52l-19.57,8.87,8.87-19.57,19.57-8.87-8.87,19.57Zm-16,5.39l14.17-7.13-7.13-7.13-7.04,14.26Z"/>
        <path class="cls-2" d="m297.17,687.52l-19.57,8.87,8.87-19.57,19.57-8.87-8.87,19.57Zm-16,5.39l14.17-7.13-7.13-7.13-7.04,14.26Z"/>
        <path class="cls-2" d="m354.04,687.52l-19.57,8.87,8.87-19.57,19.57-8.87-8.87,19.57Zm-16,5.39l14.17-7.13-7.13-7.13-7.04,14.26Z"/>
        <path class="cls-2" d="m410.9,687.52l-19.57,8.87,8.87-19.57,19.57-8.87-8.87,19.57Zm-16,5.39l14.17-7.13-7.13-7.13-7.04,14.26Z"/>
        <path class="cls-2" d="m467.77,687.52l-19.57,8.87,8.87-19.57,19.57-8.87-8.87,19.57Zm-16,5.39l14.17-7.13-7.13-7.13-7.04,14.26Z"/>
        <path class="cls-2" d="m524.64,687.52l-19.57,8.87,8.87-19.57,19.57-8.87-8.87,19.57Zm-16,5.39l14.17-7.13-7.13-7.13-7.04,14.26Z"/>
        <path class="cls-2" d="m581.5,687.52l-19.57,8.87,8.87-19.57,19.57-8.87-8.87,19.57Zm-16,5.39l14.17-7.13-7.13-7.13-7.04,14.26Z"/>
        <path class="cls-2" d="m638.37,687.52l-19.57,8.87,8.87-19.57,19.57-8.87-8.87,19.57Zm-16,5.39l14.17-7.13-7.13-7.13-7.04,14.26Z"/>
        <path class="cls-2" d="m695.23,687.52l-19.57,8.87,8.87-19.57,19.57-8.87-8.87,19.57Zm-16,5.39l14.17-7.13-7.13-7.13-7.04,14.26Z"/>
        <path class="cls-2" d="m752.1,687.52l-19.57,8.87,8.87-19.57,19.57-8.87-8.87,19.57Zm-16,5.39l14.17-7.13-7.13-7.13-7.04,14.26Z"/>
        <path class="cls-2" d="m808.97,687.52l-19.57,8.87,8.87-19.57,19.57-8.87-8.87,19.57Zm-16,5.39l14.17-7.13-7.13-7.13-7.04,14.26Z"/>
        <path class="cls-2" d="m865.83,687.52l-19.57,8.87,8.87-19.57,19.57-8.87-8.87,19.57Zm-16,5.39l14.17-7.13-7.13-7.13-7.04,14.26Z"/>
        <path class="cls-2" d="m922.7,687.52l-19.57,8.87,8.87-19.57,19.57-8.87-8.87,19.57Zm-16,5.39l14.17-7.13-7.13-7.13-7.04,14.26Z"/>
        <path class="cls-2" d="m41.27,744.38l-19.57,8.87,8.87-19.57,19.57-8.87-8.87,19.57Zm-16,5.39l14.17-7.13-7.13-7.13-7.04,14.26Z"/>
        <path class="cls-2" d="m98.14,744.38l-19.57,8.87,8.87-19.57,19.57-8.87-8.87,19.57Zm-16,5.39l14.17-7.13-7.13-7.13-7.04,14.26Z"/>
        <path class="cls-2" d="m155,744.38l-19.57,8.87,8.87-19.57,19.57-8.87-8.87,19.57Zm-16,5.39l14.17-7.13-7.13-7.13-7.04,14.26Z"/>
        <path class="cls-2" d="m211.87,744.38l-19.57,8.87,8.87-19.57,19.57-8.87-8.87,19.57Zm-16,5.39l14.17-7.13-7.13-7.13-7.04,14.26Z"/>
        <path class="cls-2" d="m268.74,744.38l-19.57,8.87,8.87-19.57,19.57-8.87-8.87,19.57Zm-16,5.39l14.17-7.13-7.13-7.13-7.04,14.26Z"/>
        <path class="cls-2" d="m325.6,744.38l-19.57,8.87,8.87-19.57,19.57-8.87-8.87,19.57Zm-16,5.39l14.17-7.13-7.13-7.13-7.04,14.26Z"/>
        <path class="cls-2" d="m382.47,744.38l-19.57,8.87,8.87-19.57,19.57-8.87-8.87,19.57Zm-16,5.39l14.17-7.13-7.13-7.13-7.04,14.26Z"/>
        <path class="cls-2" d="m439.34,744.38l-19.57,8.87,8.87-19.57,19.57-8.87-8.87,19.57Zm-16,5.39l14.17-7.13-7.13-7.13-7.04,14.26Z"/>
        <path class="cls-2" d="m496.2,744.38l-19.57,8.87,8.87-19.57,19.57-8.87-8.87,19.57Zm-16,5.39l14.17-7.13-7.13-7.13-7.04,14.26Z"/>
        <path class="cls-2" d="m553.07,744.38l-19.57,8.87,8.87-19.57,19.57-8.87-8.87,19.57Zm-16,5.39l14.17-7.13-7.13-7.13-7.04,14.26Z"/>
        <path class="cls-2" d="m609.93,744.38l-19.57,8.87,8.87-19.57,19.57-8.87-8.87,19.57Zm-16,5.39l14.17-7.13-7.13-7.13-7.04,14.26Z"/>
        <path class="cls-2" d="m666.8,744.38l-19.57,8.87,8.87-19.57,19.57-8.87-8.87,19.57Zm-16,5.39l14.17-7.13-7.13-7.13-7.04,14.26Z"/>
        <path class="cls-2" d="m723.67,744.38l-19.57,8.87,8.87-19.57,19.57-8.87-8.87,19.57Zm-16,5.39l14.17-7.13-7.13-7.13-7.04,14.26Z"/>
        <path class="cls-2" d="m780.53,744.38l-19.57,8.87,8.87-19.57,19.57-8.87-8.87,19.57Zm-16,5.39l14.17-7.13-7.13-7.13-7.04,14.26Z"/>
        <path class="cls-2" d="m837.4,744.38l-19.57,8.87,8.87-19.57,19.57-8.87-8.87,19.57Zm-16,5.39l14.17-7.13-7.13-7.13-7.04,14.26Z"/>
        <path class="cls-2" d="m894.27,744.38l-19.57,8.87,8.87-19.57,19.57-8.87-8.87,19.57Zm-16,5.39l14.17-7.13-7.13-7.13-7.04,14.26Z"/>
        <path class="cls-2" d="m951.13,744.38l-19.57,8.87,8.87-19.57,19.57-8.87-8.87,19.57Zm-16,5.39l14.17-7.13-7.13-7.13-7.04,14.26Z"/>
        <path class="cls-2" d="m12.84,801.25l-19.57,8.87,8.87-19.57,19.57-8.87-8.87,19.57Zm-16,5.39l14.17-7.13-7.13-7.13-7.04,14.26Z"/>
        <path class="cls-2" d="m69.7,801.25l-19.57,8.87,8.87-19.57,19.57-8.87-8.87,19.57Zm-16,5.39l14.17-7.13-7.13-7.13-7.04,14.26Z"/>
        <path class="cls-2" d="m126.57,801.25l-19.57,8.87,8.87-19.57,19.57-8.87-8.87,19.57Zm-16,5.39l14.17-7.13-7.13-7.13-7.04,14.26Z"/>
        <path class="cls-2" d="m183.44,801.25l-19.57,8.87,8.87-19.57,19.57-8.87-8.87,19.57Zm-16,5.39l14.17-7.13-7.13-7.13-7.04,14.26Z"/>
        <path class="cls-2" d="m240.3,801.25l-19.57,8.87,8.87-19.57,19.57-8.87-8.87,19.57Zm-16,5.39l14.17-7.13-7.13-7.13-7.04,14.26Z"/>
        <path class="cls-2" d="m297.17,801.25l-19.57,8.87,8.87-19.57,19.57-8.87-8.87,19.57Zm-16,5.39l14.17-7.13-7.13-7.13-7.04,14.26Z"/>
        <path class="cls-2" d="m354.04,801.25l-19.57,8.87,8.87-19.57,19.57-8.87-8.87,19.57Zm-16,5.39l14.17-7.13-7.13-7.13-7.04,14.26Z"/>
        <path class="cls-2" d="m410.9,801.25l-19.57,8.87,8.87-19.57,19.57-8.87-8.87,19.57Zm-16,5.39l14.17-7.13-7.13-7.13-7.04,14.26Z"/>
        <path class="cls-2" d="m467.77,801.25l-19.57,8.87,8.87-19.57,19.57-8.87-8.87,19.57Zm-16,5.39l14.17-7.13-7.13-7.13-7.04,14.26Z"/>
        <path class="cls-2" d="m524.64,801.25l-19.57,8.87,8.87-19.57,19.57-8.87-8.87,19.57Zm-16,5.39l14.17-7.13-7.13-7.13-7.04,14.26Z"/>
        <path class="cls-2" d="m581.5,801.25l-19.57,8.87,8.87-19.57,19.57-8.87-8.87,19.57Zm-16,5.39l14.17-7.13-7.13-7.13-7.04,14.26Z"/>
        <path class="cls-2" d="m638.37,801.25l-19.57,8.87,8.87-19.57,19.57-8.87-8.87,19.57Zm-16,5.39l14.17-7.13-7.13-7.13-7.04,14.26Z"/>
        <path class="cls-2" d="m695.23,801.25l-19.57,8.87,8.87-19.57,19.57-8.87-8.87,19.57Zm-16,5.39l14.17-7.13-7.13-7.13-7.04,14.26Z"/>
        <path class="cls-2" d="m752.1,801.25l-19.57,8.87,8.87-19.57,19.57-8.87-8.87,19.57Zm-16,5.39l14.17-7.13-7.13-7.13-7.04,14.26Z"/>
        <path class="cls-2" d="m808.97,801.25l-19.57,8.87,8.87-19.57,19.57-8.87-8.87,19.57Zm-16,5.39l14.17-7.13-7.13-7.13-7.04,14.26Z"/>
        <path class="cls-2" d="m865.83,801.25l-19.57,8.87,8.87-19.57,19.57-8.87-8.87,19.57Zm-16,5.39l14.17-7.13-7.13-7.13-7.04,14.26Z"/>
        <path class="cls-2" d="m922.7,801.25l-19.57,8.87,8.87-19.57,19.57-8.87-8.87,19.57Zm-16,5.39l14.17-7.13-7.13-7.13-7.04,14.26Z"/>
        <path class="cls-2" d="m41.27,858.11l-19.57,8.87,8.87-19.57,19.57-8.87-8.87,19.57Zm-16,5.39l14.17-7.13-7.13-7.13-7.04,14.26Z"/>
        <path class="cls-2" d="m98.14,858.11l-19.57,8.87,8.87-19.57,19.57-8.87-8.87,19.57Zm-16,5.39l14.17-7.13-7.13-7.13-7.04,14.26Z"/>
        <path class="cls-2" d="m155,858.11l-19.57,8.87,8.87-19.57,19.57-8.87-8.87,19.57Zm-16,5.39l14.17-7.13-7.13-7.13-7.04,14.26Z"/>
        <path class="cls-2" d="m211.87,858.11l-19.57,8.87,8.87-19.57,19.57-8.87-8.87,19.57Zm-16,5.39l14.17-7.13-7.13-7.13-7.04,14.26Z"/>
        <path class="cls-2" d="m268.74,858.11l-19.57,8.87,8.87-19.57,19.57-8.87-8.87,19.57Zm-16,5.39l14.17-7.13-7.13-7.13-7.04,14.26Z"/>
        <path class="cls-2" d="m325.6,858.11l-19.57,8.87,8.87-19.57,19.57-8.87-8.87,19.57Zm-16,5.39l14.17-7.13-7.13-7.13-7.04,14.26Z"/>
        <path class="cls-2" d="m382.47,858.11l-19.57,8.87,8.87-19.57,19.57-8.87-8.87,19.57Zm-16,5.39l14.17-7.13-7.13-7.13-7.04,14.26Z"/>
        <path class="cls-2" d="m439.34,858.11l-19.57,8.87,8.87-19.57,19.57-8.87-8.87,19.57Zm-16,5.39l14.17-7.13-7.13-7.13-7.04,14.26Z"/>
        <path class="cls-2" d="m496.2,858.11l-19.57,8.87,8.87-19.57,19.57-8.87-8.87,19.57Zm-16,5.39l14.17-7.13-7.13-7.13-7.04,14.26Z"/>
        <path class="cls-2" d="m553.07,858.11l-19.57,8.87,8.87-19.57,19.57-8.87-8.87,19.57Zm-16,5.39l14.17-7.13-7.13-7.13-7.04,14.26Z"/>
        <path class="cls-2" d="m609.93,858.11l-19.57,8.87,8.87-19.57,19.57-8.87-8.87,19.57Zm-16,5.39l14.17-7.13-7.13-7.13-7.04,14.26Z"/>
        <path class="cls-2" d="m666.8,858.11l-19.57,8.87,8.87-19.57,19.57-8.87-8.87,19.57Zm-16,5.39l14.17-7.13-7.13-7.13-7.04,14.26Z"/>
        <path class="cls-2" d="m723.67,858.11l-19.57,8.87,8.87-19.57,19.57-8.87-8.87,19.57Zm-16,5.39l14.17-7.13-7.13-7.13-7.04,14.26Z"/>
        <path class="cls-2" d="m780.53,858.11l-19.57,8.87,8.87-19.57,19.57-8.87-8.87,19.57Zm-16,5.39l14.17-7.13-7.13-7.13-7.04,14.26Z"/>
        <path class="cls-2" d="m837.4,858.11l-19.57,8.87,8.87-19.57,19.57-8.87-8.87,19.57Zm-16,5.39l14.17-7.13-7.13-7.13-7.04,14.26Z"/>
        <path class="cls-2" d="m894.27,858.11l-19.57,8.87,8.87-19.57,19.57-8.87-8.87,19.57Zm-16,5.39l14.17-7.13-7.13-7.13-7.04,14.26Z"/>
        <path class="cls-2" d="m951.13,858.11l-19.57,8.87,8.87-19.57,19.57-8.87-8.87,19.57Zm-16,5.39l14.17-7.13-7.13-7.13-7.04,14.26Z"/>
        <path class="cls-2" d="m12.84,914.98l-19.57,8.87,8.87-19.57,19.57-8.87-8.87,19.57Zm-16,5.39l14.17-7.13-7.13-7.13-7.04,14.26Z"/>
        <path class="cls-2" d="m69.7,914.98l-19.57,8.87,8.87-19.57,19.57-8.87-8.87,19.57Zm-16,5.39l14.17-7.13-7.13-7.13-7.04,14.26Z"/>
        <path class="cls-2" d="m126.57,914.98l-19.57,8.87,8.87-19.57,19.57-8.87-8.87,19.57Zm-16,5.39l14.17-7.13-7.13-7.13-7.04,14.26Z"/>
        <path class="cls-2" d="m183.44,914.98l-19.57,8.87,8.87-19.57,19.57-8.87-8.87,19.57Zm-16,5.39l14.17-7.13-7.13-7.13-7.04,14.26Z"/>
        <path class="cls-2" d="m240.3,914.98l-19.57,8.87,8.87-19.57,19.57-8.87-8.87,19.57Zm-16,5.39l14.17-7.13-7.13-7.13-7.04,14.26Z"/>
        <path class="cls-2" d="m297.17,914.98l-19.57,8.87,8.87-19.57,19.57-8.87-8.87,19.57Zm-16,5.39l14.17-7.13-7.13-7.13-7.04,14.26Z"/>
        <path class="cls-2" d="m354.04,914.98l-19.57,8.87,8.87-19.57,19.57-8.87-8.87,19.57Zm-16,5.39l14.17-7.13-7.13-7.13-7.04,14.26Z"/>
        <path class="cls-2" d="m410.9,914.98l-19.57,8.87,8.87-19.57,19.57-8.87-8.87,19.57Zm-16,5.39l14.17-7.13-7.13-7.13-7.04,14.26Z"/>
        <path class="cls-2" d="m467.77,914.98l-19.57,8.87,8.87-19.57,19.57-8.87-8.87,19.57Zm-16,5.39l14.17-7.13-7.13-7.13-7.04,14.26Z"/>
        <path class="cls-2" d="m524.64,914.98l-19.57,8.87,8.87-19.57,19.57-8.87-8.87,19.57Zm-16,5.39l14.17-7.13-7.13-7.13-7.04,14.26Z"/>
        <path class="cls-2" d="m581.5,914.98l-19.57,8.87,8.87-19.57,19.57-8.87-8.87,19.57Zm-16,5.39l14.17-7.13-7.13-7.13-7.04,14.26Z"/>
        <path class="cls-2" d="m638.37,914.98l-19.57,8.87,8.87-19.57,19.57-8.87-8.87,19.57Zm-16,5.39l14.17-7.13-7.13-7.13-7.04,14.26Z"/>
        <path class="cls-2" d="m695.23,914.98l-19.57,8.87,8.87-19.57,19.57-8.87-8.87,19.57Zm-16,5.39l14.17-7.13-7.13-7.13-7.04,14.26Z"/>
        <path class="cls-2" d="m752.1,914.98l-19.57,8.87,8.87-19.57,19.57-8.87-8.87,19.57Zm-16,5.39l14.17-7.13-7.13-7.13-7.04,14.26Z"/>
        <path class="cls-2" d="m808.97,914.98l-19.57,8.87,8.87-19.57,19.57-8.87-8.87,19.57Zm-16,5.39l14.17-7.13-7.13-7.13-7.04,14.26Z"/>
        <path class="cls-2" d="m865.83,914.98l-19.57,8.87,8.87-19.57,19.57-8.87-8.87,19.57Zm-16,5.39l14.17-7.13-7.13-7.13-7.04,14.26Z"/>
        <path class="cls-2" d="m922.7,914.98l-19.57,8.87,8.87-19.57,19.57-8.87-8.87,19.57Zm-16,5.39l14.17-7.13-7.13-7.13-7.04,14.26Z"/>
        <path class="cls-2" d="m41.27,971.85l-19.57,8.87,8.87-19.57,19.57-8.87-8.87,19.57Zm-16,5.39l14.17-7.13-7.13-7.13-7.04,14.26Z"/>
        <path class="cls-2" d="m98.14,971.85l-19.57,8.87,8.87-19.57,19.57-8.87-8.87,19.57Zm-16,5.39l14.17-7.13-7.13-7.13-7.04,14.26Z"/>
        <path class="cls-2" d="m155,971.85l-19.57,8.87,8.87-19.57,19.57-8.87-8.87,19.57Zm-16,5.39l14.17-7.13-7.13-7.13-7.04,14.26Z"/>
        <path class="cls-2" d="m211.87,971.85l-19.57,8.87,8.87-19.57,19.57-8.87-8.87,19.57Zm-16,5.39l14.17-7.13-7.13-7.13-7.04,14.26Z"/>
        <path class="cls-2" d="m268.74,971.85l-19.57,8.87,8.87-19.57,19.57-8.87-8.87,19.57Zm-16,5.39l14.17-7.13-7.13-7.13-7.04,14.26Z"/>
        <path class="cls-2" d="m325.6,971.85l-19.57,8.87,8.87-19.57,19.57-8.87-8.87,19.57Zm-16,5.39l14.17-7.13-7.13-7.13-7.04,14.26Z"/>
        <path class="cls-2" d="m382.47,971.85l-19.57,8.87,8.87-19.57,19.57-8.87-8.87,19.57Zm-16,5.39l14.17-7.13-7.13-7.13-7.04,14.26Z"/>
        <path class="cls-2" d="m439.34,971.85l-19.57,8.87,8.87-19.57,19.57-8.87-8.87,19.57Zm-16,5.39l14.17-7.13-7.13-7.13-7.04,14.26Z"/>
        <path class="cls-2" d="m496.2,971.85l-19.57,8.87,8.87-19.57,19.57-8.87-8.87,19.57Zm-16,5.39l14.17-7.13-7.13-7.13-7.04,14.26Z"/>
        <path class="cls-2" d="m553.07,971.85l-19.57,8.87,8.87-19.57,19.57-8.87-8.87,19.57Zm-16,5.39l14.17-7.13-7.13-7.13-7.04,14.26Z"/>
        <path class="cls-2" d="m609.93,971.85l-19.57,8.87,8.87-19.57,19.57-8.87-8.87,19.57Zm-16,5.39l14.17-7.13-7.13-7.13-7.04,14.26Z"/>
        <path class="cls-2" d="m666.8,971.85l-19.57,8.87,8.87-19.57,19.57-8.87-8.87,19.57Zm-16,5.39l14.17-7.13-7.13-7.13-7.04,14.26Z"/>
        <path class="cls-2" d="m723.67,971.85l-19.57,8.87,8.87-19.57,19.57-8.87-8.87,19.57Zm-16,5.39l14.17-7.13-7.13-7.13-7.04,14.26Z"/>
        <path class="cls-2" d="m780.53,971.85l-19.57,8.87,8.87-19.57,19.57-8.87-8.87,19.57Zm-16,5.39l14.17-7.13-7.13-7.13-7.04,14.26Z"/>
        <path class="cls-2" d="m837.4,971.85l-19.57,8.87,8.87-19.57,19.57-8.87-8.87,19.57Zm-16,5.39l14.17-7.13-7.13-7.13-7.04,14.26Z"/>
        <path class="cls-2" d="m894.27,971.85l-19.57,8.87,8.87-19.57,19.57-8.87-8.87,19.57Zm-16,5.39l14.17-7.13-7.13-7.13-7.04,14.26Z"/>
        <path class="cls-2" d="m951.13,971.85l-19.57,8.87,8.87-19.57,19.57-8.87-8.87,19.57Zm-16,5.39l14.17-7.13-7.13-7.13-7.04,14.26Z"/>
        <path class="cls-2" d="m12.84,1028.71l-19.57,8.87,8.87-19.57,19.57-8.87-8.87,19.57Zm-16,5.39l14.17-7.13-7.13-7.13-7.04,14.26Z"/>
        <path class="cls-2" d="m69.7,1028.71l-19.57,8.87,8.87-19.57,19.57-8.87-8.87,19.57Zm-16,5.39l14.17-7.13-7.13-7.13-7.04,14.26Z"/>
        <path class="cls-2" d="m126.57,1028.71l-19.57,8.87,8.87-19.57,19.57-8.87-8.87,19.57Zm-16,5.39l14.17-7.13-7.13-7.13-7.04,14.26Z"/>
        <path class="cls-2" d="m183.44,1028.71l-19.57,8.87,8.87-19.57,19.57-8.87-8.87,19.57Zm-16,5.39l14.17-7.13-7.13-7.13-7.04,14.26Z"/>
        <path class="cls-2" d="m240.3,1028.71l-19.57,8.87,8.87-19.57,19.57-8.87-8.87,19.57Zm-16,5.39l14.17-7.13-7.13-7.13-7.04,14.26Z"/>
        <path class="cls-2" d="m297.17,1028.71l-19.57,8.87,8.87-19.57,19.57-8.87-8.87,19.57Zm-16,5.39l14.17-7.13-7.13-7.13-7.04,14.26Z"/>
        <path class="cls-2" d="m354.04,1028.71l-19.57,8.87,8.87-19.57,19.57-8.87-8.87,19.57Zm-16,5.39l14.17-7.13-7.13-7.13-7.04,14.26Z"/>
        <path class="cls-2" d="m410.9,1028.71l-19.57,8.87,8.87-19.57,19.57-8.87-8.87,19.57Zm-16,5.39l14.17-7.13-7.13-7.13-7.04,14.26Z"/>
        <path class="cls-2" d="m467.77,1028.71l-19.57,8.87,8.87-19.57,19.57-8.87-8.87,19.57Zm-16,5.39l14.17-7.13-7.13-7.13-7.04,14.26Z"/>
        <path class="cls-2" d="m524.64,1028.71l-19.57,8.87,8.87-19.57,19.57-8.87-8.87,19.57Zm-16,5.39l14.17-7.13-7.13-7.13-7.04,14.26Z"/>
        <path class="cls-2" d="m581.5,1028.71l-19.57,8.87,8.87-19.57,19.57-8.87-8.87,19.57Zm-16,5.39l14.17-7.13-7.13-7.13-7.04,14.26Z"/>
        <path class="cls-2" d="m638.37,1028.71l-19.57,8.87,8.87-19.57,19.57-8.87-8.87,19.57Zm-16,5.39l14.17-7.13-7.13-7.13-7.04,14.26Z"/>
        <path class="cls-2" d="m695.23,1028.71l-19.57,8.87,8.87-19.57,19.57-8.87-8.87,19.57Zm-16,5.39l14.17-7.13-7.13-7.13-7.04,14.26Z"/>
        <path class="cls-2" d="m752.1,1028.71l-19.57,8.87,8.87-19.57,19.57-8.87-8.87,19.57Zm-16,5.39l14.17-7.13-7.13-7.13-7.04,14.26Z"/>
        <path class="cls-2" d="m808.97,1028.71l-19.57,8.87,8.87-19.57,19.57-8.87-8.87,19.57Zm-16,5.39l14.17-7.13-7.13-7.13-7.04,14.26Z"/>
        <path class="cls-2" d="m865.83,1028.71l-19.57,8.87,8.87-19.57,19.57-8.87-8.87,19.57Zm-16,5.39l14.17-7.13-7.13-7.13-7.04,14.26Z"/>
        <path class="cls-2" d="m922.7,1028.71l-19.57,8.87,8.87-19.57,19.57-8.87-8.87,19.57Zm-16,5.39l14.17-7.13-7.13-7.13-7.04,14.26Z"/>
        <path class="cls-2" d="m41.27,1085.58l-19.57,8.87,8.87-19.57,19.57-8.87-8.87,19.57Zm-16,5.39l14.17-7.13-7.13-7.13-7.04,14.26Z"/>
        <path class="cls-2" d="m98.14,1085.58l-19.57,8.87,8.87-19.57,19.57-8.87-8.87,19.57Zm-16,5.39l14.17-7.13-7.13-7.13-7.04,14.26Z"/>
        <path class="cls-2" d="m155,1085.58l-19.57,8.87,8.87-19.57,19.57-8.87-8.87,19.57Zm-16,5.39l14.17-7.13-7.13-7.13-7.04,14.26Z"/>
        <path class="cls-2" d="m211.87,1085.58l-19.57,8.87,8.87-19.57,19.57-8.87-8.87,19.57Zm-16,5.39l14.17-7.13-7.13-7.13-7.04,14.26Z"/>
        <path class="cls-2" d="m268.74,1085.58l-19.57,8.87,8.87-19.57,19.57-8.87-8.87,19.57Zm-16,5.39l14.17-7.13-7.13-7.13-7.04,14.26Z"/>
        <path class="cls-2" d="m325.6,1085.58l-19.57,8.87,8.87-19.57,19.57-8.87-8.87,19.57Zm-16,5.39l14.17-7.13-7.13-7.13-7.04,14.26Z"/>
        <path class="cls-2" d="m382.47,1085.58l-19.57,8.87,8.87-19.57,19.57-8.87-8.87,19.57Zm-16,5.39l14.17-7.13-7.13-7.13-7.04,14.26Z"/>
        <path class="cls-2" d="m439.34,1085.58l-19.57,8.87,8.87-19.57,19.57-8.87-8.87,19.57Zm-16,5.39l14.17-7.13-7.13-7.13-7.04,14.26Z"/>
        <path class="cls-2" d="m496.2,1085.58l-19.57,8.87,8.87-19.57,19.57-8.87-8.87,19.57Zm-16,5.39l14.17-7.13-7.13-7.13-7.04,14.26Z"/>
        <path class="cls-2" d="m553.07,1085.58l-19.57,8.87,8.87-19.57,19.57-8.87-8.87,19.57Zm-16,5.39l14.17-7.13-7.13-7.13-7.04,14.26Z"/>
        <path class="cls-2" d="m609.93,1085.58l-19.57,8.87,8.87-19.57,19.57-8.87-8.87,19.57Zm-16,5.39l14.17-7.13-7.13-7.13-7.04,14.26Z"/>
        <path class="cls-2" d="m666.8,1085.58l-19.57,8.87,8.87-19.57,19.57-8.87-8.87,19.57Zm-16,5.39l14.17-7.13-7.13-7.13-7.04,14.26Z"/>
        <path class="cls-2" d="m723.67,1085.58l-19.57,8.87,8.87-19.57,19.57-8.87-8.87,19.57Zm-16,5.39l14.17-7.13-7.13-7.13-7.04,14.26Z"/>
        <path class="cls-2" d="m780.53,1085.58l-19.57,8.87,8.87-19.57,19.57-8.87-8.87,19.57Zm-16,5.39l14.17-7.13-7.13-7.13-7.04,14.26Z"/>
        <path class="cls-2" d="m837.4,1085.58l-19.57,8.87,8.87-19.57,19.57-8.87-8.87,19.57Zm-16,5.39l14.17-7.13-7.13-7.13-7.04,14.26Z"/>
        <path class="cls-2" d="m894.27,1085.58l-19.57,8.87,8.87-19.57,19.57-8.87-8.87,19.57Zm-16,5.39l14.17-7.13-7.13-7.13-7.04,14.26Z"/>
        <path class="cls-2" d="m951.13,1085.58l-19.57,8.87,8.87-19.57,19.57-8.87-8.87,19.57Zm-16,5.39l14.17-7.13-7.13-7.13-7.04,14.26Z"/>
      </g>
      <g>
        <path class="cls-2" d="m979.57,573.78l-19.57,8.87,8.87-19.57,19.57-8.87-8.87,19.57Zm-16,5.39l14.17-7.13-7.13-7.13-7.04,14.26Z"/>
        <path class="cls-2" d="m1036.43,573.78l-19.57,8.87,8.87-19.57,19.57-8.87-8.87,19.57Zm-16,5.39l14.17-7.13-7.13-7.13-7.04,14.26Z"/>
        <path class="cls-2" d="m1093.3,573.78l-19.57,8.87,8.87-19.57,19.57-8.87-8.87,19.57Zm-16,5.39l14.17-7.13-7.13-7.13-7.04,14.26Z"/>
        <path class="cls-2" d="m1150.16,573.78l-19.57,8.87,8.87-19.57,19.57-8.87-8.87,19.57Zm-16,5.39l14.17-7.13-7.13-7.13-7.04,14.26Z"/>
        <path class="cls-2" d="m1207.03,573.78l-19.57,8.87,8.87-19.57,19.57-8.87-8.87,19.57Zm-16,5.39l14.17-7.13-7.13-7.13-7.04,14.26Z"/>
        <path class="cls-2" d="m1263.9,573.78l-19.57,8.87,8.87-19.57,19.57-8.87-8.87,19.57Zm-16,5.39l14.17-7.13-7.13-7.13-7.04,14.26Z"/>
        <path class="cls-2" d="m1320.76,573.78l-19.57,8.87,8.87-19.57,19.57-8.87-8.87,19.57Zm-16,5.39l14.17-7.13-7.13-7.13-7.04,14.26Z"/>
        <path class="cls-2" d="m1377.63,573.78l-19.57,8.87,8.87-19.57,19.57-8.87-8.87,19.57Zm-16,5.39l14.17-7.13-7.13-7.13-7.04,14.26Z"/>
        <path class="cls-2" d="m1434.5,573.78l-19.57,8.87,8.87-19.57,19.57-8.87-8.87,19.57Zm-16,5.39l14.17-7.13-7.13-7.13-7.04,14.26Z"/>
        <path class="cls-2" d="m1491.36,573.78l-19.57,8.87,8.87-19.57,19.57-8.87-8.87,19.57Zm-16,5.39l14.17-7.13-7.13-7.13-7.04,14.26Z"/>
        <path class="cls-2" d="m1548.23,573.78l-19.57,8.87,8.87-19.57,19.57-8.87-8.87,19.57Zm-16,5.39l14.17-7.13-7.13-7.13-7.04,14.26Z"/>
        <path class="cls-2" d="m1605.1,573.78l-19.57,8.87,8.87-19.57,19.57-8.87-8.87,19.57Zm-16,5.39l14.17-7.13-7.13-7.13-7.04,14.26Z"/>
        <path class="cls-2" d="m1661.96,573.78l-19.57,8.87,8.87-19.57,19.57-8.87-8.87,19.57Zm-16,5.39l14.17-7.13-7.13-7.13-7.04,14.26Z"/>
        <path class="cls-2" d="m1718.83,573.78l-19.57,8.87,8.87-19.57,19.57-8.87-8.87,19.57Zm-16,5.39l14.17-7.13-7.13-7.13-7.04,14.26Z"/>
        <path class="cls-2" d="m1775.69,573.78l-19.57,8.87,8.87-19.57,19.57-8.87-8.87,19.57Zm-16,5.39l14.17-7.13-7.13-7.13-7.04,14.26Z"/>
        <path class="cls-2" d="m1832.56,573.78l-19.57,8.87,8.87-19.57,19.57-8.87-8.87,19.57Zm-16,5.39l14.17-7.13-7.13-7.13-7.04,14.26Z"/>
        <path class="cls-2" d="m1889.43,573.78l-19.57,8.87,8.87-19.57,19.57-8.87-8.87,19.57Zm-16,5.39l14.17-7.13-7.13-7.13-7.04,14.26Z"/>
        <path class="cls-2" d="m1008,630.65l-19.57,8.87,8.87-19.57,19.57-8.87-8.87,19.57Zm-16,5.39l14.17-7.13-7.13-7.13-7.04,14.26Z"/>
        <path class="cls-2" d="m1064.87,630.65l-19.57,8.87,8.87-19.57,19.57-8.87-8.87,19.57Zm-16,5.39l14.17-7.13-7.13-7.13-7.04,14.26Z"/>
        <path class="cls-2" d="m1121.73,630.65l-19.57,8.87,8.87-19.57,19.57-8.87-8.87,19.57Zm-16,5.39l14.17-7.13-7.13-7.13-7.04,14.26Z"/>
        <path class="cls-2" d="m1178.6,630.65l-19.57,8.87,8.87-19.57,19.57-8.87-8.87,19.57Zm-16,5.39l14.17-7.13-7.13-7.13-7.04,14.26Z"/>
        <path class="cls-2" d="m1235.46,630.65l-19.57,8.87,8.87-19.57,19.57-8.87-8.87,19.57Zm-16,5.39l14.17-7.13-7.13-7.13-7.04,14.26Z"/>
        <path class="cls-2" d="m1292.33,630.65l-19.57,8.87,8.87-19.57,19.57-8.87-8.87,19.57Zm-16,5.39l14.17-7.13-7.13-7.13-7.04,14.26Z"/>
        <path class="cls-2" d="m1349.2,630.65l-19.57,8.87,8.87-19.57,19.57-8.87-8.87,19.57Zm-16,5.39l14.17-7.13-7.13-7.13-7.04,14.26Z"/>
        <path class="cls-2" d="m1406.06,630.65l-19.57,8.87,8.87-19.57,19.57-8.87-8.87,19.57Zm-16,5.39l14.17-7.13-7.13-7.13-7.04,14.26Z"/>
        <path class="cls-2" d="m1462.93,630.65l-19.57,8.87,8.87-19.57,19.57-8.87-8.87,19.57Zm-16,5.39l14.17-7.13-7.13-7.13-7.04,14.26Z"/>
        <path class="cls-2" d="m1519.8,630.65l-19.57,8.87,8.87-19.57,19.57-8.87-8.87,19.57Zm-16,5.39l14.17-7.13-7.13-7.13-7.04,14.26Z"/>
        <path class="cls-2" d="m1576.66,630.65l-19.57,8.87,8.87-19.57,19.57-8.87-8.87,19.57Zm-16,5.39l14.17-7.13-7.13-7.13-7.04,14.26Z"/>
        <path class="cls-2" d="m1633.53,630.65l-19.57,8.87,8.87-19.57,19.57-8.87-8.87,19.57Zm-16,5.39l14.17-7.13-7.13-7.13-7.04,14.26Z"/>
        <path class="cls-2" d="m1690.4,630.65l-19.57,8.87,8.87-19.57,19.57-8.87-8.87,19.57Zm-16,5.39l14.17-7.13-7.13-7.13-7.04,14.26Z"/>
        <path class="cls-2" d="m1747.26,630.65l-19.57,8.87,8.87-19.57,19.57-8.87-8.87,19.57Zm-16,5.39l14.17-7.13-7.13-7.13-7.04,14.26Z"/>
        <path class="cls-2" d="m1804.13,630.65l-19.57,8.87,8.87-19.57,19.57-8.87-8.87,19.57Zm-16,5.39l14.17-7.13-7.13-7.13-7.04,14.26Z"/>
        <path class="cls-2" d="m1860.99,630.65l-19.57,8.87,8.87-19.57,19.57-8.87-8.87,19.57Zm-16,5.39l14.17-7.13-7.13-7.13-7.04,14.26Z"/>
        <path class="cls-2" d="m1917.86,630.65l-19.57,8.87,8.87-19.57,19.57-8.87-8.87,19.57Zm-16,5.39l14.17-7.13-7.13-7.13-7.04,14.26Z"/>
        <path class="cls-2" d="m979.57,687.52l-19.57,8.87,8.87-19.57,19.57-8.87-8.87,19.57Zm-16,5.39l14.17-7.13-7.13-7.13-7.04,14.26Z"/>
        <path class="cls-2" d="m1036.43,687.52l-19.57,8.87,8.87-19.57,19.57-8.87-8.87,19.57Zm-16,5.39l14.17-7.13-7.13-7.13-7.04,14.26Z"/>
        <path class="cls-2" d="m1093.3,687.52l-19.57,8.87,8.87-19.57,19.57-8.87-8.87,19.57Zm-16,5.39l14.17-7.13-7.13-7.13-7.04,14.26Z"/>
        <path class="cls-2" d="m1150.16,687.52l-19.57,8.87,8.87-19.57,19.57-8.87-8.87,19.57Zm-16,5.39l14.17-7.13-7.13-7.13-7.04,14.26Z"/>
        <path class="cls-2" d="m1207.03,687.52l-19.57,8.87,8.87-19.57,19.57-8.87-8.87,19.57Zm-16,5.39l14.17-7.13-7.13-7.13-7.04,14.26Z"/>
        <path class="cls-2" d="m1263.9,687.52l-19.57,8.87,8.87-19.57,19.57-8.87-8.87,19.57Zm-16,5.39l14.17-7.13-7.13-7.13-7.04,14.26Z"/>
        <path class="cls-2" d="m1320.76,687.52l-19.57,8.87,8.87-19.57,19.57-8.87-8.87,19.57Zm-16,5.39l14.17-7.13-7.13-7.13-7.04,14.26Z"/>
        <path class="cls-2" d="m1377.63,687.52l-19.57,8.87,8.87-19.57,19.57-8.87-8.87,19.57Zm-16,5.39l14.17-7.13-7.13-7.13-7.04,14.26Z"/>
        <path class="cls-2" d="m1434.5,687.52l-19.57,8.87,8.87-19.57,19.57-8.87-8.87,19.57Zm-16,5.39l14.17-7.13-7.13-7.13-7.04,14.26Z"/>
        <path class="cls-2" d="m1491.36,687.52l-19.57,8.87,8.87-19.57,19.57-8.87-8.87,19.57Zm-16,5.39l14.17-7.13-7.13-7.13-7.04,14.26Z"/>
        <path class="cls-2" d="m1548.23,687.52l-19.57,8.87,8.87-19.57,19.57-8.87-8.87,19.57Zm-16,5.39l14.17-7.13-7.13-7.13-7.04,14.26Z"/>
        <path class="cls-2" d="m1605.1,687.52l-19.57,8.87,8.87-19.57,19.57-8.87-8.87,19.57Zm-16,5.39l14.17-7.13-7.13-7.13-7.04,14.26Z"/>
        <path class="cls-2" d="m1661.96,687.52l-19.57,8.87,8.87-19.57,19.57-8.87-8.87,19.57Zm-16,5.39l14.17-7.13-7.13-7.13-7.04,14.26Z"/>
        <path class="cls-2" d="m1718.83,687.52l-19.57,8.87,8.87-19.57,19.57-8.87-8.87,19.57Zm-16,5.39l14.17-7.13-7.13-7.13-7.04,14.26Z"/>
        <path class="cls-2" d="m1775.69,687.52l-19.57,8.87,8.87-19.57,19.57-8.87-8.87,19.57Zm-16,5.39l14.17-7.13-7.13-7.13-7.04,14.26Z"/>
        <path class="cls-2" d="m1832.56,687.52l-19.57,8.87,8.87-19.57,19.57-8.87-8.87,19.57Zm-16,5.39l14.17-7.13-7.13-7.13-7.04,14.26Z"/>
        <path class="cls-2" d="m1889.43,687.52l-19.57,8.87,8.87-19.57,19.57-8.87-8.87,19.57Zm-16,5.39l14.17-7.13-7.13-7.13-7.04,14.26Z"/>
        <path class="cls-2" d="m1008,744.38l-19.57,8.87,8.87-19.57,19.57-8.87-8.87,19.57Zm-16,5.39l14.17-7.13-7.13-7.13-7.04,14.26Z"/>
        <path class="cls-2" d="m1064.87,744.38l-19.57,8.87,8.87-19.57,19.57-8.87-8.87,19.57Zm-16,5.39l14.17-7.13-7.13-7.13-7.04,14.26Z"/>
        <path class="cls-2" d="m1121.73,744.38l-19.57,8.87,8.87-19.57,19.57-8.87-8.87,19.57Zm-16,5.39l14.17-7.13-7.13-7.13-7.04,14.26Z"/>
        <path class="cls-2" d="m1178.6,744.38l-19.57,8.87,8.87-19.57,19.57-8.87-8.87,19.57Zm-16,5.39l14.17-7.13-7.13-7.13-7.04,14.26Z"/>
        <path class="cls-2" d="m1235.46,744.38l-19.57,8.87,8.87-19.57,19.57-8.87-8.87,19.57Zm-16,5.39l14.17-7.13-7.13-7.13-7.04,14.26Z"/>
        <path class="cls-2" d="m1292.33,744.38l-19.57,8.87,8.87-19.57,19.57-8.87-8.87,19.57Zm-16,5.39l14.17-7.13-7.13-7.13-7.04,14.26Z"/>
        <path class="cls-2" d="m1349.2,744.38l-19.57,8.87,8.87-19.57,19.57-8.87-8.87,19.57Zm-16,5.39l14.17-7.13-7.13-7.13-7.04,14.26Z"/>
        <path class="cls-2" d="m1406.06,744.38l-19.57,8.87,8.87-19.57,19.57-8.87-8.87,19.57Zm-16,5.39l14.17-7.13-7.13-7.13-7.04,14.26Z"/>
        <path class="cls-2" d="m1462.93,744.38l-19.57,8.87,8.87-19.57,19.57-8.87-8.87,19.57Zm-16,5.39l14.17-7.13-7.13-7.13-7.04,14.26Z"/>
        <path class="cls-2" d="m1519.8,744.38l-19.57,8.87,8.87-19.57,19.57-8.87-8.87,19.57Zm-16,5.39l14.17-7.13-7.13-7.13-7.04,14.26Z"/>
        <path class="cls-2" d="m1576.66,744.38l-19.57,8.87,8.87-19.57,19.57-8.87-8.87,19.57Zm-16,5.39l14.17-7.13-7.13-7.13-7.04,14.26Z"/>
        <path class="cls-2" d="m1633.53,744.38l-19.57,8.87,8.87-19.57,19.57-8.87-8.87,19.57Zm-16,5.39l14.17-7.13-7.13-7.13-7.04,14.26Z"/>
        <path class="cls-2" d="m1690.4,744.38l-19.57,8.87,8.87-19.57,19.57-8.87-8.87,19.57Zm-16,5.39l14.17-7.13-7.13-7.13-7.04,14.26Z"/>
        <path class="cls-2" d="m1747.26,744.38l-19.57,8.87,8.87-19.57,19.57-8.87-8.87,19.57Zm-16,5.39l14.17-7.13-7.13-7.13-7.04,14.26Z"/>
        <path class="cls-2" d="m1804.13,744.38l-19.57,8.87,8.87-19.57,19.57-8.87-8.87,19.57Zm-16,5.39l14.17-7.13-7.13-7.13-7.04,14.26Z"/>
        <path class="cls-2" d="m1860.99,744.38l-19.57,8.87,8.87-19.57,19.57-8.87-8.87,19.57Zm-16,5.39l14.17-7.13-7.13-7.13-7.04,14.26Z"/>
        <path class="cls-2" d="m1917.86,744.38l-19.57,8.87,8.87-19.57,19.57-8.87-8.87,19.57Zm-16,5.39l14.17-7.13-7.13-7.13-7.04,14.26Z"/>
        <path class="cls-2" d="m979.57,801.25l-19.57,8.87,8.87-19.57,19.57-8.87-8.87,19.57Zm-16,5.39l14.17-7.13-7.13-7.13-7.04,14.26Z"/>
        <path class="cls-2" d="m1036.43,801.25l-19.57,8.87,8.87-19.57,19.57-8.87-8.87,19.57Zm-16,5.39l14.17-7.13-7.13-7.13-7.04,14.26Z"/>
        <path class="cls-2" d="m1093.3,801.25l-19.57,8.87,8.87-19.57,19.57-8.87-8.87,19.57Zm-16,5.39l14.17-7.13-7.13-7.13-7.04,14.26Z"/>
        <path class="cls-2" d="m1150.16,801.25l-19.57,8.87,8.87-19.57,19.57-8.87-8.87,19.57Zm-16,5.39l14.17-7.13-7.13-7.13-7.04,14.26Z"/>
        <path class="cls-2" d="m1207.03,801.25l-19.57,8.87,8.87-19.57,19.57-8.87-8.87,19.57Zm-16,5.39l14.17-7.13-7.13-7.13-7.04,14.26Z"/>
        <path class="cls-2" d="m1263.9,801.25l-19.57,8.87,8.87-19.57,19.57-8.87-8.87,19.57Zm-16,5.39l14.17-7.13-7.13-7.13-7.04,14.26Z"/>
        <path class="cls-2" d="m1320.76,801.25l-19.57,8.87,8.87-19.57,19.57-8.87-8.87,19.57Zm-16,5.39l14.17-7.13-7.13-7.13-7.04,14.26Z"/>
        <path class="cls-2" d="m1377.63,801.25l-19.57,8.87,8.87-19.57,19.57-8.87-8.87,19.57Zm-16,5.39l14.17-7.13-7.13-7.13-7.04,14.26Z"/>
        <path class="cls-2" d="m1434.5,801.25l-19.57,8.87,8.87-19.57,19.57-8.87-8.87,19.57Zm-16,5.39l14.17-7.13-7.13-7.13-7.04,14.26Z"/>
        <path class="cls-2" d="m1491.36,801.25l-19.57,8.87,8.87-19.57,19.57-8.87-8.87,19.57Zm-16,5.39l14.17-7.13-7.13-7.13-7.04,14.26Z"/>
        <path class="cls-2" d="m1548.23,801.25l-19.57,8.87,8.87-19.57,19.57-8.87-8.87,19.57Zm-16,5.39l14.17-7.13-7.13-7.13-7.04,14.26Z"/>
        <path class="cls-2" d="m1605.1,801.25l-19.57,8.87,8.87-19.57,19.57-8.87-8.87,19.57Zm-16,5.39l14.17-7.13-7.13-7.13-7.04,14.26Z"/>
        <path class="cls-2" d="m1661.96,801.25l-19.57,8.87,8.87-19.57,19.57-8.87-8.87,19.57Zm-16,5.39l14.17-7.13-7.13-7.13-7.04,14.26Z"/>
        <path class="cls-2" d="m1718.83,801.25l-19.57,8.87,8.87-19.57,19.57-8.87-8.87,19.57Zm-16,5.39l14.17-7.13-7.13-7.13-7.04,14.26Z"/>
        <path class="cls-2" d="m1775.69,801.25l-19.57,8.87,8.87-19.57,19.57-8.87-8.87,19.57Zm-16,5.39l14.17-7.13-7.13-7.13-7.04,14.26Z"/>
        <path class="cls-2" d="m1832.56,801.25l-19.57,8.87,8.87-19.57,19.57-8.87-8.87,19.57Zm-16,5.39l14.17-7.13-7.13-7.13-7.04,14.26Z"/>
        <path class="cls-2" d="m1889.43,801.25l-19.57,8.87,8.87-19.57,19.57-8.87-8.87,19.57Zm-16,5.39l14.17-7.13-7.13-7.13-7.04,14.26Z"/>
        <path class="cls-2" d="m1008,858.11l-19.57,8.87,8.87-19.57,19.57-8.87-8.87,19.57Zm-16,5.39l14.17-7.13-7.13-7.13-7.04,14.26Z"/>
        <path class="cls-2" d="m1064.87,858.11l-19.57,8.87,8.87-19.57,19.57-8.87-8.87,19.57Zm-16,5.39l14.17-7.13-7.13-7.13-7.04,14.26Z"/>
        <path class="cls-2" d="m1121.73,858.11l-19.57,8.87,8.87-19.57,19.57-8.87-8.87,19.57Zm-16,5.39l14.17-7.13-7.13-7.13-7.04,14.26Z"/>
        <path class="cls-2" d="m1178.6,858.11l-19.57,8.87,8.87-19.57,19.57-8.87-8.87,19.57Zm-16,5.39l14.17-7.13-7.13-7.13-7.04,14.26Z"/>
        <path class="cls-2" d="m1235.46,858.11l-19.57,8.87,8.87-19.57,19.57-8.87-8.87,19.57Zm-16,5.39l14.17-7.13-7.13-7.13-7.04,14.26Z"/>
        <path class="cls-2" d="m1292.33,858.11l-19.57,8.87,8.87-19.57,19.57-8.87-8.87,19.57Zm-16,5.39l14.17-7.13-7.13-7.13-7.04,14.26Z"/>
        <path class="cls-2" d="m1349.2,858.11l-19.57,8.87,8.87-19.57,19.57-8.87-8.87,19.57Zm-16,5.39l14.17-7.13-7.13-7.13-7.04,14.26Z"/>
        <path class="cls-2" d="m1406.06,858.11l-19.57,8.87,8.87-19.57,19.57-8.87-8.87,19.57Zm-16,5.39l14.17-7.13-7.13-7.13-7.04,14.26Z"/>
        <path class="cls-2" d="m1462.93,858.11l-19.57,8.87,8.87-19.57,19.57-8.87-8.87,19.57Zm-16,5.39l14.17-7.13-7.13-7.13-7.04,14.26Z"/>
        <path class="cls-2" d="m1519.8,858.11l-19.57,8.87,8.87-19.57,19.57-8.87-8.87,19.57Zm-16,5.39l14.17-7.13-7.13-7.13-7.04,14.26Z"/>
        <path class="cls-2" d="m1576.66,858.11l-19.57,8.87,8.87-19.57,19.57-8.87-8.87,19.57Zm-16,5.39l14.17-7.13-7.13-7.13-7.04,14.26Z"/>
        <path class="cls-2" d="m1633.53,858.11l-19.57,8.87,8.87-19.57,19.57-8.87-8.87,19.57Zm-16,5.39l14.17-7.13-7.13-7.13-7.04,14.26Z"/>
        <path class="cls-2" d="m1690.4,858.11l-19.57,8.87,8.87-19.57,19.57-8.87-8.87,19.57Zm-16,5.39l14.17-7.13-7.13-7.13-7.04,14.26Z"/>
        <path class="cls-2" d="m1747.26,858.11l-19.57,8.87,8.87-19.57,19.57-8.87-8.87,19.57Zm-16,5.39l14.17-7.13-7.13-7.13-7.04,14.26Z"/>
        <path class="cls-2" d="m1804.13,858.11l-19.57,8.87,8.87-19.57,19.57-8.87-8.87,19.57Zm-16,5.39l14.17-7.13-7.13-7.13-7.04,14.26Z"/>
        <path class="cls-2" d="m1860.99,858.11l-19.57,8.87,8.87-19.57,19.57-8.87-8.87,19.57Zm-16,5.39l14.17-7.13-7.13-7.13-7.04,14.26Z"/>
        <path class="cls-2" d="m1917.86,858.11l-19.57,8.87,8.87-19.57,19.57-8.87-8.87,19.57Zm-16,5.39l14.17-7.13-7.13-7.13-7.04,14.26Z"/>
        <path class="cls-2" d="m979.57,914.98l-19.57,8.87,8.87-19.57,19.57-8.87-8.87,19.57Zm-16,5.39l14.17-7.13-7.13-7.13-7.04,14.26Z"/>
        <path class="cls-2" d="m1036.43,914.98l-19.57,8.87,8.87-19.57,19.57-8.87-8.87,19.57Zm-16,5.39l14.17-7.13-7.13-7.13-7.04,14.26Z"/>
        <path class="cls-2" d="m1093.3,914.98l-19.57,8.87,8.87-19.57,19.57-8.87-8.87,19.57Zm-16,5.39l14.17-7.13-7.13-7.13-7.04,14.26Z"/>
        <path class="cls-2" d="m1150.16,914.98l-19.57,8.87,8.87-19.57,19.57-8.87-8.87,19.57Zm-16,5.39l14.17-7.13-7.13-7.13-7.04,14.26Z"/>
        <path class="cls-2" d="m1207.03,914.98l-19.57,8.87,8.87-19.57,19.57-8.87-8.87,19.57Zm-16,5.39l14.17-7.13-7.13-7.13-7.04,14.26Z"/>
        <path class="cls-2" d="m1263.9,914.98l-19.57,8.87,8.87-19.57,19.57-8.87-8.87,19.57Zm-16,5.39l14.17-7.13-7.13-7.13-7.04,14.26Z"/>
        <path class="cls-2" d="m1320.76,914.98l-19.57,8.87,8.87-19.57,19.57-8.87-8.87,19.57Zm-16,5.39l14.17-7.13-7.13-7.13-7.04,14.26Z"/>
        <path class="cls-2" d="m1377.63,914.98l-19.57,8.87,8.87-19.57,19.57-8.87-8.87,19.57Zm-16,5.39l14.17-7.13-7.13-7.13-7.04,14.26Z"/>
        <path class="cls-2" d="m1434.5,914.98l-19.57,8.87,8.87-19.57,19.57-8.87-8.87,19.57Zm-16,5.39l14.17-7.13-7.13-7.13-7.04,14.26Z"/>
        <path class="cls-2" d="m1491.36,914.98l-19.57,8.87,8.87-19.57,19.57-8.87-8.87,19.57Zm-16,5.39l14.17-7.13-7.13-7.13-7.04,14.26Z"/>
        <path class="cls-2" d="m1548.23,914.98l-19.57,8.87,8.87-19.57,19.57-8.87-8.87,19.57Zm-16,5.39l14.17-7.13-7.13-7.13-7.04,14.26Z"/>
        <path class="cls-2" d="m1605.1,914.98l-19.57,8.87,8.87-19.57,19.57-8.87-8.87,19.57Zm-16,5.39l14.17-7.13-7.13-7.13-7.04,14.26Z"/>
        <path class="cls-2" d="m1661.96,914.98l-19.57,8.87,8.87-19.57,19.57-8.87-8.87,19.57Zm-16,5.39l14.17-7.13-7.13-7.13-7.04,14.26Z"/>
        <path class="cls-2" d="m1718.83,914.98l-19.57,8.87,8.87-19.57,19.57-8.87-8.87,19.57Zm-16,5.39l14.17-7.13-7.13-7.13-7.04,14.26Z"/>
        <path class="cls-2" d="m1775.69,914.98l-19.57,8.87,8.87-19.57,19.57-8.87-8.87,19.57Zm-16,5.39l14.17-7.13-7.13-7.13-7.04,14.26Z"/>
        <path class="cls-2" d="m1832.56,914.98l-19.57,8.87,8.87-19.57,19.57-8.87-8.87,19.57Zm-16,5.39l14.17-7.13-7.13-7.13-7.04,14.26Z"/>
        <path class="cls-2" d="m1889.43,914.98l-19.57,8.87,8.87-19.57,19.57-8.87-8.87,19.57Zm-16,5.39l14.17-7.13-7.13-7.13-7.04,14.26Z"/>
        <path class="cls-2" d="m1008,971.85l-19.57,8.87,8.87-19.57,19.57-8.87-8.87,19.57Zm-16,5.39l14.17-7.13-7.13-7.13-7.04,14.26Z"/>
        <path class="cls-2" d="m1064.87,971.85l-19.57,8.87,8.87-19.57,19.57-8.87-8.87,19.57Zm-16,5.39l14.17-7.13-7.13-7.13-7.04,14.26Z"/>
        <path class="cls-2" d="m1121.73,971.85l-19.57,8.87,8.87-19.57,19.57-8.87-8.87,19.57Zm-16,5.39l14.17-7.13-7.13-7.13-7.04,14.26Z"/>
        <path class="cls-2" d="m1178.6,971.85l-19.57,8.87,8.87-19.57,19.57-8.87-8.87,19.57Zm-16,5.39l14.17-7.13-7.13-7.13-7.04,14.26Z"/>
        <path class="cls-2" d="m1235.46,971.85l-19.57,8.87,8.87-19.57,19.57-8.87-8.87,19.57Zm-16,5.39l14.17-7.13-7.13-7.13-7.04,14.26Z"/>
        <path class="cls-2" d="m1292.33,971.85l-19.57,8.87,8.87-19.57,19.57-8.87-8.87,19.57Zm-16,5.39l14.17-7.13-7.13-7.13-7.04,14.26Z"/>
        <path class="cls-2" d="m1349.2,971.85l-19.57,8.87,8.87-19.57,19.57-8.87-8.87,19.57Zm-16,5.39l14.17-7.13-7.13-7.13-7.04,14.26Z"/>
        <path class="cls-2" d="m1406.06,971.85l-19.57,8.87,8.87-19.57,19.57-8.87-8.87,19.57Zm-16,5.39l14.17-7.13-7.13-7.13-7.04,14.26Z"/>
        <path class="cls-2" d="m1462.93,971.85l-19.57,8.87,8.87-19.57,19.57-8.87-8.87,19.57Zm-16,5.39l14.17-7.13-7.13-7.13-7.04,14.26Z"/>
        <path class="cls-2" d="m1519.8,971.85l-19.57,8.87,8.87-19.57,19.57-8.87-8.87,19.57Zm-16,5.39l14.17-7.13-7.13-7.13-7.04,14.26Z"/>
        <path class="cls-2" d="m1576.66,971.85l-19.57,8.87,8.87-19.57,19.57-8.87-8.87,19.57Zm-16,5.39l14.17-7.13-7.13-7.13-7.04,14.26Z"/>
        <path class="cls-2" d="m1633.53,971.85l-19.57,8.87,8.87-19.57,19.57-8.87-8.87,19.57Zm-16,5.39l14.17-7.13-7.13-7.13-7.04,14.26Z"/>
        <path class="cls-2" d="m1690.4,971.85l-19.57,8.87,8.87-19.57,19.57-8.87-8.87,19.57Zm-16,5.39l14.17-7.13-7.13-7.13-7.04,14.26Z"/>
        <path class="cls-2" d="m1747.26,971.85l-19.57,8.87,8.87-19.57,19.57-8.87-8.87,19.57Zm-16,5.39l14.17-7.13-7.13-7.13-7.04,14.26Z"/>
        <path class="cls-2" d="m1804.13,971.85l-19.57,8.87,8.87-19.57,19.57-8.87-8.87,19.57Zm-16,5.39l14.17-7.13-7.13-7.13-7.04,14.26Z"/>
        <path class="cls-2" d="m1860.99,971.85l-19.57,8.87,8.87-19.57,19.57-8.87-8.87,19.57Zm-16,5.39l14.17-7.13-7.13-7.13-7.04,14.26Z"/>
        <path class="cls-2" d="m1917.86,971.85l-19.57,8.87,8.87-19.57,19.57-8.87-8.87,19.57Zm-16,5.39l14.17-7.13-7.13-7.13-7.04,14.26Z"/>
        <path class="cls-2" d="m979.57,1028.71l-19.57,8.87,8.87-19.57,19.57-8.87-8.87,19.57Zm-16,5.39l14.17-7.13-7.13-7.13-7.04,14.26Z"/>
        <path class="cls-2" d="m1036.43,1028.71l-19.57,8.87,8.87-19.57,19.57-8.87-8.87,19.57Zm-16,5.39l14.17-7.13-7.13-7.13-7.04,14.26Z"/>
        <path class="cls-2" d="m1093.3,1028.71l-19.57,8.87,8.87-19.57,19.57-8.87-8.87,19.57Zm-16,5.39l14.17-7.13-7.13-7.13-7.04,14.26Z"/>
        <path class="cls-2" d="m1150.16,1028.71l-19.57,8.87,8.87-19.57,19.57-8.87-8.87,19.57Zm-16,5.39l14.17-7.13-7.13-7.13-7.04,14.26Z"/>
        <path class="cls-2" d="m1207.03,1028.71l-19.57,8.87,8.87-19.57,19.57-8.87-8.87,19.57Zm-16,5.39l14.17-7.13-7.13-7.13-7.04,14.26Z"/>
        <path class="cls-2" d="m1263.9,1028.71l-19.57,8.87,8.87-19.57,19.57-8.87-8.87,19.57Zm-16,5.39l14.17-7.13-7.13-7.13-7.04,14.26Z"/>
        <path class="cls-2" d="m1320.76,1028.71l-19.57,8.87,8.87-19.57,19.57-8.87-8.87,19.57Zm-16,5.39l14.17-7.13-7.13-7.13-7.04,14.26Z"/>
        <path class="cls-2" d="m1377.63,1028.71l-19.57,8.87,8.87-19.57,19.57-8.87-8.87,19.57Zm-16,5.39l14.17-7.13-7.13-7.13-7.04,14.26Z"/>
        <path class="cls-2" d="m1434.5,1028.71l-19.57,8.87,8.87-19.57,19.57-8.87-8.87,19.57Zm-16,5.39l14.17-7.13-7.13-7.13-7.04,14.26Z"/>
        <path class="cls-2" d="m1491.36,1028.71l-19.57,8.87,8.87-19.57,19.57-8.87-8.87,19.57Zm-16,5.39l14.17-7.13-7.13-7.13-7.04,14.26Z"/>
        <path class="cls-2" d="m1548.23,1028.71l-19.57,8.87,8.87-19.57,19.57-8.87-8.87,19.57Zm-16,5.39l14.17-7.13-7.13-7.13-7.04,14.26Z"/>
        <path class="cls-2" d="m1605.1,1028.71l-19.57,8.87,8.87-19.57,19.57-8.87-8.87,19.57Zm-16,5.39l14.17-7.13-7.13-7.13-7.04,14.26Z"/>
        <path class="cls-2" d="m1661.96,1028.71l-19.57,8.87,8.87-19.57,19.57-8.87-8.87,19.57Zm-16,5.39l14.17-7.13-7.13-7.13-7.04,14.26Z"/>
        <path class="cls-2" d="m1718.83,1028.71l-19.57,8.87,8.87-19.57,19.57-8.87-8.87,19.57Zm-16,5.39l14.17-7.13-7.13-7.13-7.04,14.26Z"/>
        <path class="cls-2" d="m1775.69,1028.71l-19.57,8.87,8.87-19.57,19.57-8.87-8.87,19.57Zm-16,5.39l14.17-7.13-7.13-7.13-7.04,14.26Z"/>
        <path class="cls-2" d="m1832.56,1028.71l-19.57,8.87,8.87-19.57,19.57-8.87-8.87,19.57Zm-16,5.39l14.17-7.13-7.13-7.13-7.04,14.26Z"/>
        <path class="cls-2" d="m1889.43,1028.71l-19.57,8.87,8.87-19.57,19.57-8.87-8.87,19.57Zm-16,5.39l14.17-7.13-7.13-7.13-7.04,14.26Z"/>
        <path class="cls-2" d="m1008,1085.58l-19.57,8.87,8.87-19.57,19.57-8.87-8.87,19.57Zm-16,5.39l14.17-7.13-7.13-7.13-7.04,14.26Z"/>
        <path class="cls-2" d="m1064.87,1085.58l-19.57,8.87,8.87-19.57,19.57-8.87-8.87,19.57Zm-16,5.39l14.17-7.13-7.13-7.13-7.04,14.26Z"/>
        <path class="cls-2" d="m1121.73,1085.58l-19.57,8.87,8.87-19.57,19.57-8.87-8.87,19.57Zm-16,5.39l14.17-7.13-7.13-7.13-7.04,14.26Z"/>
        <path class="cls-2" d="m1178.6,1085.58l-19.57,8.87,8.87-19.57,19.57-8.87-8.87,19.57Zm-16,5.39l14.17-7.13-7.13-7.13-7.04,14.26Z"/>
        <path class="cls-2" d="m1235.46,1085.58l-19.57,8.87,8.87-19.57,19.57-8.87-8.87,19.57Zm-16,5.39l14.17-7.13-7.13-7.13-7.04,14.26Z"/>
        <path class="cls-2" d="m1292.33,1085.58l-19.57,8.87,8.87-19.57,19.57-8.87-8.87,19.57Zm-16,5.39l14.17-7.13-7.13-7.13-7.04,14.26Z"/>
        <path class="cls-2" d="m1349.2,1085.58l-19.57,8.87,8.87-19.57,19.57-8.87-8.87,19.57Zm-16,5.39l14.17-7.13-7.13-7.13-7.04,14.26Z"/>
        <path class="cls-2" d="m1406.06,1085.58l-19.57,8.87,8.87-19.57,19.57-8.87-8.87,19.57Zm-16,5.39l14.17-7.13-7.13-7.13-7.04,14.26Z"/>
        <path class="cls-2" d="m1462.93,1085.58l-19.57,8.87,8.87-19.57,19.57-8.87-8.87,19.57Zm-16,5.39l14.17-7.13-7.13-7.13-7.04,14.26Z"/>
        <path class="cls-2" d="m1519.8,1085.58l-19.57,8.87,8.87-19.57,19.57-8.87-8.87,19.57Zm-16,5.39l14.17-7.13-7.13-7.13-7.04,14.26Z"/>
        <path class="cls-2" d="m1576.66,1085.58l-19.57,8.87,8.87-19.57,19.57-8.87-8.87,19.57Zm-16,5.39l14.17-7.13-7.13-7.13-7.04,14.26Z"/>
        <path class="cls-2" d="m1633.53,1085.58l-19.57,8.87,8.87-19.57,19.57-8.87-8.87,19.57Zm-16,5.39l14.17-7.13-7.13-7.13-7.04,14.26Z"/>
        <path class="cls-2" d="m1690.4,1085.58l-19.57,8.87,8.87-19.57,19.57-8.87-8.87,19.57Zm-16,5.39l14.17-7.13-7.13-7.13-7.04,14.26Z"/>
        <path class="cls-2" d="m1747.26,1085.58l-19.57,8.87,8.87-19.57,19.57-8.87-8.87,19.57Zm-16,5.39l14.17-7.13-7.13-7.13-7.04,14.26Z"/>
        <path class="cls-2" d="m1804.13,1085.58l-19.57,8.87,8.87-19.57,19.57-8.87-8.87,19.57Zm-16,5.39l14.17-7.13-7.13-7.13-7.04,14.26Z"/>
        <path class="cls-2" d="m1860.99,1085.58l-19.57,8.87,8.87-19.57,19.57-8.87-8.87,19.57Zm-16,5.39l14.17-7.13-7.13-7.13-7.04,14.26Z"/>
        <path class="cls-2" d="m1917.86,1085.58l-19.57,8.87,8.87-19.57,19.57-8.87-8.87,19.57Zm-16,5.39l14.17-7.13-7.13-7.13-7.04,14.26Z"/>
      </g>
    </g>
  </g>
</svg>