<svg id="katman_1" data-name="katman 1" xmlns="http://www.w3.org/2000/svg" viewBox="0 0 507.57 517.49"><defs><style>.cls-1{fill:#7d2529;}.cls-2{fill:#1d1d1b;}.cls-3{fill:#fff;}.cls-4{fill:#00585f;}</style></defs><path class="cls-1" d="M140.8,84.21h20.39l-34.83,37.93,36.82-36.82,6.15-6.14.56-.57H151.81V49.1a20,20,0,0,0-.56-5.39,5.51,5.51,0,0,0-2.31-3.28,7.74,7.74,0,0,0-4.23-1h-3.63" transform="translate(-111.35 -38.43)"/><path class="cls-1" d="M189.44,73.39a26.5,26.5,0,0,0-5.08-1.84l30.29-33L182.13,71.09h0L177.26,76h0l-5.57,5.57L163.18,90v25.4h5a6,6,0,0,0,6-6v-11h4.68a26.79,26.79,0,0,0,6.65-.94,15,15,0,0,0,6.82-4c2.11-2.08,3.18-5,3.18-8.68C195.53,79.2,193.48,75.35,189.44,73.39Zm-7.55,17.85a7.26,7.26,0,0,1-5.24,1.91H174.2V82.62l5.62-6.13a6.44,6.44,0,0,1,2.09,1.38c1.31,1.25,2,3.49,2,6.65S183.21,90,181.89,91.24Z" transform="translate(-111.35 -38.43)"/><polygon class="cls-2" points="10.72 87.54 44.2 61.17 56.72 41.36 10.72 87.54"/><polygon class="cls-2" points="10.72 87.54 44.2 61.17 56.72 41.36 10.72 87.54"/><path class="cls-2" d="M122.18,126.12l-.23-.27,47.13-47.31-13.42,21.2Zm44.89-45.07-42.8,43,31.15-24.54Z" transform="translate(-111.35 -38.43)"/><polygon class="cls-3" points="11.43 87.08 37.22 54.03 56.1 41.27 11.43 87.08"/><path d="M122.9,125.64l-.25-.24,25.81-33.07,20.3-13.72Zm25.79-33-23.84,30.55L166.14,80.8Z" transform="translate(-111.35 -38.43)"/><polygon class="cls-2" points="102.8 0.12 76.93 33.5 57.53 45.97 102.8 0.12"/><polygon class="cls-2" points="102.8 0.12 76.93 33.5 57.53 45.97 102.8 0.12"/><path class="cls-2" d="M167.65,85.41l46.38-47,.26.24L188.4,72.07h0Zm44.58-44.66L170.11,83.41l18-11.61Z" transform="translate(-111.35 -38.43)"/><polygon class="cls-3" points="102.61 0.28 66.64 29.73 53.3 50.57 102.61 0.28"/><path d="M163.49,90.46,177.86,68l36-29.45.28.26Zm14.66-22.18L165.81,87.55l45.59-46.5Z" transform="translate(-111.35 -38.43)"/><path class="cls-1" d="M135.09,238h20.4l-34.84,37.92,36.83-36.82,6.14-6.14.57-.57H146.11V202.87a19.83,19.83,0,0,0-.57-5.38,5.52,5.52,0,0,0-2.3-3.29,7.77,7.77,0,0,0-4.23-1h-3.64" transform="translate(-111.35 -38.43)"/><path class="cls-1" d="M183.74,227.16a26,26,0,0,0-5.08-1.83l30.29-33-32.52,32.52h0l-4.88,4.88h0L166,235.31l-8.5,8.5v25.4h5a6,6,0,0,0,6-6v-11h4.68a27.22,27.22,0,0,0,6.65-.93,15.09,15.09,0,0,0,6.83-4c2.11-2.08,3.18-5,3.18-8.68C189.83,233,187.78,229.12,183.74,227.16ZM176.18,245a7.23,7.23,0,0,1-5.23,1.92h-2.46V236.39l5.63-6.12a6.81,6.81,0,0,1,2.09,1.37c1.3,1.25,2,3.49,2,6.66S177.5,243.75,176.18,245Z" transform="translate(-111.35 -38.43)"/><polygon class="cls-1" points="5.01 241.32 38.49 214.94 51.02 195.14 5.01 241.32"/><polygon class="cls-1" points="5.01 241.32 38.49 214.94 51.02 195.14 5.01 241.32"/><path class="cls-1" d="M116.47,279.89l-.23-.27,47.13-47.3L150,253.52Zm44.9-45.06-42.81,43,31.15-24.55Z" transform="translate(-111.35 -38.43)"/><polygon class="cls-3" points="5.73 240.85 31.52 207.8 50.39 195.04 5.73 240.85"/><path d="M117.2,279.41l-.25-.23,25.8-33.07,20.31-13.73Zm25.79-33-23.85,30.56,41.3-42.36Z" transform="translate(-111.35 -38.43)"/><polygon class="cls-2" points="97.09 153.9 71.22 187.27 51.82 199.75 97.09 153.9"/><polygon class="cls-2" points="97.09 153.9 71.22 187.27 51.82 199.75 97.09 153.9"/><path class="cls-2" d="M161.94,239.18l46.38-47,.26.23-25.89,33.4,0,0Zm44.59-44.66L164.4,237.18l18.06-11.6Z" transform="translate(-111.35 -38.43)"/><polygon class="cls-3" points="96.9 154.05 60.94 183.51 47.59 204.34 96.9 154.05"/><path d="M157.78,244.24l14.38-22.43,36-29.46.28.26Zm14.67-22.18-12.34,19.26,45.59-46.49Z" transform="translate(-111.35 -38.43)"/><path class="cls-1" d="M323.42,239.72h20.39L309,277.64l36.82-36.82,6.15-6.14.56-.57H334.44V204.6a19.83,19.83,0,0,0-.57-5.38,5.56,5.56,0,0,0-2.3-3.29,7.81,7.81,0,0,0-4.24-1H323.7" transform="translate(-111.35 -38.43)"/><path class="cls-1" d="M372.07,228.89a26.84,26.84,0,0,0-5.09-1.84l30.29-33-32.51,32.52h0l-4.88,4.88h0L354.31,237l-8.51,8.5v25.4h5a6,6,0,0,0,6-6v-11h4.68a27.22,27.22,0,0,0,6.65-.93,15.15,15.15,0,0,0,6.83-4c2.1-2.08,3.17-5,3.17-8.68C378.15,234.71,376.1,230.85,372.07,228.89Zm-7.56,17.85a7.26,7.26,0,0,1-5.24,1.91h-2.45V238.12l5.63-6.13a6.86,6.86,0,0,1,2.08,1.38c1.31,1.25,2,3.49,2,6.66S365.83,245.48,364.51,246.74Z" transform="translate(-111.35 -38.43)"/><polygon class="cls-1" points="193.34 243.04 226.82 216.67 239.34 196.87 193.34 243.04"/><polygon class="cls-1" points="193.34 243.04 226.82 216.67 239.34 196.87 193.34 243.04"/><path class="cls-1" d="M304.8,281.62l-.23-.27,47.13-47.3-13.42,21.2Zm44.9-45.06-42.81,43L338,255Z" transform="translate(-111.35 -38.43)"/><polygon class="cls-3" points="194.06 242.58 219.84 209.53 238.72 196.77 194.06 242.58"/><path d="M305.53,281.14l-.26-.23,25.81-33.08,20.3-13.72Zm25.78-33-23.84,30.55,41.3-42.35Z" transform="translate(-111.35 -38.43)"/><polygon class="cls-2" points="285.42 155.63 259.55 189 240.15 201.48 285.42 155.63"/><polygon class="cls-2" points="285.42 155.63 259.55 189 240.15 201.48 285.42 155.63"/><path class="cls-2" d="M350.27,240.91l46.38-47,.26.23L371,227.57h0Zm44.58-44.66-42.12,42.66,18.06-11.6Z" transform="translate(-111.35 -38.43)"/><polygon class="cls-3" points="285.23 155.78 249.27 185.24 235.92 206.07 285.23 155.78"/><path d="M346.11,246l14.38-22.43,36-29.46.28.26Zm14.67-22.18-12.34,19.26L394,196.55Z" transform="translate(-111.35 -38.43)"/><path class="cls-1" d="M298.62,295.1h1.82a1.41,1.41,0,0,1,1.59,1.59,2.18,2.18,0,0,1-.16.87,1.31,1.31,0,0,1-.51.56,1.54,1.54,0,0,1-.44.16,5.23,5.23,0,0,1-.83.05h-.37v2h-1.1Zm1.58,1h-.48v1.23h.45a.85.85,0,0,0,.57-.14.59.59,0,0,0,.16-.47.63.63,0,0,0-.15-.48A.79.79,0,0,0,300.2,296.1Z" transform="translate(-111.35 -38.43)"/><path class="cls-1" d="M305,295.1h3.27v1h-2.18v1h1.95v1h-1.95v1.2h2.23v1H305Z" transform="translate(-111.35 -38.43)"/><path class="cls-1" d="M312.54,296.1h-1.39v-1H315v1h-1.39v4.24h-1.09Z" transform="translate(-111.35 -38.43)"/><path class="cls-1" d="M317.88,295.1h3.27v1H319v1h1.95v1H319v1.2h2.24v1h-3.33Z" transform="translate(-111.35 -38.43)"/><path class="cls-1" d="M324.14,295.1h1.08V297l1.72-1.85h1.39l-2.06,2.18,2.11,3.06h-1.32l-1.56-2.27-.28.3v2h-1.08Z" transform="translate(-111.35 -38.43)"/><path class="cls-1" d="M341.05,300.34h-1.21l-.26-.34a1.29,1.29,0,0,1-.54.36,2,2,0,0,1-.73.12,1.65,1.65,0,0,1-1.17-.42,1.41,1.41,0,0,1-.45-1.08,1.3,1.3,0,0,1,.22-.75,3,3,0,0,1,.77-.7,2.5,2.5,0,0,1-.32-.6,1.9,1.9,0,0,1-.11-.63,1.3,1.3,0,0,1,.38-1,1.33,1.33,0,0,1,1-.38,1.37,1.37,0,0,1,1,.34,1.2,1.2,0,0,1,.37.93,1.52,1.52,0,0,1-.2.77,2.88,2.88,0,0,1-.7.71l.47.63a1.14,1.14,0,0,0,.08-.27.91.91,0,0,0,0-.23v0h.86a2.86,2.86,0,0,1-.09.73,3.12,3.12,0,0,1-.25.68Zm-2-1.16-.73-.93a1.79,1.79,0,0,0-.39.34.6.6,0,0,0-.1.35.57.57,0,0,0,.16.42.56.56,0,0,0,.41.15.67.67,0,0,0,.33-.08A1.4,1.4,0,0,0,339,299.18Zm-.49-2.17a1.69,1.69,0,0,0,.43-.4.62.62,0,0,0,.14-.38.46.46,0,0,0-.46-.48.46.46,0,0,0-.34.14.49.49,0,0,0-.14.36.87.87,0,0,0,.09.36A2.26,2.26,0,0,0,338.52,297Z" transform="translate(-111.35 -38.43)"/><path class="cls-1" d="M353.51,300.34h-3.36V295.1h1.1v4.24h2.26Z" transform="translate(-111.35 -38.43)"/><path class="cls-1" d="M356.45,295.1h3.26v1h-2.18v1h2v1h-2v1.2h2.24v1h-3.32Z" transform="translate(-111.35 -38.43)"/><path class="cls-1" d="M362.76,295.1h1.86a1.76,1.76,0,0,1,1.14.33,1.12,1.12,0,0,1,.39.91,1.47,1.47,0,0,1-.18.74,1,1,0,0,1-.52.43,1.16,1.16,0,0,1,.69.44,1.35,1.35,0,0,1,.25.82,1.49,1.49,0,0,1-.45,1.13,1.68,1.68,0,0,1-1.21.44h-2Zm1.1,1v1h.57a.63.63,0,0,0,.46-.13.61.61,0,0,0,.13-.43.46.46,0,0,0-.14-.36.62.62,0,0,0-.42-.12Zm0,2v1.2h.73a.66.66,0,0,0,.49-.16.58.58,0,0,0,.17-.45.54.54,0,0,0-.17-.44.82.82,0,0,0-.53-.15Z" transform="translate(-111.35 -38.43)"/><path class="cls-1" d="M372.79,300.34h-3.36V295.1h1.1v4.24h2.26Z" transform="translate(-111.35 -38.43)"/><path class="cls-1" d="M375.73,295.1H379v1h-2.18v1h2v1h-2v1.2h2.24v1h-3.32Z" transform="translate(-111.35 -38.43)"/><path class="cls-1" d="M382,295.1h1.86a1.76,1.76,0,0,1,1.14.33,1.13,1.13,0,0,1,.4.91,1.48,1.48,0,0,1-.19.74,1,1,0,0,1-.52.43,1.16,1.16,0,0,1,.69.44,1.29,1.29,0,0,1,.25.82,1.49,1.49,0,0,1-.45,1.13,1.68,1.68,0,0,1-1.21.44h-2Zm1.1,1v1h.57a.63.63,0,0,0,.46-.13.57.57,0,0,0,.13-.43.46.46,0,0,0-.14-.36.62.62,0,0,0-.42-.12Zm0,2v1.2h.73a.66.66,0,0,0,.49-.16.67.67,0,0,0,0-.89.8.8,0,0,0-.53-.15Z" transform="translate(-111.35 -38.43)"/><path class="cls-1" d="M389.66,296h-1v-.9h3v.9h-1v3.43h1v.91h-3v-.91h1Zm.12-2.6h.87v1h-.87Z" transform="translate(-111.35 -38.43)"/><path class="cls-1" d="M397.44,298.39h1.1a2.51,2.51,0,0,1-.58,1.53,1.76,1.76,0,0,1-2.71-.17,4.3,4.3,0,0,1,0-4.06,1.76,1.76,0,0,1,2.62-.26,2,2,0,0,1,.59,1.25h-1.09a1,1,0,0,0-.24-.55.6.6,0,0,0-.46-.19.64.64,0,0,0-.6.42,3.18,3.18,0,0,0-.2,1.26,3.89,3.89,0,0,0,.2,1.42.67.67,0,0,0,.61.46.57.57,0,0,0,.51-.28A1.85,1.85,0,0,0,397.44,298.39Z" transform="translate(-111.35 -38.43)"/><path class="cls-1" d="M402.52,296h-1v-.9h3v.9h-.95v3.43h.95v.91h-3v-.91h1Zm.12-2.6h.87v1h-.87Z" transform="translate(-111.35 -38.43)"/><path class="cls-1" d="M530.42,85.94h20.39L516,123.87,552.8,87.05,559,80.91l.56-.57H541.43V50.83a20,20,0,0,0-.56-5.39,5.51,5.51,0,0,0-2.31-3.28,7.74,7.74,0,0,0-4.23-1H530.7" transform="translate(-111.35 -38.43)"/><path class="cls-1" d="M579.06,75.12A26.5,26.5,0,0,0,574,73.28l30.29-33L571.75,72.82h0l-4.87,4.87h0l-5.57,5.57-8.51,8.51v25.4h5a6,6,0,0,0,6-6v-11h4.68a26.79,26.79,0,0,0,6.65-.94,15,15,0,0,0,6.82-4c2.11-2.08,3.18-5,3.18-8.68C585.15,80.93,583.1,77.08,579.06,75.12ZM571.5,93a7.26,7.26,0,0,1-5.23,1.91h-2.45V84.35l5.62-6.13a6.44,6.44,0,0,1,2.09,1.38c1.31,1.25,2,3.49,2,6.65S572.83,91.71,571.5,93Z" transform="translate(-111.35 -38.43)"/><polygon class="cls-2" points="400.34 89.27 433.82 62.9 446.34 43.09 400.34 89.27"/><polygon class="cls-2" points="400.34 89.27 433.82 62.9 446.34 43.09 400.34 89.27"/><path class="cls-2" d="M511.8,127.85l-.23-.27L558.7,80.27l-13.42,21.2Zm44.89-45.07-42.8,43L545,101.21Z" transform="translate(-111.35 -38.43)"/><polygon class="cls-3" points="401.05 88.81 426.84 55.76 445.72 43 401.05 88.81"/><path d="M512.52,127.37l-.25-.24,25.81-33.07,20.3-13.72Zm25.79-33-23.84,30.55,41.29-42.35Z" transform="translate(-111.35 -38.43)"/><polygon class="cls-2" points="492.42 1.85 466.55 35.23 447.15 47.7 492.42 1.85"/><polygon class="cls-2" points="492.42 1.85 466.55 35.23 447.15 47.7 492.42 1.85"/><path class="cls-2" d="M557.27,87.14l46.38-47,.26.23L578,73.8h0Zm44.58-44.66L559.73,85.14l18-11.61Z" transform="translate(-111.35 -38.43)"/><polygon class="cls-3" points="492.23 2.01 456.26 31.46 442.92 52.3 492.23 2.01"/><path d="M553.11,92.19l14.37-22.43,36-29.45.28.25ZM567.77,70,555.43,89.28,601,42.78Z" transform="translate(-111.35 -38.43)"/><path class="cls-1" d="M505.61,141.33h1.82a1.6,1.6,0,0,1,1.2.4,1.63,1.63,0,0,1,.4,1.19,2,2,0,0,1-.17.87,1.3,1.3,0,0,1-.51.56,1.37,1.37,0,0,1-.43.16,5.23,5.23,0,0,1-.83.05h-.37v2h-1.11Zm1.59,1h-.48v1.24h.45a.91.91,0,0,0,.57-.14.81.81,0,0,0,0-.95A.8.8,0,0,0,507.2,142.32Z" transform="translate(-111.35 -38.43)"/><path class="cls-1" d="M512,141.33h3.26v1h-2.18v1.05h2v1h-2v1.2h2.24v1H512Z" transform="translate(-111.35 -38.43)"/><path class="cls-1" d="M519.53,142.32h-1.39v-1H522v1h-1.38v4.24h-1.1Z" transform="translate(-111.35 -38.43)"/><path class="cls-1" d="M524.88,141.33h3.27v1H526v1.05h1.95v1H526v1.2h2.24v1h-3.33Z" transform="translate(-111.35 -38.43)"/><path class="cls-1" d="M531.13,141.33h1.09v1.85l1.71-1.85h1.4l-2.07,2.18,2.11,3.05h-1.31l-1.57-2.26-.27.29v2h-1.09Z" transform="translate(-111.35 -38.43)"/><path class="cls-1" d="M548.05,146.56h-1.21l-.26-.34a1.58,1.58,0,0,1-.54.37,2.07,2.07,0,0,1-.73.12,1.65,1.65,0,0,1-1.17-.42,1.41,1.41,0,0,1-.45-1.08,1.3,1.3,0,0,1,.22-.75,2.84,2.84,0,0,1,.77-.7,2.5,2.5,0,0,1-.32-.6,1.74,1.74,0,0,1-.11-.63,1.3,1.3,0,0,1,1.36-1.34,1.39,1.39,0,0,1,1,.34,1.19,1.19,0,0,1,.37.92,1.5,1.5,0,0,1-.2.77,2.64,2.64,0,0,1-.71.72l.48.62a2.38,2.38,0,0,0,.08-.26.93.93,0,0,0,0-.23v0h.87a2.86,2.86,0,0,1-.09.73,2.71,2.71,0,0,1-.26.68Zm-2-1.15-.72-.93a1.26,1.26,0,0,0-.39.34.6.6,0,0,0-.1.35.55.55,0,0,0,.57.57.8.8,0,0,0,.33-.08A1.36,1.36,0,0,0,546,145.41Zm-.49-2.17a2,2,0,0,0,.44-.4.62.62,0,0,0,.14-.39.48.48,0,0,0-.13-.34.5.5,0,0,0-.68,0,.48.48,0,0,0-.13.36.87.87,0,0,0,.09.36A2,2,0,0,0,545.51,143.24Z" transform="translate(-111.35 -38.43)"/><path class="cls-1" d="M560.51,146.56h-3.36v-5.23h1.1v4.24h2.26Z" transform="translate(-111.35 -38.43)"/><path class="cls-1" d="M563.44,141.33h3.27v1h-2.18v1.05h2v1h-2v1.2h2.24v1h-3.33Z" transform="translate(-111.35 -38.43)"/><path class="cls-1" d="M569.76,141.33h1.86a1.71,1.71,0,0,1,1.13.33,1.09,1.09,0,0,1,.4.91,1.41,1.41,0,0,1-.18.73,1,1,0,0,1-.52.43,1.2,1.2,0,0,1,.69.44,1.39,1.39,0,0,1,.24.82,1.51,1.51,0,0,1-.45,1.14,1.65,1.65,0,0,1-1.2.43h-2Zm1.1,1v1.05h.56a.65.65,0,0,0,.46-.13.58.58,0,0,0,.13-.43.46.46,0,0,0-.13-.37.67.67,0,0,0-.43-.12Zm0,2.05v1.2h.73a.66.66,0,0,0,.49-.16.58.58,0,0,0,.17-.45.55.55,0,0,0-.18-.45.83.83,0,0,0-.52-.14Z" transform="translate(-111.35 -38.43)"/><path class="cls-1" d="M579.79,146.56h-3.36v-5.23h1.1v4.24h2.26Z" transform="translate(-111.35 -38.43)"/><path class="cls-1" d="M582.72,141.33H586v1h-2.18v1.05h2v1h-2v1.2h2.24v1h-3.33Z" transform="translate(-111.35 -38.43)"/><path class="cls-1" d="M589,141.33h1.86a1.71,1.71,0,0,1,1.13.33,1.09,1.09,0,0,1,.4.91,1.41,1.41,0,0,1-.18.73,1,1,0,0,1-.52.43,1.2,1.2,0,0,1,.69.44,1.4,1.4,0,0,1,.25.82,1.48,1.48,0,0,1-.46,1.14,1.65,1.65,0,0,1-1.2.43h-2Zm1.1,1v1.05h.57a.68.68,0,0,0,.46-.13.63.63,0,0,0,.13-.43.47.47,0,0,0-.14-.37.62.62,0,0,0-.42-.12Zm0,2.05v1.2h.73a.66.66,0,0,0,.49-.16.68.68,0,0,0,0-.9.88.88,0,0,0-.53-.14Z" transform="translate(-111.35 -38.43)"/><path class="cls-1" d="M596.66,142.23h-1v-.9h3v.9h-1v3.43h1v.9h-3v-.9h1Zm.12-2.6h.87v1h-.87Z" transform="translate(-111.35 -38.43)"/><path class="cls-1" d="M604.44,144.62h1.1a2.51,2.51,0,0,1-.58,1.53,1.75,1.75,0,0,1-2.71-.18,4.2,4.2,0,0,1,0-4.05,1.65,1.65,0,0,1,1.42-.73,1.62,1.62,0,0,1,1.2.47,2,2,0,0,1,.58,1.25h-1.08a1,1,0,0,0-.25-.55.58.58,0,0,0-.45-.19.63.63,0,0,0-.6.42,3,3,0,0,0-.2,1.26,3.63,3.63,0,0,0,.2,1.41.66.66,0,0,0,.61.47.6.6,0,0,0,.51-.29A1.81,1.81,0,0,0,604.44,144.62Z" transform="translate(-111.35 -38.43)"/><path class="cls-1" d="M609.51,142.23h-1v-.9h3v.9h-1v3.43h1v.9h-3v-.9h1Zm.12-2.6h.87v1h-.87Z" transform="translate(-111.35 -38.43)"/><path class="cls-1" d="M492.62,152.64h1.1v2H495v-2h1.09v5.24H495v-2.29h-1.31v2.29h-1.1Z" transform="translate(-111.35 -38.43)"/><path class="cls-1" d="M499,152.64h1.1v3.28a1.65,1.65,0,0,0,.17.84.68.68,0,0,0,1.07,0,1.68,1.68,0,0,0,.16-.86v-3.28h1.1v3.25a2.44,2.44,0,0,1-.44,1.6,1.7,1.7,0,0,1-1.36.53,1.69,1.69,0,0,1-1.36-.52,2.5,2.5,0,0,1-.44-1.61Z" transform="translate(-111.35 -38.43)"/><path class="cls-1" d="M505.43,152.64h1.08v1.86l1.72-1.86h1.39l-2.06,2.18,2.11,3.06h-1.32l-1.56-2.26-.28.29v2h-1.08Z" transform="translate(-111.35 -38.43)"/><path class="cls-1" d="M511.85,152.64H513v3.28a1.55,1.55,0,0,0,.17.84.57.57,0,0,0,.52.27.6.6,0,0,0,.55-.25,1.79,1.79,0,0,0,.16-.86v-3.28h1.1v3.25a2.44,2.44,0,0,1-.45,1.6,1.69,1.69,0,0,1-1.36.53,1.66,1.66,0,0,1-1.35-.52,2.44,2.44,0,0,1-.45-1.61Z" transform="translate(-111.35 -38.43)"/><path class="cls-1" d="M518.28,152.64h1.09v1.86l1.71-1.86h1.4l-2.07,2.18,2.11,3.06H521.2l-1.56-2.26-.27.29v2h-1.09Z" transform="translate(-111.35 -38.43)"/><path class="cls-1" d="M531.11,153.83h1l.84,2.91.81-2.91h1l-1.2,4h-1.24Z" transform="translate(-111.35 -38.43)"/><path class="cls-1" d="M540,156.79h1.14a1.93,1.93,0,0,1-.65.94,1.9,1.9,0,0,1-1.09.29,1.56,1.56,0,0,1-1.28-.58,2.87,2.87,0,0,1,0-3.18,1.81,1.81,0,0,1,2.65,0,2.58,2.58,0,0,1,.47,1.66c0,.07,0,.13,0,.17v.1h-2.53a1.39,1.39,0,0,0,.24.71.64.64,0,0,0,.52.25.57.57,0,0,0,.32-.09A.56.56,0,0,0,540,156.79Zm.13-1.39a1,1,0,0,0-.21-.61.59.59,0,0,0-.49-.22.59.59,0,0,0-.49.23,1,1,0,0,0-.22.6Z" transform="translate(-111.35 -38.43)"/><path class="cls-1" d="M552.21,152.64a1.7,1.7,0,0,1,1.45.67,3.24,3.24,0,0,1,.5,1.95,3.33,3.33,0,0,1-.49,2,1.71,1.71,0,0,1-1.46.66h-1.74v-5.24Zm0,1h-.63v3.28h.63a.64.64,0,0,0,.62-.38,3,3,0,0,0,.2-1.26,2.83,2.83,0,0,0-.21-1.23A.66.66,0,0,0,552.21,153.62Z" transform="translate(-111.35 -38.43)"/><path class="cls-1" d="M558.12,152.64h1l1.76,5.24H559.8l-.37-1.2h-1.61l-.36,1.2h-1.11Zm.52,1.31-.54,1.85h1.06Z" transform="translate(-111.35 -38.43)"/><path class="cls-1" d="M563.38,152.64h.86l1.58,3.29v-3.29h.94v5.24h-.86l-1.58-3.27v3.27h-.94Z" transform="translate(-111.35 -38.43)"/><path class="cls-1" d="M571,153.55h-1v-.91h3v.91h-1V157h1v.91h-3V157h1Z" transform="translate(-111.35 -38.43)"/><path class="cls-1" d="M579.74,154.21h-1.15v-.07a.64.64,0,0,0-.18-.47.62.62,0,0,0-.48-.19.68.68,0,0,0-.47.17.57.57,0,0,0-.18.43.53.53,0,0,0,.17.42,2.44,2.44,0,0,0,.83.28,2.62,2.62,0,0,1,1.28.53,1.31,1.31,0,0,1,.33,1,1.63,1.63,0,0,1-.53,1.28,2.19,2.19,0,0,1-1.48.46,1.85,1.85,0,0,1-1.37-.5,1.92,1.92,0,0,1-.54-1.37h1.12a1,1,0,0,0,.24.65.78.78,0,0,0,.6.24.88.88,0,0,0,.6-.19.63.63,0,0,0,.22-.51c0-.32-.35-.55-1.06-.7l-.2,0a2,2,0,0,1-1-.5,1.3,1.3,0,0,1-.32-.93,1.58,1.58,0,0,1,.48-1.2,1.77,1.77,0,0,1,1.26-.45,2,2,0,0,1,1.38.44A1.59,1.59,0,0,1,579.74,154.21ZM577.08,159l.55.12.4,0a.53.53,0,0,0,.28-.06.26.26,0,0,0,.08-.2.2.2,0,0,0-.1-.2.69.69,0,0,0-.33-.06h-.22v-.78h.38v.33h0a1,1,0,0,1,.65.18.63.63,0,0,1,.22.52.65.65,0,0,1-.25.56,1.21,1.21,0,0,1-.73.18,2.45,2.45,0,0,1-.43,0l-.55-.12Z" transform="translate(-111.35 -38.43)"/><path class="cls-1" d="M582.43,152.64h1.32l.59,3.23h0l.59-3.23h1.32v5.24h-.9v-4h-.1l-.71,4h-.43l-.73-4h-.09v4h-.89Z" transform="translate(-111.35 -38.43)"/><path class="cls-1" d="M590.26,152.64h1l1.77,5.24h-1.13l-.37-1.2H590l-.35,1.2h-1.11Zm.51,1.31-.53,1.85h1.06Z" transform="translate(-111.35 -38.43)"/><path class="cls-1" d="M595.51,152.64h.87l1.58,3.29v-3.29h.94v5.24H598l-1.57-3.27v3.27h-1Z" transform="translate(-111.35 -38.43)"/><path class="cls-1" d="M605.5,157.88h-3.37v-5.24h1.11v4.24h2.26Z" transform="translate(-111.35 -38.43)"/><path class="cls-1" d="M609.51,153.55h-1v-.91h3v.91h-1V157h1v.91h-3V157h1Z" transform="translate(-111.35 -38.43)"/><path class="cls-1" d="M614.69,152.64h1.08v1.86l1.72-1.86h1.39l-2.06,2.18,2.11,3.06h-1.32l-1.56-2.26-.28.29v2h-1.08Z" transform="translate(-111.35 -38.43)"/><path class="cls-1" d="M524.71,239.72h20.4l-34.84,37.92,36.83-36.82,6.14-6.14.57-.57H535.73V204.6a19.83,19.83,0,0,0-.57-5.38,5.52,5.52,0,0,0-2.3-3.29,7.77,7.77,0,0,0-4.23-1H525" transform="translate(-111.35 -38.43)"/><path class="cls-1" d="M573.36,228.89a26.74,26.74,0,0,0-5.08-1.84l30.29-33-32.52,32.52h0l-4.88,4.88h0L555.6,237l-8.5,8.5v25.4h5a6,6,0,0,0,6-6v-11h4.68a27.22,27.22,0,0,0,6.65-.93,15.15,15.15,0,0,0,6.83-4c2.11-2.08,3.17-5,3.17-8.68C579.44,234.71,577.4,230.85,573.36,228.89Zm-7.56,17.85a7.22,7.22,0,0,1-5.23,1.91h-2.46V238.12l5.63-6.13a7,7,0,0,1,2.09,1.38c1.3,1.25,2,3.49,2,6.66S567.12,245.48,565.8,246.74Z" transform="translate(-111.35 -38.43)"/><polygon class="cls-1" points="394.63 243.04 428.11 216.67 440.64 196.87 394.63 243.04"/><polygon class="cls-1" points="394.63 243.04 428.11 216.67 440.64 196.87 394.63 243.04"/><path class="cls-1" d="M506.09,281.62l-.23-.27L553,234.05l-13.42,21.2ZM551,236.56l-42.81,43L539.33,255Z" transform="translate(-111.35 -38.43)"/><polygon class="cls-3" points="395.35 242.58 421.14 209.53 440.01 196.77 395.35 242.58"/><path d="M506.82,281.14l-.25-.23,25.8-33.08,20.31-13.72Zm25.79-33-23.85,30.55,41.3-42.35Z" transform="translate(-111.35 -38.43)"/><polygon class="cls-2" points="486.71 155.63 460.84 189 441.44 201.48 486.71 155.63"/><polygon class="cls-2" points="486.71 155.63 460.84 189 441.44 201.48 486.71 155.63"/><path class="cls-2" d="M551.56,240.91l46.38-47,.26.23-25.89,33.4h0Zm44.59-44.66L554,238.91l18.06-11.6Z" transform="translate(-111.35 -38.43)"/><polygon class="cls-3" points="486.52 155.78 450.56 185.24 437.21 206.07 486.52 155.78"/><path d="M547.4,246l14.38-22.43,36-29.46.28.26Zm14.67-22.18-12.34,19.26,45.59-46.5Z" transform="translate(-111.35 -38.43)"/><path class="cls-1" d="M499.91,295.1h1.82a1.41,1.41,0,0,1,1.59,1.59,2,2,0,0,1-.16.87,1.31,1.31,0,0,1-.51.56,1.43,1.43,0,0,1-.44.16,5.14,5.14,0,0,1-.83.05H501v2h-1.1Zm1.58,1H501v1.23h.45a.85.85,0,0,0,.57-.14.6.6,0,0,0,.17-.47.59.59,0,0,0-.16-.48A.77.77,0,0,0,501.49,296.1Z" transform="translate(-111.35 -38.43)"/><path class="cls-1" d="M506.32,295.1h3.27v1h-2.18v1h1.95v1h-1.95v1.2h2.24v1h-3.33Z" transform="translate(-111.35 -38.43)"/><path class="cls-1" d="M513.83,296.1h-1.39v-1h3.87v1h-1.39v4.24h-1.09Z" transform="translate(-111.35 -38.43)"/><path class="cls-1" d="M519.18,295.1h3.26v1h-2.18v1h2v1h-2v1.2h2.24v1h-3.32Z" transform="translate(-111.35 -38.43)"/><path class="cls-1" d="M525.43,295.1h1.09V297l1.71-1.85h1.39l-2.06,2.18,2.11,3.06h-1.32l-1.56-2.27-.27.3v2h-1.09Z" transform="translate(-111.35 -38.43)"/><path class="cls-1" d="M542.34,300.34h-1.21l-.26-.34a1.32,1.32,0,0,1-.53.36,2.13,2.13,0,0,1-.74.12,1.65,1.65,0,0,1-1.17-.42A1.41,1.41,0,0,1,538,299a1.3,1.3,0,0,1,.23-.75,2.7,2.7,0,0,1,.77-.7,2.24,2.24,0,0,1-.33-.6,1.9,1.9,0,0,1-.11-.63,1.27,1.27,0,0,1,.39-1,1.29,1.29,0,0,1,1-.38,1.41,1.41,0,0,1,1,.34,1.23,1.23,0,0,1,.36.93,1.43,1.43,0,0,1-.2.77,2.71,2.71,0,0,1-.7.71l.47.63a2.13,2.13,0,0,0,.09-.27,1.79,1.79,0,0,0,0-.23v0h.87a4.16,4.16,0,0,1-.09.73,3.79,3.79,0,0,1-.26.68Zm-2-1.16-.73-.93a1.79,1.79,0,0,0-.39.34.68.68,0,0,0-.1.35.61.61,0,0,0,.16.42.56.56,0,0,0,.41.15.67.67,0,0,0,.33-.08A1.21,1.21,0,0,0,540.3,299.18Zm-.49-2.17a2,2,0,0,0,.44-.4.69.69,0,0,0,.14-.38.46.46,0,0,0-.14-.34.42.42,0,0,0-.32-.14.47.47,0,0,0-.35.14.49.49,0,0,0-.14.36.76.76,0,0,0,.1.36A1.76,1.76,0,0,0,539.81,297Z" transform="translate(-111.35 -38.43)"/><path class="cls-1" d="M554.8,300.34h-3.36V295.1h1.1v4.24h2.26Z" transform="translate(-111.35 -38.43)"/><path class="cls-1" d="M557.74,295.1H561v1h-2.18v1h1.95v1h-1.95v1.2h2.23v1h-3.32Z" transform="translate(-111.35 -38.43)"/><path class="cls-1" d="M564.05,295.1h1.87a1.75,1.75,0,0,1,1.13.33,1.13,1.13,0,0,1,.4.91,1.48,1.48,0,0,1-.19.74,1,1,0,0,1-.52.43,1.13,1.13,0,0,1,.69.44,1.29,1.29,0,0,1,.25.82,1.49,1.49,0,0,1-.45,1.13,1.66,1.66,0,0,1-1.21.44h-2Zm1.1,1v1h.57a.63.63,0,0,0,.46-.13.57.57,0,0,0,.13-.43.46.46,0,0,0-.14-.36.62.62,0,0,0-.42-.12Zm0,2v1.2h.74a.69.69,0,0,0,.49-.16.58.58,0,0,0,.16-.45.54.54,0,0,0-.17-.44.8.8,0,0,0-.53-.15Z" transform="translate(-111.35 -38.43)"/><path class="cls-1" d="M574.08,300.34h-3.36V295.1h1.1v4.24h2.26Z" transform="translate(-111.35 -38.43)"/><path class="cls-1" d="M577,295.1h3.27v1h-2.18v1h1.95v1h-1.95v1.2h2.24v1H577Z" transform="translate(-111.35 -38.43)"/><path class="cls-1" d="M583.33,295.1h1.87a1.73,1.73,0,0,1,1.13.33,1.1,1.1,0,0,1,.4.91,1.38,1.38,0,0,1-.19.74,1,1,0,0,1-.51.43,1.1,1.1,0,0,1,.68.44,1.29,1.29,0,0,1,.25.82,1.49,1.49,0,0,1-.45,1.13,1.66,1.66,0,0,1-1.21.44h-2Zm1.1,1v1H585a.62.62,0,0,0,.46-.13.57.57,0,0,0,.13-.43.46.46,0,0,0-.14-.36.62.62,0,0,0-.42-.12Zm0,2v1.2h.74a.67.67,0,0,0,.49-.16.58.58,0,0,0,.16-.45.51.51,0,0,0-.17-.44.8.8,0,0,0-.53-.15Z" transform="translate(-111.35 -38.43)"/><path class="cls-1" d="M591,296h-1v-.9h3v.9h-1v3.43h1v.91h-3v-.91h1Zm.13-2.6h.86v1h-.86Z" transform="translate(-111.35 -38.43)"/><path class="cls-1" d="M598.73,298.39h1.1a2.57,2.57,0,0,1-.57,1.53,1.68,1.68,0,0,1-1.29.56,1.64,1.64,0,0,1-1.42-.73,4.22,4.22,0,0,1,0-4.06A1.64,1.64,0,0,1,598,295a1.69,1.69,0,0,1,1.2.47,2.06,2.06,0,0,1,.58,1.25h-1.09a1,1,0,0,0-.24-.55.59.59,0,0,0-.46-.19.65.65,0,0,0-.6.42,3.18,3.18,0,0,0-.2,1.26,3.89,3.89,0,0,0,.2,1.42.67.67,0,0,0,.62.46.59.59,0,0,0,.51-.28A1.74,1.74,0,0,0,598.73,298.39Z" transform="translate(-111.35 -38.43)"/><path class="cls-1" d="M603.81,296h-1v-.9h3v.9h-1v3.43h1v.91h-3v-.91h1Zm.12-2.6h.87v1h-.87Z" transform="translate(-111.35 -38.43)"/><path class="cls-1" d="M486.92,306.42H488v2h1.3v-2h1.09v5.23h-1.09v-2.29H488v2.29h-1.1Z" transform="translate(-111.35 -38.43)"/><path class="cls-1" d="M493.29,306.42h1.11v3.27a1.55,1.55,0,0,0,.17.84.56.56,0,0,0,.52.28.6.6,0,0,0,.55-.26,1.76,1.76,0,0,0,.16-.86v-3.27h1.1v3.24a2.42,2.42,0,0,1-.45,1.6,2,2,0,0,1-2.71,0,2.44,2.44,0,0,1-.45-1.61Z" transform="translate(-111.35 -38.43)"/><path class="cls-1" d="M499.72,306.42h1.09v1.85l1.71-1.85h1.4l-2.07,2.18,2.11,3h-1.32l-1.56-2.26-.27.29v2h-1.09Z" transform="translate(-111.35 -38.43)"/><path class="cls-1" d="M506.15,306.42h1.1v3.27a1.65,1.65,0,0,0,.17.84.58.58,0,0,0,.53.28.6.6,0,0,0,.54-.26,1.65,1.65,0,0,0,.16-.86v-3.27h1.1v3.24a2.42,2.42,0,0,1-.45,1.6,1.65,1.65,0,0,1-1.35.53,1.69,1.69,0,0,1-1.36-.52,2.5,2.5,0,0,1-.44-1.61Z" transform="translate(-111.35 -38.43)"/><path class="cls-1" d="M512.58,306.42h1.08v1.85l1.71-1.85h1.4l-2.07,2.18,2.11,3H515.5l-1.57-2.26-.27.29v2h-1.08Z" transform="translate(-111.35 -38.43)"/><path class="cls-1" d="M525.4,307.6h1l.84,2.91.81-2.91h1l-1.2,4h-1.24Z" transform="translate(-111.35 -38.43)"/><path class="cls-1" d="M534.27,310.56h1.13a1.87,1.87,0,0,1-.65.94,1.77,1.77,0,0,1-1.08.29,1.58,1.58,0,0,1-1.29-.58,2.49,2.49,0,0,1-.47-1.59,2.39,2.39,0,0,1,.48-1.58,1.58,1.58,0,0,1,1.3-.58A1.64,1.64,0,0,1,535,308a2.55,2.55,0,0,1,.46,1.65v.17a.31.31,0,0,1,0,.1H533a1.2,1.2,0,0,0,.24.71.61.61,0,0,0,.51.25.58.58,0,0,0,.55-.35Zm.12-1.38a1,1,0,0,0-.2-.62.61.61,0,0,0-.5-.22.64.64,0,0,0-.49.23,1,1,0,0,0-.21.61Z" transform="translate(-111.35 -38.43)"/><path class="cls-1" d="M546.5,306.42a1.73,1.73,0,0,1,1.46.66,4.15,4.15,0,0,1,0,3.91,1.7,1.7,0,0,1-1.46.66h-1.74v-5.23Zm0,1h-.63v3.28h.63a.66.66,0,0,0,.63-.38,3,3,0,0,0,.19-1.26,2.83,2.83,0,0,0-.21-1.23A.65.65,0,0,0,546.5,307.39Z" transform="translate(-111.35 -38.43)"/><path class="cls-1" d="M552.42,306.42h1l1.77,5.23H554.1l-.38-1.2h-1.61l-.35,1.2h-1.11Zm.51,1.3-.53,1.85h1.06Z" transform="translate(-111.35 -38.43)"/><path class="cls-1" d="M557.67,306.42h.87l1.57,3.28v-3.28h.95v5.23h-.87l-1.57-3.27v3.27h-1Z" transform="translate(-111.35 -38.43)"/><path class="cls-1" d="M565.24,307.32h-1v-.9h3v.9h-.95v3.42h.95v.91h-3v-.91h1Z" transform="translate(-111.35 -38.43)"/><path class="cls-1" d="M574,308h-1.14v-.06a.62.62,0,0,0-.19-.48.61.61,0,0,0-.47-.19.69.69,0,0,0-.48.17.57.57,0,0,0-.18.44.48.48,0,0,0,.18.41,2.09,2.09,0,0,0,.83.28,2.58,2.58,0,0,1,1.27.53,1.33,1.33,0,0,1,.33,1,1.6,1.6,0,0,1-.53,1.28,2.14,2.14,0,0,1-1.47.46,1.86,1.86,0,0,1-1.38-.5,1.92,1.92,0,0,1-.54-1.37h1.12a.93.93,0,0,0,.25.65.78.78,0,0,0,.59.24.89.89,0,0,0,.61-.19.64.64,0,0,0,.22-.51c0-.31-.36-.55-1.06-.7l-.2-.05a2,2,0,0,1-1-.49,1.29,1.29,0,0,1-.32-.94,1.56,1.56,0,0,1,.48-1.19,1.73,1.73,0,0,1,1.26-.46,2,2,0,0,1,1.38.44A1.64,1.64,0,0,1,574,308Zm-2.65,4.81.54.12a3.58,3.58,0,0,0,.4,0,.5.5,0,0,0,.28-.07.23.23,0,0,0,.09-.2.2.2,0,0,0-.1-.2.71.71,0,0,0-.34-.06H572v-.78h.38V312h.05a1,1,0,0,1,.65.18.63.63,0,0,1,.22.53.65.65,0,0,1-.24.55,1.23,1.23,0,0,1-.73.18,2.45,2.45,0,0,1-.43,0,4.6,4.6,0,0,1-.55-.12Z" transform="translate(-111.35 -38.43)"/><path class="cls-1" d="M576.73,306.42H578l.59,3.22h0l.59-3.22h1.31v5.23h-.89v-4h-.1l-.72,4h-.42l-.73-4h-.09v4h-.89Z" transform="translate(-111.35 -38.43)"/><path class="cls-1" d="M584.56,306.42h1l1.76,5.23h-1.13l-.37-1.2h-1.61l-.36,1.2h-1.11Zm.51,1.3-.54,1.85h1.06Z" transform="translate(-111.35 -38.43)"/><path class="cls-1" d="M589.81,306.42h.86l1.58,3.28v-3.28h.94v5.23h-.86l-1.58-3.27v3.27h-.94Z" transform="translate(-111.35 -38.43)"/><path class="cls-1" d="M599.79,311.65h-3.36v-5.23h1.1v4.24h2.26Z" transform="translate(-111.35 -38.43)"/><path class="cls-1" d="M603.81,307.32h-1v-.9h3v.9h-1v3.42h1v.91h-3v-.91h1Z" transform="translate(-111.35 -38.43)"/><path class="cls-1" d="M609,306.42h1.09v1.85l1.71-1.85h1.4l-2.07,2.18,2.11,3H611.9l-1.56-2.26-.27.29v2H609Z" transform="translate(-111.35 -38.43)"/><path class="cls-1" d="M130.2,370.51h20.4l-34.84,37.93,43.54-43.53H141.22V335.39c.53-8-3.42-10.43-10.74-9.65" transform="translate(-111.35 -38.43)"/><path class="cls-1" d="M178.85,359.69a26.08,26.08,0,0,0-5.08-1.84l30.29-33-32.52,32.52h0l-4.88,4.87h0l-14.07,14.08v25.4c13.91,1.56,10.68-7.36,11-17,6.2.13,13.39.08,18.16-4.91C187,374.88,185.56,362.21,178.85,359.69Zm-7.56,17.84c-1.79,2-5,2-7.69,1.92V368.91l5.63-6.12C174.2,364.13,174.35,374.56,171.29,377.53Z" transform="translate(-111.35 -38.43)"/><polygon class="cls-2" points="0.12 373.84 33.6 347.46 46.13 327.66 0.12 373.84"/><polygon class="cls-2" points="0.12 373.84 33.6 347.46 46.13 327.66 0.12 373.84"/><path class="cls-2" d="M111.58,412.41l-.23-.26,47.13-47.31L145.06,386Zm44.9-45.06-42.81,43,31.15-24.54Z" transform="translate(-111.35 -38.43)"/><polygon class="cls-3" points="0.84 373.38 26.63 340.32 45.5 327.57 0.84 373.38"/><path d="M112.31,411.93l-.25-.23,25.8-33.07,20.31-13.72Zm25.79-33-23.85,30.56,41.3-42.35Z" transform="translate(-111.35 -38.43)"/><polygon class="cls-1" points="92.2 286.42 66.33 319.8 46.93 332.27 92.2 286.42"/><polygon class="cls-1" points="92.2 286.42 66.33 319.8 46.93 332.27 92.2 286.42"/><path class="cls-1" d="M157.05,371.7l46.38-47,.26.23s-25.89,33.43-25.91,33.42ZM201.64,327l-42.13,42.67,18.06-11.61Z" transform="translate(-111.35 -38.43)"/><polygon class="cls-3" points="92.01 286.58 56.05 316.03 42.7 336.87 92.01 286.58"/><path d="M152.89,376.76l14.38-22.43,36-29.45.28.25Zm14.67-22.18-12.34,19.26,45.59-46.49Z" transform="translate(-111.35 -38.43)"/><path class="cls-1" d="M318.53,372.24h20.39l-34.83,37.93,36.82-36.82,6.15-6.15.56-.56H329.54V337.12a20,20,0,0,0-.56-5.38,5.59,5.59,0,0,0-2.3-3.29,7.81,7.81,0,0,0-4.24-1h-3.63" transform="translate(-111.35 -38.43)"/><path class="cls-1" d="M367.17,361.41a25.81,25.81,0,0,0-5.08-1.83l30.29-33-32.52,32.52h0L355,364h0l-5.57,5.57-8.51,8.51v25.4h5a6,6,0,0,0,6-6v-11h4.68a26.74,26.74,0,0,0,6.65-.93,15,15,0,0,0,6.83-4c2.1-2.09,3.17-5,3.17-8.68C373.26,367.23,371.21,363.38,367.17,361.41Zm-7.55,17.85a7.27,7.27,0,0,1-5.24,1.92h-2.45V370.64l5.63-6.12a6.51,6.51,0,0,1,2.08,1.38c1.31,1.25,2,3.49,2,6.65S360.94,378,359.62,379.26Z" transform="translate(-111.35 -38.43)"/><polygon class="cls-2" points="188.45 375.57 221.93 349.19 234.46 329.39 188.45 375.57"/><polygon class="cls-2" points="188.45 375.57 221.93 349.19 234.46 329.39 188.45 375.57"/><path class="cls-2" d="M299.91,414.14l-.23-.26,47.13-47.31-13.42,21.2Zm44.9-45.06-42.81,43,31.15-24.54Z" transform="translate(-111.35 -38.43)"/><polygon class="cls-3" points="189.16 375.11 214.95 342.05 233.83 329.3 189.16 375.11"/><path d="M300.64,413.66l-.26-.23,25.81-33.07,20.3-13.72Zm25.78-33-23.84,30.56,41.3-42.35Z" transform="translate(-111.35 -38.43)"/><polygon class="cls-1" points="280.53 288.15 254.66 321.52 235.26 334 280.53 288.15"/><polygon class="cls-1" points="280.53 288.15 254.66 321.52 235.26 334 280.53 288.15"/><path class="cls-1" d="M345.38,373.43l46.38-47,.26.23-25.89,33.4,0,0ZM390,328.77l-42.12,42.67,18.05-11.61Z" transform="translate(-111.35 -38.43)"/><polygon class="cls-3" points="280.34 288.31 244.38 317.76 231.03 338.6 280.34 288.31"/><path d="M341.22,378.49l14.38-22.43,36-29.45.28.25Zm14.67-22.18-12.35,19.26,45.6-46.49Z" transform="translate(-111.35 -38.43)"/><path class="cls-1" d="M293.73,427.63h1.82a1.62,1.62,0,0,1,1.19.39,1.65,1.65,0,0,1,.4,1.2,2,2,0,0,1-.17.86,1.23,1.23,0,0,1-.5.56,1.29,1.29,0,0,1-.44.16,4.24,4.24,0,0,1-.83.05h-.37v2h-1.1Zm1.58,1h-.48v1.24h.45a.85.85,0,0,0,.57-.15.58.58,0,0,0,.16-.47.66.66,0,0,0-.15-.48A.85.85,0,0,0,295.31,428.62Z" transform="translate(-111.35 -38.43)"/><path class="cls-1" d="M300.14,427.63h3.27v1h-2.18v1h1.95v1h-1.95v1.21h2.23v1h-3.32Z" transform="translate(-111.35 -38.43)"/><path class="cls-1" d="M307.65,428.62h-1.39v-1h3.87v1h-1.39v4.24h-1.09Z" transform="translate(-111.35 -38.43)"/><path class="cls-1" d="M313,427.63h3.27v1h-2.18v1H316v1h-1.95v1.21h2.24v1H313Z" transform="translate(-111.35 -38.43)"/><path class="cls-1" d="M319.25,427.63h1.08v1.85l1.72-1.85h1.39l-2.06,2.18,2.11,3.05h-1.32l-1.56-2.26-.28.29v2h-1.08Z" transform="translate(-111.35 -38.43)"/><path class="cls-1" d="M336.16,432.86H335l-.26-.34a1.35,1.35,0,0,1-.54.36,2.07,2.07,0,0,1-.73.12,1.65,1.65,0,0,1-1.17-.42,1.4,1.4,0,0,1-.45-1.07,1.33,1.33,0,0,1,.22-.76,3.2,3.2,0,0,1,.77-.7,2.18,2.18,0,0,1-.32-.6,1.9,1.9,0,0,1-.11-.63,1.3,1.3,0,0,1,.38-1,1.51,1.51,0,0,1,2,0,1.18,1.18,0,0,1,.37.92,1.5,1.5,0,0,1-.2.77,2.63,2.63,0,0,1-.71.71l.48.63a1.14,1.14,0,0,0,.08-.27.91.91,0,0,0,0-.23v0h.86a2.78,2.78,0,0,1-.09.72,2.94,2.94,0,0,1-.25.68Zm-2-1.15-.73-.94a1.56,1.56,0,0,0-.39.35.57.57,0,0,0-.1.34.55.55,0,0,0,.16.42.53.53,0,0,0,.41.16.68.68,0,0,0,.33-.09A1.34,1.34,0,0,0,334.12,431.71Zm-.49-2.18a1.88,1.88,0,0,0,.43-.4.6.6,0,0,0,.14-.38.46.46,0,0,0-.46-.48.46.46,0,0,0-.34.14.49.49,0,0,0-.14.36.87.87,0,0,0,.09.36A1.83,1.83,0,0,0,333.63,429.53Z" transform="translate(-111.35 -38.43)"/><path class="cls-1" d="M348.62,432.86h-3.36v-5.23h1.1v4.24h2.26Z" transform="translate(-111.35 -38.43)"/><path class="cls-1" d="M351.56,427.63h3.26v1h-2.18v1h1.95v1h-1.95v1.21h2.24v1h-3.32Z" transform="translate(-111.35 -38.43)"/><path class="cls-1" d="M357.87,427.63h1.86a1.71,1.71,0,0,1,1.13.32,1.1,1.1,0,0,1,.4.91,1.45,1.45,0,0,1-.18.74,1,1,0,0,1-.52.43,1.2,1.2,0,0,1,.69.44,1.38,1.38,0,0,1,.25.82,1.51,1.51,0,0,1-.45,1.14,1.74,1.74,0,0,1-1.21.43h-2Zm1.1,1v1h.57a.69.69,0,0,0,.46-.12.64.64,0,0,0,.13-.44.46.46,0,0,0-.14-.36.62.62,0,0,0-.42-.12Zm0,2v1.21h.73a.7.7,0,0,0,.49-.16.62.62,0,0,0,.17-.46.56.56,0,0,0-.17-.44.82.82,0,0,0-.53-.15Z" transform="translate(-111.35 -38.43)"/><path class="cls-1" d="M367.9,432.86h-3.36v-5.23h1.1v4.24h2.26Z" transform="translate(-111.35 -38.43)"/><path class="cls-1" d="M370.84,427.63h3.26v1h-2.18v1h2v1h-2v1.21h2.24v1h-3.32Z" transform="translate(-111.35 -38.43)"/><path class="cls-1" d="M377.15,427.63H379a1.76,1.76,0,0,1,1.14.32,1.13,1.13,0,0,1,.4.91,1.45,1.45,0,0,1-.19.74,1,1,0,0,1-.52.43,1.2,1.2,0,0,1,.69.44,1.38,1.38,0,0,1,.25.82,1.51,1.51,0,0,1-.45,1.14,1.72,1.72,0,0,1-1.21.43h-2Zm1.1,1v1h.57a.69.69,0,0,0,.46-.12.64.64,0,0,0,.13-.44.46.46,0,0,0-.14-.36.62.62,0,0,0-.42-.12Zm0,2v1.21H379a.7.7,0,0,0,.49-.16.62.62,0,0,0,.17-.46.56.56,0,0,0-.17-.44.8.8,0,0,0-.53-.15Z" transform="translate(-111.35 -38.43)"/><path class="cls-1" d="M384.77,428.53h-1v-.9h3v.9h-1V432h1v.91h-3V432h1Zm.12-2.61h.87v.95h-.87Z" transform="translate(-111.35 -38.43)"/><path class="cls-1" d="M392.55,430.92h1.1a2.46,2.46,0,0,1-.58,1.52,1.61,1.61,0,0,1-1.28.56,1.65,1.65,0,0,1-1.43-.73,4.3,4.3,0,0,1,0-4.06,1.68,1.68,0,0,1,1.43-.73A1.65,1.65,0,0,1,393,428a2,2,0,0,1,.59,1.25h-1.09a1,1,0,0,0-.24-.55.64.64,0,0,0-.46-.19.63.63,0,0,0-.6.43,3.09,3.09,0,0,0-.2,1.25,3.85,3.85,0,0,0,.2,1.42.65.65,0,0,0,.61.46.59.59,0,0,0,.51-.28A1.81,1.81,0,0,0,392.55,430.92Z" transform="translate(-111.35 -38.43)"/><path class="cls-1" d="M397.62,428.53h-.95v-.9h3v.9h-.95V432h.95v.91h-3V432h.95Zm.13-2.61h.87v.95h-.87Z" transform="translate(-111.35 -38.43)"/><path class="cls-1" d="M519.82,372.24h20.4l-34.84,37.93,36.83-36.82,6.14-6.15.57-.56H530.84V337.12a19.93,19.93,0,0,0-.57-5.38,5.55,5.55,0,0,0-2.3-3.29,7.77,7.77,0,0,0-4.23-1H520.1" transform="translate(-111.35 -38.43)"/><path class="cls-1" d="M568.47,361.41a25.91,25.91,0,0,0-5.09-1.83l30.3-33-32.52,32.52h0L556.28,364h0l-5.57,5.57-8.5,8.51v25.4h5a6,6,0,0,0,6-6v-11h4.68a26.74,26.74,0,0,0,6.65-.93,15,15,0,0,0,6.83-4c2.11-2.09,3.17-5,3.17-8.68C574.55,367.23,572.51,363.38,568.47,361.41Zm-7.56,17.85a7.24,7.24,0,0,1-5.24,1.92h-2.45V370.64l5.63-6.12a6.66,6.66,0,0,1,2.09,1.38c1.3,1.25,2,3.49,2,6.65S562.23,378,560.91,379.26Z" transform="translate(-111.35 -38.43)"/><polygon class="cls-2" points="389.74 375.57 423.22 349.19 435.75 329.39 389.74 375.57"/><polygon class="cls-2" points="389.74 375.57 423.22 349.19 435.75 329.39 389.74 375.57"/><path class="cls-2" d="M501.2,414.14l-.23-.26,47.13-47.31-13.42,21.2Zm44.9-45.06-42.81,43,31.15-24.54Z" transform="translate(-111.35 -38.43)"/><polygon class="cls-3" points="390.46 375.11 416.25 342.05 435.12 329.3 390.46 375.11"/><path d="M501.93,413.66l-.25-.23,25.8-33.07,20.3-13.72Zm25.78-33-23.84,30.56,41.3-42.35Z" transform="translate(-111.35 -38.43)"/><polygon class="cls-1" points="481.82 288.15 455.95 321.52 436.55 334 481.82 288.15"/><polygon class="cls-1" points="481.82 288.15 455.95 321.52 436.55 334 481.82 288.15"/><path class="cls-1" d="M546.67,373.43l46.38-47,.26.23-25.89,33.4,0,0Zm44.59-44.66-42.13,42.67,18.06-11.61Z" transform="translate(-111.35 -38.43)"/><polygon class="cls-3" points="481.63 288.31 445.67 317.76 432.32 338.6 481.63 288.31"/><path d="M542.51,378.49l14.38-22.43,36-29.45.28.25Zm14.67-22.18-12.34,19.26,45.59-46.49Z" transform="translate(-111.35 -38.43)"/><path class="cls-1" d="M495,427.63h1.82a1.4,1.4,0,0,1,1.59,1.59,2,2,0,0,1-.16.86,1.31,1.31,0,0,1-.51.56,1.21,1.21,0,0,1-.44.16,4.18,4.18,0,0,1-.83.05h-.37v2H495Zm1.58,1h-.48v1.24h.45a.85.85,0,0,0,.57-.15.58.58,0,0,0,.17-.47.66.66,0,0,0-.16-.48A.83.83,0,0,0,496.6,428.62Z" transform="translate(-111.35 -38.43)"/><path class="cls-1" d="M501.43,427.63h3.27v1h-2.18v1h2v1h-2v1.21h2.24v1h-3.33Z" transform="translate(-111.35 -38.43)"/><path class="cls-1" d="M508.94,428.62h-1.39v-1h3.87v1H510v4.24h-1.09Z" transform="translate(-111.35 -38.43)"/><path class="cls-1" d="M514.29,427.63h3.26v1h-2.18v1h2v1h-2v1.21h2.24v1h-3.32Z" transform="translate(-111.35 -38.43)"/><path class="cls-1" d="M520.54,427.63h1.09v1.85l1.71-1.85h1.39l-2.06,2.18,2.11,3.05h-1.32l-1.56-2.26-.27.29v2h-1.09Z" transform="translate(-111.35 -38.43)"/><path class="cls-1" d="M537.45,432.86h-1.21l-.26-.34a1.32,1.32,0,0,1-.53.36,2.13,2.13,0,0,1-.74.12,1.65,1.65,0,0,1-1.17-.42,1.47,1.47,0,0,1-.23-1.83,3.09,3.09,0,0,1,.78-.7,2,2,0,0,1-.33-.6,1.9,1.9,0,0,1-.11-.63,1.27,1.27,0,0,1,.39-1,1.33,1.33,0,0,1,1-.38,1.37,1.37,0,0,1,1,.35,1.18,1.18,0,0,1,.37.92,1.41,1.41,0,0,1-.2.77,2.57,2.57,0,0,1-.7.71l.47.63a2.13,2.13,0,0,0,.09-.27,1.79,1.79,0,0,0,0-.23v0h.87a4,4,0,0,1-.09.72,3.52,3.52,0,0,1-.26.68Zm-2-1.15-.73-.94a1.56,1.56,0,0,0-.39.35.65.65,0,0,0-.1.34.59.59,0,0,0,.16.42.53.53,0,0,0,.41.16.68.68,0,0,0,.33-.09A1.34,1.34,0,0,0,535.41,431.71Zm-.49-2.18a2,2,0,0,0,.44-.4.66.66,0,0,0,.14-.38.46.46,0,0,0-.14-.34.42.42,0,0,0-.32-.14.47.47,0,0,0-.35.14.49.49,0,0,0-.14.36.76.76,0,0,0,.1.36A1.76,1.76,0,0,0,534.92,429.53Z" transform="translate(-111.35 -38.43)"/><path class="cls-1" d="M549.91,432.86h-3.36v-5.23h1.1v4.24h2.26Z" transform="translate(-111.35 -38.43)"/><path class="cls-1" d="M552.85,427.63h3.27v1h-2.19v1h2v1h-2v1.21h2.24v1h-3.32Z" transform="translate(-111.35 -38.43)"/><path class="cls-1" d="M559.16,427.63H561a1.76,1.76,0,0,1,1.14.32,1.13,1.13,0,0,1,.4.91,1.45,1.45,0,0,1-.19.74,1,1,0,0,1-.52.43,1.17,1.17,0,0,1,.69.44,1.31,1.31,0,0,1,.25.82,1.51,1.51,0,0,1-.45,1.14,1.72,1.72,0,0,1-1.21.43h-2Zm1.1,1v1h.57a.69.69,0,0,0,.46-.12.59.59,0,0,0,.13-.44.46.46,0,0,0-.14-.36.62.62,0,0,0-.42-.12Zm0,2v1.21H561a.69.69,0,0,0,.48-.16.62.62,0,0,0,.17-.46.56.56,0,0,0-.17-.44.8.8,0,0,0-.53-.15Z" transform="translate(-111.35 -38.43)"/><path class="cls-1" d="M569.19,432.86h-3.36v-5.23h1.1v4.24h2.26Z" transform="translate(-111.35 -38.43)"/><path class="cls-1" d="M572.13,427.63h3.27v1h-2.18v1h1.95v1h-1.95v1.21h2.24v1h-3.33Z" transform="translate(-111.35 -38.43)"/><path class="cls-1" d="M578.44,427.63h1.87a1.75,1.75,0,0,1,1.13.32,1.1,1.1,0,0,1,.4.91,1.36,1.36,0,0,1-.19.74.92.92,0,0,1-.52.43,1.14,1.14,0,0,1,.69.44,1.31,1.31,0,0,1,.25.82,1.51,1.51,0,0,1-.45,1.14,1.7,1.7,0,0,1-1.21.43h-2Zm1.1,1v1h.57a.67.67,0,0,0,.46-.12.59.59,0,0,0,.13-.44.46.46,0,0,0-.14-.36.62.62,0,0,0-.42-.12Zm0,2v1.21h.74a.72.72,0,0,0,.49-.16.61.61,0,0,0,.16-.46.53.53,0,0,0-.17-.44.8.8,0,0,0-.53-.15Z" transform="translate(-111.35 -38.43)"/><path class="cls-1" d="M586.06,428.53h-.95v-.9h3v.9h-1V432h1v.91h-3V432h.95Zm.12-2.61h.87v.95h-.87Z" transform="translate(-111.35 -38.43)"/><path class="cls-1" d="M593.84,430.92h1.1a2.52,2.52,0,0,1-.57,1.52,1.65,1.65,0,0,1-1.29.56,1.62,1.62,0,0,1-1.42-.73,4.22,4.22,0,0,1,0-4.06,1.65,1.65,0,0,1,1.42-.73,1.69,1.69,0,0,1,1.2.47,2.06,2.06,0,0,1,.58,1.25h-1.09a1,1,0,0,0-.24-.55.63.63,0,0,0-.46-.19.65.65,0,0,0-.6.43,3.09,3.09,0,0,0-.2,1.25,3.85,3.85,0,0,0,.2,1.42.66.66,0,0,0,.62.46.59.59,0,0,0,.51-.28A1.7,1.7,0,0,0,593.84,430.92Z" transform="translate(-111.35 -38.43)"/><path class="cls-1" d="M598.92,428.53h-1v-.9h3v.9h-1V432h1v.91h-3V432h1Zm.12-2.61h.87v.95H599Z" transform="translate(-111.35 -38.43)"/><path class="cls-1" d="M482,438.94h1.1v2h1.3v-2h1.09v5.23h-1.09v-2.28h-1.3v2.28H482Z" transform="translate(-111.35 -38.43)"/><path class="cls-1" d="M488.4,438.94h1.1v3.27a1.6,1.6,0,0,0,.18.85.57.57,0,0,0,.52.27.6.6,0,0,0,.55-.25,1.81,1.81,0,0,0,.16-.87v-3.27H492v3.24a2.45,2.45,0,0,1-.45,1.61,1.69,1.69,0,0,1-1.36.53,1.67,1.67,0,0,1-1.35-.53,2.4,2.4,0,0,1-.45-1.61Z" transform="translate(-111.35 -38.43)"/><path class="cls-1" d="M494.83,438.94h1.09v1.85l1.71-1.85H499L497,441.12l2.11,3.05h-1.32l-1.56-2.26-.27.29v2h-1.09Z" transform="translate(-111.35 -38.43)"/><path class="cls-1" d="M501.26,438.94h1.1v3.27a1.72,1.72,0,0,0,.17.85.58.58,0,0,0,.53.27.59.59,0,0,0,.54-.25,1.69,1.69,0,0,0,.16-.87v-3.27h1.1v3.24a2.45,2.45,0,0,1-.45,1.61,2,2,0,0,1-2.71,0,2.46,2.46,0,0,1-.44-1.61Z" transform="translate(-111.35 -38.43)"/><path class="cls-1" d="M507.68,438.94h1.09v1.85l1.71-1.85h1.4l-2.07,2.18,2.11,3.05h-1.31L509,441.91l-.27.29v2h-1.09Z" transform="translate(-111.35 -38.43)"/><path class="cls-1" d="M520.51,440.12h1l.84,2.92.81-2.92h1l-1.2,4.05h-1.25Z" transform="translate(-111.35 -38.43)"/><path class="cls-1" d="M529.38,443.09h1.13a1.84,1.84,0,0,1-.65.93,1.79,1.79,0,0,1-1.08.3,1.61,1.61,0,0,1-1.29-.58,2.5,2.5,0,0,1-.47-1.6,2.42,2.42,0,0,1,.48-1.58,1.58,1.58,0,0,1,1.3-.58,1.64,1.64,0,0,1,1.35.57,2.55,2.55,0,0,1,.46,1.65v.18s0,.07,0,.1h-2.52a1.24,1.24,0,0,0,.23.7.64.64,0,0,0,.52.25.63.63,0,0,0,.33-.09A.6.6,0,0,0,529.38,443.09Zm.12-1.39a1,1,0,0,0-.2-.62.66.66,0,0,0-1,0,1,1,0,0,0-.21.61Z" transform="translate(-111.35 -38.43)"/><path class="cls-1" d="M541.61,438.94a1.71,1.71,0,0,1,1.46.67,4.13,4.13,0,0,1,0,3.9,1.7,1.7,0,0,1-1.46.66h-1.74v-5.23Zm0,1H541v3.28h.63a.65.65,0,0,0,.63-.38,3,3,0,0,0,.19-1.26,2.79,2.79,0,0,0-.21-1.22A.66.66,0,0,0,541.61,439.91Z" transform="translate(-111.35 -38.43)"/><path class="cls-1" d="M547.53,438.94h1l1.77,5.23h-1.13l-.38-1.2h-1.61l-.35,1.2h-1.11Zm.51,1.3-.53,1.85h1Z" transform="translate(-111.35 -38.43)"/><path class="cls-1" d="M552.78,438.94h.87l1.57,3.28v-3.28h.95v5.23h-.87l-1.58-3.26v3.26h-.94Z" transform="translate(-111.35 -38.43)"/><path class="cls-1" d="M560.35,439.84h-1v-.9h3v.9h-.95v3.43h.95v.9h-3v-.9h1Z" transform="translate(-111.35 -38.43)"/><path class="cls-1" d="M569.14,440.5H568v-.06a.65.65,0,0,0-.19-.48.64.64,0,0,0-.47-.18.68.68,0,0,0-.48.16.59.59,0,0,0-.18.44.48.48,0,0,0,.18.41,2.09,2.09,0,0,0,.83.28,2.67,2.67,0,0,1,1.27.53,1.35,1.35,0,0,1,.33,1,1.58,1.58,0,0,1-.53,1.27,2.14,2.14,0,0,1-1.47.47,1.9,1.9,0,0,1-1.38-.5,1.92,1.92,0,0,1-.54-1.37h1.12a.93.93,0,0,0,.25.64.75.75,0,0,0,.59.25.9.9,0,0,0,.6-.19.65.65,0,0,0,.23-.52c0-.31-.36-.54-1.06-.7l-.2,0a2,2,0,0,1-1-.5,1.29,1.29,0,0,1-.32-.94,1.56,1.56,0,0,1,.48-1.19,1.77,1.77,0,0,1,1.26-.46,2,2,0,0,1,1.38.45A1.61,1.61,0,0,1,569.14,440.5Zm-2.65,4.81a3.6,3.6,0,0,0,.54.12,2.15,2.15,0,0,0,.4,0,.43.43,0,0,0,.28-.07.23.23,0,0,0,.09-.2.23.23,0,0,0-.1-.2.71.71,0,0,0-.34-.06h-.21v-.78h.38v.33h.05a1,1,0,0,1,.65.18.64.64,0,0,1,.22.53.65.65,0,0,1-.24.55,1.22,1.22,0,0,1-.73.19,4,4,0,0,1-.43,0l-.55-.12Z" transform="translate(-111.35 -38.43)"/><path class="cls-1" d="M571.83,438.94h1.32l.59,3.23h0l.59-3.23h1.31v5.23h-.89v-4h-.1l-.72,4h-.42l-.74-4h-.08v4h-.9Z" transform="translate(-111.35 -38.43)"/><path class="cls-1" d="M579.67,438.94h1l1.76,5.23h-1.13L581,443h-1.61l-.36,1.2h-1.11Zm.51,1.3-.54,1.85h1.06Z" transform="translate(-111.35 -38.43)"/><path class="cls-1" d="M584.92,438.94h.86l1.58,3.28v-3.28h.94v5.23h-.86l-1.58-3.26v3.26h-.94Z" transform="translate(-111.35 -38.43)"/><path class="cls-1" d="M594.9,444.17h-3.36v-5.23h1.1v4.24h2.26Z" transform="translate(-111.35 -38.43)"/><path class="cls-1" d="M598.92,439.84h-1v-.9h3v.9h-1v3.43h1v.9h-3v-.9h1Z" transform="translate(-111.35 -38.43)"/><path class="cls-1" d="M604.09,438.94h1.09v1.85l1.71-1.85h1.4l-2.07,2.18,2.11,3.05H607l-1.56-2.26-.27.29v2h-1.09Z" transform="translate(-111.35 -38.43)"/><path class="cls-1" d="M164.56,508.08v16H130.93V483.53a8,8,0,0,1,15.92,0v10.64a12.59,12.59,0,0,0,1.41-1.22,13.29,13.29,0,1,0-22.68-9.4v29.87h-5.3V483.55A18.61,18.61,0,1,1,141.54,502v-2.18h0V483.41a2.61,2.61,0,1,0-5.22,0v35.36h22.93v-5.35H141.5v-5.34" transform="translate(-111.35 -38.43)"/><line class="cls-4" x1="35.5" y1="469.64" x2="53.21" y2="469.64"/><polygon class="cls-1" points="14.23 483.34 14.23 474.2 14.23 473.43 14.23 471.61 8.93 471.61 8.93 483.39 8.93 483.86 8.93 485.68 14.23 485.68 14.23 483.86 14.23 483.34"/><path class="cls-1" d="M567,509.81v16H533.35V485.26a8,8,0,1,1,15.91,0V495.9a12.69,12.69,0,0,0,1.42-1.22,13.29,13.29,0,1,0-22.68-9.4v29.87h-5.3V485.28a18.59,18.59,0,1,1,31.87,13,18.64,18.64,0,0,1-10.61,5.4V501.5h0V485.14a2.62,2.62,0,0,0-5.23,0V520.5h22.94v-5.35H543.92v-5.34" transform="translate(-111.35 -38.43)"/><line class="cls-4" x1="437.91" y1="471.37" x2="455.62" y2="471.37"/><polygon class="cls-1" points="416.65 485.06 416.65 475.93 416.65 475.16 416.65 473.34 411.34 473.34 411.34 485.12 411.34 485.59 411.34 487.41 416.65 487.41 416.65 485.59 416.65 485.06"/><path class="cls-1" d="M500.47,538.89h1.7a1.31,1.31,0,0,1,1.48,1.48,1.92,1.92,0,0,1-.15.81,1.26,1.26,0,0,1-.48.52,1.17,1.17,0,0,1-.41.15,4.66,4.66,0,0,1-.77,0h-.34v1.87h-1Zm1.48.93h-.45V541h.42a.8.8,0,0,0,.53-.14.54.54,0,0,0,.15-.44.61.61,0,0,0-.14-.44A.76.76,0,0,0,502,539.82Z" transform="translate(-111.35 -38.43)"/><path class="cls-1" d="M506.44,538.89h3v.93h-2v1h1.81v.93h-1.81v1.11h2.08v.93h-3.09Z" transform="translate(-111.35 -38.43)"/><path class="cls-1" d="M513.42,539.82h-1.3v-.93h3.6v.93h-1.29v3.94h-1Z" transform="translate(-111.35 -38.43)"/><path class="cls-1" d="M518.39,538.89h3v.93h-2v1h1.81v.93H519.4v1.11h2.08v.93h-3.09Z" transform="translate(-111.35 -38.43)"/><path class="cls-1" d="M524.2,538.89h1v1.73l1.59-1.73h1.3l-1.92,2,2,2.84h-1.22l-1.46-2.1-.25.27v1.83h-1Z" transform="translate(-111.35 -38.43)"/><path class="cls-1" d="M539.92,543.76H538.8l-.25-.32a1.23,1.23,0,0,1-.49.34,2.06,2.06,0,0,1-.68.11,1.53,1.53,0,0,1-1.09-.39,1.3,1.3,0,0,1-.42-1,1.23,1.23,0,0,1,.21-.7,2.88,2.88,0,0,1,.71-.65,2.34,2.34,0,0,1-.3-.56,1.65,1.65,0,0,1-.1-.58,1.22,1.22,0,0,1,.36-.9,1.26,1.26,0,0,1,.91-.35,1.32,1.32,0,0,1,.92.32,1.11,1.11,0,0,1,.34.86,1.34,1.34,0,0,1-.19.72,2.64,2.64,0,0,1-.65.66l.44.58a1.77,1.77,0,0,0,.08-.25,1.49,1.49,0,0,0,0-.21v0h.8a2.46,2.46,0,0,1-.08.67,2.71,2.71,0,0,1-.24.63Zm-1.9-1.07-.67-.87a1.32,1.32,0,0,0-.36.32.51.51,0,0,0-.1.32.53.53,0,0,0,.15.39.5.5,0,0,0,.38.15.68.68,0,0,0,.31-.08A1.22,1.22,0,0,0,538,542.69Zm-.45-2a1.93,1.93,0,0,0,.41-.38.63.63,0,0,0,.13-.35.42.42,0,0,0-.13-.32.41.41,0,0,0-.3-.12.44.44,0,0,0-.32.12.45.45,0,0,0-.13.34.75.75,0,0,0,.09.33A1.55,1.55,0,0,0,537.57,540.67Z" transform="translate(-111.35 -38.43)"/><path class="cls-1" d="M551.51,543.76h-3.13v-4.87h1v3.94h2.1Z" transform="translate(-111.35 -38.43)"/><path class="cls-1" d="M554.24,538.89h3v.93h-2v1h1.81v.93h-1.81v1.11h2.08v.93h-3.09Z" transform="translate(-111.35 -38.43)"/><path class="cls-1" d="M560.11,538.89h1.73a1.58,1.58,0,0,1,1,.31,1,1,0,0,1,.37.84,1.26,1.26,0,0,1-.17.69.9.9,0,0,1-.48.4,1.07,1.07,0,0,1,.64.41,1.25,1.25,0,0,1,.23.76,1.4,1.4,0,0,1-.42,1.06,1.58,1.58,0,0,1-1.12.4h-1.83Zm1,.93v1h.53a.61.61,0,0,0,.43-.12.55.55,0,0,0,.12-.4.44.44,0,0,0-.13-.34.57.57,0,0,0-.39-.11Zm0,1.9v1.11h.68a.65.65,0,0,0,.46-.14.57.57,0,0,0,.15-.42.51.51,0,0,0-.16-.42.75.75,0,0,0-.49-.13Z" transform="translate(-111.35 -38.43)"/><path class="cls-1" d="M569.43,543.76h-3.12v-4.87h1v3.94h2.1Z" transform="translate(-111.35 -38.43)"/><path class="cls-1" d="M572.16,538.89h3v.93h-2v1H575v.93h-1.82v1.11h2.08v.93h-3.09Z" transform="translate(-111.35 -38.43)"/><path class="cls-1" d="M578,538.89h1.73a1.6,1.6,0,0,1,1.06.31,1,1,0,0,1,.37.84,1.36,1.36,0,0,1-.17.69,1,1,0,0,1-.48.4,1,1,0,0,1,.63.41,1.19,1.19,0,0,1,.23.76,1.43,1.43,0,0,1-.41,1.06,1.61,1.61,0,0,1-1.13.4H578Zm1,.93v1h.52a.6.6,0,0,0,.43-.12.55.55,0,0,0,.12-.4.41.41,0,0,0-.13-.34.54.54,0,0,0-.39-.11Zm0,1.9v1.11h.68a.61.61,0,0,0,.45-.14.57.57,0,0,0,.16-.42.54.54,0,0,0-.16-.42.75.75,0,0,0-.49-.13Z" transform="translate(-111.35 -38.43)"/><path class="cls-1" d="M585.12,539.73h-.89v-.84H587v.84h-.89v3.19H587v.84h-2.8v-.84h.89Zm.11-2.42H586v.88h-.81Z" transform="translate(-111.35 -38.43)"/><path class="cls-1" d="M592.35,542h1a2.3,2.3,0,0,1-.53,1.42,1.54,1.54,0,0,1-1.2.52,1.51,1.51,0,0,1-1.32-.68,3.87,3.87,0,0,1,0-3.77,1.62,1.62,0,0,1,2.43-.24,1.89,1.89,0,0,1,.54,1.16h-1a.93.93,0,0,0-.22-.51.57.57,0,0,0-.43-.18.59.59,0,0,0-.55.4,2.73,2.73,0,0,0-.19,1.17,3.38,3.38,0,0,0,.19,1.31.6.6,0,0,0,.57.43.56.56,0,0,0,.47-.26A1.63,1.63,0,0,0,592.35,542Z" transform="translate(-111.35 -38.43)"/><path class="cls-1" d="M597.07,539.73h-.89v-.84H599v.84h-.89v3.19H599v.84h-2.8v-.84h.89Zm.11-2.42H598v.88h-.81Z" transform="translate(-111.35 -38.43)"/><path class="cls-1" d="M488.4,549.41h1v1.82h1.21v-1.82h1v4.87h-1v-2.13h-1.21v2.13h-1Z" transform="translate(-111.35 -38.43)"/><path class="cls-1" d="M494.33,549.41h1v3.05a1.47,1.47,0,0,0,.16.78.53.53,0,0,0,.49.25.56.56,0,0,0,.5-.23,1.59,1.59,0,0,0,.15-.8v-3.05h1v3a2.28,2.28,0,0,1-.42,1.5,1.56,1.56,0,0,1-1.26.49,1.53,1.53,0,0,1-1.26-.49,2.24,2.24,0,0,1-.41-1.5Z" transform="translate(-111.35 -38.43)"/><path class="cls-1" d="M500.3,549.41h1v1.72l1.59-1.72h1.3l-1.92,2,2,2.84H503l-1.46-2.11-.25.28v1.83h-1Z" transform="translate(-111.35 -38.43)"/><path class="cls-1" d="M506.28,549.41h1v3.05a1.47,1.47,0,0,0,.16.78.53.53,0,0,0,.49.25.56.56,0,0,0,.5-.23,1.59,1.59,0,0,0,.15-.8v-3.05h1v3a2.28,2.28,0,0,1-.42,1.5,1.56,1.56,0,0,1-1.26.49,1.53,1.53,0,0,1-1.26-.49,2.24,2.24,0,0,1-.41-1.5Z" transform="translate(-111.35 -38.43)"/><path class="cls-1" d="M512.25,549.41h1v1.72l1.59-1.72h1.3l-1.92,2,2,2.84H515l-1.46-2.11-.25.28v1.83h-1Z" transform="translate(-111.35 -38.43)"/><path class="cls-1" d="M524.17,550.51h.94l.78,2.71.75-2.71h.93l-1.11,3.77H525.3Z" transform="translate(-111.35 -38.43)"/><path class="cls-1" d="M532.42,553.27h1.05a1.79,1.79,0,0,1-.6.87,1.75,1.75,0,0,1-1,.27,1.45,1.45,0,0,1-1.19-.54,2.64,2.64,0,0,1,0-3,1.68,1.68,0,0,1,2.46,0,2.36,2.36,0,0,1,.43,1.54v.25h-2.35a1.23,1.23,0,0,0,.22.66.59.59,0,0,0,.48.23.53.53,0,0,0,.3-.09A.52.52,0,0,0,532.42,553.27Zm.11-1.29a.91.91,0,0,0-.19-.58.57.57,0,0,0-.46-.2.55.55,0,0,0-.45.22.9.9,0,0,0-.2.56Z" transform="translate(-111.35 -38.43)"/><path class="cls-1" d="M543.79,549.41a1.58,1.58,0,0,1,1.35.62,3,3,0,0,1,.47,1.81,3,3,0,0,1-.46,1.82,1.6,1.6,0,0,1-1.36.62h-1.62v-4.87Zm0,.91h-.58v3h.58a.6.6,0,0,0,.58-.36,2.79,2.79,0,0,0,.18-1.17,2.64,2.64,0,0,0-.19-1.14A.6.6,0,0,0,543.79,550.32Z" transform="translate(-111.35 -38.43)"/><path class="cls-1" d="M549.29,549.41h1l1.64,4.87h-1l-.35-1.12H549l-.33,1.12h-1Zm.48,1.21-.5,1.72h1Z" transform="translate(-111.35 -38.43)"/><path class="cls-1" d="M554.18,549.41h.8l1.47,3.05v-3.05h.87v4.87h-.8l-1.47-3v3h-.87Z" transform="translate(-111.35 -38.43)"/><path class="cls-1" d="M561.22,550.25h-.89v-.84h2.8v.84h-.89v3.18h.89v.85h-2.8v-.85h.89Z" transform="translate(-111.35 -38.43)"/><path class="cls-1" d="M569.39,550.86h-1.07v-.05a.63.63,0,0,0-.17-.45.6.6,0,0,0-.44-.17.63.63,0,0,0-.44.15.52.52,0,0,0-.17.41.47.47,0,0,0,.16.39,2.3,2.3,0,0,0,.77.25,2.47,2.47,0,0,1,1.19.5,1.26,1.26,0,0,1,.31.9A1.5,1.5,0,0,1,569,554a2,2,0,0,1-1.37.43,1.76,1.76,0,0,1-1.28-.46,1.84,1.84,0,0,1-.5-1.28h1a.9.9,0,0,0,.23.6.73.73,0,0,0,.55.23.8.8,0,0,0,.56-.18.57.57,0,0,0,.21-.47c0-.3-.33-.51-1-.65l-.19-.05a1.87,1.87,0,0,1-1-.46,1.21,1.21,0,0,1-.3-.87,1.45,1.45,0,0,1,.45-1.11,1.65,1.65,0,0,1,1.17-.42,1.79,1.79,0,0,1,1.28.41A1.46,1.46,0,0,1,569.39,550.86Zm-2.47,4.47a4.55,4.55,0,0,0,.51.12l.36,0a.43.43,0,0,0,.26-.06.21.21,0,0,0,.09-.19.2.2,0,0,0-.1-.18.58.58,0,0,0-.31-.06h-.2v-.72h.35v.31h0a.93.93,0,0,1,.6.16.58.58,0,0,1,.21.49.59.59,0,0,1-.23.51,1.08,1.08,0,0,1-.68.17l-.4,0c-.16,0-.33-.06-.51-.11Z" transform="translate(-111.35 -38.43)"/><path class="cls-1" d="M571.89,549.41h1.22l.55,3h0l.56-3h1.22v4.87h-.84v-3.76h-.09l-.66,3.76h-.4l-.68-3.76h-.08v3.76h-.83Z" transform="translate(-111.35 -38.43)"/><path class="cls-1" d="M579.17,549.41h1l1.64,4.87h-1l-.35-1.12h-1.5l-.33,1.12h-1Zm.47,1.21-.49,1.72h1Z" transform="translate(-111.35 -38.43)"/><path class="cls-1" d="M584.05,549.41h.81l1.46,3.05v-3.05h.88v4.87h-.81l-1.46-3v3h-.88Z" transform="translate(-111.35 -38.43)"/><path class="cls-1" d="M593.33,554.28h-3.12v-4.87h1v3.94h2.1Z" transform="translate(-111.35 -38.43)"/><path class="cls-1" d="M597.07,550.25h-.89v-.84H599v.84h-.89v3.18H599v.85h-2.8v-.85h.89Z" transform="translate(-111.35 -38.43)"/><path class="cls-1" d="M601.88,549.41h1v1.72l1.59-1.72h1.3l-1.92,2,2,2.84h-1.23l-1.45-2.11-.25.28v1.83h-1Z" transform="translate(-111.35 -38.43)"/><path class="cls-1" d="M356.77,508.08v16H323.14V483.53a8,8,0,1,1,15.92,0v10.64a12.59,12.59,0,0,0,1.41-1.22,13.29,13.29,0,1,0-22.68-9.4v29.87h-5.3V483.55A18.6,18.6,0,1,1,333.76,502v-2.18h-.05V483.41a2.61,2.61,0,0,0-2.61-2.61,2.59,2.59,0,0,0-2.61,2.61v35.36h22.93v-5.35H333.71v-5.34" transform="translate(-111.35 -38.43)"/><line class="cls-4" x1="227.71" y1="469.64" x2="245.42" y2="469.64"/><polygon class="cls-1" points="206.44 483.34 206.44 474.2 206.44 473.43 206.44 471.61 201.14 471.61 201.14 483.39 201.14 483.86 201.14 485.68 206.44 485.68 206.44 483.86 206.44 483.34"/><path class="cls-1" d="M282.71,538.66h1.82a1.62,1.62,0,0,1,1.19.39,1.67,1.67,0,0,1,.4,1.2,2,2,0,0,1-.17.87,1.28,1.28,0,0,1-.5.56,1.54,1.54,0,0,1-.44.16,5.55,5.55,0,0,1-.83,0h-.37v2h-1.1Zm1.58,1h-.48v1.24h.45a.91.91,0,0,0,.57-.14.62.62,0,0,0,.16-.48.66.66,0,0,0-.15-.48A.85.85,0,0,0,284.29,539.65Z" transform="translate(-111.35 -38.43)"/><path class="cls-1" d="M289.12,538.66h3.27v1h-2.18v1.05h2v1h-2v1.2h2.23v1h-3.32Z" transform="translate(-111.35 -38.43)"/><path class="cls-1" d="M296.62,539.65h-1.38v-1h3.87v1h-1.39v4.24h-1.1Z" transform="translate(-111.35 -38.43)"/><path class="cls-1" d="M302,538.66h3.27v1h-2.18v1.05H305v1h-1.95v1.2h2.24v1H302Z" transform="translate(-111.35 -38.43)"/><path class="cls-1" d="M308.23,538.66h1.08v1.85l1.72-1.85h1.39l-2.06,2.18,2.11,3h-1.32l-1.56-2.26-.28.29v2h-1.08Z" transform="translate(-111.35 -38.43)"/><path class="cls-1" d="M325.14,543.89h-1.21l-.26-.34a1.49,1.49,0,0,1-.54.37,2.07,2.07,0,0,1-.73.12,1.65,1.65,0,0,1-1.17-.42,1.41,1.41,0,0,1-.45-1.08,1.3,1.3,0,0,1,.22-.75,2.84,2.84,0,0,1,.77-.7,2.5,2.5,0,0,1-.32-.6,2,2,0,0,1-.11-.63,1.34,1.34,0,0,1,.38-1,1.54,1.54,0,0,1,2,0,1.19,1.19,0,0,1,.37.92,1.5,1.5,0,0,1-.2.77,2.64,2.64,0,0,1-.71.72l.48.62a1.23,1.23,0,0,0,.08-.26,1,1,0,0,0,0-.23v0h.86a2.86,2.86,0,0,1-.09.73,3,3,0,0,1-.25.67Zm-2-1.15-.73-.94a1.78,1.78,0,0,0-.39.35.58.58,0,0,0-.1.35.55.55,0,0,0,.57.57.8.8,0,0,0,.33-.08A1.4,1.4,0,0,0,323.1,542.74Zm-.49-2.17a2.13,2.13,0,0,0,.43-.4.62.62,0,0,0,.14-.39.47.47,0,0,0-.13-.34.44.44,0,0,0-.33-.13.42.42,0,0,0-.34.14.48.48,0,0,0-.14.35.87.87,0,0,0,.09.37A2.1,2.1,0,0,0,322.61,540.57Z" transform="translate(-111.35 -38.43)"/><path class="cls-1" d="M337.6,543.89h-3.36v-5.23h1.1v4.24h2.26Z" transform="translate(-111.35 -38.43)"/><path class="cls-1" d="M340.54,538.66h3.26v1h-2.18v1.05h1.95v1h-1.95v1.2h2.24v1h-3.32Z" transform="translate(-111.35 -38.43)"/><path class="cls-1" d="M346.85,538.66h1.86a1.77,1.77,0,0,1,1.13.32,1.12,1.12,0,0,1,.4.92,1.41,1.41,0,0,1-.18.73,1,1,0,0,1-.52.43,1.2,1.2,0,0,1,.69.44,1.4,1.4,0,0,1,.25.82,1.51,1.51,0,0,1-.45,1.14,1.69,1.69,0,0,1-1.21.43h-2Zm1.1,1v1.05h.57a.68.68,0,0,0,.46-.13.63.63,0,0,0,.13-.43.47.47,0,0,0-.14-.37.62.62,0,0,0-.42-.12Zm0,2.05v1.2h.73a.66.66,0,0,0,.49-.16.68.68,0,0,0,0-.9.88.88,0,0,0-.53-.14Z" transform="translate(-111.35 -38.43)"/><path class="cls-1" d="M356.88,543.89h-3.36v-5.23h1.1v4.24h2.26Z" transform="translate(-111.35 -38.43)"/><path class="cls-1" d="M359.82,538.66h3.26v1H360.9v1.05h2v1h-2v1.2h2.24v1h-3.32Z" transform="translate(-111.35 -38.43)"/><path class="cls-1" d="M366.13,538.66H368a1.82,1.82,0,0,1,1.14.32,1.15,1.15,0,0,1,.4.92,1.41,1.41,0,0,1-.19.73,1,1,0,0,1-.52.43,1.2,1.2,0,0,1,.69.44,1.4,1.4,0,0,1,.25.82,1.51,1.51,0,0,1-.45,1.14,1.68,1.68,0,0,1-1.21.43h-2Zm1.1,1v1.05h.57a.68.68,0,0,0,.46-.13.63.63,0,0,0,.13-.43.47.47,0,0,0-.14-.37.62.62,0,0,0-.42-.12Zm0,2.05v1.2H368a.66.66,0,0,0,.49-.16.68.68,0,0,0,0-.9.86.86,0,0,0-.53-.14Z" transform="translate(-111.35 -38.43)"/><path class="cls-1" d="M373.75,539.56h-1v-.9h3v.9h-1V543h1v.9h-3V543h1Zm.12-2.6h.87v.95h-.87Z" transform="translate(-111.35 -38.43)"/><path class="cls-1" d="M381.53,542h1.1a2.46,2.46,0,0,1-.58,1.52,1.62,1.62,0,0,1-1.28.57,1.66,1.66,0,0,1-1.43-.74,4.28,4.28,0,0,1,0-4A1.77,1.77,0,0,1,382,539a2,2,0,0,1,.59,1.26h-1.09a1,1,0,0,0-.24-.56.65.65,0,0,0-1.06.24,3.11,3.11,0,0,0-.2,1.26,3.83,3.83,0,0,0,.2,1.41.66.66,0,0,0,.61.47.6.6,0,0,0,.51-.29A1.81,1.81,0,0,0,381.53,542Z" transform="translate(-111.35 -38.43)"/><path class="cls-1" d="M386.6,539.56h-1v-.9h3v.9h-1V543h1v.9h-3V543h1Zm.13-2.6h.87v.95h-.87Z" transform="translate(-111.35 -38.43)"/><path class="cls-1" d="M329.12,85.94h20.4l-34.83,37.93,36.82-36.82,6.14-6.14.57-.57H340.14V50.83a20,20,0,0,0-.56-5.39,5.51,5.51,0,0,0-2.31-3.28,7.77,7.77,0,0,0-4.23-1H329.4" transform="translate(-111.35 -38.43)"/><path class="cls-1" d="M377.77,75.12a26.74,26.74,0,0,0-5.08-1.84L403,40.3,370.46,72.82h0l-4.87,4.87h0L360,83.26l-8.51,8.51v25.4h5a6,6,0,0,0,6-6v-11h4.68a26.71,26.71,0,0,0,6.64-.94,15,15,0,0,0,6.83-4c2.11-2.08,3.18-5,3.18-8.68C383.86,80.93,381.81,77.08,377.77,75.12ZM370.21,93A7.26,7.26,0,0,1,365,94.88h-2.45V84.35l5.62-6.13a6.55,6.55,0,0,1,2.09,1.38c1.3,1.25,2,3.49,2,6.65S371.53,91.71,370.21,93Z" transform="translate(-111.35 -38.43)"/><polygon class="cls-2" points="199.05 89.27 232.52 62.9 245.05 43.09 199.05 89.27"/><polygon class="cls-2" points="199.05 89.27 232.52 62.9 245.05 43.09 199.05 89.27"/><path class="cls-2" d="M310.51,127.85l-.23-.27L357.4,80.27,344,101.47ZM355.4,82.78l-42.8,43,31.15-24.54Z" transform="translate(-111.35 -38.43)"/><polygon class="cls-3" points="199.76 88.81 225.55 55.76 244.43 43 199.76 88.81"/><path d="M311.23,127.37l-.25-.24,25.81-33.07,20.3-13.72Zm25.79-33-23.85,30.55,41.3-42.35Z" transform="translate(-111.35 -38.43)"/><polygon class="cls-2" points="291.12 1.85 265.26 35.23 245.85 47.7 291.12 1.85"/><polygon class="cls-2" points="291.12 1.85 265.26 35.23 245.85 47.7 291.12 1.85"/><path class="cls-2" d="M356,87.14l46.37-47,.26.23L376.73,73.8h0Zm44.58-44.66L358.44,85.14l18.05-11.61Z" transform="translate(-111.35 -38.43)"/><polygon class="cls-3" points="290.94 2.01 254.97 31.46 241.62 52.3 290.94 2.01"/><path d="M351.81,92.19l14.38-22.43,36-29.45.28.25ZM366.48,70,354.14,89.28l45.59-46.5Z" transform="translate(-111.35 -38.43)"/><path class="cls-1" d="M305.58,147.27h1.82a1.65,1.65,0,0,1,1.2.4,1.62,1.62,0,0,1,.39,1.19,2,2,0,0,1-.16.87,1.31,1.31,0,0,1-.51.56,1.15,1.15,0,0,1-.44.16,5,5,0,0,1-.82.05h-.38v2h-1.1Zm1.59,1h-.49v1.23h.46a.85.85,0,0,0,.57-.14.58.58,0,0,0,.16-.47.63.63,0,0,0-.15-.48A.81.81,0,0,0,307.17,148.27Z" transform="translate(-111.35 -38.43)"/><path class="cls-1" d="M312,147.27h3.26v1h-2.18v1H315v1h-1.95v1.2h2.24v1H312Z" transform="translate(-111.35 -38.43)"/><path class="cls-1" d="M319.5,148.27h-1.39v-1H322v1H320.6v4.24h-1.1Z" transform="translate(-111.35 -38.43)"/><path class="cls-1" d="M324.85,147.27h3.27v1h-2.18v1h1.95v1h-1.95v1.2h2.24v1h-3.33Z" transform="translate(-111.35 -38.43)"/><path class="cls-1" d="M331.1,147.27h1.09v1.86l1.71-1.86h1.4l-2.07,2.18,2.11,3.06H334l-1.56-2.26-.27.29v2H331.1Z" transform="translate(-111.35 -38.43)"/><path class="cls-1" d="M348,152.51h-1.21l-.27-.34a1.32,1.32,0,0,1-.53.36,2.07,2.07,0,0,1-.73.12,1.65,1.65,0,0,1-1.17-.42,1.4,1.4,0,0,1-.45-1.07,1.31,1.31,0,0,1,.22-.76,3,3,0,0,1,.77-.7,2.5,2.5,0,0,1-.32-.6,1.67,1.67,0,0,1-.11-.63,1.27,1.27,0,0,1,.38-1,1.35,1.35,0,0,1,1-.38,1.4,1.4,0,0,1,1,.34,1.2,1.2,0,0,1,.37.93,1.52,1.52,0,0,1-.2.77,2.78,2.78,0,0,1-.71.71l.48.63a2,2,0,0,0,.08-.27.9.9,0,0,0,0-.23v0h.87a2.84,2.84,0,0,1-.09.72,3,3,0,0,1-.26.68Zm-2-1.16-.72-.93a1.4,1.4,0,0,0-.39.34.57.57,0,0,0,.46.93.69.69,0,0,0,.34-.09A1.36,1.36,0,0,0,346,151.35Zm-.49-2.17a1.76,1.76,0,0,0,.44-.4.62.62,0,0,0,.14-.38.46.46,0,0,0-.46-.48.46.46,0,0,0-.48.5.87.87,0,0,0,.09.36A1.76,1.76,0,0,0,345.48,149.18Z" transform="translate(-111.35 -38.43)"/><path class="cls-1" d="M360.48,152.51h-3.37v-5.24h1.11v4.24h2.26Z" transform="translate(-111.35 -38.43)"/><path class="cls-1" d="M363.41,147.27h3.27v1H364.5v1h1.95v1H364.5v1.2h2.24v1h-3.33Z" transform="translate(-111.35 -38.43)"/><path class="cls-1" d="M369.73,147.27h1.86a1.71,1.71,0,0,1,1.13.33,1.1,1.1,0,0,1,.4.91,1.45,1.45,0,0,1-.18.74,1,1,0,0,1-.52.43,1.1,1.1,0,0,1,.68.44,1.29,1.29,0,0,1,.25.82,1.48,1.48,0,0,1-.45,1.13,1.66,1.66,0,0,1-1.2.44h-2Zm1.1,1v1h.56a.6.6,0,0,0,.46-.13.57.57,0,0,0,.13-.43.45.45,0,0,0-.13-.36.67.67,0,0,0-.43-.12Zm0,2v1.2h.73a.7.7,0,0,0,.49-.15.62.62,0,0,0,.17-.46.52.52,0,0,0-.18-.44.77.77,0,0,0-.52-.15Z" transform="translate(-111.35 -38.43)"/><path class="cls-1" d="M379.76,152.51H376.4v-5.24h1.1v4.24h2.26Z" transform="translate(-111.35 -38.43)"/><path class="cls-1" d="M382.69,147.27H386v1h-2.18v1h2v1h-2v1.2H386v1h-3.33Z" transform="translate(-111.35 -38.43)"/><path class="cls-1" d="M389,147.27h1.86a1.71,1.71,0,0,1,1.13.33,1.1,1.1,0,0,1,.4.91,1.45,1.45,0,0,1-.18.74,1,1,0,0,1-.52.43,1.16,1.16,0,0,1,.69.44,1.35,1.35,0,0,1,.25.82,1.48,1.48,0,0,1-.46,1.13,1.66,1.66,0,0,1-1.2.44h-2Zm1.1,1v1h.57a.63.63,0,0,0,.46-.13.61.61,0,0,0,.13-.43.46.46,0,0,0-.14-.36.66.66,0,0,0-.42-.12Zm0,2v1.2h.73a.7.7,0,0,0,.49-.15.62.62,0,0,0,.17-.46.52.52,0,0,0-.18-.44.77.77,0,0,0-.52-.15Z" transform="translate(-111.35 -38.43)"/><path class="cls-1" d="M396.63,148.18h-1v-.91h3v.91h-1v3.42h1v.91h-3v-.91h1Zm.12-2.61h.87v1h-.87Z" transform="translate(-111.35 -38.43)"/><path class="cls-1" d="M404.41,150.56h1.1a2.49,2.49,0,0,1-.58,1.53,1.76,1.76,0,0,1-2.71-.17,4.22,4.22,0,0,1,0-4.06,1.76,1.76,0,0,1,2.62-.26,2,2,0,0,1,.58,1.25h-1.08a1.13,1.13,0,0,0-.25-.55.58.58,0,0,0-.45-.19.63.63,0,0,0-.6.42,3,3,0,0,0-.2,1.26,3.65,3.65,0,0,0,.2,1.42.65.65,0,0,0,.61.46.59.59,0,0,0,.51-.28A1.85,1.85,0,0,0,404.41,150.56Z" transform="translate(-111.35 -38.43)"/><path class="cls-1" d="M409.48,148.18h-1v-.91h3v.91h-1v3.42h1v.91h-3v-.91h1Zm.12-2.61h.87v1h-.87Z" transform="translate(-111.35 -38.43)"/></svg>