<?xml version="1.0" encoding="utf-8"?>
<svg viewBox="0 0 500 500" width="500px" height="500px" xmlns="http://www.w3.org/2000/svg"><g style="" transform="matrix(3.8045380115509038, 0, 0, 3.8045380115509038, -693.9211529183559, -701.1345319320936)" id="object-13"><rect width="131.422" height="131.422" style="fill: rgb(255, 255, 255);" rx="30.466" ry="30.466" y="184.289" x="182.393"/><g id="object-12" transform="matrix(1, 0, 0, 1, 144.873003, -79.322999)"><path class="cls-1" d="M 79.726 331.278 L 100.126 331.278 L 65.286 369.208 L 108.826 325.678 L 90.746 325.678 L 90.746 296.158 C 91.276 288.158 87.326 285.728 80.006 286.508" style="fill: rgb(125, 37, 41);" id="object-0"/><path class="cls-1" d="M 128.376 320.458 C 126.75 319.67 125.048 319.054 123.296 318.618 L 153.586 285.618 L 121.066 318.138 L 116.186 323.008 L 102.116 337.088 L 102.116 362.488 C 116.026 364.048 112.796 355.128 113.116 345.488 C 119.316 345.618 126.506 345.568 131.276 340.578 C 136.526 335.648 135.086 322.978 128.376 320.458 Z M 120.816 338.298 C 119.026 340.298 115.816 340.298 113.126 340.218 L 113.126 329.678 L 118.756 323.558 C 123.726 324.898 123.876 335.328 120.816 338.298 Z" style="fill: rgb(125, 37, 41);" id="object-1"/><polygon class="cls-2" points="60.996 373.038 94.476 346.658 107.006 326.858 60.996 373.038" style="fill: rgb(29, 29, 27);" id="object-2"/><polygon class="cls-2" points="60.996 373.038 94.476 346.658 107.006 326.858 60.996 373.038" style="fill: rgb(29, 29, 27);" id="object-3"/><path class="cls-2" d="M 61.106 373.178 L 60.876 372.918 L 108.006 325.608 L 94.586 346.768 L 61.106 373.178 Z M 106.006 328.118 L 63.196 371.118 L 94.346 346.578 L 106.006 328.118 Z" style="fill: rgb(29, 29, 27);" id="object-4"/><polygon class="cls-3" points="61.716 372.578 87.506 339.518 106.376 326.768 61.716 372.578" style="fill: rgb(255, 255, 255);" id="object-5"/><path d="M 61.836 372.698 L 61.586 372.468 L 87.386 339.398 L 107.696 325.678 L 61.836 372.698 Z M 87.626 339.698 L 63.776 370.258 L 105.076 327.908 L 87.626 339.698 Z" id="object-6"/><polygon class="cls-1" points="153.076 285.618 127.206 318.998 107.806 331.468 153.076 285.618" style="fill: rgb(125, 37, 41);" id="object-7"/><polygon class="cls-1" points="153.076 285.618 127.206 318.998 107.806 331.468 153.076 285.618" style="fill: rgb(125, 37, 41);" id="object-8"/><path class="cls-1" d="M 106.576 332.468 L 152.956 285.468 L 153.216 285.698 C 153.216 285.698 127.326 319.128 127.306 319.118 L 106.576 332.468 Z M 151.166 287.768 L 109.036 330.438 L 127.096 318.828 L 151.166 287.768 Z" style="fill: rgb(125, 37, 41);" id="object-9"/><polygon class="cls-3" points="152.886 285.778 116.926 315.228 103.576 336.068 152.886 285.778" style="fill: rgb(255, 255, 255);" id="object-10"/><path d="M 102.416 337.528 L 116.796 315.098 L 152.796 285.648 L 153.076 285.898 L 102.416 337.528 Z M 117.086 315.348 L 104.746 334.608 L 150.336 288.118 L 117.086 315.348 Z" id="object-11"/></g></g></svg>