<?xml version="1.0" encoding="utf-8"?>
<svg viewBox="243.256 287.198 105.94 106.5714" width="105.94px" height="106.571px" preserveAspectRatio="none" xmlns="http://www.w3.org/2000/svg"><g id="object-13"><path class="cls-1" d="M 268.056 333.008 L 288.446 333.008 L 253.616 370.938 L 290.436 334.118 L 296.586 327.968 L 297.146 327.408 L 279.066 327.408 L 279.066 297.888 C 279.123 296.077 278.935 294.267 278.506 292.508 C 278.173 291.164 277.353 289.992 276.206 289.218 C 274.916 288.489 273.445 288.142 271.966 288.218 L 268.336 288.218" style="fill: rgb(125, 37, 41);"/><path class="cls-1" d="M 316.696 322.178 C 315.071 321.392 313.368 320.778 311.616 320.348 L 341.906 287.348 L 309.386 319.868 L 304.526 324.768 L 298.956 330.338 L 290.446 338.848 L 290.446 364.248 L 295.446 364.248 C 298.759 364.248 301.446 361.561 301.446 358.248 L 301.446 347.248 L 306.126 347.248 C 308.372 347.218 310.607 346.906 312.776 346.318 C 315.369 345.62 317.728 344.239 319.606 342.318 C 321.706 340.228 322.776 337.318 322.776 333.638 C 322.786 327.998 320.736 324.148 316.696 322.178 Z M 309.146 340.028 C 307.724 341.339 305.838 342.03 303.906 341.948 L 301.456 341.948 L 301.456 331.408 L 307.086 325.288 C 307.861 325.609 308.568 326.078 309.166 326.668 C 310.476 327.918 311.166 330.158 311.166 333.318 C 311.166 336.478 310.466 338.768 309.146 340.028 Z" style="fill: rgb(125, 37, 41);"/><polygon class="cls-2" points="249.326 374.768 282.806 348.388 295.336 328.588 249.326 374.768" style="fill: rgb(29, 29, 27);"/><polygon class="cls-2" points="249.326 374.768 282.806 348.388 295.336 328.588 249.326 374.768" style="fill: rgb(29, 29, 27);"/><path class="cls-2" d="M 249.436 374.908 L 249.206 374.648 L 296.336 327.338 L 282.916 348.538 L 249.436 374.908 Z M 294.336 329.848 L 251.526 372.848 L 282.676 348.308 L 294.336 329.848 Z" style="fill: rgb(29, 29, 27);"/><polygon class="cls-3" points="250.036 374.308 275.826 341.248 294.706 328.498 250.036 374.308" style="fill: rgb(255, 255, 255);"/><path d="M 250.166 374.428 L 249.906 374.198 L 275.716 341.128 L 296.016 327.408 L 250.166 374.428 Z M 275.946 341.428 L 252.106 371.988 L 293.406 329.638 L 275.946 341.428 Z"/><polygon class="cls-1" points="341.406 287.348 315.536 320.718 296.136 333.198 341.406 287.348" style="fill: rgb(125, 37, 41);"/><polygon class="cls-1" points="341.406 287.348 315.536 320.718 296.136 333.198 341.406 287.348" style="fill: rgb(125, 37, 41);"/><path class="cls-1" d="M 294.906 334.198 L 341.286 287.198 L 341.546 287.428 L 315.656 320.828 L 294.906 334.198 Z M 339.526 289.538 L 297.406 332.208 L 315.456 320.598 L 339.526 289.538 Z" style="fill: rgb(125, 37, 41);"/><polygon class="cls-3" points="341.216 287.508 305.256 316.958 291.906 337.798 341.216 287.508" style="fill: rgb(255, 255, 255);"/><path d="M 290.746 339.258 L 305.126 316.828 L 341.126 287.378 L 341.406 287.628 L 290.746 339.258 Z M 305.416 317.078 L 293.066 336.338 L 338.666 289.848 L 305.416 317.078 Z"/><path class="cls-1" d="M 243.256 388.398 L 245.076 388.398 C 245.508 388.363 245.937 388.503 246.266 388.788 C 246.553 389.119 246.697 389.55 246.666 389.988 C 246.673 390.283 246.615 390.577 246.496 390.848 C 246.391 391.082 246.216 391.278 245.996 391.408 C 245.86 391.487 245.711 391.542 245.556 391.568 C 245.281 391.612 245.003 391.628 244.726 391.618 L 244.356 391.618 L 244.356 393.618 L 243.256 393.618 L 243.256 388.398 Z M 244.836 389.398 L 244.356 389.398 L 244.356 390.638 L 244.806 390.638 C 245.007 390.657 245.209 390.604 245.376 390.488 C 245.497 390.363 245.555 390.19 245.536 390.018 C 245.551 389.844 245.497 389.672 245.386 389.538 C 245.225 389.426 245.031 389.373 244.836 389.388 L 244.836 389.398 Z" style="fill: rgb(125, 37, 41);"/><path class="cls-1" d="M 249.666 388.398 L 252.936 388.398 L 252.936 389.398 L 250.756 389.398 L 250.756 390.398 L 252.706 390.398 L 252.706 391.398 L 250.756 391.398 L 250.756 392.608 L 252.986 392.608 L 252.986 393.608 L 249.666 393.608 L 249.666 388.398 Z" style="fill: rgb(125, 37, 41);"/><path class="cls-1" d="M 257.176 389.388 L 255.786 389.388 L 255.786 388.388 L 259.656 388.388 L 259.656 389.388 L 258.266 389.388 L 258.266 393.628 L 257.176 393.628 L 257.176 389.388 Z" style="fill: rgb(125, 37, 41);"/><path class="cls-1" d="M 262.526 388.398 L 265.796 388.398 L 265.796 389.398 L 263.616 389.398 L 263.616 390.398 L 265.526 390.398 L 265.526 391.398 L 263.576 391.398 L 263.576 392.608 L 265.816 392.608 L 265.816 393.608 L 262.526 393.608 L 262.526 388.398 Z" style="fill: rgb(125, 37, 41);"/><path class="cls-1" d="M 268.776 388.398 L 269.856 388.398 L 269.856 390.248 L 271.576 388.398 L 272.966 388.398 L 270.906 390.578 L 273.016 393.628 L 271.696 393.628 L 270.136 391.368 L 269.856 391.658 L 269.856 393.658 L 268.776 393.658 L 268.776 388.398 Z" style="fill: rgb(125, 37, 41);"/><path class="cls-1" d="M 285.686 393.628 L 284.526 393.628 L 284.266 393.288 C 284.117 393.45 283.932 393.573 283.726 393.648 C 283.491 393.731 283.244 393.772 282.996 393.768 C 282.566 393.786 282.146 393.635 281.826 393.348 C 281.528 393.073 281.364 392.683 281.376 392.278 C 281.37 392.008 281.447 391.743 281.596 391.518 C 281.812 391.244 282.072 391.007 282.366 390.818 C 282.228 390.636 282.12 390.433 282.046 390.218 C 281.974 390.015 281.936 389.802 281.936 389.588 C 281.913 389.215 282.051 388.851 282.316 388.588 C 282.887 388.083 283.744 388.083 284.316 388.588 C 284.568 388.825 284.703 389.162 284.686 389.508 C 284.689 389.778 284.62 390.044 284.486 390.278 C 284.297 390.558 284.056 390.799 283.776 390.988 L 284.256 391.618 C 284.293 391.531 284.32 391.441 284.336 391.348 C 284.345 391.271 284.345 391.194 284.336 391.118 L 285.196 391.118 C 285.197 391.361 285.167 391.603 285.106 391.838 C 285.051 392.074 284.967 392.302 284.856 392.518 L 285.686 393.628 Z M 283.686 392.478 L 282.956 391.538 C 282.807 391.632 282.675 391.75 282.566 391.888 C 282.497 391.988 282.462 392.107 282.466 392.228 C 282.457 392.384 282.515 392.537 282.626 392.648 C 282.733 392.758 282.882 392.816 283.036 392.808 C 283.151 392.806 283.265 392.775 283.366 392.718 C 283.469 392.651 283.564 392.57 283.646 392.478 L 283.686 392.478 Z M 283.196 390.298 C 283.359 390.188 283.504 390.053 283.626 389.898 C 283.715 389.791 283.764 389.657 283.766 389.518 C 283.777 389.256 283.568 389.037 283.306 389.038 C 283.178 389.035 283.054 389.086 282.966 389.178 C 282.872 389.273 282.821 389.404 282.826 389.538 C 282.829 389.663 282.86 389.786 282.916 389.898 C 282.978 390.041 283.059 390.175 283.156 390.298 L 283.196 390.298 Z" style="fill: rgb(125, 37, 41);"/><path class="cls-1" d="M 298.146 393.628 L 294.786 393.628 L 294.786 388.398 L 295.886 388.398 L 295.886 392.638 L 298.146 392.638 L 298.146 393.628 Z" style="fill: rgb(125, 37, 41);"/><path class="cls-1" d="M 301.086 388.398 L 304.346 388.398 L 304.346 389.398 L 302.166 389.398 L 302.166 390.398 L 304.116 390.398 L 304.116 391.398 L 302.166 391.398 L 302.166 392.608 L 304.406 392.608 L 304.406 393.608 L 301.086 393.608 L 301.086 388.398 Z" style="fill: rgb(125, 37, 41);"/><path class="cls-1" d="M 307.396 388.398 L 309.256 388.398 C 309.658 388.368 310.058 388.481 310.386 388.718 C 310.656 388.94 310.805 389.278 310.786 389.628 C 310.793 389.886 310.73 390.142 310.606 390.368 C 310.487 390.567 310.303 390.719 310.086 390.798 C 310.36 390.859 310.604 391.015 310.776 391.238 C 310.944 391.478 311.031 391.765 311.026 392.058 C 311.043 392.484 310.88 392.898 310.576 393.198 C 310.242 393.49 309.809 393.644 309.366 393.628 L 307.366 393.628 L 307.396 388.398 Z M 308.496 389.398 L 308.496 390.398 L 309.066 390.398 C 309.228 390.413 309.391 390.371 309.526 390.278 C 309.622 390.152 309.668 389.995 309.656 389.838 C 309.664 389.703 309.613 389.571 309.516 389.478 C 309.395 389.388 309.245 389.345 309.096 389.358 L 308.496 389.398 Z M 308.496 391.398 L 308.496 392.608 L 309.226 392.608 C 309.403 392.619 309.578 392.561 309.716 392.448 C 309.833 392.324 309.894 392.158 309.886 391.988 C 309.896 391.823 309.834 391.662 309.716 391.548 C 309.561 391.438 309.374 391.385 309.186 391.398 L 308.496 391.398 Z" style="fill: rgb(125, 37, 41);"/><path class="cls-1" d="M 317.426 393.628 L 314.066 393.628 L 314.066 388.398 L 315.166 388.398 L 315.166 392.638 L 317.426 392.638 L 317.426 393.628 Z" style="fill: rgb(125, 37, 41);"/><path class="cls-1" d="M 320.366 388.398 L 323.626 388.398 L 323.626 389.398 L 321.446 389.398 L 321.446 390.398 L 323.446 390.398 L 323.446 391.398 L 321.446 391.398 L 321.446 392.608 L 323.686 392.608 L 323.686 393.608 L 320.366 393.608 L 320.366 388.398 Z" style="fill: rgb(125, 37, 41);"/><path class="cls-1" d="M 326.676 388.398 L 328.526 388.398 C 328.931 388.37 329.334 388.483 329.666 388.718 C 329.932 388.943 330.08 389.279 330.066 389.628 C 330.069 389.887 330.004 390.142 329.876 390.368 C 329.757 390.567 329.573 390.719 329.356 390.798 C 329.63 390.859 329.874 391.015 330.046 391.238 C 330.214 391.478 330.301 391.765 330.296 392.058 C 330.313 392.484 330.15 392.898 329.846 393.198 C 329.513 393.492 329.079 393.646 328.636 393.628 L 326.636 393.628 L 326.676 388.398 Z M 327.776 389.398 L 327.776 390.398 L 328.346 390.398 C 328.508 390.413 328.671 390.371 328.806 390.278 C 328.902 390.152 328.948 389.995 328.936 389.838 C 328.944 389.703 328.893 389.571 328.796 389.478 C 328.675 389.388 328.525 389.345 328.376 389.358 L 327.776 389.398 Z M 327.776 391.398 L 327.776 392.608 L 328.526 392.608 C 328.703 392.619 328.878 392.561 329.016 392.448 C 329.133 392.324 329.194 392.158 329.186 391.988 C 329.196 391.823 329.134 391.662 329.016 391.548 C 328.862 391.437 328.674 391.383 328.486 391.398 L 327.776 391.398 Z" style="fill: rgb(125, 37, 41);"/><path class="cls-1" d="M 334.296 389.298 L 333.296 389.298 L 333.296 388.398 L 336.296 388.398 L 336.296 389.298 L 335.296 389.298 L 335.296 392.768 L 336.296 392.768 L 336.296 393.678 L 333.296 393.678 L 333.296 392.768 L 334.296 392.768 L 334.296 389.298 Z M 334.416 386.688 L 335.286 386.688 L 335.286 387.638 L 334.416 387.638 L 334.416 386.688 Z" style="fill: rgb(125, 37, 41);"/><path class="cls-1" d="M 342.076 391.688 L 343.176 391.688 C 343.16 392.246 342.956 392.782 342.596 393.208 C 342.276 393.579 341.805 393.786 341.316 393.768 C 340.745 393.788 340.204 393.512 339.886 393.038 C 339.206 391.77 339.206 390.246 339.886 388.978 C 340.208 388.508 340.746 388.233 341.316 388.248 C 341.774 388.246 342.212 388.434 342.526 388.768 C 342.864 389.101 343.074 389.544 343.116 390.018 L 342.026 390.018 C 342.004 389.814 341.92 389.622 341.786 389.468 C 341.664 389.345 341.498 389.276 341.326 389.278 C 341.054 389.277 340.812 389.45 340.726 389.708 C 340.573 390.106 340.505 390.532 340.526 390.958 C 340.503 391.439 340.571 391.921 340.726 392.378 C 340.808 392.647 341.054 392.833 341.336 392.838 C 341.543 392.841 341.737 392.734 341.846 392.558 C 341.994 392.292 342.073 391.992 342.076 391.688 Z" style="fill: rgb(125, 37, 41);"/><path class="cls-1" d="M 347.146 389.298 L 346.196 389.298 L 346.196 388.398 L 349.196 388.398 L 349.196 389.298 L 348.246 389.298 L 348.246 392.768 L 349.196 392.768 L 349.196 393.678 L 346.196 393.678 L 346.196 392.768 L 347.146 392.768 L 347.146 389.298 Z M 347.276 386.688 L 348.146 386.688 L 348.146 387.638 L 347.276 387.638 L 347.276 386.688 Z" style="fill: rgb(125, 37, 41);"/></g></svg>