<?xml version="1.0" encoding="utf-8"?>
<svg viewBox="431.526 287.198 126.33 119.4753" width="126.33px" height="119.475px" preserveAspectRatio="none" xmlns="http://www.w3.org/2000/svg"><g id="object-14"><path class="cls-1" d="M 469.346 333.008 L 489.746 333.008 L 454.906 370.938 L 491.736 334.118 L 497.876 327.968 L 498.446 327.408 L 480.366 327.408 L 480.366 297.888 C 480.421 296.077 480.229 294.267 479.796 292.508 C 479.466 291.163 478.646 289.989 477.496 289.218 C 476.209 288.489 474.742 288.142 473.266 288.218 L 469.626 288.218" style="fill: rgb(125, 37, 41);"/><path class="cls-1" d="M 517.996 322.178 C 516.367 321.392 514.661 320.778 512.906 320.348 L 543.206 287.348 L 510.686 319.868 L 505.806 324.768 L 500.236 330.338 L 491.736 338.848 L 491.736 364.248 L 496.736 364.248 C 500.049 364.248 502.736 361.561 502.736 358.248 L 502.736 347.248 L 507.416 347.248 C 509.662 347.218 511.897 346.906 514.066 346.318 C 516.659 345.62 519.018 344.239 520.896 342.318 C 523.006 340.228 524.066 337.318 524.066 333.638 C 524.076 327.998 522.036 324.148 517.996 322.178 Z M 510.436 340.028 C 509.016 341.342 507.129 342.034 505.196 341.948 L 502.746 341.948 L 502.746 331.408 L 508.376 325.288 C 509.153 325.611 509.862 326.08 510.466 326.668 C 511.766 327.918 512.466 330.158 512.466 333.318 C 512.466 336.478 511.756 338.768 510.436 340.028 Z" style="fill: rgb(125, 37, 41);"/><polygon class="cls-2" points="450.616 374.768 484.096 348.388 496.626 328.588 450.616 374.768" style="fill: rgb(29, 29, 27);"/><polygon class="cls-2" points="450.616 374.768 484.096 348.388 496.626 328.588 450.616 374.768" style="fill: rgb(29, 29, 27);"/><path class="cls-2" d="M 450.726 374.908 L 450.496 374.648 L 497.626 327.338 L 484.206 348.538 L 450.726 374.908 Z M 495.626 329.848 L 452.816 372.848 L 483.966 348.308 L 495.626 329.848 Z" style="fill: rgb(29, 29, 27);"/><polygon class="cls-3" points="451.336 374.308 477.126 341.248 495.996 328.498 451.336 374.308" style="fill: rgb(255, 255, 255);"/><path d="M 451.456 374.428 L 451.206 374.198 L 477.006 341.128 L 497.306 327.408 L 451.456 374.428 Z M 477.236 341.428 L 453.396 371.988 L 494.696 329.638 L 477.236 341.428 Z"/><polygon class="cls-1" points="542.696 287.348 516.826 320.718 497.426 333.198 542.696 287.348" style="fill: rgb(125, 37, 41);"/><polygon class="cls-1" points="542.696 287.348 516.826 320.718 497.426 333.198 542.696 287.348" style="fill: rgb(125, 37, 41);"/><path class="cls-1" d="M 496.196 334.198 L 542.576 287.198 L 542.836 287.428 L 516.946 320.828 L 496.196 334.198 Z M 540.786 289.538 L 498.656 332.208 L 516.716 320.598 L 540.786 289.538 Z" style="fill: rgb(125, 37, 41);"/><polygon class="cls-3" points="542.506 287.508 506.546 316.958 493.196 337.798 542.506 287.508" style="fill: rgb(255, 255, 255);"/><path d="M 492.036 339.258 L 506.416 316.828 L 542.416 287.378 L 542.696 287.628 L 492.036 339.258 Z M 506.706 317.078 L 494.366 336.338 L 539.956 289.848 L 506.706 317.078 Z"/><path class="cls-1" d="M 444.526 388.398 L 446.346 388.398 C 447.275 388.26 448.073 389.059 447.936 389.988 C 447.946 390.283 447.892 390.576 447.776 390.848 C 447.664 391.081 447.487 391.275 447.266 391.408 C 447.131 391.489 446.981 391.544 446.826 391.568 C 446.551 391.612 446.273 391.629 445.996 391.618 L 445.626 391.618 L 445.626 393.618 L 444.526 393.618 L 444.526 388.398 Z M 446.106 389.398 L 445.626 389.398 L 445.626 390.638 L 446.076 390.638 C 446.277 390.657 446.479 390.604 446.646 390.488 C 446.77 390.365 446.833 390.192 446.816 390.018 C 446.828 389.843 446.771 389.67 446.656 389.538 C 446.501 389.429 446.314 389.376 446.126 389.388 L 446.106 389.398 Z" style="fill: rgb(125, 37, 41);"/><path class="cls-1" d="M 450.956 388.398 L 454.226 388.398 L 454.226 389.398 L 452.046 389.398 L 452.046 390.398 L 454.046 390.398 L 454.046 391.398 L 452.046 391.398 L 452.046 392.608 L 454.286 392.608 L 454.286 393.608 L 450.956 393.608 L 450.956 388.398 Z" style="fill: rgb(125, 37, 41);"/><path class="cls-1" d="M 458.466 389.388 L 457.076 389.388 L 457.076 388.388 L 460.946 388.388 L 460.946 389.388 L 459.526 389.388 L 459.526 393.628 L 458.436 393.628 L 458.466 389.388 Z" style="fill: rgb(125, 37, 41);"/><path class="cls-1" d="M 463.816 388.398 L 467.076 388.398 L 467.076 389.398 L 464.896 389.398 L 464.896 390.398 L 466.896 390.398 L 466.896 391.398 L 464.896 391.398 L 464.896 392.608 L 467.136 392.608 L 467.136 393.608 L 463.816 393.608 L 463.816 388.398 Z" style="fill: rgb(125, 37, 41);"/><path class="cls-1" d="M 470.066 388.398 L 471.156 388.398 L 471.156 390.248 L 472.866 388.398 L 474.256 388.398 L 472.196 390.578 L 474.306 393.628 L 472.986 393.628 L 471.426 391.368 L 471.156 391.658 L 471.156 393.658 L 470.066 393.658 L 470.066 388.398 Z" style="fill: rgb(125, 37, 41);"/><path class="cls-1" d="M 486.976 393.628 L 485.766 393.628 L 485.506 393.288 C 485.361 393.449 485.179 393.573 484.976 393.648 C 484.738 393.731 484.487 393.772 484.236 393.768 C 483.806 393.786 483.386 393.635 483.066 393.348 C 482.568 392.868 482.472 392.106 482.836 391.518 C 483.054 391.242 483.318 391.005 483.616 390.818 C 483.472 390.638 483.36 390.435 483.286 390.218 C 483.214 390.015 483.176 389.802 483.176 389.588 C 483.151 389.213 483.294 388.847 483.566 388.588 C 483.831 388.327 484.194 388.189 484.566 388.208 C 484.932 388.186 485.293 388.312 485.566 388.558 C 485.818 388.795 485.953 389.132 485.936 389.478 C 485.944 389.748 485.875 390.016 485.736 390.248 C 485.551 390.528 485.313 390.769 485.036 390.958 L 485.506 391.588 C 485.542 391.5 485.572 391.41 485.596 391.318 C 485.6 391.241 485.6 391.164 485.596 391.088 L 486.466 391.088 C 486.457 391.33 486.427 391.571 486.376 391.808 C 486.313 392.043 486.225 392.271 486.116 392.488 L 486.976 393.628 Z M 484.976 392.478 L 484.246 391.538 C 484.097 391.632 483.965 391.75 483.856 391.888 C 483.791 391.99 483.757 392.107 483.756 392.228 C 483.751 392.383 483.809 392.534 483.916 392.648 C 484.023 392.758 484.172 392.816 484.326 392.808 C 484.441 392.806 484.555 392.775 484.656 392.718 C 484.759 392.651 484.854 392.57 484.936 392.478 L 484.976 392.478 Z M 484.486 390.298 C 484.651 390.187 484.8 390.052 484.926 389.898 C 485.011 389.789 485.06 389.656 485.066 389.518 C 485.068 389.39 485.017 389.267 484.926 389.178 C 484.844 389.087 484.727 389.036 484.606 389.038 C 484.474 389.034 484.348 389.084 484.256 389.178 C 484.162 389.273 484.111 389.404 484.116 389.538 C 484.118 389.664 484.153 389.788 484.216 389.898 C 484.274 390.041 484.352 390.175 484.446 390.298 L 484.486 390.298 Z" style="fill: rgb(125, 37, 41);"/><path class="cls-1" d="M 499.436 393.628 L 496.076 393.628 L 496.076 388.398 L 497.176 388.398 L 497.176 392.638 L 499.436 392.638 L 499.436 393.628 Z" style="fill: rgb(125, 37, 41);"/><path class="cls-1" d="M 502.376 388.398 L 505.646 388.398 L 505.646 389.398 L 503.456 389.398 L 503.456 390.398 L 505.456 390.398 L 505.456 391.398 L 503.456 391.398 L 503.456 392.608 L 505.696 392.608 L 505.696 393.608 L 502.376 393.608 L 502.376 388.398 Z" style="fill: rgb(125, 37, 41);"/><path class="cls-1" d="M 508.686 388.398 L 510.526 388.398 C 510.931 388.37 511.334 388.483 511.666 388.718 C 511.932 388.943 512.08 389.279 512.066 389.628 C 512.069 389.887 512.004 390.142 511.876 390.368 C 511.757 390.567 511.573 390.719 511.356 390.798 C 511.631 390.857 511.876 391.013 512.046 391.238 C 512.218 391.475 512.307 391.764 512.296 392.058 C 512.313 392.484 512.15 392.898 511.846 393.198 C 511.513 393.492 511.079 393.646 510.636 393.628 L 508.636 393.628 L 508.686 388.398 Z M 509.786 389.398 L 509.786 390.398 L 510.356 390.398 C 510.518 390.413 510.681 390.371 510.816 390.278 C 510.916 390.155 510.963 389.996 510.946 389.838 C 510.954 389.703 510.903 389.571 510.806 389.478 C 510.685 389.388 510.535 389.345 510.386 389.358 L 509.786 389.398 Z M 509.786 391.398 L 509.786 392.608 L 510.526 392.608 C 510.7 392.617 510.872 392.56 511.006 392.448 C 511.123 392.324 511.184 392.158 511.176 391.988 C 511.186 391.823 511.124 391.662 511.006 391.548 C 510.852 391.437 510.664 391.383 510.476 391.398 L 509.786 391.398 Z" style="fill: rgb(125, 37, 41);"/><path class="cls-1" d="M 518.716 393.628 L 515.356 393.628 L 515.356 388.398 L 516.456 388.398 L 516.456 392.638 L 518.716 392.638 L 518.716 393.628 Z" style="fill: rgb(125, 37, 41);"/><path class="cls-1" d="M 521.656 388.398 L 524.926 388.398 L 524.926 389.398 L 522.746 389.398 L 522.746 390.398 L 524.696 390.398 L 524.696 391.398 L 522.746 391.398 L 522.746 392.608 L 524.986 392.608 L 524.986 393.608 L 521.656 393.608 L 521.656 388.398 Z" style="fill: rgb(125, 37, 41);"/><path class="cls-1" d="M 527.966 388.398 L 529.836 388.398 C 530.238 388.371 530.637 388.484 530.966 388.718 C 531.236 388.94 531.385 389.278 531.366 389.628 C 531.374 389.887 531.308 390.144 531.176 390.368 C 531.063 390.572 530.877 390.725 530.656 390.798 C 530.932 390.854 531.178 391.011 531.346 391.238 C 531.518 391.475 531.607 391.764 531.596 392.058 C 531.613 392.484 531.45 392.898 531.146 393.198 C 530.814 393.494 530.38 393.648 529.936 393.628 L 527.936 393.628 L 527.966 388.398 Z M 529.066 389.398 L 529.066 390.398 L 529.636 390.398 C 529.798 390.415 529.962 390.373 530.096 390.278 C 530.196 390.155 530.243 389.996 530.226 389.838 C 530.234 389.703 530.183 389.571 530.086 389.478 C 529.965 389.388 529.815 389.345 529.666 389.358 L 529.066 389.398 Z M 529.066 391.398 L 529.066 392.608 L 529.806 392.608 C 529.983 392.617 530.158 392.56 530.296 392.448 C 530.41 392.323 530.468 392.157 530.456 391.988 C 530.471 391.823 530.408 391.66 530.286 391.548 C 530.132 391.437 529.944 391.383 529.756 391.398 L 529.066 391.398 Z" style="fill: rgb(125, 37, 41);"/><path class="cls-1" d="M 535.586 389.298 L 534.636 389.298 L 534.636 388.398 L 537.636 388.398 L 537.636 389.298 L 536.636 389.298 L 536.636 392.768 L 537.636 392.768 L 537.636 393.678 L 534.636 393.678 L 534.636 392.768 L 535.586 392.768 L 535.586 389.298 Z M 535.706 386.688 L 536.576 386.688 L 536.576 387.638 L 535.706 387.638 L 535.706 386.688 Z" style="fill: rgb(125, 37, 41);"/><path class="cls-1" d="M 543.366 391.688 L 544.466 391.688 C 544.448 392.243 544.248 392.778 543.896 393.208 C 543.571 393.577 543.098 393.783 542.606 393.768 C 542.037 393.791 541.498 393.514 541.186 393.038 C 540.492 391.773 540.492 390.242 541.186 388.978 C 541.502 388.506 542.038 388.231 542.606 388.248 C 543.052 388.24 543.483 388.409 543.806 388.718 C 544.137 389.055 544.341 389.497 544.386 389.968 L 543.296 389.968 C 543.274 389.764 543.19 389.572 543.056 389.418 C 542.935 389.294 542.768 389.225 542.596 389.228 C 542.326 389.233 542.087 389.404 541.996 389.658 C 541.843 390.056 541.775 390.482 541.796 390.908 C 541.773 391.389 541.841 391.871 541.996 392.328 C 542.082 392.599 542.331 392.784 542.616 392.788 C 542.823 392.791 543.017 392.684 543.126 392.508 C 543.274 392.259 543.357 391.977 543.366 391.688 Z" style="fill: rgb(125, 37, 41);"/><path class="cls-1" d="M 548.446 389.298 L 547.446 389.298 L 547.446 388.398 L 550.446 388.398 L 550.446 389.298 L 549.446 389.298 L 549.446 392.768 L 550.446 392.768 L 550.446 393.678 L 547.446 393.678 L 547.446 392.768 L 548.446 392.768 L 548.446 389.298 Z M 548.566 386.688 L 549.436 386.688 L 549.436 387.638 L 548.526 387.638 L 548.566 386.688 Z" style="fill: rgb(125, 37, 41);"/><path class="cls-1" d="M 431.526 399.708 L 432.626 399.708 L 432.626 401.708 L 433.926 401.708 L 433.926 399.708 L 435.016 399.708 L 435.016 404.938 L 433.926 404.938 L 433.926 402.658 L 432.626 402.658 L 432.626 404.938 L 431.526 404.938 L 431.526 399.708 Z" style="fill: rgb(125, 37, 41);"/><path class="cls-1" d="M 437.926 399.708 L 439.026 399.708 L 439.026 402.978 C 439.006 403.272 439.068 403.566 439.206 403.828 C 439.316 404.007 439.516 404.111 439.726 404.098 C 439.94 404.12 440.151 404.024 440.276 403.848 C 440.4 403.575 440.455 403.276 440.436 402.978 L 440.436 399.708 L 441.526 399.708 L 441.526 402.948 C 441.569 403.521 441.41 404.09 441.076 404.558 C 440.726 404.931 440.226 405.126 439.716 405.088 C 439.208 405.126 438.711 404.931 438.366 404.558 C 438.027 404.092 437.868 403.521 437.916 402.948 L 437.926 399.708 Z" style="fill: rgb(125, 37, 41);"/><path class="cls-1" d="M 444.356 399.708 L 445.446 399.708 L 445.446 401.558 L 447.156 399.708 L 448.526 399.708 L 446.526 401.888 L 448.636 404.938 L 447.316 404.938 L 445.756 402.678 L 445.486 402.968 L 445.486 404.968 L 444.396 404.968 L 444.356 399.708 Z" style="fill: rgb(125, 37, 41);"/><path class="cls-1" d="M 450.786 399.708 L 451.886 399.708 L 451.886 402.978 C 451.869 403.271 451.927 403.564 452.056 403.828 C 452.169 404.008 452.373 404.112 452.586 404.098 C 452.797 404.118 453.004 404.022 453.126 403.848 C 453.255 403.577 453.31 403.277 453.286 402.978 L 453.286 399.708 L 454.386 399.708 L 454.386 402.948 C 454.429 403.521 454.27 404.09 453.936 404.558 C 453.17 405.263 451.991 405.263 451.226 404.558 C 450.896 404.089 450.74 403.519 450.786 402.948 L 450.786 399.708 Z" style="fill: rgb(125, 37, 41);"/><path class="cls-1" d="M 457.206 399.708 L 458.296 399.708 L 458.296 401.558 L 460.006 399.708 L 461.406 399.708 L 459.336 401.888 L 461.446 404.938 L 460.136 404.938 L 458.526 402.678 L 458.256 402.968 L 458.256 404.968 L 457.166 404.968 L 457.206 399.708 Z" style="fill: rgb(125, 37, 41);"/><path class="cls-1" d="M 470.036 400.888 L 471.036 400.888 L 471.876 403.808 L 472.686 400.888 L 473.686 400.888 L 472.486 404.938 L 471.236 404.938 L 470.036 400.888 Z" style="fill: rgb(125, 37, 41);"/><path class="cls-1" d="M 478.906 403.858 L 480.036 403.858 C 479.922 404.228 479.695 404.554 479.386 404.788 C 479.067 405.001 478.688 405.106 478.306 405.088 C 477.809 405.104 477.333 404.89 477.016 404.508 C 476.68 404.044 476.514 403.479 476.546 402.908 C 476.515 402.341 476.685 401.782 477.026 401.328 C 477.342 400.939 477.825 400.724 478.326 400.748 C 478.84 400.715 479.34 400.926 479.676 401.318 C 480.015 401.798 480.177 402.381 480.136 402.968 L 480.136 403.148 C 480.136 403.148 480.136 403.218 480.136 403.248 L 477.616 403.248 C 477.619 403.499 477.7 403.743 477.846 403.948 C 477.969 404.109 478.162 404.202 478.366 404.198 C 478.482 404.199 478.596 404.168 478.696 404.108 C 478.787 404.045 478.86 403.959 478.906 403.858 Z M 479.026 402.468 C 479.03 402.245 478.96 402.026 478.826 401.848 C 478.562 401.542 478.089 401.542 477.826 401.848 C 477.69 402.022 477.616 402.237 477.616 402.458 L 479.026 402.468 Z" style="fill: rgb(125, 37, 41);"/><path class="cls-1" d="M 491.136 399.708 C 491.703 399.674 492.251 399.925 492.596 400.378 C 493.248 401.596 493.248 403.06 492.596 404.278 C 492.25 404.728 491.702 404.975 491.136 404.938 L 489.396 404.938 L 489.396 399.708 L 491.136 399.708 Z M 491.136 400.708 L 490.526 400.708 L 490.526 403.988 L 491.156 403.988 C 491.424 404.004 491.674 403.852 491.786 403.608 C 491.938 403.206 492.003 402.776 491.976 402.348 C 491.998 401.93 491.926 401.514 491.766 401.128 C 491.675 400.857 491.421 400.676 491.136 400.678 L 491.136 400.708 Z" style="fill: rgb(125, 37, 41);"/><path class="cls-1" d="M 497.056 399.708 L 498.056 399.708 L 499.826 404.938 L 498.696 404.938 L 498.316 403.738 L 496.706 403.738 L 496.356 404.938 L 495.246 404.938 L 497.056 399.708 Z M 497.566 401.008 L 497.036 402.858 L 498.036 402.858 L 497.566 401.008 Z" style="fill: rgb(125, 37, 41);"/><path class="cls-1" d="M 502.306 399.708 L 503.176 399.708 L 504.746 402.988 L 504.746 399.708 L 505.696 399.708 L 505.696 404.938 L 504.826 404.938 L 503.246 401.678 L 503.246 404.938 L 502.306 404.938 L 502.306 399.708 Z" style="fill: rgb(125, 37, 41);"/><path class="cls-1" d="M 509.876 400.608 L 508.876 400.608 L 508.876 399.708 L 511.876 399.708 L 511.876 400.608 L 510.926 400.608 L 510.926 404.038 L 511.876 404.038 L 511.876 404.938 L 508.876 404.938 L 508.876 404.038 L 509.876 404.038 L 509.876 400.608 Z" style="fill: rgb(125, 37, 41);"/><path class="cls-1" d="M 518.666 401.268 L 517.526 401.268 L 517.526 401.208 C 517.531 401.028 517.462 400.855 517.336 400.728 C 517.21 400.606 517.04 400.541 516.866 400.548 C 516.691 400.537 516.519 400.595 516.386 400.708 C 516.266 400.823 516.201 400.982 516.206 401.148 C 516.194 401.306 516.262 401.459 516.386 401.558 C 516.639 401.709 516.922 401.804 517.216 401.838 C 517.678 401.9 518.116 402.083 518.486 402.368 C 518.726 402.643 518.845 403.003 518.816 403.368 C 518.842 403.85 518.647 404.318 518.286 404.638 C 517.871 404.972 517.347 405.139 516.816 405.108 C 516.307 405.133 515.81 404.953 515.436 404.608 C 515.081 404.241 514.886 403.748 514.896 403.238 L 516.016 403.238 C 516.014 403.475 516.104 403.704 516.266 403.878 C 516.415 404.045 516.631 404.137 516.856 404.128 C 517.072 404.139 517.285 404.071 517.456 403.938 C 517.608 403.809 517.693 403.617 517.686 403.418 C 517.686 403.108 517.326 402.878 516.626 402.718 L 516.426 402.718 C 516.051 402.65 515.705 402.476 515.426 402.218 C 515.198 401.96 515.082 401.621 515.106 401.278 C 515.087 400.831 515.262 400.397 515.586 400.088 C 515.929 399.775 516.381 399.61 516.846 399.628 C 517.346 399.6 517.838 399.76 518.226 400.078 C 518.529 400.397 518.688 400.828 518.666 401.268 Z M 516.016 406.078 C 516.192 406.132 516.373 406.172 516.556 406.198 C 516.689 406.21 516.822 406.21 516.956 406.198 C 517.054 406.207 517.153 406.183 517.236 406.128 C 517.297 406.081 517.331 406.005 517.326 405.928 C 517.329 405.848 517.291 405.773 517.226 405.728 C 517.119 405.68 517.002 405.659 516.886 405.668 L 516.676 405.668 L 516.676 404.888 L 517.056 404.888 L 517.056 405.218 L 517.106 405.218 C 517.336 405.201 517.566 405.264 517.756 405.398 C 517.908 405.53 517.99 405.726 517.976 405.928 C 517.99 406.139 517.9 406.345 517.736 406.478 C 517.518 406.617 517.263 406.683 517.006 406.668 C 516.862 406.675 516.719 406.675 516.576 406.668 L 516.026 406.548 L 516.016 406.078 Z" style="fill: rgb(125, 37, 41);"/><path class="cls-1" d="M 521.356 399.708 L 522.676 399.708 L 523.266 402.938 L 523.856 399.708 L 525.166 399.708 L 525.166 404.938 L 524.276 404.938 L 524.276 400.938 L 524.176 400.938 L 523.456 404.938 L 523.036 404.938 L 522.296 400.938 L 522.216 400.938 L 522.216 404.938 L 521.316 404.938 L 521.356 399.708 Z" style="fill: rgb(125, 37, 41);"/><path class="cls-1" d="M 529.196 399.708 L 530.196 399.708 L 531.956 404.938 L 530.826 404.938 L 530.526 403.768 L 528.916 403.768 L 528.556 404.968 L 527.446 404.968 L 529.196 399.708 Z M 529.706 401.008 L 529.166 402.858 L 530.226 402.858 L 529.706 401.008 Z" style="fill: rgb(125, 37, 41);"/><path class="cls-1" d="M 534.446 399.708 L 535.306 399.708 L 536.886 402.988 L 536.886 399.708 L 537.826 399.708 L 537.826 404.938 L 536.966 404.938 L 535.386 401.678 L 535.386 404.938 L 534.446 404.938 L 534.446 399.708 Z" style="fill: rgb(125, 37, 41);"/><path class="cls-1" d="M 544.426 404.938 L 541.066 404.938 L 541.066 399.708 L 542.166 399.708 L 542.166 403.948 L 544.426 403.948 L 544.426 404.938 Z" style="fill: rgb(125, 37, 41);"/><path class="cls-1" d="M 548.446 400.608 L 547.446 400.608 L 547.446 399.708 L 550.446 399.708 L 550.446 400.608 L 549.446 400.608 L 549.446 404.038 L 550.446 404.038 L 550.446 404.938 L 547.446 404.938 L 547.446 404.038 L 548.446 404.038 L 548.446 400.608 Z" style="fill: rgb(125, 37, 41);"/><path class="cls-1" d="M 553.616 399.708 L 554.706 399.708 L 554.706 401.558 L 556.416 399.708 L 557.816 399.708 L 555.746 401.888 L 557.856 404.938 L 556.526 404.938 L 554.966 402.678 L 554.696 402.968 L 554.696 404.968 L 553.606 404.968 L 553.616 399.708 Z" style="fill: rgb(125, 37, 41);"/></g></svg>